G04 (created by PCBNEW (2012-oct-18)-testing) date Thu 22 Nov 2012 17:08:32 GMT*
%MOIN*%
G04 Gerber Fmt 3.4, Leading zero omitted, Abs format*
%FSLAX34Y34*%
G01*
G70*
G90*
G04 APERTURE LIST*
%ADD10C,2.3622e-06*%
%ADD11C,0.15*%
%ADD12C,0.07*%
%ADD13R,0.07X0.07*%
%ADD14R,0.055X0.055*%
%ADD15C,0.055*%
%ADD16R,0.1X0.1*%
%ADD17C,0.1*%
%ADD18O,0.06X0.1*%
%ADD19C,0.155*%
%ADD20C,0.06*%
%ADD21C,0.19685*%
%ADD22C,0.177165*%
%ADD23C,0.035*%
%ADD24C,0.025*%
%ADD25C,0.01*%
G04 APERTURE END LIST*
G54D10*
G54D11*
X37500Y-34500D03*
X37500Y-32500D03*
X37500Y-28500D03*
X37500Y-26500D03*
X57500Y-26500D03*
X57500Y-28500D03*
X57500Y-32500D03*
X57500Y-34500D03*
G54D12*
X35500Y-31500D03*
G54D13*
X35500Y-26500D03*
G54D14*
X59750Y-26250D03*
G54D15*
X59750Y-29250D03*
G54D12*
X59750Y-31559D03*
X59750Y-32500D03*
G54D13*
X59750Y-33441D03*
G54D14*
X65650Y-35000D03*
G54D15*
X65650Y-34000D03*
X65650Y-33000D03*
X65650Y-32000D03*
X65650Y-31000D03*
X65650Y-30000D03*
X65650Y-29000D03*
X66650Y-29000D03*
X66650Y-30000D03*
X66650Y-31000D03*
X66650Y-32000D03*
X66650Y-33000D03*
X66650Y-34000D03*
X66650Y-35000D03*
G54D16*
X40000Y-26500D03*
G54D17*
X40000Y-32500D03*
X55000Y-32500D03*
X55000Y-26500D03*
G54D14*
X66150Y-26950D03*
G54D15*
X65150Y-26950D03*
X64150Y-26950D03*
X63150Y-26950D03*
X62150Y-26950D03*
G54D18*
X58000Y-24000D03*
X59000Y-24000D03*
X60000Y-24000D03*
X61000Y-24000D03*
X62000Y-24000D03*
X63000Y-24000D03*
X64000Y-24000D03*
X65000Y-24000D03*
X67000Y-43000D03*
X66000Y-43000D03*
X65000Y-43000D03*
X64000Y-43000D03*
X60000Y-43000D03*
X58000Y-43000D03*
X57000Y-43000D03*
X61000Y-43000D03*
X62000Y-43000D03*
X63000Y-43000D03*
X56000Y-43000D03*
X55000Y-43000D03*
X54000Y-43000D03*
X51000Y-43000D03*
X52000Y-43000D03*
X53000Y-43000D03*
X49000Y-43000D03*
X48000Y-43000D03*
X47000Y-43000D03*
X45000Y-43000D03*
X44000Y-43000D03*
X56000Y-24000D03*
X55000Y-24000D03*
X54000Y-24000D03*
X53000Y-24000D03*
X52000Y-24000D03*
X51000Y-24000D03*
X50000Y-24000D03*
X49000Y-24000D03*
X47400Y-24000D03*
X46400Y-24000D03*
X45400Y-24000D03*
X44400Y-24000D03*
X43400Y-24000D03*
X42400Y-24000D03*
X41400Y-24000D03*
X40400Y-24000D03*
X46000Y-43000D03*
G54D19*
X69000Y-43000D03*
X66500Y-24000D03*
X37000Y-24000D03*
X36500Y-43000D03*
G54D20*
X68000Y-25000D03*
X69000Y-25000D03*
X68000Y-26000D03*
X69000Y-26000D03*
X68000Y-27000D03*
X69000Y-27000D03*
X68000Y-28000D03*
X69000Y-28000D03*
X68000Y-24000D03*
X69000Y-24000D03*
X69000Y-29000D03*
X68000Y-29000D03*
X68000Y-30000D03*
X69000Y-30000D03*
X68000Y-31000D03*
X69000Y-31000D03*
X68000Y-32000D03*
X69000Y-32000D03*
X68000Y-33000D03*
X69000Y-33000D03*
X68000Y-34000D03*
X69000Y-34000D03*
X68000Y-35000D03*
X69000Y-35000D03*
X68000Y-36000D03*
X69000Y-36000D03*
X68000Y-37000D03*
X69000Y-37000D03*
X68000Y-38000D03*
X69000Y-38000D03*
X68000Y-39000D03*
X69000Y-39000D03*
X68000Y-40000D03*
X69000Y-40000D03*
X68000Y-41000D03*
X69000Y-41000D03*
G54D21*
X34960Y-35000D03*
G54D22*
X32500Y-35000D03*
X33779Y-36889D03*
G54D23*
X48400Y-41000D03*
X63600Y-36900D03*
X61500Y-36900D03*
X63650Y-28100D03*
X51300Y-38400D03*
X50600Y-35500D03*
X53000Y-42000D03*
X67100Y-36000D03*
X70500Y-41000D03*
X70500Y-38000D03*
X70500Y-35000D03*
X70500Y-32000D03*
X70500Y-29000D03*
X70500Y-26500D03*
X70500Y-24000D03*
X66000Y-38500D03*
X66000Y-37000D03*
X64500Y-37000D03*
X64500Y-38500D03*
X65250Y-39500D03*
X65250Y-40750D03*
X63000Y-41000D03*
X67000Y-41250D03*
X66500Y-28000D03*
X65250Y-28000D03*
X64500Y-30000D03*
X64500Y-32000D03*
X62000Y-29000D03*
X61000Y-27500D03*
X62500Y-31500D03*
X62500Y-30000D03*
X50000Y-27000D03*
X53000Y-27000D03*
X56000Y-30000D03*
X53000Y-30000D03*
X53000Y-33000D03*
X54000Y-35000D03*
X56000Y-36000D03*
X59000Y-36000D03*
X61500Y-34000D03*
X62000Y-36000D03*
X60000Y-38500D03*
X58500Y-40000D03*
X57000Y-38500D03*
X55500Y-40000D03*
X54000Y-38500D03*
X52500Y-37000D03*
X61500Y-40000D03*
X65500Y-43750D03*
X63500Y-43750D03*
X61500Y-43750D03*
X52500Y-43750D03*
X54500Y-43750D03*
X56500Y-43750D03*
X41000Y-27000D03*
X44000Y-27000D03*
X44000Y-30000D03*
X47000Y-30000D03*
X50000Y-33000D03*
X47000Y-33000D03*
X44000Y-33000D03*
X47000Y-35500D03*
X44000Y-36000D03*
X46000Y-39000D03*
X45500Y-43750D03*
X47500Y-43750D03*
X63000Y-23000D03*
X60000Y-23000D03*
X57000Y-23000D03*
X54000Y-23000D03*
X51000Y-23000D03*
X45000Y-23000D03*
X42000Y-23000D03*
X39000Y-24000D03*
X35000Y-24000D03*
X35000Y-30000D03*
X35000Y-33000D03*
X41000Y-30000D03*
X41000Y-33000D03*
X41000Y-36000D03*
X41000Y-39000D03*
X44000Y-42000D03*
X41000Y-42000D03*
X38000Y-42000D03*
X38000Y-39000D03*
X35000Y-39000D03*
X35000Y-42000D03*
X32000Y-42000D03*
X32000Y-39000D03*
X32000Y-24000D03*
X32000Y-27000D03*
X32000Y-30000D03*
X32000Y-33000D03*
G54D24*
X48100Y-42000D02*
X48100Y-41300D01*
X48100Y-41300D02*
X48400Y-41000D01*
X46600Y-42000D02*
X48100Y-42000D01*
X46000Y-42600D02*
X46000Y-43000D01*
X46000Y-42600D02*
X46600Y-42000D01*
G54D25*
X61500Y-36900D02*
X63600Y-36900D01*
X68000Y-30000D02*
X67850Y-30000D01*
X66150Y-34500D02*
X66650Y-35000D01*
X66150Y-30650D02*
X66150Y-34500D01*
X66300Y-30500D02*
X66150Y-30650D01*
X67350Y-30500D02*
X66300Y-30500D01*
X67850Y-30000D02*
X67350Y-30500D01*
X66650Y-32000D02*
X67050Y-32000D01*
X68500Y-30500D02*
X69000Y-30000D01*
X68500Y-31350D02*
X68500Y-30500D01*
X68350Y-31500D02*
X68500Y-31350D01*
X67550Y-31500D02*
X68350Y-31500D01*
X67050Y-32000D02*
X67550Y-31500D01*
X51000Y-24000D02*
X51000Y-24300D01*
X68500Y-31700D02*
X68500Y-32300D01*
X68700Y-31500D02*
X68500Y-31700D01*
X69300Y-31500D02*
X68700Y-31500D01*
X69600Y-31200D02*
X69300Y-31500D01*
X69600Y-29800D02*
X69600Y-31200D01*
X69300Y-29500D02*
X69600Y-29800D01*
X67600Y-29500D02*
X69300Y-29500D01*
X67300Y-29200D02*
X67600Y-29500D01*
X67300Y-27100D02*
X67300Y-29200D01*
X66600Y-26400D02*
X67300Y-27100D01*
X63800Y-26400D02*
X66600Y-26400D01*
X62200Y-24800D02*
X63800Y-26400D01*
X51500Y-24800D02*
X62200Y-24800D01*
X51000Y-24300D02*
X51500Y-24800D01*
X66150Y-35500D02*
X65650Y-35000D01*
X66800Y-35500D02*
X66150Y-35500D01*
X67400Y-34900D02*
X66800Y-35500D01*
X67400Y-32700D02*
X67400Y-34900D01*
X67600Y-32500D02*
X67400Y-32700D01*
X68300Y-32500D02*
X67600Y-32500D01*
X68500Y-32300D02*
X68300Y-32500D01*
X49000Y-24000D02*
X49000Y-24350D01*
X63650Y-26550D02*
X63650Y-28100D01*
X62100Y-25000D02*
X63650Y-26550D01*
X49650Y-25000D02*
X62100Y-25000D01*
X49000Y-24350D02*
X49650Y-25000D01*
X51300Y-36200D02*
X51300Y-38400D01*
X50600Y-35500D02*
X51300Y-36200D01*
X65650Y-33000D02*
X65600Y-33000D01*
X51000Y-42400D02*
X51000Y-43000D01*
X51400Y-42000D02*
X51000Y-42400D01*
X53000Y-42000D02*
X51400Y-42000D01*
X66780Y-35680D02*
X67100Y-36000D01*
X65180Y-35680D02*
X66780Y-35680D01*
X65000Y-35500D02*
X65180Y-35680D01*
X65000Y-33600D02*
X65000Y-35500D01*
X65600Y-33000D02*
X65000Y-33600D01*
X70000Y-42000D02*
X69000Y-43000D01*
X70500Y-42000D02*
X70000Y-42000D01*
X70500Y-41000D02*
X70500Y-42000D01*
X70500Y-35000D02*
X70500Y-38000D01*
X70500Y-29000D02*
X70500Y-32000D01*
X70500Y-24000D02*
X70500Y-26500D01*
X66000Y-37000D02*
X66000Y-38500D01*
X64500Y-38500D02*
X64500Y-37000D01*
X65250Y-40750D02*
X65250Y-39500D01*
X68000Y-41000D02*
X67750Y-41250D01*
X63000Y-41000D02*
X62750Y-41250D01*
X67750Y-41250D02*
X67000Y-41250D01*
G54D24*
X65650Y-32000D02*
X65500Y-32000D01*
X67500Y-41000D02*
X68000Y-41000D01*
X67000Y-40500D02*
X67500Y-41000D01*
X67000Y-37000D02*
X67000Y-40500D01*
X66250Y-36250D02*
X67000Y-37000D01*
X65000Y-36250D02*
X66250Y-36250D01*
X64500Y-35750D02*
X65000Y-36250D01*
X64500Y-33000D02*
X64500Y-35750D01*
X65500Y-32000D02*
X64500Y-33000D01*
G54D25*
X64500Y-28000D02*
X65250Y-28000D01*
X66500Y-28000D02*
X67000Y-28000D01*
G54D24*
X63500Y-29000D02*
X63750Y-29000D01*
X65000Y-31350D02*
X65650Y-32000D01*
X65000Y-29750D02*
X65000Y-31350D01*
X64750Y-29500D02*
X65000Y-29750D01*
X64250Y-29500D02*
X64750Y-29500D01*
X63750Y-29000D02*
X64250Y-29500D01*
X65150Y-26950D02*
X65150Y-27350D01*
X63500Y-29000D02*
X62000Y-29000D01*
X65150Y-27350D02*
X64500Y-28000D01*
X64500Y-28000D02*
X63500Y-29000D01*
G54D25*
X62500Y-31500D02*
X63000Y-31500D01*
X63000Y-31500D02*
X64500Y-30000D01*
X62500Y-31500D02*
X64000Y-31500D01*
X64000Y-31500D02*
X64500Y-32000D01*
X61500Y-34000D02*
X61500Y-32500D01*
X61000Y-27500D02*
X61000Y-27000D01*
X62000Y-29500D02*
X62000Y-29000D01*
X62500Y-30000D02*
X62000Y-29500D01*
X61500Y-32500D02*
X62500Y-31500D01*
X53000Y-27000D02*
X50000Y-27000D01*
X53000Y-30000D02*
X56000Y-30000D01*
X53000Y-34000D02*
X53000Y-33000D01*
X54000Y-35000D02*
X53000Y-34000D01*
X56750Y-36750D02*
X56000Y-36000D01*
X58250Y-36750D02*
X56750Y-36750D01*
X59000Y-36000D02*
X58250Y-36750D01*
X61500Y-35500D02*
X61500Y-34000D01*
X62000Y-36000D02*
X61500Y-35500D01*
X59000Y-43750D02*
X59000Y-41500D01*
X60000Y-38500D02*
X58500Y-40000D01*
X57000Y-38500D02*
X55500Y-40000D01*
X54000Y-38500D02*
X52500Y-37000D01*
X60500Y-40000D02*
X61500Y-40000D01*
X59000Y-41500D02*
X60500Y-40000D01*
X65500Y-43750D02*
X63500Y-43750D01*
X61500Y-43750D02*
X59000Y-43750D01*
X54500Y-43750D02*
X52500Y-43750D01*
X59000Y-43750D02*
X56500Y-43750D01*
X44000Y-42000D02*
X44000Y-41000D01*
X41750Y-27750D02*
X42000Y-27750D01*
X41000Y-27000D02*
X41750Y-27750D01*
X44000Y-30000D02*
X44000Y-27000D01*
X50000Y-33000D02*
X47000Y-30000D01*
X44000Y-33000D02*
X47000Y-33000D01*
X44500Y-35500D02*
X47000Y-35500D01*
X44000Y-36000D02*
X44500Y-35500D01*
X44000Y-41000D02*
X46000Y-39000D01*
X47500Y-43750D02*
X45500Y-43750D01*
X60000Y-23000D02*
X63000Y-23000D01*
X54000Y-23000D02*
X57000Y-23000D01*
X45000Y-23000D02*
X51000Y-23000D01*
X40000Y-23000D02*
X42000Y-23000D01*
X39000Y-24000D02*
X40000Y-23000D01*
X32000Y-33000D02*
X35000Y-33000D01*
X34000Y-25000D02*
X35000Y-24000D01*
X34000Y-29000D02*
X34000Y-25000D01*
X35000Y-30000D02*
X34000Y-29000D01*
X41000Y-33000D02*
X41000Y-30000D01*
X41000Y-39000D02*
X41000Y-36000D01*
X41000Y-42000D02*
X44000Y-42000D01*
X38000Y-39000D02*
X38000Y-42000D01*
X35000Y-42000D02*
X35000Y-39000D01*
X32000Y-39000D02*
X32000Y-42000D01*
X32000Y-27000D02*
X32000Y-24000D01*
X32000Y-33000D02*
X32000Y-30000D01*
G54D24*
X69000Y-41000D02*
X69000Y-43000D01*
G54D10*
G36*
X71260Y-44260D02*
X69977Y-44260D01*
X69977Y-42819D01*
X69850Y-42498D01*
X69850Y-31200D01*
X69849Y-31200D01*
X69850Y-31200D01*
X69850Y-29800D01*
X69849Y-29799D01*
X69850Y-29799D01*
X69846Y-29780D01*
X69830Y-29704D01*
X69830Y-29704D01*
X69776Y-29623D01*
X69776Y-29623D01*
X69476Y-29323D01*
X69421Y-29286D01*
X69423Y-29283D01*
X69499Y-29099D01*
X69500Y-28900D01*
X69500Y-27900D01*
X69500Y-26900D01*
X69500Y-25900D01*
X69500Y-24900D01*
X69500Y-23900D01*
X69424Y-23717D01*
X69283Y-23576D01*
X69099Y-23500D01*
X68900Y-23499D01*
X68717Y-23575D01*
X68576Y-23716D01*
X68500Y-23900D01*
X68500Y-23901D01*
X68500Y-23900D01*
X68424Y-23717D01*
X68283Y-23576D01*
X68099Y-23500D01*
X67900Y-23499D01*
X67717Y-23575D01*
X67576Y-23716D01*
X67500Y-23900D01*
X67499Y-24099D01*
X67575Y-24282D01*
X67716Y-24423D01*
X67900Y-24499D01*
X68099Y-24500D01*
X68282Y-24424D01*
X68423Y-24283D01*
X68499Y-24099D01*
X68500Y-23900D01*
X68500Y-23901D01*
X68499Y-24099D01*
X68575Y-24282D01*
X68716Y-24423D01*
X68900Y-24499D01*
X69099Y-24500D01*
X69282Y-24424D01*
X69423Y-24283D01*
X69499Y-24099D01*
X69500Y-23900D01*
X69500Y-24900D01*
X69424Y-24717D01*
X69283Y-24576D01*
X69099Y-24500D01*
X68900Y-24499D01*
X68717Y-24575D01*
X68576Y-24716D01*
X68500Y-24900D01*
X68500Y-24901D01*
X68500Y-24900D01*
X68424Y-24717D01*
X68283Y-24576D01*
X68099Y-24500D01*
X67900Y-24499D01*
X67717Y-24575D01*
X67576Y-24716D01*
X67500Y-24900D01*
X67499Y-25099D01*
X67575Y-25282D01*
X67716Y-25423D01*
X67900Y-25499D01*
X68099Y-25500D01*
X68282Y-25424D01*
X68423Y-25283D01*
X68499Y-25099D01*
X68500Y-24900D01*
X68500Y-24901D01*
X68499Y-25099D01*
X68575Y-25282D01*
X68716Y-25423D01*
X68900Y-25499D01*
X69099Y-25500D01*
X69282Y-25424D01*
X69423Y-25283D01*
X69499Y-25099D01*
X69500Y-24900D01*
X69500Y-25900D01*
X69424Y-25717D01*
X69283Y-25576D01*
X69099Y-25500D01*
X68900Y-25499D01*
X68717Y-25575D01*
X68576Y-25716D01*
X68500Y-25900D01*
X68500Y-25901D01*
X68500Y-25900D01*
X68424Y-25717D01*
X68283Y-25576D01*
X68099Y-25500D01*
X67900Y-25499D01*
X67717Y-25575D01*
X67576Y-25716D01*
X67500Y-25900D01*
X67499Y-26099D01*
X67575Y-26282D01*
X67716Y-26423D01*
X67900Y-26499D01*
X68099Y-26500D01*
X68282Y-26424D01*
X68423Y-26283D01*
X68499Y-26099D01*
X68500Y-25900D01*
X68500Y-25901D01*
X68499Y-26099D01*
X68575Y-26282D01*
X68716Y-26423D01*
X68900Y-26499D01*
X69099Y-26500D01*
X69282Y-26424D01*
X69423Y-26283D01*
X69499Y-26099D01*
X69500Y-25900D01*
X69500Y-26900D01*
X69424Y-26717D01*
X69283Y-26576D01*
X69099Y-26500D01*
X68900Y-26499D01*
X68717Y-26575D01*
X68576Y-26716D01*
X68500Y-26900D01*
X68499Y-27099D01*
X68575Y-27282D01*
X68716Y-27423D01*
X68900Y-27499D01*
X69099Y-27500D01*
X69282Y-27424D01*
X69423Y-27283D01*
X69499Y-27099D01*
X69500Y-26900D01*
X69500Y-27900D01*
X69424Y-27717D01*
X69283Y-27576D01*
X69099Y-27500D01*
X68900Y-27499D01*
X68717Y-27575D01*
X68576Y-27716D01*
X68500Y-27900D01*
X68499Y-28099D01*
X68575Y-28282D01*
X68716Y-28423D01*
X68900Y-28499D01*
X69099Y-28500D01*
X69282Y-28424D01*
X69423Y-28283D01*
X69499Y-28099D01*
X69500Y-27900D01*
X69500Y-28900D01*
X69424Y-28717D01*
X69283Y-28576D01*
X69099Y-28500D01*
X68900Y-28499D01*
X68717Y-28575D01*
X68576Y-28716D01*
X68500Y-28900D01*
X68499Y-29099D01*
X68562Y-29250D01*
X68437Y-29250D01*
X68499Y-29099D01*
X68500Y-28900D01*
X68424Y-28717D01*
X68283Y-28576D01*
X68099Y-28500D01*
X67900Y-28499D01*
X67717Y-28575D01*
X67576Y-28716D01*
X67550Y-28779D01*
X67550Y-28220D01*
X67575Y-28282D01*
X67716Y-28423D01*
X67900Y-28499D01*
X68099Y-28500D01*
X68282Y-28424D01*
X68423Y-28283D01*
X68499Y-28099D01*
X68500Y-27900D01*
X68424Y-27717D01*
X68283Y-27576D01*
X68099Y-27500D01*
X67900Y-27499D01*
X67717Y-27575D01*
X67576Y-27716D01*
X67550Y-27779D01*
X67550Y-27220D01*
X67575Y-27282D01*
X67716Y-27423D01*
X67900Y-27499D01*
X68099Y-27500D01*
X68282Y-27424D01*
X68423Y-27283D01*
X68499Y-27099D01*
X68500Y-26900D01*
X68424Y-26717D01*
X68283Y-26576D01*
X68099Y-26500D01*
X67900Y-26499D01*
X67717Y-26575D01*
X67576Y-26716D01*
X67500Y-26900D01*
X67500Y-26958D01*
X67477Y-26924D01*
X67477Y-23819D01*
X67334Y-23459D01*
X67318Y-23436D01*
X67185Y-23350D01*
X67149Y-23385D01*
X67149Y-23314D01*
X67063Y-23181D01*
X66707Y-23027D01*
X66319Y-23022D01*
X65959Y-23165D01*
X65936Y-23181D01*
X65850Y-23314D01*
X66500Y-23964D01*
X67149Y-23314D01*
X67149Y-23385D01*
X66535Y-24000D01*
X67185Y-24649D01*
X67318Y-24563D01*
X67472Y-24207D01*
X67477Y-23819D01*
X67477Y-26924D01*
X67476Y-26923D01*
X67476Y-26923D01*
X67149Y-26596D01*
X67149Y-24685D01*
X66500Y-24035D01*
X66464Y-24070D01*
X66464Y-24000D01*
X65814Y-23350D01*
X65681Y-23436D01*
X65527Y-23792D01*
X65522Y-24180D01*
X65665Y-24540D01*
X65681Y-24563D01*
X65814Y-24649D01*
X66464Y-24000D01*
X66464Y-24070D01*
X65850Y-24685D01*
X65936Y-24818D01*
X66292Y-24972D01*
X66680Y-24977D01*
X67040Y-24834D01*
X67063Y-24818D01*
X67149Y-24685D01*
X67149Y-26596D01*
X66776Y-26223D01*
X66695Y-26169D01*
X66600Y-26150D01*
X63903Y-26150D01*
X62376Y-24623D01*
X62323Y-24587D01*
X62353Y-24567D01*
X62461Y-24405D01*
X62500Y-24213D01*
X62538Y-24405D01*
X62646Y-24567D01*
X62808Y-24675D01*
X63000Y-24713D01*
X63191Y-24675D01*
X63353Y-24567D01*
X63461Y-24405D01*
X63500Y-24213D01*
X63538Y-24405D01*
X63646Y-24567D01*
X63808Y-24675D01*
X64000Y-24713D01*
X64191Y-24675D01*
X64353Y-24567D01*
X64461Y-24405D01*
X64500Y-24213D01*
X64538Y-24405D01*
X64646Y-24567D01*
X64808Y-24675D01*
X65000Y-24713D01*
X65191Y-24675D01*
X65353Y-24567D01*
X65461Y-24405D01*
X65500Y-24213D01*
X65500Y-23786D01*
X65461Y-23594D01*
X65353Y-23432D01*
X65191Y-23324D01*
X65000Y-23286D01*
X64808Y-23324D01*
X64646Y-23432D01*
X64538Y-23594D01*
X64500Y-23786D01*
X64461Y-23594D01*
X64353Y-23432D01*
X64191Y-23324D01*
X64000Y-23286D01*
X63808Y-23324D01*
X63646Y-23432D01*
X63538Y-23594D01*
X63500Y-23786D01*
X63461Y-23594D01*
X63353Y-23432D01*
X63191Y-23324D01*
X63000Y-23286D01*
X62808Y-23324D01*
X62646Y-23432D01*
X62538Y-23594D01*
X62500Y-23786D01*
X62461Y-23594D01*
X62353Y-23432D01*
X62191Y-23324D01*
X62000Y-23286D01*
X61808Y-23324D01*
X61646Y-23432D01*
X61538Y-23594D01*
X61500Y-23786D01*
X61461Y-23594D01*
X61353Y-23432D01*
X61191Y-23324D01*
X61000Y-23286D01*
X60808Y-23324D01*
X60646Y-23432D01*
X60538Y-23594D01*
X60500Y-23786D01*
X60461Y-23594D01*
X60353Y-23432D01*
X60191Y-23324D01*
X60000Y-23286D01*
X59808Y-23324D01*
X59646Y-23432D01*
X59538Y-23594D01*
X59500Y-23786D01*
X59461Y-23594D01*
X59353Y-23432D01*
X59191Y-23324D01*
X59000Y-23286D01*
X58808Y-23324D01*
X58646Y-23432D01*
X58538Y-23594D01*
X58500Y-23786D01*
X58461Y-23594D01*
X58353Y-23432D01*
X58191Y-23324D01*
X58000Y-23286D01*
X57808Y-23324D01*
X57646Y-23432D01*
X57538Y-23594D01*
X57500Y-23786D01*
X57500Y-24213D01*
X57538Y-24405D01*
X57634Y-24550D01*
X56365Y-24550D01*
X56461Y-24405D01*
X56500Y-24213D01*
X56500Y-23786D01*
X56461Y-23594D01*
X56353Y-23432D01*
X56191Y-23324D01*
X56000Y-23286D01*
X55808Y-23324D01*
X55646Y-23432D01*
X55538Y-23594D01*
X55500Y-23786D01*
X55461Y-23594D01*
X55353Y-23432D01*
X55191Y-23324D01*
X55000Y-23286D01*
X54808Y-23324D01*
X54646Y-23432D01*
X54538Y-23594D01*
X54500Y-23786D01*
X54461Y-23594D01*
X54353Y-23432D01*
X54191Y-23324D01*
X54000Y-23286D01*
X53808Y-23324D01*
X53646Y-23432D01*
X53538Y-23594D01*
X53500Y-23786D01*
X53461Y-23594D01*
X53353Y-23432D01*
X53191Y-23324D01*
X53000Y-23286D01*
X52808Y-23324D01*
X52646Y-23432D01*
X52538Y-23594D01*
X52500Y-23786D01*
X52461Y-23594D01*
X52353Y-23432D01*
X52191Y-23324D01*
X52000Y-23286D01*
X51808Y-23324D01*
X51646Y-23432D01*
X51538Y-23594D01*
X51500Y-23786D01*
X51461Y-23594D01*
X51353Y-23432D01*
X51191Y-23324D01*
X51000Y-23286D01*
X50808Y-23324D01*
X50646Y-23432D01*
X50538Y-23594D01*
X50500Y-23786D01*
X50461Y-23594D01*
X50353Y-23432D01*
X50191Y-23324D01*
X50000Y-23286D01*
X49808Y-23324D01*
X49646Y-23432D01*
X49538Y-23594D01*
X49500Y-23786D01*
X49461Y-23594D01*
X49353Y-23432D01*
X49191Y-23324D01*
X49000Y-23286D01*
X48808Y-23324D01*
X48646Y-23432D01*
X48538Y-23594D01*
X48500Y-23786D01*
X48500Y-24213D01*
X48538Y-24405D01*
X48646Y-24567D01*
X48808Y-24675D01*
X49000Y-24713D01*
X49008Y-24712D01*
X49473Y-25176D01*
X49473Y-25176D01*
X49554Y-25230D01*
X49554Y-25230D01*
X49650Y-25250D01*
X61996Y-25250D01*
X63221Y-26475D01*
X63055Y-26474D01*
X62881Y-26547D01*
X62747Y-26680D01*
X62675Y-26855D01*
X62674Y-27044D01*
X62747Y-27218D01*
X62880Y-27352D01*
X63055Y-27424D01*
X63244Y-27425D01*
X63400Y-27360D01*
X63400Y-27819D01*
X63332Y-27887D01*
X63275Y-28025D01*
X63274Y-28174D01*
X63331Y-28312D01*
X63437Y-28417D01*
X63575Y-28474D01*
X63724Y-28475D01*
X63862Y-28418D01*
X63967Y-28312D01*
X64024Y-28174D01*
X64025Y-28025D01*
X63968Y-27887D01*
X63900Y-27819D01*
X63900Y-27360D01*
X64055Y-27424D01*
X64244Y-27425D01*
X64418Y-27352D01*
X64552Y-27219D01*
X64624Y-27044D01*
X64625Y-26855D01*
X64552Y-26681D01*
X64521Y-26650D01*
X64766Y-26650D01*
X64755Y-26661D01*
X64771Y-26677D01*
X64744Y-26685D01*
X64673Y-26861D01*
X64676Y-27050D01*
X64744Y-27214D01*
X64825Y-27238D01*
X65079Y-26985D01*
X65079Y-26985D01*
X65114Y-26950D01*
X65114Y-26950D01*
X65150Y-26914D01*
X65220Y-26985D01*
X65474Y-27238D01*
X65555Y-27214D01*
X65626Y-27038D01*
X65623Y-26849D01*
X65555Y-26685D01*
X65528Y-26677D01*
X65544Y-26661D01*
X65533Y-26650D01*
X65675Y-26650D01*
X65674Y-26714D01*
X65675Y-26875D01*
X65725Y-26925D01*
X66075Y-26925D01*
X66125Y-26925D01*
X66175Y-26925D01*
X66225Y-26925D01*
X66575Y-26925D01*
X66625Y-26875D01*
X66625Y-26778D01*
X67050Y-27203D01*
X67050Y-28728D01*
X66919Y-28597D01*
X66744Y-28525D01*
X66625Y-28524D01*
X66625Y-27185D01*
X66625Y-27025D01*
X66575Y-26975D01*
X66175Y-26975D01*
X66175Y-27375D01*
X66225Y-27425D01*
X66464Y-27425D01*
X66538Y-27394D01*
X66594Y-27338D01*
X66624Y-27264D01*
X66625Y-27185D01*
X66625Y-28524D01*
X66555Y-28524D01*
X66381Y-28597D01*
X66247Y-28730D01*
X66175Y-28905D01*
X66174Y-29094D01*
X66247Y-29268D01*
X66380Y-29402D01*
X66555Y-29474D01*
X66744Y-29475D01*
X66918Y-29402D01*
X67052Y-29269D01*
X67060Y-29250D01*
X67069Y-29295D01*
X67123Y-29376D01*
X67423Y-29676D01*
X67423Y-29676D01*
X67504Y-29730D01*
X67504Y-29730D01*
X67565Y-29743D01*
X67500Y-29900D01*
X67500Y-29996D01*
X67246Y-30250D01*
X67060Y-30250D01*
X67124Y-30094D01*
X67125Y-29905D01*
X67052Y-29731D01*
X66919Y-29597D01*
X66744Y-29525D01*
X66555Y-29524D01*
X66381Y-29597D01*
X66247Y-29730D01*
X66175Y-29905D01*
X66174Y-30094D01*
X66243Y-30261D01*
X66204Y-30269D01*
X66125Y-30321D01*
X66125Y-29905D01*
X66125Y-28905D01*
X66125Y-28905D01*
X66125Y-27375D01*
X66125Y-26975D01*
X65725Y-26975D01*
X65675Y-27025D01*
X65674Y-27185D01*
X65675Y-27264D01*
X65705Y-27338D01*
X65761Y-27394D01*
X65835Y-27425D01*
X66075Y-27425D01*
X66125Y-27375D01*
X66125Y-28905D01*
X66052Y-28731D01*
X65919Y-28597D01*
X65744Y-28525D01*
X65626Y-28524D01*
X65555Y-28524D01*
X65438Y-28573D01*
X65438Y-27274D01*
X65150Y-26985D01*
X65114Y-27020D01*
X64861Y-27274D01*
X64885Y-27355D01*
X65061Y-27426D01*
X65250Y-27423D01*
X65414Y-27355D01*
X65438Y-27274D01*
X65438Y-28573D01*
X65381Y-28597D01*
X65247Y-28730D01*
X65175Y-28905D01*
X65174Y-29094D01*
X65247Y-29268D01*
X65380Y-29402D01*
X65555Y-29474D01*
X65744Y-29475D01*
X65918Y-29402D01*
X66052Y-29269D01*
X66124Y-29094D01*
X66125Y-28905D01*
X66125Y-29905D01*
X66052Y-29731D01*
X65919Y-29597D01*
X65744Y-29525D01*
X65555Y-29524D01*
X65381Y-29597D01*
X65247Y-29730D01*
X65175Y-29905D01*
X65174Y-30094D01*
X65247Y-30268D01*
X65380Y-30402D01*
X65555Y-30474D01*
X65744Y-30475D01*
X65918Y-30402D01*
X66052Y-30269D01*
X66124Y-30094D01*
X66125Y-29905D01*
X66125Y-30321D01*
X66123Y-30323D01*
X65973Y-30473D01*
X65919Y-30554D01*
X65911Y-30594D01*
X65744Y-30525D01*
X65555Y-30524D01*
X65381Y-30597D01*
X65247Y-30730D01*
X65175Y-30905D01*
X65174Y-31094D01*
X65247Y-31268D01*
X65380Y-31402D01*
X65555Y-31474D01*
X65744Y-31475D01*
X65900Y-31410D01*
X65900Y-31588D01*
X65738Y-31523D01*
X65549Y-31526D01*
X65385Y-31594D01*
X65361Y-31675D01*
X65614Y-31929D01*
X65614Y-31929D01*
X65685Y-32000D01*
X65614Y-32070D01*
X65614Y-32000D01*
X65325Y-31711D01*
X65244Y-31735D01*
X65173Y-31911D01*
X65176Y-32100D01*
X65244Y-32264D01*
X65325Y-32288D01*
X65614Y-32000D01*
X65614Y-32070D01*
X65361Y-32324D01*
X65385Y-32405D01*
X65561Y-32476D01*
X65750Y-32473D01*
X65900Y-32411D01*
X65900Y-32589D01*
X65744Y-32525D01*
X65555Y-32524D01*
X65381Y-32597D01*
X65247Y-32730D01*
X65175Y-32905D01*
X65174Y-33071D01*
X64823Y-33423D01*
X64769Y-33504D01*
X64750Y-33600D01*
X64750Y-35500D01*
X64769Y-35595D01*
X64823Y-35676D01*
X65003Y-35856D01*
X65084Y-35910D01*
X65084Y-35910D01*
X65180Y-35930D01*
X66676Y-35930D01*
X66725Y-35978D01*
X66724Y-36074D01*
X66781Y-36212D01*
X66887Y-36317D01*
X67025Y-36374D01*
X67174Y-36375D01*
X67312Y-36318D01*
X67417Y-36212D01*
X67474Y-36074D01*
X67475Y-35925D01*
X67418Y-35787D01*
X67312Y-35682D01*
X67174Y-35625D01*
X67078Y-35624D01*
X67053Y-35600D01*
X67515Y-35137D01*
X67575Y-35282D01*
X67716Y-35423D01*
X67900Y-35499D01*
X68099Y-35500D01*
X68282Y-35424D01*
X68423Y-35283D01*
X68499Y-35099D01*
X68500Y-34900D01*
X68424Y-34717D01*
X68283Y-34576D01*
X68099Y-34500D01*
X67900Y-34499D01*
X67717Y-34575D01*
X67650Y-34642D01*
X67650Y-34357D01*
X67716Y-34423D01*
X67900Y-34499D01*
X68099Y-34500D01*
X68282Y-34424D01*
X68423Y-34283D01*
X68499Y-34099D01*
X68500Y-33900D01*
X68424Y-33717D01*
X68283Y-33576D01*
X68099Y-33500D01*
X67900Y-33499D01*
X67717Y-33575D01*
X67650Y-33642D01*
X67650Y-33357D01*
X67716Y-33423D01*
X67900Y-33499D01*
X68099Y-33500D01*
X68282Y-33424D01*
X68423Y-33283D01*
X68499Y-33099D01*
X68500Y-32900D01*
X68424Y-32717D01*
X68421Y-32714D01*
X68476Y-32676D01*
X68676Y-32476D01*
X68676Y-32476D01*
X68676Y-32476D01*
X68709Y-32428D01*
X68713Y-32421D01*
X68716Y-32423D01*
X68900Y-32499D01*
X69099Y-32500D01*
X69282Y-32424D01*
X69423Y-32283D01*
X69499Y-32099D01*
X69500Y-31900D01*
X69424Y-31717D01*
X69421Y-31714D01*
X69476Y-31676D01*
X69776Y-31376D01*
X69776Y-31376D01*
X69776Y-31376D01*
X69830Y-31295D01*
X69830Y-31295D01*
X69846Y-31219D01*
X69850Y-31200D01*
X69850Y-42498D01*
X69834Y-42459D01*
X69818Y-42436D01*
X69685Y-42350D01*
X69649Y-42385D01*
X69649Y-42314D01*
X69563Y-42181D01*
X69500Y-42154D01*
X69500Y-41094D01*
X69500Y-41006D01*
X69500Y-39900D01*
X69500Y-38900D01*
X69500Y-37900D01*
X69500Y-36900D01*
X69500Y-35900D01*
X69500Y-34900D01*
X69500Y-33900D01*
X69500Y-32900D01*
X69424Y-32717D01*
X69283Y-32576D01*
X69099Y-32500D01*
X68900Y-32499D01*
X68717Y-32575D01*
X68576Y-32716D01*
X68500Y-32900D01*
X68499Y-33099D01*
X68575Y-33282D01*
X68716Y-33423D01*
X68900Y-33499D01*
X69099Y-33500D01*
X69282Y-33424D01*
X69423Y-33283D01*
X69499Y-33099D01*
X69500Y-32900D01*
X69500Y-33900D01*
X69424Y-33717D01*
X69283Y-33576D01*
X69099Y-33500D01*
X68900Y-33499D01*
X68717Y-33575D01*
X68576Y-33716D01*
X68500Y-33900D01*
X68499Y-34099D01*
X68575Y-34282D01*
X68716Y-34423D01*
X68900Y-34499D01*
X69099Y-34500D01*
X69282Y-34424D01*
X69423Y-34283D01*
X69499Y-34099D01*
X69500Y-33900D01*
X69500Y-34900D01*
X69424Y-34717D01*
X69283Y-34576D01*
X69099Y-34500D01*
X68900Y-34499D01*
X68717Y-34575D01*
X68576Y-34716D01*
X68500Y-34900D01*
X68499Y-35099D01*
X68575Y-35282D01*
X68716Y-35423D01*
X68900Y-35499D01*
X69099Y-35500D01*
X69282Y-35424D01*
X69423Y-35283D01*
X69499Y-35099D01*
X69500Y-34900D01*
X69500Y-35900D01*
X69424Y-35717D01*
X69283Y-35576D01*
X69099Y-35500D01*
X68900Y-35499D01*
X68717Y-35575D01*
X68576Y-35716D01*
X68500Y-35900D01*
X68500Y-35901D01*
X68500Y-35900D01*
X68424Y-35717D01*
X68283Y-35576D01*
X68099Y-35500D01*
X67900Y-35499D01*
X67717Y-35575D01*
X67576Y-35716D01*
X67500Y-35900D01*
X67499Y-36099D01*
X67575Y-36282D01*
X67716Y-36423D01*
X67900Y-36499D01*
X68099Y-36500D01*
X68282Y-36424D01*
X68423Y-36283D01*
X68499Y-36099D01*
X68500Y-35900D01*
X68500Y-35901D01*
X68499Y-36099D01*
X68575Y-36282D01*
X68716Y-36423D01*
X68900Y-36499D01*
X69099Y-36500D01*
X69282Y-36424D01*
X69423Y-36283D01*
X69499Y-36099D01*
X69500Y-35900D01*
X69500Y-36900D01*
X69424Y-36717D01*
X69283Y-36576D01*
X69099Y-36500D01*
X68900Y-36499D01*
X68717Y-36575D01*
X68576Y-36716D01*
X68500Y-36900D01*
X68500Y-36901D01*
X68500Y-36900D01*
X68424Y-36717D01*
X68283Y-36576D01*
X68099Y-36500D01*
X67900Y-36499D01*
X67717Y-36575D01*
X67576Y-36716D01*
X67500Y-36900D01*
X67499Y-37099D01*
X67575Y-37282D01*
X67716Y-37423D01*
X67900Y-37499D01*
X68099Y-37500D01*
X68282Y-37424D01*
X68423Y-37283D01*
X68499Y-37099D01*
X68500Y-36900D01*
X68500Y-36901D01*
X68499Y-37099D01*
X68575Y-37282D01*
X68716Y-37423D01*
X68900Y-37499D01*
X69099Y-37500D01*
X69282Y-37424D01*
X69423Y-37283D01*
X69499Y-37099D01*
X69500Y-36900D01*
X69500Y-37900D01*
X69424Y-37717D01*
X69283Y-37576D01*
X69099Y-37500D01*
X68900Y-37499D01*
X68717Y-37575D01*
X68576Y-37716D01*
X68500Y-37900D01*
X68500Y-37901D01*
X68500Y-37900D01*
X68424Y-37717D01*
X68283Y-37576D01*
X68099Y-37500D01*
X67900Y-37499D01*
X67717Y-37575D01*
X67576Y-37716D01*
X67500Y-37900D01*
X67499Y-38099D01*
X67575Y-38282D01*
X67716Y-38423D01*
X67900Y-38499D01*
X68099Y-38500D01*
X68282Y-38424D01*
X68423Y-38283D01*
X68499Y-38099D01*
X68500Y-37900D01*
X68500Y-37901D01*
X68499Y-38099D01*
X68575Y-38282D01*
X68716Y-38423D01*
X68900Y-38499D01*
X69099Y-38500D01*
X69282Y-38424D01*
X69423Y-38283D01*
X69499Y-38099D01*
X69500Y-37900D01*
X69500Y-38900D01*
X69424Y-38717D01*
X69283Y-38576D01*
X69099Y-38500D01*
X68900Y-38499D01*
X68717Y-38575D01*
X68576Y-38716D01*
X68500Y-38900D01*
X68500Y-38901D01*
X68500Y-38900D01*
X68424Y-38717D01*
X68283Y-38576D01*
X68099Y-38500D01*
X67900Y-38499D01*
X67717Y-38575D01*
X67576Y-38716D01*
X67500Y-38900D01*
X67499Y-39099D01*
X67575Y-39282D01*
X67716Y-39423D01*
X67900Y-39499D01*
X68099Y-39500D01*
X68282Y-39424D01*
X68423Y-39283D01*
X68499Y-39099D01*
X68500Y-38900D01*
X68500Y-38901D01*
X68499Y-39099D01*
X68575Y-39282D01*
X68716Y-39423D01*
X68900Y-39499D01*
X69099Y-39500D01*
X69282Y-39424D01*
X69423Y-39283D01*
X69499Y-39099D01*
X69500Y-38900D01*
X69500Y-39900D01*
X69424Y-39717D01*
X69283Y-39576D01*
X69099Y-39500D01*
X68900Y-39499D01*
X68717Y-39575D01*
X68576Y-39716D01*
X68500Y-39900D01*
X68500Y-39901D01*
X68500Y-39900D01*
X68424Y-39717D01*
X68283Y-39576D01*
X68099Y-39500D01*
X67900Y-39499D01*
X67717Y-39575D01*
X67576Y-39716D01*
X67500Y-39900D01*
X67499Y-40099D01*
X67575Y-40282D01*
X67716Y-40423D01*
X67900Y-40499D01*
X67997Y-40499D01*
X67895Y-40500D01*
X67720Y-40573D01*
X67693Y-40657D01*
X68000Y-40964D01*
X68306Y-40657D01*
X68279Y-40573D01*
X68097Y-40500D01*
X68099Y-40500D01*
X68282Y-40424D01*
X68423Y-40283D01*
X68499Y-40099D01*
X68500Y-39900D01*
X68500Y-39901D01*
X68499Y-40099D01*
X68575Y-40282D01*
X68716Y-40423D01*
X68900Y-40499D01*
X68997Y-40499D01*
X68895Y-40500D01*
X68720Y-40573D01*
X68693Y-40657D01*
X69000Y-40964D01*
X69306Y-40657D01*
X69279Y-40573D01*
X69097Y-40500D01*
X69099Y-40500D01*
X69282Y-40424D01*
X69423Y-40283D01*
X69499Y-40099D01*
X69500Y-39900D01*
X69500Y-41006D01*
X69499Y-40895D01*
X69426Y-40720D01*
X69342Y-40693D01*
X69035Y-41000D01*
X69342Y-41306D01*
X69426Y-41279D01*
X69500Y-41094D01*
X69500Y-42154D01*
X69306Y-42070D01*
X69306Y-41342D01*
X69000Y-41035D01*
X68964Y-41070D01*
X68964Y-41000D01*
X68657Y-40693D01*
X68573Y-40720D01*
X68499Y-40905D01*
X68499Y-40895D01*
X68426Y-40720D01*
X68342Y-40693D01*
X68035Y-41000D01*
X68342Y-41306D01*
X68426Y-41279D01*
X68500Y-41094D01*
X68500Y-41104D01*
X68573Y-41279D01*
X68657Y-41306D01*
X68964Y-41000D01*
X68964Y-41070D01*
X68693Y-41342D01*
X68720Y-41426D01*
X68905Y-41500D01*
X69104Y-41499D01*
X69279Y-41426D01*
X69306Y-41342D01*
X69306Y-42070D01*
X69207Y-42027D01*
X68819Y-42022D01*
X68459Y-42165D01*
X68436Y-42181D01*
X68350Y-42314D01*
X69000Y-42964D01*
X69649Y-42314D01*
X69649Y-42385D01*
X69035Y-43000D01*
X69685Y-43649D01*
X69818Y-43563D01*
X69972Y-43207D01*
X69977Y-42819D01*
X69977Y-44260D01*
X69649Y-44260D01*
X69649Y-43685D01*
X69000Y-43035D01*
X68964Y-43070D01*
X68964Y-43000D01*
X68314Y-42350D01*
X68306Y-42355D01*
X68306Y-41342D01*
X68000Y-41035D01*
X67964Y-41070D01*
X67964Y-41000D01*
X67657Y-40693D01*
X67573Y-40720D01*
X67499Y-40905D01*
X67500Y-41104D01*
X67573Y-41279D01*
X67657Y-41306D01*
X67964Y-41000D01*
X67964Y-41070D01*
X67693Y-41342D01*
X67720Y-41426D01*
X67905Y-41500D01*
X68104Y-41499D01*
X68279Y-41426D01*
X68306Y-41342D01*
X68306Y-42355D01*
X68181Y-42436D01*
X68027Y-42792D01*
X68022Y-43180D01*
X68165Y-43540D01*
X68181Y-43563D01*
X68314Y-43649D01*
X68964Y-43000D01*
X68964Y-43070D01*
X68350Y-43685D01*
X68436Y-43818D01*
X68792Y-43972D01*
X69180Y-43977D01*
X69540Y-43834D01*
X69563Y-43818D01*
X69649Y-43685D01*
X69649Y-44260D01*
X67500Y-44260D01*
X67500Y-43213D01*
X67500Y-42786D01*
X67461Y-42594D01*
X67353Y-42432D01*
X67191Y-42324D01*
X67000Y-42286D01*
X66808Y-42324D01*
X66646Y-42432D01*
X66538Y-42594D01*
X66500Y-42786D01*
X66461Y-42594D01*
X66353Y-42432D01*
X66191Y-42324D01*
X66000Y-42286D01*
X65808Y-42324D01*
X65646Y-42432D01*
X65538Y-42594D01*
X65500Y-42786D01*
X65461Y-42594D01*
X65353Y-42432D01*
X65191Y-42324D01*
X65000Y-42286D01*
X64808Y-42324D01*
X64646Y-42432D01*
X64538Y-42594D01*
X64500Y-42786D01*
X64461Y-42594D01*
X64353Y-42432D01*
X64191Y-42324D01*
X64000Y-42286D01*
X63975Y-42291D01*
X63975Y-36825D01*
X63918Y-36687D01*
X63812Y-36582D01*
X63674Y-36525D01*
X63525Y-36524D01*
X63387Y-36581D01*
X63319Y-36650D01*
X62625Y-36650D01*
X62625Y-26855D01*
X62552Y-26681D01*
X62419Y-26547D01*
X62244Y-26475D01*
X62055Y-26474D01*
X61881Y-26547D01*
X61747Y-26680D01*
X61675Y-26855D01*
X61674Y-27044D01*
X61747Y-27218D01*
X61880Y-27352D01*
X62055Y-27424D01*
X62244Y-27425D01*
X62418Y-27352D01*
X62552Y-27219D01*
X62624Y-27044D01*
X62625Y-26855D01*
X62625Y-36650D01*
X61780Y-36650D01*
X61712Y-36582D01*
X61574Y-36525D01*
X61425Y-36524D01*
X61287Y-36581D01*
X61182Y-36687D01*
X61125Y-36825D01*
X61124Y-36974D01*
X61181Y-37112D01*
X61287Y-37217D01*
X61425Y-37274D01*
X61574Y-37275D01*
X61712Y-37218D01*
X61780Y-37150D01*
X63319Y-37150D01*
X63387Y-37217D01*
X63525Y-37274D01*
X63674Y-37275D01*
X63812Y-37218D01*
X63917Y-37112D01*
X63974Y-36974D01*
X63975Y-36825D01*
X63975Y-42291D01*
X63808Y-42324D01*
X63646Y-42432D01*
X63538Y-42594D01*
X63500Y-42786D01*
X63461Y-42594D01*
X63353Y-42432D01*
X63191Y-42324D01*
X63000Y-42286D01*
X62808Y-42324D01*
X62646Y-42432D01*
X62538Y-42594D01*
X62500Y-42786D01*
X62461Y-42594D01*
X62353Y-42432D01*
X62191Y-42324D01*
X62000Y-42286D01*
X61808Y-42324D01*
X61646Y-42432D01*
X61538Y-42594D01*
X61500Y-42786D01*
X61461Y-42594D01*
X61353Y-42432D01*
X61191Y-42324D01*
X61000Y-42286D01*
X60808Y-42324D01*
X60646Y-42432D01*
X60538Y-42594D01*
X60500Y-42786D01*
X60461Y-42594D01*
X60353Y-42432D01*
X60300Y-42397D01*
X60300Y-32391D01*
X60216Y-32188D01*
X60061Y-32034D01*
X60051Y-32029D01*
X60061Y-32025D01*
X60215Y-31870D01*
X60299Y-31668D01*
X60300Y-31450D01*
X60225Y-31268D01*
X60225Y-29155D01*
X60225Y-29155D01*
X60225Y-26485D01*
X60225Y-25935D01*
X60194Y-25861D01*
X60138Y-25805D01*
X60064Y-25775D01*
X59985Y-25774D01*
X59435Y-25774D01*
X59361Y-25805D01*
X59305Y-25861D01*
X59275Y-25935D01*
X59274Y-26014D01*
X59274Y-26564D01*
X59305Y-26638D01*
X59361Y-26694D01*
X59435Y-26724D01*
X59514Y-26725D01*
X60064Y-26725D01*
X60138Y-26694D01*
X60194Y-26638D01*
X60224Y-26564D01*
X60225Y-26485D01*
X60225Y-29155D01*
X60152Y-28981D01*
X60019Y-28847D01*
X59844Y-28775D01*
X59655Y-28774D01*
X59481Y-28847D01*
X59347Y-28980D01*
X59275Y-29155D01*
X59274Y-29344D01*
X59347Y-29518D01*
X59480Y-29652D01*
X59655Y-29724D01*
X59844Y-29725D01*
X60018Y-29652D01*
X60152Y-29519D01*
X60224Y-29344D01*
X60225Y-29155D01*
X60225Y-31268D01*
X60216Y-31247D01*
X60061Y-31093D01*
X59859Y-31009D01*
X59641Y-31008D01*
X59438Y-31092D01*
X59284Y-31247D01*
X59200Y-31449D01*
X59199Y-31667D01*
X59283Y-31870D01*
X59438Y-32024D01*
X59448Y-32029D01*
X59438Y-32033D01*
X59284Y-32188D01*
X59200Y-32390D01*
X59199Y-32608D01*
X59283Y-32811D01*
X59363Y-32890D01*
X59360Y-32890D01*
X59286Y-32921D01*
X59230Y-32977D01*
X59200Y-33051D01*
X59199Y-33130D01*
X59200Y-33366D01*
X59250Y-33416D01*
X59675Y-33416D01*
X59725Y-33416D01*
X59775Y-33416D01*
X59825Y-33416D01*
X60250Y-33416D01*
X60300Y-33366D01*
X60300Y-33130D01*
X60299Y-33051D01*
X60269Y-32977D01*
X60213Y-32921D01*
X60139Y-32890D01*
X60136Y-32890D01*
X60215Y-32811D01*
X60299Y-32609D01*
X60300Y-32391D01*
X60300Y-42397D01*
X60300Y-42396D01*
X60300Y-33751D01*
X60300Y-33516D01*
X60250Y-33466D01*
X59775Y-33466D01*
X59775Y-33941D01*
X59825Y-33991D01*
X60139Y-33991D01*
X60213Y-33960D01*
X60269Y-33904D01*
X60299Y-33830D01*
X60300Y-33751D01*
X60300Y-42396D01*
X60191Y-42324D01*
X60000Y-42286D01*
X59808Y-42324D01*
X59725Y-42380D01*
X59725Y-33941D01*
X59725Y-33466D01*
X59250Y-33466D01*
X59200Y-33516D01*
X59199Y-33751D01*
X59200Y-33830D01*
X59230Y-33904D01*
X59286Y-33960D01*
X59360Y-33991D01*
X59675Y-33991D01*
X59725Y-33941D01*
X59725Y-42380D01*
X59646Y-42432D01*
X59538Y-42594D01*
X59500Y-42786D01*
X59500Y-43213D01*
X59538Y-43405D01*
X59646Y-43567D01*
X59808Y-43675D01*
X60000Y-43713D01*
X60191Y-43675D01*
X60353Y-43567D01*
X60461Y-43405D01*
X60500Y-43213D01*
X60538Y-43405D01*
X60646Y-43567D01*
X60808Y-43675D01*
X61000Y-43713D01*
X61191Y-43675D01*
X61353Y-43567D01*
X61461Y-43405D01*
X61500Y-43213D01*
X61538Y-43405D01*
X61646Y-43567D01*
X61808Y-43675D01*
X62000Y-43713D01*
X62191Y-43675D01*
X62353Y-43567D01*
X62461Y-43405D01*
X62500Y-43213D01*
X62538Y-43405D01*
X62646Y-43567D01*
X62808Y-43675D01*
X63000Y-43713D01*
X63191Y-43675D01*
X63353Y-43567D01*
X63461Y-43405D01*
X63500Y-43213D01*
X63538Y-43405D01*
X63646Y-43567D01*
X63808Y-43675D01*
X64000Y-43713D01*
X64191Y-43675D01*
X64353Y-43567D01*
X64461Y-43405D01*
X64500Y-43213D01*
X64538Y-43405D01*
X64646Y-43567D01*
X64808Y-43675D01*
X65000Y-43713D01*
X65191Y-43675D01*
X65353Y-43567D01*
X65461Y-43405D01*
X65500Y-43213D01*
X65538Y-43405D01*
X65646Y-43567D01*
X65808Y-43675D01*
X66000Y-43713D01*
X66191Y-43675D01*
X66353Y-43567D01*
X66461Y-43405D01*
X66500Y-43213D01*
X66538Y-43405D01*
X66646Y-43567D01*
X66808Y-43675D01*
X67000Y-43713D01*
X67191Y-43675D01*
X67353Y-43567D01*
X67461Y-43405D01*
X67500Y-43213D01*
X67500Y-44260D01*
X58500Y-44260D01*
X58500Y-34301D01*
X58348Y-33934D01*
X58067Y-33652D01*
X57699Y-33500D01*
X57698Y-33500D01*
X58065Y-33348D01*
X58347Y-33067D01*
X58499Y-32699D01*
X58500Y-32301D01*
X58500Y-28301D01*
X58348Y-27934D01*
X58067Y-27652D01*
X57699Y-27500D01*
X57698Y-27500D01*
X58065Y-27348D01*
X58347Y-27067D01*
X58499Y-26699D01*
X58500Y-26301D01*
X58348Y-25934D01*
X58067Y-25652D01*
X57699Y-25500D01*
X57301Y-25499D01*
X56934Y-25651D01*
X56652Y-25932D01*
X56500Y-26300D01*
X56499Y-26698D01*
X56651Y-27065D01*
X56932Y-27347D01*
X57300Y-27499D01*
X57301Y-27499D01*
X56934Y-27651D01*
X56652Y-27932D01*
X56500Y-28300D01*
X56499Y-28698D01*
X56651Y-29065D01*
X56932Y-29347D01*
X57300Y-29499D01*
X57698Y-29500D01*
X58065Y-29348D01*
X58347Y-29067D01*
X58499Y-28699D01*
X58500Y-28301D01*
X58500Y-32301D01*
X58348Y-31934D01*
X58067Y-31652D01*
X57699Y-31500D01*
X57301Y-31499D01*
X56934Y-31651D01*
X56652Y-31932D01*
X56500Y-32300D01*
X56499Y-32698D01*
X56651Y-33065D01*
X56932Y-33347D01*
X57300Y-33499D01*
X57301Y-33499D01*
X56934Y-33651D01*
X56652Y-33932D01*
X56500Y-34300D01*
X56499Y-34698D01*
X56651Y-35065D01*
X56932Y-35347D01*
X57300Y-35499D01*
X57698Y-35500D01*
X58065Y-35348D01*
X58347Y-35067D01*
X58499Y-34699D01*
X58500Y-34301D01*
X58500Y-44260D01*
X58500Y-44260D01*
X58500Y-43213D01*
X58500Y-42786D01*
X58461Y-42594D01*
X58353Y-42432D01*
X58191Y-42324D01*
X58000Y-42286D01*
X57808Y-42324D01*
X57646Y-42432D01*
X57538Y-42594D01*
X57500Y-42786D01*
X57461Y-42594D01*
X57353Y-42432D01*
X57191Y-42324D01*
X57000Y-42286D01*
X56808Y-42324D01*
X56646Y-42432D01*
X56538Y-42594D01*
X56500Y-42786D01*
X56461Y-42594D01*
X56353Y-42432D01*
X56191Y-42324D01*
X56000Y-42286D01*
X55808Y-42324D01*
X55800Y-42330D01*
X55800Y-26341D01*
X55678Y-26047D01*
X55453Y-25822D01*
X55159Y-25700D01*
X54841Y-25699D01*
X54547Y-25821D01*
X54322Y-26046D01*
X54200Y-26340D01*
X54199Y-26658D01*
X54321Y-26952D01*
X54546Y-27177D01*
X54840Y-27299D01*
X55158Y-27300D01*
X55452Y-27178D01*
X55677Y-26953D01*
X55799Y-26659D01*
X55800Y-26341D01*
X55800Y-42330D01*
X55700Y-42396D01*
X55700Y-32363D01*
X55595Y-32105D01*
X55591Y-32100D01*
X55486Y-32048D01*
X55451Y-32084D01*
X55451Y-32013D01*
X55399Y-31908D01*
X55142Y-31800D01*
X54863Y-31799D01*
X54605Y-31904D01*
X54600Y-31908D01*
X54548Y-32013D01*
X55000Y-32464D01*
X55451Y-32013D01*
X55451Y-32084D01*
X55035Y-32500D01*
X55486Y-32951D01*
X55591Y-32899D01*
X55699Y-32642D01*
X55700Y-32363D01*
X55700Y-42396D01*
X55646Y-42432D01*
X55538Y-42594D01*
X55500Y-42786D01*
X55461Y-42594D01*
X55451Y-42579D01*
X55451Y-32986D01*
X55000Y-32535D01*
X54964Y-32570D01*
X54964Y-32500D01*
X54513Y-32048D01*
X54408Y-32100D01*
X54300Y-32357D01*
X54299Y-32636D01*
X54404Y-32894D01*
X54408Y-32899D01*
X54513Y-32951D01*
X54964Y-32500D01*
X54964Y-32570D01*
X54548Y-32986D01*
X54600Y-33091D01*
X54857Y-33199D01*
X55136Y-33200D01*
X55394Y-33095D01*
X55399Y-33091D01*
X55451Y-32986D01*
X55451Y-42579D01*
X55353Y-42432D01*
X55191Y-42324D01*
X55000Y-42286D01*
X54808Y-42324D01*
X54646Y-42432D01*
X54538Y-42594D01*
X54500Y-42786D01*
X54461Y-42594D01*
X54353Y-42432D01*
X54191Y-42324D01*
X54000Y-42286D01*
X53808Y-42324D01*
X53646Y-42432D01*
X53538Y-42594D01*
X53500Y-42786D01*
X53461Y-42594D01*
X53353Y-42432D01*
X53193Y-42325D01*
X53212Y-42318D01*
X53317Y-42212D01*
X53374Y-42074D01*
X53375Y-41925D01*
X53318Y-41787D01*
X53212Y-41682D01*
X53074Y-41625D01*
X52925Y-41624D01*
X52787Y-41681D01*
X52719Y-41750D01*
X51675Y-41750D01*
X51675Y-38325D01*
X51618Y-38187D01*
X51550Y-38119D01*
X51550Y-36200D01*
X51549Y-36199D01*
X51550Y-36199D01*
X51546Y-36180D01*
X51530Y-36104D01*
X51530Y-36104D01*
X51476Y-36023D01*
X51476Y-36023D01*
X50974Y-35521D01*
X50975Y-35425D01*
X50918Y-35287D01*
X50812Y-35182D01*
X50674Y-35125D01*
X50525Y-35124D01*
X50387Y-35181D01*
X50282Y-35287D01*
X50225Y-35425D01*
X50224Y-35574D01*
X50281Y-35712D01*
X50387Y-35817D01*
X50525Y-35874D01*
X50621Y-35875D01*
X51050Y-36303D01*
X51050Y-38119D01*
X50982Y-38187D01*
X50925Y-38325D01*
X50924Y-38474D01*
X50981Y-38612D01*
X51087Y-38717D01*
X51225Y-38774D01*
X51374Y-38775D01*
X51512Y-38718D01*
X51617Y-38612D01*
X51674Y-38474D01*
X51675Y-38325D01*
X51675Y-41750D01*
X51400Y-41750D01*
X51399Y-41750D01*
X51380Y-41753D01*
X51304Y-41769D01*
X51223Y-41823D01*
X51223Y-41823D01*
X50823Y-42223D01*
X50769Y-42304D01*
X50758Y-42357D01*
X50646Y-42432D01*
X50538Y-42594D01*
X50500Y-42786D01*
X50500Y-43213D01*
X50538Y-43405D01*
X50646Y-43567D01*
X50808Y-43675D01*
X51000Y-43713D01*
X51191Y-43675D01*
X51353Y-43567D01*
X51461Y-43405D01*
X51500Y-43213D01*
X51538Y-43405D01*
X51646Y-43567D01*
X51808Y-43675D01*
X52000Y-43713D01*
X52191Y-43675D01*
X52353Y-43567D01*
X52461Y-43405D01*
X52500Y-43213D01*
X52538Y-43405D01*
X52646Y-43567D01*
X52808Y-43675D01*
X53000Y-43713D01*
X53191Y-43675D01*
X53353Y-43567D01*
X53461Y-43405D01*
X53500Y-43213D01*
X53538Y-43405D01*
X53646Y-43567D01*
X53808Y-43675D01*
X54000Y-43713D01*
X54191Y-43675D01*
X54353Y-43567D01*
X54461Y-43405D01*
X54500Y-43213D01*
X54538Y-43405D01*
X54646Y-43567D01*
X54808Y-43675D01*
X55000Y-43713D01*
X55191Y-43675D01*
X55353Y-43567D01*
X55461Y-43405D01*
X55500Y-43213D01*
X55538Y-43405D01*
X55646Y-43567D01*
X55808Y-43675D01*
X56000Y-43713D01*
X56191Y-43675D01*
X56353Y-43567D01*
X56461Y-43405D01*
X56500Y-43213D01*
X56538Y-43405D01*
X56646Y-43567D01*
X56808Y-43675D01*
X57000Y-43713D01*
X57191Y-43675D01*
X57353Y-43567D01*
X57461Y-43405D01*
X57500Y-43213D01*
X57538Y-43405D01*
X57646Y-43567D01*
X57808Y-43675D01*
X58000Y-43713D01*
X58191Y-43675D01*
X58353Y-43567D01*
X58461Y-43405D01*
X58500Y-43213D01*
X58500Y-44260D01*
X57500Y-44260D01*
X49500Y-44260D01*
X49500Y-43213D01*
X49500Y-42786D01*
X49461Y-42594D01*
X49353Y-42432D01*
X49191Y-42324D01*
X49000Y-42286D01*
X48808Y-42324D01*
X48646Y-42432D01*
X48538Y-42594D01*
X48500Y-42786D01*
X48500Y-42775D01*
X48452Y-42585D01*
X48335Y-42428D01*
X48168Y-42328D01*
X48132Y-42318D01*
X48224Y-42300D01*
X48329Y-42229D01*
X48400Y-42124D01*
X48425Y-42000D01*
X48425Y-41434D01*
X48491Y-41367D01*
X48612Y-41318D01*
X48717Y-41212D01*
X48774Y-41074D01*
X48775Y-40925D01*
X48718Y-40787D01*
X48612Y-40682D01*
X48474Y-40625D01*
X48325Y-40624D01*
X48187Y-40681D01*
X48082Y-40787D01*
X48031Y-40908D01*
X47900Y-41040D01*
X47900Y-24213D01*
X47900Y-23786D01*
X47861Y-23594D01*
X47753Y-23432D01*
X47591Y-23324D01*
X47400Y-23286D01*
X47208Y-23324D01*
X47046Y-23432D01*
X46938Y-23594D01*
X46900Y-23786D01*
X46861Y-23594D01*
X46753Y-23432D01*
X46591Y-23324D01*
X46400Y-23286D01*
X46208Y-23324D01*
X46046Y-23432D01*
X45938Y-23594D01*
X45900Y-23786D01*
X45861Y-23594D01*
X45753Y-23432D01*
X45591Y-23324D01*
X45400Y-23286D01*
X45208Y-23324D01*
X45046Y-23432D01*
X44938Y-23594D01*
X44900Y-23786D01*
X44861Y-23594D01*
X44753Y-23432D01*
X44591Y-23324D01*
X44400Y-23286D01*
X44208Y-23324D01*
X44046Y-23432D01*
X43938Y-23594D01*
X43900Y-23786D01*
X43861Y-23594D01*
X43753Y-23432D01*
X43591Y-23324D01*
X43400Y-23286D01*
X43208Y-23324D01*
X43046Y-23432D01*
X42938Y-23594D01*
X42900Y-23786D01*
X42861Y-23594D01*
X42753Y-23432D01*
X42591Y-23324D01*
X42400Y-23286D01*
X42208Y-23324D01*
X42046Y-23432D01*
X41938Y-23594D01*
X41900Y-23786D01*
X41861Y-23594D01*
X41753Y-23432D01*
X41591Y-23324D01*
X41400Y-23286D01*
X41208Y-23324D01*
X41046Y-23432D01*
X40938Y-23594D01*
X40900Y-23786D01*
X40861Y-23594D01*
X40753Y-23432D01*
X40591Y-23324D01*
X40400Y-23286D01*
X40208Y-23324D01*
X40046Y-23432D01*
X39938Y-23594D01*
X39900Y-23786D01*
X39900Y-24213D01*
X39938Y-24405D01*
X40046Y-24567D01*
X40208Y-24675D01*
X40400Y-24713D01*
X40591Y-24675D01*
X40753Y-24567D01*
X40861Y-24405D01*
X40900Y-24213D01*
X40938Y-24405D01*
X41046Y-24567D01*
X41208Y-24675D01*
X41400Y-24713D01*
X41591Y-24675D01*
X41753Y-24567D01*
X41861Y-24405D01*
X41900Y-24213D01*
X41938Y-24405D01*
X42046Y-24567D01*
X42208Y-24675D01*
X42400Y-24713D01*
X42591Y-24675D01*
X42753Y-24567D01*
X42861Y-24405D01*
X42900Y-24213D01*
X42938Y-24405D01*
X43046Y-24567D01*
X43208Y-24675D01*
X43400Y-24713D01*
X43591Y-24675D01*
X43753Y-24567D01*
X43861Y-24405D01*
X43900Y-24213D01*
X43938Y-24405D01*
X44046Y-24567D01*
X44208Y-24675D01*
X44400Y-24713D01*
X44591Y-24675D01*
X44753Y-24567D01*
X44861Y-24405D01*
X44900Y-24213D01*
X44938Y-24405D01*
X45046Y-24567D01*
X45208Y-24675D01*
X45400Y-24713D01*
X45591Y-24675D01*
X45753Y-24567D01*
X45861Y-24405D01*
X45900Y-24213D01*
X45938Y-24405D01*
X46046Y-24567D01*
X46208Y-24675D01*
X46400Y-24713D01*
X46591Y-24675D01*
X46753Y-24567D01*
X46861Y-24405D01*
X46900Y-24213D01*
X46938Y-24405D01*
X47046Y-24567D01*
X47208Y-24675D01*
X47400Y-24713D01*
X47591Y-24675D01*
X47753Y-24567D01*
X47861Y-24405D01*
X47900Y-24213D01*
X47900Y-41040D01*
X47870Y-41070D01*
X47799Y-41175D01*
X47775Y-41300D01*
X47775Y-41675D01*
X46600Y-41675D01*
X46475Y-41699D01*
X46370Y-41770D01*
X46370Y-41770D01*
X45817Y-42322D01*
X45808Y-42324D01*
X45646Y-42432D01*
X45538Y-42594D01*
X45500Y-42786D01*
X45461Y-42594D01*
X45353Y-42432D01*
X45191Y-42324D01*
X45000Y-42286D01*
X44808Y-42324D01*
X44646Y-42432D01*
X44538Y-42594D01*
X44500Y-42786D01*
X44461Y-42594D01*
X44353Y-42432D01*
X44191Y-42324D01*
X44000Y-42286D01*
X43808Y-42324D01*
X43646Y-42432D01*
X43538Y-42594D01*
X43500Y-42786D01*
X43500Y-43213D01*
X43538Y-43405D01*
X43646Y-43567D01*
X43808Y-43675D01*
X44000Y-43713D01*
X44191Y-43675D01*
X44353Y-43567D01*
X44461Y-43405D01*
X44500Y-43213D01*
X44538Y-43405D01*
X44646Y-43567D01*
X44808Y-43675D01*
X45000Y-43713D01*
X45191Y-43675D01*
X45353Y-43567D01*
X45461Y-43405D01*
X45500Y-43213D01*
X45538Y-43405D01*
X45646Y-43567D01*
X45808Y-43675D01*
X46000Y-43713D01*
X46191Y-43675D01*
X46353Y-43567D01*
X46461Y-43405D01*
X46500Y-43213D01*
X46500Y-43225D01*
X46547Y-43414D01*
X46664Y-43571D01*
X46831Y-43671D01*
X46897Y-43689D01*
X46975Y-43649D01*
X46975Y-43025D01*
X46500Y-43025D01*
X46500Y-42975D01*
X46925Y-42975D01*
X46975Y-42975D01*
X47025Y-42975D01*
X47075Y-42975D01*
X47500Y-42975D01*
X47925Y-42975D01*
X47975Y-42975D01*
X48025Y-42975D01*
X48025Y-43025D01*
X48025Y-43075D01*
X48025Y-43649D01*
X48102Y-43689D01*
X48168Y-43671D01*
X48335Y-43571D01*
X48452Y-43414D01*
X48500Y-43225D01*
X48500Y-43213D01*
X48538Y-43405D01*
X48646Y-43567D01*
X48808Y-43675D01*
X49000Y-43713D01*
X49191Y-43675D01*
X49353Y-43567D01*
X49461Y-43405D01*
X49500Y-43213D01*
X49500Y-44260D01*
X47975Y-44260D01*
X47975Y-43649D01*
X47975Y-43025D01*
X47500Y-43025D01*
X47025Y-43025D01*
X47025Y-43649D01*
X47102Y-43689D01*
X47168Y-43671D01*
X47335Y-43571D01*
X47452Y-43414D01*
X47500Y-43225D01*
X47547Y-43414D01*
X47664Y-43571D01*
X47831Y-43671D01*
X47897Y-43689D01*
X47975Y-43649D01*
X47975Y-44260D01*
X40800Y-44260D01*
X40800Y-26940D01*
X40800Y-25940D01*
X40754Y-25830D01*
X40670Y-25745D01*
X40559Y-25700D01*
X40440Y-25699D01*
X39440Y-25699D01*
X39330Y-25745D01*
X39245Y-25829D01*
X39200Y-25940D01*
X39199Y-26059D01*
X39199Y-27059D01*
X39245Y-27169D01*
X39329Y-27254D01*
X39440Y-27299D01*
X39559Y-27300D01*
X40559Y-27300D01*
X40669Y-27254D01*
X40754Y-27170D01*
X40799Y-27059D01*
X40800Y-26940D01*
X40800Y-44260D01*
X40700Y-44260D01*
X40700Y-32363D01*
X40595Y-32105D01*
X40591Y-32100D01*
X40486Y-32048D01*
X40451Y-32084D01*
X40451Y-32013D01*
X40399Y-31908D01*
X40142Y-31800D01*
X39863Y-31799D01*
X39605Y-31904D01*
X39600Y-31908D01*
X39548Y-32013D01*
X40000Y-32464D01*
X40451Y-32013D01*
X40451Y-32084D01*
X40035Y-32500D01*
X40486Y-32951D01*
X40591Y-32899D01*
X40699Y-32642D01*
X40700Y-32363D01*
X40700Y-44260D01*
X40451Y-44260D01*
X40451Y-32986D01*
X40000Y-32535D01*
X39964Y-32570D01*
X39964Y-32500D01*
X39513Y-32048D01*
X39408Y-32100D01*
X39300Y-32357D01*
X39299Y-32636D01*
X39404Y-32894D01*
X39408Y-32899D01*
X39513Y-32951D01*
X39964Y-32500D01*
X39964Y-32570D01*
X39548Y-32986D01*
X39600Y-33091D01*
X39857Y-33199D01*
X40136Y-33200D01*
X40394Y-33095D01*
X40399Y-33091D01*
X40451Y-32986D01*
X40451Y-44260D01*
X39100Y-44260D01*
X39100Y-34183D01*
X38857Y-33594D01*
X38762Y-33500D01*
X38855Y-33407D01*
X39099Y-32819D01*
X39100Y-32183D01*
X39100Y-28183D01*
X38857Y-27594D01*
X38762Y-27500D01*
X38855Y-27407D01*
X39099Y-26819D01*
X39100Y-26183D01*
X38857Y-25594D01*
X38407Y-25144D01*
X37977Y-24965D01*
X37977Y-23819D01*
X37834Y-23459D01*
X37818Y-23436D01*
X37685Y-23350D01*
X37649Y-23385D01*
X37649Y-23314D01*
X37563Y-23181D01*
X37207Y-23027D01*
X36819Y-23022D01*
X36459Y-23165D01*
X36436Y-23181D01*
X36350Y-23314D01*
X37000Y-23964D01*
X37649Y-23314D01*
X37649Y-23385D01*
X37035Y-24000D01*
X37685Y-24649D01*
X37818Y-24563D01*
X37972Y-24207D01*
X37977Y-23819D01*
X37977Y-24965D01*
X37819Y-24900D01*
X37375Y-24899D01*
X37540Y-24834D01*
X37563Y-24818D01*
X37649Y-24685D01*
X37000Y-24035D01*
X36964Y-24070D01*
X36964Y-24000D01*
X36314Y-23350D01*
X36181Y-23436D01*
X36027Y-23792D01*
X36022Y-24180D01*
X36165Y-24540D01*
X36181Y-24563D01*
X36314Y-24649D01*
X36964Y-24000D01*
X36964Y-24070D01*
X36350Y-24685D01*
X36436Y-24818D01*
X36792Y-24972D01*
X37000Y-24975D01*
X36594Y-25142D01*
X36144Y-25592D01*
X36114Y-25664D01*
X35959Y-25600D01*
X35741Y-25599D01*
X35041Y-25599D01*
X34838Y-25683D01*
X34684Y-25838D01*
X34600Y-26040D01*
X34599Y-26258D01*
X34599Y-26958D01*
X34683Y-27161D01*
X34838Y-27315D01*
X35040Y-27399D01*
X35258Y-27400D01*
X35958Y-27400D01*
X36114Y-27335D01*
X36142Y-27405D01*
X36237Y-27499D01*
X36144Y-27592D01*
X35900Y-28180D01*
X35899Y-28816D01*
X36142Y-29405D01*
X36592Y-29855D01*
X37180Y-30099D01*
X37816Y-30100D01*
X38405Y-29857D01*
X38855Y-29407D01*
X39099Y-28819D01*
X39100Y-28183D01*
X39100Y-32183D01*
X38857Y-31594D01*
X38407Y-31144D01*
X37819Y-30900D01*
X37183Y-30899D01*
X36594Y-31142D01*
X36144Y-31592D01*
X36050Y-31818D01*
X36050Y-31606D01*
X36049Y-31387D01*
X35967Y-31190D01*
X35878Y-31156D01*
X35843Y-31192D01*
X35843Y-31121D01*
X35809Y-31032D01*
X35606Y-30949D01*
X35387Y-30950D01*
X35190Y-31032D01*
X35156Y-31121D01*
X35500Y-31464D01*
X35843Y-31121D01*
X35843Y-31192D01*
X35535Y-31500D01*
X35878Y-31843D01*
X35967Y-31809D01*
X36050Y-31606D01*
X36050Y-31818D01*
X35900Y-32180D01*
X35899Y-32816D01*
X36142Y-33405D01*
X36237Y-33499D01*
X36144Y-33592D01*
X36103Y-33690D01*
X35944Y-33530D01*
X35843Y-33488D01*
X35843Y-31878D01*
X35500Y-31535D01*
X35464Y-31570D01*
X35464Y-31500D01*
X35121Y-31156D01*
X35032Y-31190D01*
X34949Y-31393D01*
X34950Y-31612D01*
X35032Y-31809D01*
X35121Y-31843D01*
X35464Y-31500D01*
X35464Y-31570D01*
X35156Y-31878D01*
X35190Y-31967D01*
X35393Y-32050D01*
X35612Y-32049D01*
X35809Y-31967D01*
X35843Y-31878D01*
X35843Y-33488D01*
X35307Y-33266D01*
X34617Y-33265D01*
X33979Y-33528D01*
X33491Y-34016D01*
X33359Y-34334D01*
X33264Y-34270D01*
X33229Y-34305D01*
X33229Y-34235D01*
X33130Y-34089D01*
X32734Y-33917D01*
X32302Y-33910D01*
X31900Y-34069D01*
X31869Y-34089D01*
X31770Y-34235D01*
X32500Y-34964D01*
X33229Y-34235D01*
X33229Y-34305D01*
X32535Y-35000D01*
X33264Y-35729D01*
X33359Y-35665D01*
X33438Y-35857D01*
X33229Y-35939D01*
X33229Y-35764D01*
X32500Y-35035D01*
X32464Y-35070D01*
X32464Y-35000D01*
X31735Y-34270D01*
X31589Y-34369D01*
X31417Y-34765D01*
X31410Y-35197D01*
X31569Y-35599D01*
X31589Y-35630D01*
X31735Y-35729D01*
X32464Y-35000D01*
X32464Y-35070D01*
X31770Y-35764D01*
X31869Y-35910D01*
X32265Y-36082D01*
X32697Y-36089D01*
X33099Y-35930D01*
X33130Y-35910D01*
X33229Y-35764D01*
X33229Y-35939D01*
X33179Y-35959D01*
X33149Y-35979D01*
X33049Y-36124D01*
X33744Y-36819D01*
X33744Y-36819D01*
X33850Y-36925D01*
X33850Y-36925D01*
X34544Y-37619D01*
X34689Y-37520D01*
X34861Y-37123D01*
X34868Y-36734D01*
X35304Y-36734D01*
X35941Y-36471D01*
X36430Y-35983D01*
X36515Y-35778D01*
X36592Y-35855D01*
X37180Y-36099D01*
X37816Y-36100D01*
X38405Y-35857D01*
X38855Y-35407D01*
X39099Y-34819D01*
X39100Y-34183D01*
X39100Y-44260D01*
X37477Y-44260D01*
X37477Y-42819D01*
X37334Y-42459D01*
X37318Y-42436D01*
X37185Y-42350D01*
X37149Y-42385D01*
X37149Y-42314D01*
X37063Y-42181D01*
X36707Y-42027D01*
X36319Y-42022D01*
X35959Y-42165D01*
X35936Y-42181D01*
X35850Y-42314D01*
X36500Y-42964D01*
X37149Y-42314D01*
X37149Y-42385D01*
X36535Y-43000D01*
X37185Y-43649D01*
X37318Y-43563D01*
X37472Y-43207D01*
X37477Y-42819D01*
X37477Y-44260D01*
X37149Y-44260D01*
X37149Y-43685D01*
X36500Y-43035D01*
X36464Y-43070D01*
X36464Y-43000D01*
X35814Y-42350D01*
X35681Y-42436D01*
X35527Y-42792D01*
X35522Y-43180D01*
X35665Y-43540D01*
X35681Y-43563D01*
X35814Y-43649D01*
X36464Y-43000D01*
X36464Y-43070D01*
X35850Y-43685D01*
X35936Y-43818D01*
X36292Y-43972D01*
X36680Y-43977D01*
X37040Y-43834D01*
X37063Y-43818D01*
X37149Y-43685D01*
X37149Y-44260D01*
X34509Y-44260D01*
X34509Y-37654D01*
X33779Y-36925D01*
X33744Y-36960D01*
X33744Y-36889D01*
X33014Y-36160D01*
X32869Y-36259D01*
X32697Y-36655D01*
X32690Y-37087D01*
X32848Y-37489D01*
X32869Y-37520D01*
X33014Y-37619D01*
X33744Y-36889D01*
X33744Y-36960D01*
X33049Y-37654D01*
X33149Y-37799D01*
X33545Y-37971D01*
X33977Y-37979D01*
X34379Y-37820D01*
X34409Y-37799D01*
X34509Y-37654D01*
X34509Y-44260D01*
X31240Y-44260D01*
X31240Y-22740D01*
X71260Y-22740D01*
X71260Y-44260D01*
X71260Y-44260D01*
G37*
G54D25*
X71260Y-44260D02*
X69977Y-44260D01*
X69977Y-42819D01*
X69850Y-42498D01*
X69850Y-31200D01*
X69849Y-31200D01*
X69850Y-31200D01*
X69850Y-29800D01*
X69849Y-29799D01*
X69850Y-29799D01*
X69846Y-29780D01*
X69830Y-29704D01*
X69830Y-29704D01*
X69776Y-29623D01*
X69776Y-29623D01*
X69476Y-29323D01*
X69421Y-29286D01*
X69423Y-29283D01*
X69499Y-29099D01*
X69500Y-28900D01*
X69500Y-27900D01*
X69500Y-26900D01*
X69500Y-25900D01*
X69500Y-24900D01*
X69500Y-23900D01*
X69424Y-23717D01*
X69283Y-23576D01*
X69099Y-23500D01*
X68900Y-23499D01*
X68717Y-23575D01*
X68576Y-23716D01*
X68500Y-23900D01*
X68500Y-23901D01*
X68500Y-23900D01*
X68424Y-23717D01*
X68283Y-23576D01*
X68099Y-23500D01*
X67900Y-23499D01*
X67717Y-23575D01*
X67576Y-23716D01*
X67500Y-23900D01*
X67499Y-24099D01*
X67575Y-24282D01*
X67716Y-24423D01*
X67900Y-24499D01*
X68099Y-24500D01*
X68282Y-24424D01*
X68423Y-24283D01*
X68499Y-24099D01*
X68500Y-23900D01*
X68500Y-23901D01*
X68499Y-24099D01*
X68575Y-24282D01*
X68716Y-24423D01*
X68900Y-24499D01*
X69099Y-24500D01*
X69282Y-24424D01*
X69423Y-24283D01*
X69499Y-24099D01*
X69500Y-23900D01*
X69500Y-24900D01*
X69424Y-24717D01*
X69283Y-24576D01*
X69099Y-24500D01*
X68900Y-24499D01*
X68717Y-24575D01*
X68576Y-24716D01*
X68500Y-24900D01*
X68500Y-24901D01*
X68500Y-24900D01*
X68424Y-24717D01*
X68283Y-24576D01*
X68099Y-24500D01*
X67900Y-24499D01*
X67717Y-24575D01*
X67576Y-24716D01*
X67500Y-24900D01*
X67499Y-25099D01*
X67575Y-25282D01*
X67716Y-25423D01*
X67900Y-25499D01*
X68099Y-25500D01*
X68282Y-25424D01*
X68423Y-25283D01*
X68499Y-25099D01*
X68500Y-24900D01*
X68500Y-24901D01*
X68499Y-25099D01*
X68575Y-25282D01*
X68716Y-25423D01*
X68900Y-25499D01*
X69099Y-25500D01*
X69282Y-25424D01*
X69423Y-25283D01*
X69499Y-25099D01*
X69500Y-24900D01*
X69500Y-25900D01*
X69424Y-25717D01*
X69283Y-25576D01*
X69099Y-25500D01*
X68900Y-25499D01*
X68717Y-25575D01*
X68576Y-25716D01*
X68500Y-25900D01*
X68500Y-25901D01*
X68500Y-25900D01*
X68424Y-25717D01*
X68283Y-25576D01*
X68099Y-25500D01*
X67900Y-25499D01*
X67717Y-25575D01*
X67576Y-25716D01*
X67500Y-25900D01*
X67499Y-26099D01*
X67575Y-26282D01*
X67716Y-26423D01*
X67900Y-26499D01*
X68099Y-26500D01*
X68282Y-26424D01*
X68423Y-26283D01*
X68499Y-26099D01*
X68500Y-25900D01*
X68500Y-25901D01*
X68499Y-26099D01*
X68575Y-26282D01*
X68716Y-26423D01*
X68900Y-26499D01*
X69099Y-26500D01*
X69282Y-26424D01*
X69423Y-26283D01*
X69499Y-26099D01*
X69500Y-25900D01*
X69500Y-26900D01*
X69424Y-26717D01*
X69283Y-26576D01*
X69099Y-26500D01*
X68900Y-26499D01*
X68717Y-26575D01*
X68576Y-26716D01*
X68500Y-26900D01*
X68499Y-27099D01*
X68575Y-27282D01*
X68716Y-27423D01*
X68900Y-27499D01*
X69099Y-27500D01*
X69282Y-27424D01*
X69423Y-27283D01*
X69499Y-27099D01*
X69500Y-26900D01*
X69500Y-27900D01*
X69424Y-27717D01*
X69283Y-27576D01*
X69099Y-27500D01*
X68900Y-27499D01*
X68717Y-27575D01*
X68576Y-27716D01*
X68500Y-27900D01*
X68499Y-28099D01*
X68575Y-28282D01*
X68716Y-28423D01*
X68900Y-28499D01*
X69099Y-28500D01*
X69282Y-28424D01*
X69423Y-28283D01*
X69499Y-28099D01*
X69500Y-27900D01*
X69500Y-28900D01*
X69424Y-28717D01*
X69283Y-28576D01*
X69099Y-28500D01*
X68900Y-28499D01*
X68717Y-28575D01*
X68576Y-28716D01*
X68500Y-28900D01*
X68499Y-29099D01*
X68562Y-29250D01*
X68437Y-29250D01*
X68499Y-29099D01*
X68500Y-28900D01*
X68424Y-28717D01*
X68283Y-28576D01*
X68099Y-28500D01*
X67900Y-28499D01*
X67717Y-28575D01*
X67576Y-28716D01*
X67550Y-28779D01*
X67550Y-28220D01*
X67575Y-28282D01*
X67716Y-28423D01*
X67900Y-28499D01*
X68099Y-28500D01*
X68282Y-28424D01*
X68423Y-28283D01*
X68499Y-28099D01*
X68500Y-27900D01*
X68424Y-27717D01*
X68283Y-27576D01*
X68099Y-27500D01*
X67900Y-27499D01*
X67717Y-27575D01*
X67576Y-27716D01*
X67550Y-27779D01*
X67550Y-27220D01*
X67575Y-27282D01*
X67716Y-27423D01*
X67900Y-27499D01*
X68099Y-27500D01*
X68282Y-27424D01*
X68423Y-27283D01*
X68499Y-27099D01*
X68500Y-26900D01*
X68424Y-26717D01*
X68283Y-26576D01*
X68099Y-26500D01*
X67900Y-26499D01*
X67717Y-26575D01*
X67576Y-26716D01*
X67500Y-26900D01*
X67500Y-26958D01*
X67477Y-26924D01*
X67477Y-23819D01*
X67334Y-23459D01*
X67318Y-23436D01*
X67185Y-23350D01*
X67149Y-23385D01*
X67149Y-23314D01*
X67063Y-23181D01*
X66707Y-23027D01*
X66319Y-23022D01*
X65959Y-23165D01*
X65936Y-23181D01*
X65850Y-23314D01*
X66500Y-23964D01*
X67149Y-23314D01*
X67149Y-23385D01*
X66535Y-24000D01*
X67185Y-24649D01*
X67318Y-24563D01*
X67472Y-24207D01*
X67477Y-23819D01*
X67477Y-26924D01*
X67476Y-26923D01*
X67476Y-26923D01*
X67149Y-26596D01*
X67149Y-24685D01*
X66500Y-24035D01*
X66464Y-24070D01*
X66464Y-24000D01*
X65814Y-23350D01*
X65681Y-23436D01*
X65527Y-23792D01*
X65522Y-24180D01*
X65665Y-24540D01*
X65681Y-24563D01*
X65814Y-24649D01*
X66464Y-24000D01*
X66464Y-24070D01*
X65850Y-24685D01*
X65936Y-24818D01*
X66292Y-24972D01*
X66680Y-24977D01*
X67040Y-24834D01*
X67063Y-24818D01*
X67149Y-24685D01*
X67149Y-26596D01*
X66776Y-26223D01*
X66695Y-26169D01*
X66600Y-26150D01*
X63903Y-26150D01*
X62376Y-24623D01*
X62323Y-24587D01*
X62353Y-24567D01*
X62461Y-24405D01*
X62500Y-24213D01*
X62538Y-24405D01*
X62646Y-24567D01*
X62808Y-24675D01*
X63000Y-24713D01*
X63191Y-24675D01*
X63353Y-24567D01*
X63461Y-24405D01*
X63500Y-24213D01*
X63538Y-24405D01*
X63646Y-24567D01*
X63808Y-24675D01*
X64000Y-24713D01*
X64191Y-24675D01*
X64353Y-24567D01*
X64461Y-24405D01*
X64500Y-24213D01*
X64538Y-24405D01*
X64646Y-24567D01*
X64808Y-24675D01*
X65000Y-24713D01*
X65191Y-24675D01*
X65353Y-24567D01*
X65461Y-24405D01*
X65500Y-24213D01*
X65500Y-23786D01*
X65461Y-23594D01*
X65353Y-23432D01*
X65191Y-23324D01*
X65000Y-23286D01*
X64808Y-23324D01*
X64646Y-23432D01*
X64538Y-23594D01*
X64500Y-23786D01*
X64461Y-23594D01*
X64353Y-23432D01*
X64191Y-23324D01*
X64000Y-23286D01*
X63808Y-23324D01*
X63646Y-23432D01*
X63538Y-23594D01*
X63500Y-23786D01*
X63461Y-23594D01*
X63353Y-23432D01*
X63191Y-23324D01*
X63000Y-23286D01*
X62808Y-23324D01*
X62646Y-23432D01*
X62538Y-23594D01*
X62500Y-23786D01*
X62461Y-23594D01*
X62353Y-23432D01*
X62191Y-23324D01*
X62000Y-23286D01*
X61808Y-23324D01*
X61646Y-23432D01*
X61538Y-23594D01*
X61500Y-23786D01*
X61461Y-23594D01*
X61353Y-23432D01*
X61191Y-23324D01*
X61000Y-23286D01*
X60808Y-23324D01*
X60646Y-23432D01*
X60538Y-23594D01*
X60500Y-23786D01*
X60461Y-23594D01*
X60353Y-23432D01*
X60191Y-23324D01*
X60000Y-23286D01*
X59808Y-23324D01*
X59646Y-23432D01*
X59538Y-23594D01*
X59500Y-23786D01*
X59461Y-23594D01*
X59353Y-23432D01*
X59191Y-23324D01*
X59000Y-23286D01*
X58808Y-23324D01*
X58646Y-23432D01*
X58538Y-23594D01*
X58500Y-23786D01*
X58461Y-23594D01*
X58353Y-23432D01*
X58191Y-23324D01*
X58000Y-23286D01*
X57808Y-23324D01*
X57646Y-23432D01*
X57538Y-23594D01*
X57500Y-23786D01*
X57500Y-24213D01*
X57538Y-24405D01*
X57634Y-24550D01*
X56365Y-24550D01*
X56461Y-24405D01*
X56500Y-24213D01*
X56500Y-23786D01*
X56461Y-23594D01*
X56353Y-23432D01*
X56191Y-23324D01*
X56000Y-23286D01*
X55808Y-23324D01*
X55646Y-23432D01*
X55538Y-23594D01*
X55500Y-23786D01*
X55461Y-23594D01*
X55353Y-23432D01*
X55191Y-23324D01*
X55000Y-23286D01*
X54808Y-23324D01*
X54646Y-23432D01*
X54538Y-23594D01*
X54500Y-23786D01*
X54461Y-23594D01*
X54353Y-23432D01*
X54191Y-23324D01*
X54000Y-23286D01*
X53808Y-23324D01*
X53646Y-23432D01*
X53538Y-23594D01*
X53500Y-23786D01*
X53461Y-23594D01*
X53353Y-23432D01*
X53191Y-23324D01*
X53000Y-23286D01*
X52808Y-23324D01*
X52646Y-23432D01*
X52538Y-23594D01*
X52500Y-23786D01*
X52461Y-23594D01*
X52353Y-23432D01*
X52191Y-23324D01*
X52000Y-23286D01*
X51808Y-23324D01*
X51646Y-23432D01*
X51538Y-23594D01*
X51500Y-23786D01*
X51461Y-23594D01*
X51353Y-23432D01*
X51191Y-23324D01*
X51000Y-23286D01*
X50808Y-23324D01*
X50646Y-23432D01*
X50538Y-23594D01*
X50500Y-23786D01*
X50461Y-23594D01*
X50353Y-23432D01*
X50191Y-23324D01*
X50000Y-23286D01*
X49808Y-23324D01*
X49646Y-23432D01*
X49538Y-23594D01*
X49500Y-23786D01*
X49461Y-23594D01*
X49353Y-23432D01*
X49191Y-23324D01*
X49000Y-23286D01*
X48808Y-23324D01*
X48646Y-23432D01*
X48538Y-23594D01*
X48500Y-23786D01*
X48500Y-24213D01*
X48538Y-24405D01*
X48646Y-24567D01*
X48808Y-24675D01*
X49000Y-24713D01*
X49008Y-24712D01*
X49473Y-25176D01*
X49473Y-25176D01*
X49554Y-25230D01*
X49554Y-25230D01*
X49650Y-25250D01*
X61996Y-25250D01*
X63221Y-26475D01*
X63055Y-26474D01*
X62881Y-26547D01*
X62747Y-26680D01*
X62675Y-26855D01*
X62674Y-27044D01*
X62747Y-27218D01*
X62880Y-27352D01*
X63055Y-27424D01*
X63244Y-27425D01*
X63400Y-27360D01*
X63400Y-27819D01*
X63332Y-27887D01*
X63275Y-28025D01*
X63274Y-28174D01*
X63331Y-28312D01*
X63437Y-28417D01*
X63575Y-28474D01*
X63724Y-28475D01*
X63862Y-28418D01*
X63967Y-28312D01*
X64024Y-28174D01*
X64025Y-28025D01*
X63968Y-27887D01*
X63900Y-27819D01*
X63900Y-27360D01*
X64055Y-27424D01*
X64244Y-27425D01*
X64418Y-27352D01*
X64552Y-27219D01*
X64624Y-27044D01*
X64625Y-26855D01*
X64552Y-26681D01*
X64521Y-26650D01*
X64766Y-26650D01*
X64755Y-26661D01*
X64771Y-26677D01*
X64744Y-26685D01*
X64673Y-26861D01*
X64676Y-27050D01*
X64744Y-27214D01*
X64825Y-27238D01*
X65079Y-26985D01*
X65079Y-26985D01*
X65114Y-26950D01*
X65114Y-26950D01*
X65150Y-26914D01*
X65220Y-26985D01*
X65474Y-27238D01*
X65555Y-27214D01*
X65626Y-27038D01*
X65623Y-26849D01*
X65555Y-26685D01*
X65528Y-26677D01*
X65544Y-26661D01*
X65533Y-26650D01*
X65675Y-26650D01*
X65674Y-26714D01*
X65675Y-26875D01*
X65725Y-26925D01*
X66075Y-26925D01*
X66125Y-26925D01*
X66175Y-26925D01*
X66225Y-26925D01*
X66575Y-26925D01*
X66625Y-26875D01*
X66625Y-26778D01*
X67050Y-27203D01*
X67050Y-28728D01*
X66919Y-28597D01*
X66744Y-28525D01*
X66625Y-28524D01*
X66625Y-27185D01*
X66625Y-27025D01*
X66575Y-26975D01*
X66175Y-26975D01*
X66175Y-27375D01*
X66225Y-27425D01*
X66464Y-27425D01*
X66538Y-27394D01*
X66594Y-27338D01*
X66624Y-27264D01*
X66625Y-27185D01*
X66625Y-28524D01*
X66555Y-28524D01*
X66381Y-28597D01*
X66247Y-28730D01*
X66175Y-28905D01*
X66174Y-29094D01*
X66247Y-29268D01*
X66380Y-29402D01*
X66555Y-29474D01*
X66744Y-29475D01*
X66918Y-29402D01*
X67052Y-29269D01*
X67060Y-29250D01*
X67069Y-29295D01*
X67123Y-29376D01*
X67423Y-29676D01*
X67423Y-29676D01*
X67504Y-29730D01*
X67504Y-29730D01*
X67565Y-29743D01*
X67500Y-29900D01*
X67500Y-29996D01*
X67246Y-30250D01*
X67060Y-30250D01*
X67124Y-30094D01*
X67125Y-29905D01*
X67052Y-29731D01*
X66919Y-29597D01*
X66744Y-29525D01*
X66555Y-29524D01*
X66381Y-29597D01*
X66247Y-29730D01*
X66175Y-29905D01*
X66174Y-30094D01*
X66243Y-30261D01*
X66204Y-30269D01*
X66125Y-30321D01*
X66125Y-29905D01*
X66125Y-28905D01*
X66125Y-28905D01*
X66125Y-27375D01*
X66125Y-26975D01*
X65725Y-26975D01*
X65675Y-27025D01*
X65674Y-27185D01*
X65675Y-27264D01*
X65705Y-27338D01*
X65761Y-27394D01*
X65835Y-27425D01*
X66075Y-27425D01*
X66125Y-27375D01*
X66125Y-28905D01*
X66052Y-28731D01*
X65919Y-28597D01*
X65744Y-28525D01*
X65626Y-28524D01*
X65555Y-28524D01*
X65438Y-28573D01*
X65438Y-27274D01*
X65150Y-26985D01*
X65114Y-27020D01*
X64861Y-27274D01*
X64885Y-27355D01*
X65061Y-27426D01*
X65250Y-27423D01*
X65414Y-27355D01*
X65438Y-27274D01*
X65438Y-28573D01*
X65381Y-28597D01*
X65247Y-28730D01*
X65175Y-28905D01*
X65174Y-29094D01*
X65247Y-29268D01*
X65380Y-29402D01*
X65555Y-29474D01*
X65744Y-29475D01*
X65918Y-29402D01*
X66052Y-29269D01*
X66124Y-29094D01*
X66125Y-28905D01*
X66125Y-29905D01*
X66052Y-29731D01*
X65919Y-29597D01*
X65744Y-29525D01*
X65555Y-29524D01*
X65381Y-29597D01*
X65247Y-29730D01*
X65175Y-29905D01*
X65174Y-30094D01*
X65247Y-30268D01*
X65380Y-30402D01*
X65555Y-30474D01*
X65744Y-30475D01*
X65918Y-30402D01*
X66052Y-30269D01*
X66124Y-30094D01*
X66125Y-29905D01*
X66125Y-30321D01*
X66123Y-30323D01*
X65973Y-30473D01*
X65919Y-30554D01*
X65911Y-30594D01*
X65744Y-30525D01*
X65555Y-30524D01*
X65381Y-30597D01*
X65247Y-30730D01*
X65175Y-30905D01*
X65174Y-31094D01*
X65247Y-31268D01*
X65380Y-31402D01*
X65555Y-31474D01*
X65744Y-31475D01*
X65900Y-31410D01*
X65900Y-31588D01*
X65738Y-31523D01*
X65549Y-31526D01*
X65385Y-31594D01*
X65361Y-31675D01*
X65614Y-31929D01*
X65614Y-31929D01*
X65685Y-32000D01*
X65614Y-32070D01*
X65614Y-32000D01*
X65325Y-31711D01*
X65244Y-31735D01*
X65173Y-31911D01*
X65176Y-32100D01*
X65244Y-32264D01*
X65325Y-32288D01*
X65614Y-32000D01*
X65614Y-32070D01*
X65361Y-32324D01*
X65385Y-32405D01*
X65561Y-32476D01*
X65750Y-32473D01*
X65900Y-32411D01*
X65900Y-32589D01*
X65744Y-32525D01*
X65555Y-32524D01*
X65381Y-32597D01*
X65247Y-32730D01*
X65175Y-32905D01*
X65174Y-33071D01*
X64823Y-33423D01*
X64769Y-33504D01*
X64750Y-33600D01*
X64750Y-35500D01*
X64769Y-35595D01*
X64823Y-35676D01*
X65003Y-35856D01*
X65084Y-35910D01*
X65084Y-35910D01*
X65180Y-35930D01*
X66676Y-35930D01*
X66725Y-35978D01*
X66724Y-36074D01*
X66781Y-36212D01*
X66887Y-36317D01*
X67025Y-36374D01*
X67174Y-36375D01*
X67312Y-36318D01*
X67417Y-36212D01*
X67474Y-36074D01*
X67475Y-35925D01*
X67418Y-35787D01*
X67312Y-35682D01*
X67174Y-35625D01*
X67078Y-35624D01*
X67053Y-35600D01*
X67515Y-35137D01*
X67575Y-35282D01*
X67716Y-35423D01*
X67900Y-35499D01*
X68099Y-35500D01*
X68282Y-35424D01*
X68423Y-35283D01*
X68499Y-35099D01*
X68500Y-34900D01*
X68424Y-34717D01*
X68283Y-34576D01*
X68099Y-34500D01*
X67900Y-34499D01*
X67717Y-34575D01*
X67650Y-34642D01*
X67650Y-34357D01*
X67716Y-34423D01*
X67900Y-34499D01*
X68099Y-34500D01*
X68282Y-34424D01*
X68423Y-34283D01*
X68499Y-34099D01*
X68500Y-33900D01*
X68424Y-33717D01*
X68283Y-33576D01*
X68099Y-33500D01*
X67900Y-33499D01*
X67717Y-33575D01*
X67650Y-33642D01*
X67650Y-33357D01*
X67716Y-33423D01*
X67900Y-33499D01*
X68099Y-33500D01*
X68282Y-33424D01*
X68423Y-33283D01*
X68499Y-33099D01*
X68500Y-32900D01*
X68424Y-32717D01*
X68421Y-32714D01*
X68476Y-32676D01*
X68676Y-32476D01*
X68676Y-32476D01*
X68676Y-32476D01*
X68709Y-32428D01*
X68713Y-32421D01*
X68716Y-32423D01*
X68900Y-32499D01*
X69099Y-32500D01*
X69282Y-32424D01*
X69423Y-32283D01*
X69499Y-32099D01*
X69500Y-31900D01*
X69424Y-31717D01*
X69421Y-31714D01*
X69476Y-31676D01*
X69776Y-31376D01*
X69776Y-31376D01*
X69776Y-31376D01*
X69830Y-31295D01*
X69830Y-31295D01*
X69846Y-31219D01*
X69850Y-31200D01*
X69850Y-42498D01*
X69834Y-42459D01*
X69818Y-42436D01*
X69685Y-42350D01*
X69649Y-42385D01*
X69649Y-42314D01*
X69563Y-42181D01*
X69500Y-42154D01*
X69500Y-41094D01*
X69500Y-41006D01*
X69500Y-39900D01*
X69500Y-38900D01*
X69500Y-37900D01*
X69500Y-36900D01*
X69500Y-35900D01*
X69500Y-34900D01*
X69500Y-33900D01*
X69500Y-32900D01*
X69424Y-32717D01*
X69283Y-32576D01*
X69099Y-32500D01*
X68900Y-32499D01*
X68717Y-32575D01*
X68576Y-32716D01*
X68500Y-32900D01*
X68499Y-33099D01*
X68575Y-33282D01*
X68716Y-33423D01*
X68900Y-33499D01*
X69099Y-33500D01*
X69282Y-33424D01*
X69423Y-33283D01*
X69499Y-33099D01*
X69500Y-32900D01*
X69500Y-33900D01*
X69424Y-33717D01*
X69283Y-33576D01*
X69099Y-33500D01*
X68900Y-33499D01*
X68717Y-33575D01*
X68576Y-33716D01*
X68500Y-33900D01*
X68499Y-34099D01*
X68575Y-34282D01*
X68716Y-34423D01*
X68900Y-34499D01*
X69099Y-34500D01*
X69282Y-34424D01*
X69423Y-34283D01*
X69499Y-34099D01*
X69500Y-33900D01*
X69500Y-34900D01*
X69424Y-34717D01*
X69283Y-34576D01*
X69099Y-34500D01*
X68900Y-34499D01*
X68717Y-34575D01*
X68576Y-34716D01*
X68500Y-34900D01*
X68499Y-35099D01*
X68575Y-35282D01*
X68716Y-35423D01*
X68900Y-35499D01*
X69099Y-35500D01*
X69282Y-35424D01*
X69423Y-35283D01*
X69499Y-35099D01*
X69500Y-34900D01*
X69500Y-35900D01*
X69424Y-35717D01*
X69283Y-35576D01*
X69099Y-35500D01*
X68900Y-35499D01*
X68717Y-35575D01*
X68576Y-35716D01*
X68500Y-35900D01*
X68500Y-35901D01*
X68500Y-35900D01*
X68424Y-35717D01*
X68283Y-35576D01*
X68099Y-35500D01*
X67900Y-35499D01*
X67717Y-35575D01*
X67576Y-35716D01*
X67500Y-35900D01*
X67499Y-36099D01*
X67575Y-36282D01*
X67716Y-36423D01*
X67900Y-36499D01*
X68099Y-36500D01*
X68282Y-36424D01*
X68423Y-36283D01*
X68499Y-36099D01*
X68500Y-35900D01*
X68500Y-35901D01*
X68499Y-36099D01*
X68575Y-36282D01*
X68716Y-36423D01*
X68900Y-36499D01*
X69099Y-36500D01*
X69282Y-36424D01*
X69423Y-36283D01*
X69499Y-36099D01*
X69500Y-35900D01*
X69500Y-36900D01*
X69424Y-36717D01*
X69283Y-36576D01*
X69099Y-36500D01*
X68900Y-36499D01*
X68717Y-36575D01*
X68576Y-36716D01*
X68500Y-36900D01*
X68500Y-36901D01*
X68500Y-36900D01*
X68424Y-36717D01*
X68283Y-36576D01*
X68099Y-36500D01*
X67900Y-36499D01*
X67717Y-36575D01*
X67576Y-36716D01*
X67500Y-36900D01*
X67499Y-37099D01*
X67575Y-37282D01*
X67716Y-37423D01*
X67900Y-37499D01*
X68099Y-37500D01*
X68282Y-37424D01*
X68423Y-37283D01*
X68499Y-37099D01*
X68500Y-36900D01*
X68500Y-36901D01*
X68499Y-37099D01*
X68575Y-37282D01*
X68716Y-37423D01*
X68900Y-37499D01*
X69099Y-37500D01*
X69282Y-37424D01*
X69423Y-37283D01*
X69499Y-37099D01*
X69500Y-36900D01*
X69500Y-37900D01*
X69424Y-37717D01*
X69283Y-37576D01*
X69099Y-37500D01*
X68900Y-37499D01*
X68717Y-37575D01*
X68576Y-37716D01*
X68500Y-37900D01*
X68500Y-37901D01*
X68500Y-37900D01*
X68424Y-37717D01*
X68283Y-37576D01*
X68099Y-37500D01*
X67900Y-37499D01*
X67717Y-37575D01*
X67576Y-37716D01*
X67500Y-37900D01*
X67499Y-38099D01*
X67575Y-38282D01*
X67716Y-38423D01*
X67900Y-38499D01*
X68099Y-38500D01*
X68282Y-38424D01*
X68423Y-38283D01*
X68499Y-38099D01*
X68500Y-37900D01*
X68500Y-37901D01*
X68499Y-38099D01*
X68575Y-38282D01*
X68716Y-38423D01*
X68900Y-38499D01*
X69099Y-38500D01*
X69282Y-38424D01*
X69423Y-38283D01*
X69499Y-38099D01*
X69500Y-37900D01*
X69500Y-38900D01*
X69424Y-38717D01*
X69283Y-38576D01*
X69099Y-38500D01*
X68900Y-38499D01*
X68717Y-38575D01*
X68576Y-38716D01*
X68500Y-38900D01*
X68500Y-38901D01*
X68500Y-38900D01*
X68424Y-38717D01*
X68283Y-38576D01*
X68099Y-38500D01*
X67900Y-38499D01*
X67717Y-38575D01*
X67576Y-38716D01*
X67500Y-38900D01*
X67499Y-39099D01*
X67575Y-39282D01*
X67716Y-39423D01*
X67900Y-39499D01*
X68099Y-39500D01*
X68282Y-39424D01*
X68423Y-39283D01*
X68499Y-39099D01*
X68500Y-38900D01*
X68500Y-38901D01*
X68499Y-39099D01*
X68575Y-39282D01*
X68716Y-39423D01*
X68900Y-39499D01*
X69099Y-39500D01*
X69282Y-39424D01*
X69423Y-39283D01*
X69499Y-39099D01*
X69500Y-38900D01*
X69500Y-39900D01*
X69424Y-39717D01*
X69283Y-39576D01*
X69099Y-39500D01*
X68900Y-39499D01*
X68717Y-39575D01*
X68576Y-39716D01*
X68500Y-39900D01*
X68500Y-39901D01*
X68500Y-39900D01*
X68424Y-39717D01*
X68283Y-39576D01*
X68099Y-39500D01*
X67900Y-39499D01*
X67717Y-39575D01*
X67576Y-39716D01*
X67500Y-39900D01*
X67499Y-40099D01*
X67575Y-40282D01*
X67716Y-40423D01*
X67900Y-40499D01*
X67997Y-40499D01*
X67895Y-40500D01*
X67720Y-40573D01*
X67693Y-40657D01*
X68000Y-40964D01*
X68306Y-40657D01*
X68279Y-40573D01*
X68097Y-40500D01*
X68099Y-40500D01*
X68282Y-40424D01*
X68423Y-40283D01*
X68499Y-40099D01*
X68500Y-39900D01*
X68500Y-39901D01*
X68499Y-40099D01*
X68575Y-40282D01*
X68716Y-40423D01*
X68900Y-40499D01*
X68997Y-40499D01*
X68895Y-40500D01*
X68720Y-40573D01*
X68693Y-40657D01*
X69000Y-40964D01*
X69306Y-40657D01*
X69279Y-40573D01*
X69097Y-40500D01*
X69099Y-40500D01*
X69282Y-40424D01*
X69423Y-40283D01*
X69499Y-40099D01*
X69500Y-39900D01*
X69500Y-41006D01*
X69499Y-40895D01*
X69426Y-40720D01*
X69342Y-40693D01*
X69035Y-41000D01*
X69342Y-41306D01*
X69426Y-41279D01*
X69500Y-41094D01*
X69500Y-42154D01*
X69306Y-42070D01*
X69306Y-41342D01*
X69000Y-41035D01*
X68964Y-41070D01*
X68964Y-41000D01*
X68657Y-40693D01*
X68573Y-40720D01*
X68499Y-40905D01*
X68499Y-40895D01*
X68426Y-40720D01*
X68342Y-40693D01*
X68035Y-41000D01*
X68342Y-41306D01*
X68426Y-41279D01*
X68500Y-41094D01*
X68500Y-41104D01*
X68573Y-41279D01*
X68657Y-41306D01*
X68964Y-41000D01*
X68964Y-41070D01*
X68693Y-41342D01*
X68720Y-41426D01*
X68905Y-41500D01*
X69104Y-41499D01*
X69279Y-41426D01*
X69306Y-41342D01*
X69306Y-42070D01*
X69207Y-42027D01*
X68819Y-42022D01*
X68459Y-42165D01*
X68436Y-42181D01*
X68350Y-42314D01*
X69000Y-42964D01*
X69649Y-42314D01*
X69649Y-42385D01*
X69035Y-43000D01*
X69685Y-43649D01*
X69818Y-43563D01*
X69972Y-43207D01*
X69977Y-42819D01*
X69977Y-44260D01*
X69649Y-44260D01*
X69649Y-43685D01*
X69000Y-43035D01*
X68964Y-43070D01*
X68964Y-43000D01*
X68314Y-42350D01*
X68306Y-42355D01*
X68306Y-41342D01*
X68000Y-41035D01*
X67964Y-41070D01*
X67964Y-41000D01*
X67657Y-40693D01*
X67573Y-40720D01*
X67499Y-40905D01*
X67500Y-41104D01*
X67573Y-41279D01*
X67657Y-41306D01*
X67964Y-41000D01*
X67964Y-41070D01*
X67693Y-41342D01*
X67720Y-41426D01*
X67905Y-41500D01*
X68104Y-41499D01*
X68279Y-41426D01*
X68306Y-41342D01*
X68306Y-42355D01*
X68181Y-42436D01*
X68027Y-42792D01*
X68022Y-43180D01*
X68165Y-43540D01*
X68181Y-43563D01*
X68314Y-43649D01*
X68964Y-43000D01*
X68964Y-43070D01*
X68350Y-43685D01*
X68436Y-43818D01*
X68792Y-43972D01*
X69180Y-43977D01*
X69540Y-43834D01*
X69563Y-43818D01*
X69649Y-43685D01*
X69649Y-44260D01*
X67500Y-44260D01*
X67500Y-43213D01*
X67500Y-42786D01*
X67461Y-42594D01*
X67353Y-42432D01*
X67191Y-42324D01*
X67000Y-42286D01*
X66808Y-42324D01*
X66646Y-42432D01*
X66538Y-42594D01*
X66500Y-42786D01*
X66461Y-42594D01*
X66353Y-42432D01*
X66191Y-42324D01*
X66000Y-42286D01*
X65808Y-42324D01*
X65646Y-42432D01*
X65538Y-42594D01*
X65500Y-42786D01*
X65461Y-42594D01*
X65353Y-42432D01*
X65191Y-42324D01*
X65000Y-42286D01*
X64808Y-42324D01*
X64646Y-42432D01*
X64538Y-42594D01*
X64500Y-42786D01*
X64461Y-42594D01*
X64353Y-42432D01*
X64191Y-42324D01*
X64000Y-42286D01*
X63975Y-42291D01*
X63975Y-36825D01*
X63918Y-36687D01*
X63812Y-36582D01*
X63674Y-36525D01*
X63525Y-36524D01*
X63387Y-36581D01*
X63319Y-36650D01*
X62625Y-36650D01*
X62625Y-26855D01*
X62552Y-26681D01*
X62419Y-26547D01*
X62244Y-26475D01*
X62055Y-26474D01*
X61881Y-26547D01*
X61747Y-26680D01*
X61675Y-26855D01*
X61674Y-27044D01*
X61747Y-27218D01*
X61880Y-27352D01*
X62055Y-27424D01*
X62244Y-27425D01*
X62418Y-27352D01*
X62552Y-27219D01*
X62624Y-27044D01*
X62625Y-26855D01*
X62625Y-36650D01*
X61780Y-36650D01*
X61712Y-36582D01*
X61574Y-36525D01*
X61425Y-36524D01*
X61287Y-36581D01*
X61182Y-36687D01*
X61125Y-36825D01*
X61124Y-36974D01*
X61181Y-37112D01*
X61287Y-37217D01*
X61425Y-37274D01*
X61574Y-37275D01*
X61712Y-37218D01*
X61780Y-37150D01*
X63319Y-37150D01*
X63387Y-37217D01*
X63525Y-37274D01*
X63674Y-37275D01*
X63812Y-37218D01*
X63917Y-37112D01*
X63974Y-36974D01*
X63975Y-36825D01*
X63975Y-42291D01*
X63808Y-42324D01*
X63646Y-42432D01*
X63538Y-42594D01*
X63500Y-42786D01*
X63461Y-42594D01*
X63353Y-42432D01*
X63191Y-42324D01*
X63000Y-42286D01*
X62808Y-42324D01*
X62646Y-42432D01*
X62538Y-42594D01*
X62500Y-42786D01*
X62461Y-42594D01*
X62353Y-42432D01*
X62191Y-42324D01*
X62000Y-42286D01*
X61808Y-42324D01*
X61646Y-42432D01*
X61538Y-42594D01*
X61500Y-42786D01*
X61461Y-42594D01*
X61353Y-42432D01*
X61191Y-42324D01*
X61000Y-42286D01*
X60808Y-42324D01*
X60646Y-42432D01*
X60538Y-42594D01*
X60500Y-42786D01*
X60461Y-42594D01*
X60353Y-42432D01*
X60300Y-42397D01*
X60300Y-32391D01*
X60216Y-32188D01*
X60061Y-32034D01*
X60051Y-32029D01*
X60061Y-32025D01*
X60215Y-31870D01*
X60299Y-31668D01*
X60300Y-31450D01*
X60225Y-31268D01*
X60225Y-29155D01*
X60225Y-29155D01*
X60225Y-26485D01*
X60225Y-25935D01*
X60194Y-25861D01*
X60138Y-25805D01*
X60064Y-25775D01*
X59985Y-25774D01*
X59435Y-25774D01*
X59361Y-25805D01*
X59305Y-25861D01*
X59275Y-25935D01*
X59274Y-26014D01*
X59274Y-26564D01*
X59305Y-26638D01*
X59361Y-26694D01*
X59435Y-26724D01*
X59514Y-26725D01*
X60064Y-26725D01*
X60138Y-26694D01*
X60194Y-26638D01*
X60224Y-26564D01*
X60225Y-26485D01*
X60225Y-29155D01*
X60152Y-28981D01*
X60019Y-28847D01*
X59844Y-28775D01*
X59655Y-28774D01*
X59481Y-28847D01*
X59347Y-28980D01*
X59275Y-29155D01*
X59274Y-29344D01*
X59347Y-29518D01*
X59480Y-29652D01*
X59655Y-29724D01*
X59844Y-29725D01*
X60018Y-29652D01*
X60152Y-29519D01*
X60224Y-29344D01*
X60225Y-29155D01*
X60225Y-31268D01*
X60216Y-31247D01*
X60061Y-31093D01*
X59859Y-31009D01*
X59641Y-31008D01*
X59438Y-31092D01*
X59284Y-31247D01*
X59200Y-31449D01*
X59199Y-31667D01*
X59283Y-31870D01*
X59438Y-32024D01*
X59448Y-32029D01*
X59438Y-32033D01*
X59284Y-32188D01*
X59200Y-32390D01*
X59199Y-32608D01*
X59283Y-32811D01*
X59363Y-32890D01*
X59360Y-32890D01*
X59286Y-32921D01*
X59230Y-32977D01*
X59200Y-33051D01*
X59199Y-33130D01*
X59200Y-33366D01*
X59250Y-33416D01*
X59675Y-33416D01*
X59725Y-33416D01*
X59775Y-33416D01*
X59825Y-33416D01*
X60250Y-33416D01*
X60300Y-33366D01*
X60300Y-33130D01*
X60299Y-33051D01*
X60269Y-32977D01*
X60213Y-32921D01*
X60139Y-32890D01*
X60136Y-32890D01*
X60215Y-32811D01*
X60299Y-32609D01*
X60300Y-32391D01*
X60300Y-42397D01*
X60300Y-42396D01*
X60300Y-33751D01*
X60300Y-33516D01*
X60250Y-33466D01*
X59775Y-33466D01*
X59775Y-33941D01*
X59825Y-33991D01*
X60139Y-33991D01*
X60213Y-33960D01*
X60269Y-33904D01*
X60299Y-33830D01*
X60300Y-33751D01*
X60300Y-42396D01*
X60191Y-42324D01*
X60000Y-42286D01*
X59808Y-42324D01*
X59725Y-42380D01*
X59725Y-33941D01*
X59725Y-33466D01*
X59250Y-33466D01*
X59200Y-33516D01*
X59199Y-33751D01*
X59200Y-33830D01*
X59230Y-33904D01*
X59286Y-33960D01*
X59360Y-33991D01*
X59675Y-33991D01*
X59725Y-33941D01*
X59725Y-42380D01*
X59646Y-42432D01*
X59538Y-42594D01*
X59500Y-42786D01*
X59500Y-43213D01*
X59538Y-43405D01*
X59646Y-43567D01*
X59808Y-43675D01*
X60000Y-43713D01*
X60191Y-43675D01*
X60353Y-43567D01*
X60461Y-43405D01*
X60500Y-43213D01*
X60538Y-43405D01*
X60646Y-43567D01*
X60808Y-43675D01*
X61000Y-43713D01*
X61191Y-43675D01*
X61353Y-43567D01*
X61461Y-43405D01*
X61500Y-43213D01*
X61538Y-43405D01*
X61646Y-43567D01*
X61808Y-43675D01*
X62000Y-43713D01*
X62191Y-43675D01*
X62353Y-43567D01*
X62461Y-43405D01*
X62500Y-43213D01*
X62538Y-43405D01*
X62646Y-43567D01*
X62808Y-43675D01*
X63000Y-43713D01*
X63191Y-43675D01*
X63353Y-43567D01*
X63461Y-43405D01*
X63500Y-43213D01*
X63538Y-43405D01*
X63646Y-43567D01*
X63808Y-43675D01*
X64000Y-43713D01*
X64191Y-43675D01*
X64353Y-43567D01*
X64461Y-43405D01*
X64500Y-43213D01*
X64538Y-43405D01*
X64646Y-43567D01*
X64808Y-43675D01*
X65000Y-43713D01*
X65191Y-43675D01*
X65353Y-43567D01*
X65461Y-43405D01*
X65500Y-43213D01*
X65538Y-43405D01*
X65646Y-43567D01*
X65808Y-43675D01*
X66000Y-43713D01*
X66191Y-43675D01*
X66353Y-43567D01*
X66461Y-43405D01*
X66500Y-43213D01*
X66538Y-43405D01*
X66646Y-43567D01*
X66808Y-43675D01*
X67000Y-43713D01*
X67191Y-43675D01*
X67353Y-43567D01*
X67461Y-43405D01*
X67500Y-43213D01*
X67500Y-44260D01*
X58500Y-44260D01*
X58500Y-34301D01*
X58348Y-33934D01*
X58067Y-33652D01*
X57699Y-33500D01*
X57698Y-33500D01*
X58065Y-33348D01*
X58347Y-33067D01*
X58499Y-32699D01*
X58500Y-32301D01*
X58500Y-28301D01*
X58348Y-27934D01*
X58067Y-27652D01*
X57699Y-27500D01*
X57698Y-27500D01*
X58065Y-27348D01*
X58347Y-27067D01*
X58499Y-26699D01*
X58500Y-26301D01*
X58348Y-25934D01*
X58067Y-25652D01*
X57699Y-25500D01*
X57301Y-25499D01*
X56934Y-25651D01*
X56652Y-25932D01*
X56500Y-26300D01*
X56499Y-26698D01*
X56651Y-27065D01*
X56932Y-27347D01*
X57300Y-27499D01*
X57301Y-27499D01*
X56934Y-27651D01*
X56652Y-27932D01*
X56500Y-28300D01*
X56499Y-28698D01*
X56651Y-29065D01*
X56932Y-29347D01*
X57300Y-29499D01*
X57698Y-29500D01*
X58065Y-29348D01*
X58347Y-29067D01*
X58499Y-28699D01*
X58500Y-28301D01*
X58500Y-32301D01*
X58348Y-31934D01*
X58067Y-31652D01*
X57699Y-31500D01*
X57301Y-31499D01*
X56934Y-31651D01*
X56652Y-31932D01*
X56500Y-32300D01*
X56499Y-32698D01*
X56651Y-33065D01*
X56932Y-33347D01*
X57300Y-33499D01*
X57301Y-33499D01*
X56934Y-33651D01*
X56652Y-33932D01*
X56500Y-34300D01*
X56499Y-34698D01*
X56651Y-35065D01*
X56932Y-35347D01*
X57300Y-35499D01*
X57698Y-35500D01*
X58065Y-35348D01*
X58347Y-35067D01*
X58499Y-34699D01*
X58500Y-34301D01*
X58500Y-44260D01*
X58500Y-44260D01*
X58500Y-43213D01*
X58500Y-42786D01*
X58461Y-42594D01*
X58353Y-42432D01*
X58191Y-42324D01*
X58000Y-42286D01*
X57808Y-42324D01*
X57646Y-42432D01*
X57538Y-42594D01*
X57500Y-42786D01*
X57461Y-42594D01*
X57353Y-42432D01*
X57191Y-42324D01*
X57000Y-42286D01*
X56808Y-42324D01*
X56646Y-42432D01*
X56538Y-42594D01*
X56500Y-42786D01*
X56461Y-42594D01*
X56353Y-42432D01*
X56191Y-42324D01*
X56000Y-42286D01*
X55808Y-42324D01*
X55800Y-42330D01*
X55800Y-26341D01*
X55678Y-26047D01*
X55453Y-25822D01*
X55159Y-25700D01*
X54841Y-25699D01*
X54547Y-25821D01*
X54322Y-26046D01*
X54200Y-26340D01*
X54199Y-26658D01*
X54321Y-26952D01*
X54546Y-27177D01*
X54840Y-27299D01*
X55158Y-27300D01*
X55452Y-27178D01*
X55677Y-26953D01*
X55799Y-26659D01*
X55800Y-26341D01*
X55800Y-42330D01*
X55700Y-42396D01*
X55700Y-32363D01*
X55595Y-32105D01*
X55591Y-32100D01*
X55486Y-32048D01*
X55451Y-32084D01*
X55451Y-32013D01*
X55399Y-31908D01*
X55142Y-31800D01*
X54863Y-31799D01*
X54605Y-31904D01*
X54600Y-31908D01*
X54548Y-32013D01*
X55000Y-32464D01*
X55451Y-32013D01*
X55451Y-32084D01*
X55035Y-32500D01*
X55486Y-32951D01*
X55591Y-32899D01*
X55699Y-32642D01*
X55700Y-32363D01*
X55700Y-42396D01*
X55646Y-42432D01*
X55538Y-42594D01*
X55500Y-42786D01*
X55461Y-42594D01*
X55451Y-42579D01*
X55451Y-32986D01*
X55000Y-32535D01*
X54964Y-32570D01*
X54964Y-32500D01*
X54513Y-32048D01*
X54408Y-32100D01*
X54300Y-32357D01*
X54299Y-32636D01*
X54404Y-32894D01*
X54408Y-32899D01*
X54513Y-32951D01*
X54964Y-32500D01*
X54964Y-32570D01*
X54548Y-32986D01*
X54600Y-33091D01*
X54857Y-33199D01*
X55136Y-33200D01*
X55394Y-33095D01*
X55399Y-33091D01*
X55451Y-32986D01*
X55451Y-42579D01*
X55353Y-42432D01*
X55191Y-42324D01*
X55000Y-42286D01*
X54808Y-42324D01*
X54646Y-42432D01*
X54538Y-42594D01*
X54500Y-42786D01*
X54461Y-42594D01*
X54353Y-42432D01*
X54191Y-42324D01*
X54000Y-42286D01*
X53808Y-42324D01*
X53646Y-42432D01*
X53538Y-42594D01*
X53500Y-42786D01*
X53461Y-42594D01*
X53353Y-42432D01*
X53193Y-42325D01*
X53212Y-42318D01*
X53317Y-42212D01*
X53374Y-42074D01*
X53375Y-41925D01*
X53318Y-41787D01*
X53212Y-41682D01*
X53074Y-41625D01*
X52925Y-41624D01*
X52787Y-41681D01*
X52719Y-41750D01*
X51675Y-41750D01*
X51675Y-38325D01*
X51618Y-38187D01*
X51550Y-38119D01*
X51550Y-36200D01*
X51549Y-36199D01*
X51550Y-36199D01*
X51546Y-36180D01*
X51530Y-36104D01*
X51530Y-36104D01*
X51476Y-36023D01*
X51476Y-36023D01*
X50974Y-35521D01*
X50975Y-35425D01*
X50918Y-35287D01*
X50812Y-35182D01*
X50674Y-35125D01*
X50525Y-35124D01*
X50387Y-35181D01*
X50282Y-35287D01*
X50225Y-35425D01*
X50224Y-35574D01*
X50281Y-35712D01*
X50387Y-35817D01*
X50525Y-35874D01*
X50621Y-35875D01*
X51050Y-36303D01*
X51050Y-38119D01*
X50982Y-38187D01*
X50925Y-38325D01*
X50924Y-38474D01*
X50981Y-38612D01*
X51087Y-38717D01*
X51225Y-38774D01*
X51374Y-38775D01*
X51512Y-38718D01*
X51617Y-38612D01*
X51674Y-38474D01*
X51675Y-38325D01*
X51675Y-41750D01*
X51400Y-41750D01*
X51399Y-41750D01*
X51380Y-41753D01*
X51304Y-41769D01*
X51223Y-41823D01*
X51223Y-41823D01*
X50823Y-42223D01*
X50769Y-42304D01*
X50758Y-42357D01*
X50646Y-42432D01*
X50538Y-42594D01*
X50500Y-42786D01*
X50500Y-43213D01*
X50538Y-43405D01*
X50646Y-43567D01*
X50808Y-43675D01*
X51000Y-43713D01*
X51191Y-43675D01*
X51353Y-43567D01*
X51461Y-43405D01*
X51500Y-43213D01*
X51538Y-43405D01*
X51646Y-43567D01*
X51808Y-43675D01*
X52000Y-43713D01*
X52191Y-43675D01*
X52353Y-43567D01*
X52461Y-43405D01*
X52500Y-43213D01*
X52538Y-43405D01*
X52646Y-43567D01*
X52808Y-43675D01*
X53000Y-43713D01*
X53191Y-43675D01*
X53353Y-43567D01*
X53461Y-43405D01*
X53500Y-43213D01*
X53538Y-43405D01*
X53646Y-43567D01*
X53808Y-43675D01*
X54000Y-43713D01*
X54191Y-43675D01*
X54353Y-43567D01*
X54461Y-43405D01*
X54500Y-43213D01*
X54538Y-43405D01*
X54646Y-43567D01*
X54808Y-43675D01*
X55000Y-43713D01*
X55191Y-43675D01*
X55353Y-43567D01*
X55461Y-43405D01*
X55500Y-43213D01*
X55538Y-43405D01*
X55646Y-43567D01*
X55808Y-43675D01*
X56000Y-43713D01*
X56191Y-43675D01*
X56353Y-43567D01*
X56461Y-43405D01*
X56500Y-43213D01*
X56538Y-43405D01*
X56646Y-43567D01*
X56808Y-43675D01*
X57000Y-43713D01*
X57191Y-43675D01*
X57353Y-43567D01*
X57461Y-43405D01*
X57500Y-43213D01*
X57538Y-43405D01*
X57646Y-43567D01*
X57808Y-43675D01*
X58000Y-43713D01*
X58191Y-43675D01*
X58353Y-43567D01*
X58461Y-43405D01*
X58500Y-43213D01*
X58500Y-44260D01*
X57500Y-44260D01*
X49500Y-44260D01*
X49500Y-43213D01*
X49500Y-42786D01*
X49461Y-42594D01*
X49353Y-42432D01*
X49191Y-42324D01*
X49000Y-42286D01*
X48808Y-42324D01*
X48646Y-42432D01*
X48538Y-42594D01*
X48500Y-42786D01*
X48500Y-42775D01*
X48452Y-42585D01*
X48335Y-42428D01*
X48168Y-42328D01*
X48132Y-42318D01*
X48224Y-42300D01*
X48329Y-42229D01*
X48400Y-42124D01*
X48425Y-42000D01*
X48425Y-41434D01*
X48491Y-41367D01*
X48612Y-41318D01*
X48717Y-41212D01*
X48774Y-41074D01*
X48775Y-40925D01*
X48718Y-40787D01*
X48612Y-40682D01*
X48474Y-40625D01*
X48325Y-40624D01*
X48187Y-40681D01*
X48082Y-40787D01*
X48031Y-40908D01*
X47900Y-41040D01*
X47900Y-24213D01*
X47900Y-23786D01*
X47861Y-23594D01*
X47753Y-23432D01*
X47591Y-23324D01*
X47400Y-23286D01*
X47208Y-23324D01*
X47046Y-23432D01*
X46938Y-23594D01*
X46900Y-23786D01*
X46861Y-23594D01*
X46753Y-23432D01*
X46591Y-23324D01*
X46400Y-23286D01*
X46208Y-23324D01*
X46046Y-23432D01*
X45938Y-23594D01*
X45900Y-23786D01*
X45861Y-23594D01*
X45753Y-23432D01*
X45591Y-23324D01*
X45400Y-23286D01*
X45208Y-23324D01*
X45046Y-23432D01*
X44938Y-23594D01*
X44900Y-23786D01*
X44861Y-23594D01*
X44753Y-23432D01*
X44591Y-23324D01*
X44400Y-23286D01*
X44208Y-23324D01*
X44046Y-23432D01*
X43938Y-23594D01*
X43900Y-23786D01*
X43861Y-23594D01*
X43753Y-23432D01*
X43591Y-23324D01*
X43400Y-23286D01*
X43208Y-23324D01*
X43046Y-23432D01*
X42938Y-23594D01*
X42900Y-23786D01*
X42861Y-23594D01*
X42753Y-23432D01*
X42591Y-23324D01*
X42400Y-23286D01*
X42208Y-23324D01*
X42046Y-23432D01*
X41938Y-23594D01*
X41900Y-23786D01*
X41861Y-23594D01*
X41753Y-23432D01*
X41591Y-23324D01*
X41400Y-23286D01*
X41208Y-23324D01*
X41046Y-23432D01*
X40938Y-23594D01*
X40900Y-23786D01*
X40861Y-23594D01*
X40753Y-23432D01*
X40591Y-23324D01*
X40400Y-23286D01*
X40208Y-23324D01*
X40046Y-23432D01*
X39938Y-23594D01*
X39900Y-23786D01*
X39900Y-24213D01*
X39938Y-24405D01*
X40046Y-24567D01*
X40208Y-24675D01*
X40400Y-24713D01*
X40591Y-24675D01*
X40753Y-24567D01*
X40861Y-24405D01*
X40900Y-24213D01*
X40938Y-24405D01*
X41046Y-24567D01*
X41208Y-24675D01*
X41400Y-24713D01*
X41591Y-24675D01*
X41753Y-24567D01*
X41861Y-24405D01*
X41900Y-24213D01*
X41938Y-24405D01*
X42046Y-24567D01*
X42208Y-24675D01*
X42400Y-24713D01*
X42591Y-24675D01*
X42753Y-24567D01*
X42861Y-24405D01*
X42900Y-24213D01*
X42938Y-24405D01*
X43046Y-24567D01*
X43208Y-24675D01*
X43400Y-24713D01*
X43591Y-24675D01*
X43753Y-24567D01*
X43861Y-24405D01*
X43900Y-24213D01*
X43938Y-24405D01*
X44046Y-24567D01*
X44208Y-24675D01*
X44400Y-24713D01*
X44591Y-24675D01*
X44753Y-24567D01*
X44861Y-24405D01*
X44900Y-24213D01*
X44938Y-24405D01*
X45046Y-24567D01*
X45208Y-24675D01*
X45400Y-24713D01*
X45591Y-24675D01*
X45753Y-24567D01*
X45861Y-24405D01*
X45900Y-24213D01*
X45938Y-24405D01*
X46046Y-24567D01*
X46208Y-24675D01*
X46400Y-24713D01*
X46591Y-24675D01*
X46753Y-24567D01*
X46861Y-24405D01*
X46900Y-24213D01*
X46938Y-24405D01*
X47046Y-24567D01*
X47208Y-24675D01*
X47400Y-24713D01*
X47591Y-24675D01*
X47753Y-24567D01*
X47861Y-24405D01*
X47900Y-24213D01*
X47900Y-41040D01*
X47870Y-41070D01*
X47799Y-41175D01*
X47775Y-41300D01*
X47775Y-41675D01*
X46600Y-41675D01*
X46475Y-41699D01*
X46370Y-41770D01*
X46370Y-41770D01*
X45817Y-42322D01*
X45808Y-42324D01*
X45646Y-42432D01*
X45538Y-42594D01*
X45500Y-42786D01*
X45461Y-42594D01*
X45353Y-42432D01*
X45191Y-42324D01*
X45000Y-42286D01*
X44808Y-42324D01*
X44646Y-42432D01*
X44538Y-42594D01*
X44500Y-42786D01*
X44461Y-42594D01*
X44353Y-42432D01*
X44191Y-42324D01*
X44000Y-42286D01*
X43808Y-42324D01*
X43646Y-42432D01*
X43538Y-42594D01*
X43500Y-42786D01*
X43500Y-43213D01*
X43538Y-43405D01*
X43646Y-43567D01*
X43808Y-43675D01*
X44000Y-43713D01*
X44191Y-43675D01*
X44353Y-43567D01*
X44461Y-43405D01*
X44500Y-43213D01*
X44538Y-43405D01*
X44646Y-43567D01*
X44808Y-43675D01*
X45000Y-43713D01*
X45191Y-43675D01*
X45353Y-43567D01*
X45461Y-43405D01*
X45500Y-43213D01*
X45538Y-43405D01*
X45646Y-43567D01*
X45808Y-43675D01*
X46000Y-43713D01*
X46191Y-43675D01*
X46353Y-43567D01*
X46461Y-43405D01*
X46500Y-43213D01*
X46500Y-43225D01*
X46547Y-43414D01*
X46664Y-43571D01*
X46831Y-43671D01*
X46897Y-43689D01*
X46975Y-43649D01*
X46975Y-43025D01*
X46500Y-43025D01*
X46500Y-42975D01*
X46925Y-42975D01*
X46975Y-42975D01*
X47025Y-42975D01*
X47075Y-42975D01*
X47500Y-42975D01*
X47925Y-42975D01*
X47975Y-42975D01*
X48025Y-42975D01*
X48025Y-43025D01*
X48025Y-43075D01*
X48025Y-43649D01*
X48102Y-43689D01*
X48168Y-43671D01*
X48335Y-43571D01*
X48452Y-43414D01*
X48500Y-43225D01*
X48500Y-43213D01*
X48538Y-43405D01*
X48646Y-43567D01*
X48808Y-43675D01*
X49000Y-43713D01*
X49191Y-43675D01*
X49353Y-43567D01*
X49461Y-43405D01*
X49500Y-43213D01*
X49500Y-44260D01*
X47975Y-44260D01*
X47975Y-43649D01*
X47975Y-43025D01*
X47500Y-43025D01*
X47025Y-43025D01*
X47025Y-43649D01*
X47102Y-43689D01*
X47168Y-43671D01*
X47335Y-43571D01*
X47452Y-43414D01*
X47500Y-43225D01*
X47547Y-43414D01*
X47664Y-43571D01*
X47831Y-43671D01*
X47897Y-43689D01*
X47975Y-43649D01*
X47975Y-44260D01*
X40800Y-44260D01*
X40800Y-26940D01*
X40800Y-25940D01*
X40754Y-25830D01*
X40670Y-25745D01*
X40559Y-25700D01*
X40440Y-25699D01*
X39440Y-25699D01*
X39330Y-25745D01*
X39245Y-25829D01*
X39200Y-25940D01*
X39199Y-26059D01*
X39199Y-27059D01*
X39245Y-27169D01*
X39329Y-27254D01*
X39440Y-27299D01*
X39559Y-27300D01*
X40559Y-27300D01*
X40669Y-27254D01*
X40754Y-27170D01*
X40799Y-27059D01*
X40800Y-26940D01*
X40800Y-44260D01*
X40700Y-44260D01*
X40700Y-32363D01*
X40595Y-32105D01*
X40591Y-32100D01*
X40486Y-32048D01*
X40451Y-32084D01*
X40451Y-32013D01*
X40399Y-31908D01*
X40142Y-31800D01*
X39863Y-31799D01*
X39605Y-31904D01*
X39600Y-31908D01*
X39548Y-32013D01*
X40000Y-32464D01*
X40451Y-32013D01*
X40451Y-32084D01*
X40035Y-32500D01*
X40486Y-32951D01*
X40591Y-32899D01*
X40699Y-32642D01*
X40700Y-32363D01*
X40700Y-44260D01*
X40451Y-44260D01*
X40451Y-32986D01*
X40000Y-32535D01*
X39964Y-32570D01*
X39964Y-32500D01*
X39513Y-32048D01*
X39408Y-32100D01*
X39300Y-32357D01*
X39299Y-32636D01*
X39404Y-32894D01*
X39408Y-32899D01*
X39513Y-32951D01*
X39964Y-32500D01*
X39964Y-32570D01*
X39548Y-32986D01*
X39600Y-33091D01*
X39857Y-33199D01*
X40136Y-33200D01*
X40394Y-33095D01*
X40399Y-33091D01*
X40451Y-32986D01*
X40451Y-44260D01*
X39100Y-44260D01*
X39100Y-34183D01*
X38857Y-33594D01*
X38762Y-33500D01*
X38855Y-33407D01*
X39099Y-32819D01*
X39100Y-32183D01*
X39100Y-28183D01*
X38857Y-27594D01*
X38762Y-27500D01*
X38855Y-27407D01*
X39099Y-26819D01*
X39100Y-26183D01*
X38857Y-25594D01*
X38407Y-25144D01*
X37977Y-24965D01*
X37977Y-23819D01*
X37834Y-23459D01*
X37818Y-23436D01*
X37685Y-23350D01*
X37649Y-23385D01*
X37649Y-23314D01*
X37563Y-23181D01*
X37207Y-23027D01*
X36819Y-23022D01*
X36459Y-23165D01*
X36436Y-23181D01*
X36350Y-23314D01*
X37000Y-23964D01*
X37649Y-23314D01*
X37649Y-23385D01*
X37035Y-24000D01*
X37685Y-24649D01*
X37818Y-24563D01*
X37972Y-24207D01*
X37977Y-23819D01*
X37977Y-24965D01*
X37819Y-24900D01*
X37375Y-24899D01*
X37540Y-24834D01*
X37563Y-24818D01*
X37649Y-24685D01*
X37000Y-24035D01*
X36964Y-24070D01*
X36964Y-24000D01*
X36314Y-23350D01*
X36181Y-23436D01*
X36027Y-23792D01*
X36022Y-24180D01*
X36165Y-24540D01*
X36181Y-24563D01*
X36314Y-24649D01*
X36964Y-24000D01*
X36964Y-24070D01*
X36350Y-24685D01*
X36436Y-24818D01*
X36792Y-24972D01*
X37000Y-24975D01*
X36594Y-25142D01*
X36144Y-25592D01*
X36114Y-25664D01*
X35959Y-25600D01*
X35741Y-25599D01*
X35041Y-25599D01*
X34838Y-25683D01*
X34684Y-25838D01*
X34600Y-26040D01*
X34599Y-26258D01*
X34599Y-26958D01*
X34683Y-27161D01*
X34838Y-27315D01*
X35040Y-27399D01*
X35258Y-27400D01*
X35958Y-27400D01*
X36114Y-27335D01*
X36142Y-27405D01*
X36237Y-27499D01*
X36144Y-27592D01*
X35900Y-28180D01*
X35899Y-28816D01*
X36142Y-29405D01*
X36592Y-29855D01*
X37180Y-30099D01*
X37816Y-30100D01*
X38405Y-29857D01*
X38855Y-29407D01*
X39099Y-28819D01*
X39100Y-28183D01*
X39100Y-32183D01*
X38857Y-31594D01*
X38407Y-31144D01*
X37819Y-30900D01*
X37183Y-30899D01*
X36594Y-31142D01*
X36144Y-31592D01*
X36050Y-31818D01*
X36050Y-31606D01*
X36049Y-31387D01*
X35967Y-31190D01*
X35878Y-31156D01*
X35843Y-31192D01*
X35843Y-31121D01*
X35809Y-31032D01*
X35606Y-30949D01*
X35387Y-30950D01*
X35190Y-31032D01*
X35156Y-31121D01*
X35500Y-31464D01*
X35843Y-31121D01*
X35843Y-31192D01*
X35535Y-31500D01*
X35878Y-31843D01*
X35967Y-31809D01*
X36050Y-31606D01*
X36050Y-31818D01*
X35900Y-32180D01*
X35899Y-32816D01*
X36142Y-33405D01*
X36237Y-33499D01*
X36144Y-33592D01*
X36103Y-33690D01*
X35944Y-33530D01*
X35843Y-33488D01*
X35843Y-31878D01*
X35500Y-31535D01*
X35464Y-31570D01*
X35464Y-31500D01*
X35121Y-31156D01*
X35032Y-31190D01*
X34949Y-31393D01*
X34950Y-31612D01*
X35032Y-31809D01*
X35121Y-31843D01*
X35464Y-31500D01*
X35464Y-31570D01*
X35156Y-31878D01*
X35190Y-31967D01*
X35393Y-32050D01*
X35612Y-32049D01*
X35809Y-31967D01*
X35843Y-31878D01*
X35843Y-33488D01*
X35307Y-33266D01*
X34617Y-33265D01*
X33979Y-33528D01*
X33491Y-34016D01*
X33359Y-34334D01*
X33264Y-34270D01*
X33229Y-34305D01*
X33229Y-34235D01*
X33130Y-34089D01*
X32734Y-33917D01*
X32302Y-33910D01*
X31900Y-34069D01*
X31869Y-34089D01*
X31770Y-34235D01*
X32500Y-34964D01*
X33229Y-34235D01*
X33229Y-34305D01*
X32535Y-35000D01*
X33264Y-35729D01*
X33359Y-35665D01*
X33438Y-35857D01*
X33229Y-35939D01*
X33229Y-35764D01*
X32500Y-35035D01*
X32464Y-35070D01*
X32464Y-35000D01*
X31735Y-34270D01*
X31589Y-34369D01*
X31417Y-34765D01*
X31410Y-35197D01*
X31569Y-35599D01*
X31589Y-35630D01*
X31735Y-35729D01*
X32464Y-35000D01*
X32464Y-35070D01*
X31770Y-35764D01*
X31869Y-35910D01*
X32265Y-36082D01*
X32697Y-36089D01*
X33099Y-35930D01*
X33130Y-35910D01*
X33229Y-35764D01*
X33229Y-35939D01*
X33179Y-35959D01*
X33149Y-35979D01*
X33049Y-36124D01*
X33744Y-36819D01*
X33744Y-36819D01*
X33850Y-36925D01*
X33850Y-36925D01*
X34544Y-37619D01*
X34689Y-37520D01*
X34861Y-37123D01*
X34868Y-36734D01*
X35304Y-36734D01*
X35941Y-36471D01*
X36430Y-35983D01*
X36515Y-35778D01*
X36592Y-35855D01*
X37180Y-36099D01*
X37816Y-36100D01*
X38405Y-35857D01*
X38855Y-35407D01*
X39099Y-34819D01*
X39100Y-34183D01*
X39100Y-44260D01*
X37477Y-44260D01*
X37477Y-42819D01*
X37334Y-42459D01*
X37318Y-42436D01*
X37185Y-42350D01*
X37149Y-42385D01*
X37149Y-42314D01*
X37063Y-42181D01*
X36707Y-42027D01*
X36319Y-42022D01*
X35959Y-42165D01*
X35936Y-42181D01*
X35850Y-42314D01*
X36500Y-42964D01*
X37149Y-42314D01*
X37149Y-42385D01*
X36535Y-43000D01*
X37185Y-43649D01*
X37318Y-43563D01*
X37472Y-43207D01*
X37477Y-42819D01*
X37477Y-44260D01*
X37149Y-44260D01*
X37149Y-43685D01*
X36500Y-43035D01*
X36464Y-43070D01*
X36464Y-43000D01*
X35814Y-42350D01*
X35681Y-42436D01*
X35527Y-42792D01*
X35522Y-43180D01*
X35665Y-43540D01*
X35681Y-43563D01*
X35814Y-43649D01*
X36464Y-43000D01*
X36464Y-43070D01*
X35850Y-43685D01*
X35936Y-43818D01*
X36292Y-43972D01*
X36680Y-43977D01*
X37040Y-43834D01*
X37063Y-43818D01*
X37149Y-43685D01*
X37149Y-44260D01*
X34509Y-44260D01*
X34509Y-37654D01*
X33779Y-36925D01*
X33744Y-36960D01*
X33744Y-36889D01*
X33014Y-36160D01*
X32869Y-36259D01*
X32697Y-36655D01*
X32690Y-37087D01*
X32848Y-37489D01*
X32869Y-37520D01*
X33014Y-37619D01*
X33744Y-36889D01*
X33744Y-36960D01*
X33049Y-37654D01*
X33149Y-37799D01*
X33545Y-37971D01*
X33977Y-37979D01*
X34379Y-37820D01*
X34409Y-37799D01*
X34509Y-37654D01*
X34509Y-44260D01*
X31240Y-44260D01*
X31240Y-22740D01*
X71260Y-22740D01*
X71260Y-44260D01*
M02*
