G04 (created by PCBNEW (2012-oct-18)-testing) date Thu 22 Nov 2012 14:19:03 GMT*
%MOIN*%
G04 Gerber Fmt 3.4, Leading zero omitted, Abs format*
%FSLAX34Y34*%
G01*
G70*
G90*
G04 APERTURE LIST*
%ADD10C,2.3622e-06*%
%ADD11C,0.012*%
%ADD12C,0.015*%
%ADD13C,0.005*%
%ADD14C,0.008*%
%ADD15C,0.0039*%
%ADD16C,0.0001*%
%ADD17C,0.006*%
%ADD18C,0.0043*%
%ADD19C,0.01*%
G04 APERTURE END LIST*
G54D10*
G54D11*
X54223Y-40404D02*
X53766Y-40404D01*
X53995Y-40404D02*
X53995Y-39404D01*
X53919Y-39547D01*
X53842Y-39642D01*
X53766Y-39690D01*
X54604Y-40404D02*
X54757Y-40404D01*
X54833Y-40357D01*
X54871Y-40309D01*
X54947Y-40166D01*
X54985Y-39976D01*
X54985Y-39595D01*
X54947Y-39500D01*
X54909Y-39452D01*
X54833Y-39404D01*
X54680Y-39404D01*
X54604Y-39452D01*
X54566Y-39500D01*
X54528Y-39595D01*
X54528Y-39833D01*
X54566Y-39928D01*
X54604Y-39976D01*
X54680Y-40023D01*
X54833Y-40023D01*
X54909Y-39976D01*
X54947Y-39928D01*
X54985Y-39833D01*
X55900Y-39357D02*
X55214Y-40642D01*
X56585Y-40404D02*
X56128Y-40404D01*
X56357Y-40404D02*
X56357Y-39404D01*
X56280Y-39547D01*
X56204Y-39642D01*
X56128Y-39690D01*
X57347Y-40404D02*
X56890Y-40404D01*
X57119Y-40404D02*
X57119Y-39404D01*
X57042Y-39547D01*
X56966Y-39642D01*
X56890Y-39690D01*
X58261Y-39357D02*
X57576Y-40642D01*
X58490Y-39500D02*
X58528Y-39452D01*
X58604Y-39404D01*
X58795Y-39404D01*
X58871Y-39452D01*
X58909Y-39500D01*
X58947Y-39595D01*
X58947Y-39690D01*
X58909Y-39833D01*
X58452Y-40404D01*
X58947Y-40404D01*
X59442Y-39404D02*
X59519Y-39404D01*
X59595Y-39452D01*
X59633Y-39500D01*
X59671Y-39595D01*
X59709Y-39785D01*
X59709Y-40023D01*
X59671Y-40214D01*
X59633Y-40309D01*
X59595Y-40357D01*
X59519Y-40404D01*
X59442Y-40404D01*
X59366Y-40357D01*
X59328Y-40309D01*
X59290Y-40214D01*
X59252Y-40023D01*
X59252Y-39785D01*
X59290Y-39595D01*
X59328Y-39500D01*
X59366Y-39452D01*
X59442Y-39404D01*
X60471Y-40404D02*
X60014Y-40404D01*
X60242Y-40404D02*
X60242Y-39404D01*
X60166Y-39547D01*
X60090Y-39642D01*
X60014Y-39690D01*
X60776Y-39500D02*
X60814Y-39452D01*
X60890Y-39404D01*
X61080Y-39404D01*
X61157Y-39452D01*
X61195Y-39500D01*
X61233Y-39595D01*
X61233Y-39690D01*
X61195Y-39833D01*
X60738Y-40404D01*
X61233Y-40404D01*
X58452Y-38904D02*
X58452Y-37904D01*
X58452Y-38857D02*
X58357Y-38904D01*
X58166Y-38904D01*
X58071Y-38857D01*
X58023Y-38809D01*
X57976Y-38714D01*
X57976Y-38428D01*
X58023Y-38333D01*
X58071Y-38285D01*
X58166Y-38238D01*
X58357Y-38238D01*
X58452Y-38285D01*
X58833Y-38238D02*
X59023Y-38904D01*
X59214Y-38428D01*
X59404Y-38904D01*
X59595Y-38238D01*
X59833Y-38238D02*
X60214Y-38238D01*
X59976Y-37904D02*
X59976Y-38761D01*
X60023Y-38857D01*
X60119Y-38904D01*
X60214Y-38904D01*
X60500Y-38000D02*
X60547Y-37952D01*
X60642Y-37904D01*
X60880Y-37904D01*
X60976Y-37952D01*
X61023Y-38000D01*
X61071Y-38095D01*
X61071Y-38190D01*
X61023Y-38333D01*
X60452Y-38904D01*
X61071Y-38904D01*
X61404Y-37904D02*
X62071Y-37904D01*
X61642Y-38904D01*
X53880Y-38809D02*
X53833Y-38857D01*
X53690Y-38904D01*
X53595Y-38904D01*
X53452Y-38857D01*
X53357Y-38761D01*
X53309Y-38666D01*
X53261Y-38476D01*
X53261Y-38333D01*
X53309Y-38142D01*
X53357Y-38047D01*
X53452Y-37952D01*
X53595Y-37904D01*
X53690Y-37904D01*
X53833Y-37952D01*
X53880Y-38000D01*
X54309Y-37904D02*
X54309Y-38714D01*
X54357Y-38809D01*
X54404Y-38857D01*
X54500Y-38904D01*
X54690Y-38904D01*
X54785Y-38857D01*
X54833Y-38809D01*
X54880Y-38714D01*
X54880Y-37904D01*
X55309Y-38857D02*
X55452Y-38904D01*
X55690Y-38904D01*
X55785Y-38857D01*
X55833Y-38809D01*
X55880Y-38714D01*
X55880Y-38619D01*
X55833Y-38523D01*
X55785Y-38476D01*
X55690Y-38428D01*
X55500Y-38380D01*
X55404Y-38333D01*
X55357Y-38285D01*
X55309Y-38190D01*
X55309Y-38095D01*
X55357Y-38000D01*
X55404Y-37952D01*
X55500Y-37904D01*
X55738Y-37904D01*
X55880Y-37952D01*
X56642Y-38380D02*
X56309Y-38380D01*
X56309Y-38904D02*
X56309Y-37904D01*
X56785Y-37904D01*
X54095Y-36857D02*
X54238Y-36904D01*
X54476Y-36904D01*
X54571Y-36857D01*
X54619Y-36809D01*
X54666Y-36714D01*
X54666Y-36619D01*
X54619Y-36523D01*
X54571Y-36476D01*
X54476Y-36428D01*
X54285Y-36380D01*
X54190Y-36333D01*
X54142Y-36285D01*
X54095Y-36190D01*
X54095Y-36095D01*
X54142Y-36000D01*
X54190Y-35952D01*
X54285Y-35904D01*
X54523Y-35904D01*
X54666Y-35952D01*
X55095Y-36904D02*
X55095Y-35904D01*
X55666Y-36904D02*
X55238Y-36333D01*
X55666Y-35904D02*
X55095Y-36476D01*
X56095Y-35904D02*
X56095Y-36714D01*
X56142Y-36809D01*
X56190Y-36857D01*
X56285Y-36904D01*
X56476Y-36904D01*
X56571Y-36857D01*
X56619Y-36809D01*
X56666Y-36714D01*
X56666Y-35904D01*
X57142Y-36904D02*
X57142Y-35904D01*
X57714Y-36904D01*
X57714Y-35904D01*
X58190Y-36904D02*
X58190Y-35904D01*
X58761Y-36904D02*
X58333Y-36333D01*
X58761Y-35904D02*
X58190Y-36476D01*
X60476Y-36904D02*
X59904Y-36904D01*
X60190Y-36904D02*
X60190Y-35904D01*
X60095Y-36047D01*
X59999Y-36142D01*
X59904Y-36190D01*
X60904Y-36809D02*
X60952Y-36857D01*
X60904Y-36904D01*
X60857Y-36857D01*
X60904Y-36809D01*
X60904Y-36904D01*
X61571Y-35904D02*
X61666Y-35904D01*
X61761Y-35952D01*
X61809Y-36000D01*
X61857Y-36095D01*
X61904Y-36285D01*
X61904Y-36523D01*
X61857Y-36714D01*
X61809Y-36809D01*
X61761Y-36857D01*
X61666Y-36904D01*
X61571Y-36904D01*
X61476Y-36857D01*
X61428Y-36809D01*
X61380Y-36714D01*
X61333Y-36523D01*
X61333Y-36285D01*
X61380Y-36095D01*
X61428Y-36000D01*
X61476Y-35952D01*
X61571Y-35904D01*
G54D12*
X30925Y-33228D02*
X30925Y-36772D01*
X29547Y-33228D02*
X29547Y-36772D01*
X29547Y-36772D02*
X35256Y-36772D01*
X35256Y-36772D02*
X35256Y-33228D01*
X35256Y-33228D02*
X29547Y-33228D01*
G54D13*
X64450Y-39150D02*
X64400Y-39150D01*
X64400Y-39150D02*
X64400Y-41250D01*
X65900Y-41250D02*
X65900Y-39150D01*
X65900Y-39150D02*
X64450Y-39150D01*
X65350Y-39150D02*
X65350Y-39350D01*
X65350Y-39350D02*
X64950Y-39350D01*
X64950Y-39350D02*
X64950Y-39150D01*
X65900Y-41250D02*
X64400Y-41250D01*
G54D14*
X49850Y-35800D02*
X49850Y-40100D01*
X49850Y-40100D02*
X48450Y-40100D01*
X48450Y-40100D02*
X48450Y-35800D01*
X48450Y-35800D02*
X49850Y-35800D01*
X49350Y-35800D02*
X49350Y-36100D01*
X49350Y-36100D02*
X48950Y-36100D01*
X48950Y-36100D02*
X48950Y-35800D01*
G54D15*
X64250Y-34200D02*
G75*
G03X64250Y-34200I-50J0D01*
G74*
G01*
X64200Y-33750D02*
X64200Y-34150D01*
X64200Y-34150D02*
X63600Y-34150D01*
X63600Y-34150D02*
X63600Y-33750D01*
X63600Y-33350D02*
X63600Y-32950D01*
X63600Y-32950D02*
X64200Y-32950D01*
X64200Y-32950D02*
X64200Y-33350D01*
X48150Y-40050D02*
G75*
G03X48150Y-40050I-50J0D01*
G74*
G01*
X47650Y-40050D02*
X48050Y-40050D01*
X48050Y-40050D02*
X48050Y-40650D01*
X48050Y-40650D02*
X47650Y-40650D01*
X47250Y-40650D02*
X46850Y-40650D01*
X46850Y-40650D02*
X46850Y-40050D01*
X46850Y-40050D02*
X47250Y-40050D01*
X50600Y-39500D02*
G75*
G03X50600Y-39500I-50J0D01*
G74*
G01*
X51000Y-39500D02*
X50600Y-39500D01*
X50600Y-39500D02*
X50600Y-38900D01*
X50600Y-38900D02*
X51000Y-38900D01*
X51400Y-38900D02*
X51800Y-38900D01*
X51800Y-38900D02*
X51800Y-39500D01*
X51800Y-39500D02*
X51400Y-39500D01*
X61350Y-30150D02*
G75*
G03X61350Y-30150I-50J0D01*
G74*
G01*
X61300Y-30600D02*
X61300Y-30200D01*
X61300Y-30200D02*
X61900Y-30200D01*
X61900Y-30200D02*
X61900Y-30600D01*
X61900Y-31000D02*
X61900Y-31400D01*
X61900Y-31400D02*
X61300Y-31400D01*
X61300Y-31400D02*
X61300Y-31000D01*
X64450Y-34350D02*
G75*
G03X64450Y-34350I-50J0D01*
G74*
G01*
X64400Y-34800D02*
X64400Y-34400D01*
X64400Y-34400D02*
X65000Y-34400D01*
X65000Y-34400D02*
X65000Y-34800D01*
X65000Y-35200D02*
X65000Y-35600D01*
X65000Y-35600D02*
X64400Y-35600D01*
X64400Y-35600D02*
X64400Y-35200D01*
X65050Y-34200D02*
G75*
G03X65050Y-34200I-50J0D01*
G74*
G01*
X65000Y-33750D02*
X65000Y-34150D01*
X65000Y-34150D02*
X64400Y-34150D01*
X64400Y-34150D02*
X64400Y-33750D01*
X64400Y-33350D02*
X64400Y-32950D01*
X64400Y-32950D02*
X65000Y-32950D01*
X65000Y-32950D02*
X65000Y-33350D01*
X49900Y-42200D02*
G75*
G03X49900Y-42200I-50J0D01*
G74*
G01*
X50300Y-42200D02*
X49900Y-42200D01*
X49900Y-42200D02*
X49900Y-41600D01*
X49900Y-41600D02*
X50300Y-41600D01*
X50700Y-41600D02*
X51100Y-41600D01*
X51100Y-41600D02*
X51100Y-42200D01*
X51100Y-42200D02*
X50700Y-42200D01*
X51750Y-40950D02*
G75*
G03X51750Y-40950I-50J0D01*
G74*
G01*
X51700Y-41400D02*
X51700Y-41000D01*
X51700Y-41000D02*
X52300Y-41000D01*
X52300Y-41000D02*
X52300Y-41400D01*
X52300Y-41800D02*
X52300Y-42200D01*
X52300Y-42200D02*
X51700Y-42200D01*
X51700Y-42200D02*
X51700Y-41800D01*
X64250Y-35650D02*
G75*
G03X64250Y-35650I-50J0D01*
G74*
G01*
X64200Y-35200D02*
X64200Y-35600D01*
X64200Y-35600D02*
X63600Y-35600D01*
X63600Y-35600D02*
X63600Y-35200D01*
X63600Y-34800D02*
X63600Y-34400D01*
X63600Y-34400D02*
X64200Y-34400D01*
X64200Y-34400D02*
X64200Y-34800D01*
X65200Y-28650D02*
G75*
G03X65200Y-28650I-50J0D01*
G74*
G01*
X64700Y-28650D02*
X65100Y-28650D01*
X65100Y-28650D02*
X65100Y-29250D01*
X65100Y-29250D02*
X64700Y-29250D01*
X64300Y-29250D02*
X63900Y-29250D01*
X63900Y-29250D02*
X63900Y-28650D01*
X63900Y-28650D02*
X64300Y-28650D01*
X61350Y-31650D02*
G75*
G03X61350Y-31650I-50J0D01*
G74*
G01*
X61300Y-32100D02*
X61300Y-31700D01*
X61300Y-31700D02*
X61900Y-31700D01*
X61900Y-31700D02*
X61900Y-32100D01*
X61900Y-32500D02*
X61900Y-32900D01*
X61900Y-32900D02*
X61300Y-32900D01*
X61300Y-32900D02*
X61300Y-32500D01*
X60750Y-28600D02*
G75*
G03X60750Y-28600I-50J0D01*
G74*
G01*
X60700Y-29050D02*
X60700Y-28650D01*
X60700Y-28650D02*
X61300Y-28650D01*
X61300Y-28650D02*
X61300Y-29050D01*
X61300Y-29450D02*
X61300Y-29850D01*
X61300Y-29850D02*
X60700Y-29850D01*
X60700Y-29850D02*
X60700Y-29450D01*
X46850Y-35950D02*
G75*
G03X46850Y-35950I-50J0D01*
G74*
G01*
X46800Y-36400D02*
X46800Y-36000D01*
X46800Y-36000D02*
X47400Y-36000D01*
X47400Y-36000D02*
X47400Y-36400D01*
X47400Y-36800D02*
X47400Y-37200D01*
X47400Y-37200D02*
X46800Y-37200D01*
X46800Y-37200D02*
X46800Y-36800D01*
X48650Y-35550D02*
G75*
G03X48650Y-35550I-50J0D01*
G74*
G01*
X49050Y-35550D02*
X48650Y-35550D01*
X48650Y-35550D02*
X48650Y-34950D01*
X48650Y-34950D02*
X49050Y-34950D01*
X49450Y-34950D02*
X49850Y-34950D01*
X49850Y-34950D02*
X49850Y-35550D01*
X49850Y-35550D02*
X49450Y-35550D01*
X50800Y-35700D02*
G75*
G03X50800Y-35700I-50J0D01*
G74*
G01*
X50750Y-36150D02*
X50750Y-35750D01*
X50750Y-35750D02*
X51350Y-35750D01*
X51350Y-35750D02*
X51350Y-36150D01*
X51350Y-36550D02*
X51350Y-36950D01*
X51350Y-36950D02*
X50750Y-36950D01*
X50750Y-36950D02*
X50750Y-36550D01*
X46850Y-37300D02*
G75*
G03X46850Y-37300I-50J0D01*
G74*
G01*
X46800Y-37750D02*
X46800Y-37350D01*
X46800Y-37350D02*
X47400Y-37350D01*
X47400Y-37350D02*
X47400Y-37750D01*
X47400Y-38150D02*
X47400Y-38550D01*
X47400Y-38550D02*
X46800Y-38550D01*
X46800Y-38550D02*
X46800Y-38150D01*
X63400Y-40550D02*
G75*
G03X63400Y-40550I-50J0D01*
G74*
G01*
X63350Y-40100D02*
X63350Y-40500D01*
X63350Y-40500D02*
X62750Y-40500D01*
X62750Y-40500D02*
X62750Y-40100D01*
X62750Y-39700D02*
X62750Y-39300D01*
X62750Y-39300D02*
X63350Y-39300D01*
X63350Y-39300D02*
X63350Y-39700D01*
X66850Y-39150D02*
G75*
G03X66850Y-39150I-50J0D01*
G74*
G01*
X66800Y-39600D02*
X66800Y-39200D01*
X66800Y-39200D02*
X67400Y-39200D01*
X67400Y-39200D02*
X67400Y-39600D01*
X67400Y-40000D02*
X67400Y-40400D01*
X67400Y-40400D02*
X66800Y-40400D01*
X66800Y-40400D02*
X66800Y-40000D01*
X47450Y-39950D02*
G75*
G03X47450Y-39950I-50J0D01*
G74*
G01*
X47400Y-39500D02*
X47400Y-39900D01*
X47400Y-39900D02*
X46800Y-39900D01*
X46800Y-39900D02*
X46800Y-39500D01*
X46800Y-39100D02*
X46800Y-38700D01*
X46800Y-38700D02*
X47400Y-38700D01*
X47400Y-38700D02*
X47400Y-39100D01*
G54D11*
X36500Y-35500D02*
X36500Y-25500D01*
X36500Y-25500D02*
X38500Y-25500D01*
X38500Y-25500D02*
X38500Y-35500D01*
X38500Y-35500D02*
X36500Y-35500D01*
X36500Y-32500D02*
X38500Y-32500D01*
X36500Y-28500D02*
X38500Y-28500D01*
X58500Y-25500D02*
X58500Y-35500D01*
X58500Y-35500D02*
X56500Y-35500D01*
X56500Y-35500D02*
X56500Y-25500D01*
X56500Y-25500D02*
X58500Y-25500D01*
X58500Y-28500D02*
X56500Y-28500D01*
X58500Y-32500D02*
X56500Y-32500D01*
X35500Y-26500D02*
X35500Y-27000D01*
X35500Y-27000D02*
X35000Y-27000D01*
X35000Y-27000D02*
X35000Y-31000D01*
X35000Y-31000D02*
X35500Y-31000D01*
X35500Y-31000D02*
X35500Y-31500D01*
X35500Y-31000D02*
X36000Y-31000D01*
X36000Y-31000D02*
X36000Y-27000D01*
X36000Y-27000D02*
X35500Y-27000D01*
X35000Y-27500D02*
X36000Y-27500D01*
X35000Y-27400D02*
X36000Y-27400D01*
X59750Y-26250D02*
X59750Y-26550D01*
X59750Y-26550D02*
X59350Y-26550D01*
X59350Y-26550D02*
X59350Y-28950D01*
X59350Y-28950D02*
X59750Y-28950D01*
X59750Y-28950D02*
X59750Y-29250D01*
X59750Y-28950D02*
X60150Y-28950D01*
X60150Y-28950D02*
X60150Y-26550D01*
X60150Y-26550D02*
X59750Y-26550D01*
X59350Y-26750D02*
X60150Y-26750D01*
X60150Y-26850D02*
X59350Y-26850D01*
X60550Y-33250D02*
X60750Y-33250D01*
X60500Y-32900D02*
X60700Y-32900D01*
X60700Y-32900D02*
X60750Y-32950D01*
X60550Y-32150D02*
X60750Y-32150D01*
X60550Y-31850D02*
X60700Y-31850D01*
G54D12*
X60500Y-30500D02*
X60750Y-30500D01*
X60750Y-30500D02*
X60750Y-34500D01*
X60750Y-34500D02*
X60500Y-34500D01*
X59000Y-30500D02*
X60500Y-30500D01*
X60500Y-30500D02*
X60500Y-34500D01*
X60500Y-34500D02*
X59000Y-34500D01*
X59000Y-34500D02*
X59000Y-30500D01*
G54D11*
X66150Y-35500D02*
X66150Y-34500D01*
X66150Y-34500D02*
X65150Y-34500D01*
X66150Y-35500D02*
X67150Y-35500D01*
X67150Y-35500D02*
X67150Y-28500D01*
X67150Y-28500D02*
X66150Y-28500D01*
X65150Y-35500D02*
X65150Y-35500D01*
X65150Y-35500D02*
X65150Y-28500D01*
X65150Y-28500D02*
X66150Y-28500D01*
X66150Y-35500D02*
X65150Y-35500D01*
X39000Y-33500D02*
X39000Y-25500D01*
X39000Y-25500D02*
X56000Y-25500D01*
X56000Y-25500D02*
X56000Y-33500D01*
X56000Y-33500D02*
X39000Y-33500D01*
X66650Y-26450D02*
X66650Y-27450D01*
X66650Y-27450D02*
X61650Y-27450D01*
X61650Y-27450D02*
X61650Y-26450D01*
X61650Y-26450D02*
X66650Y-26450D01*
X65650Y-26450D02*
X65650Y-27450D01*
G54D16*
G36*
X46516Y-34016D02*
X41525Y-34024D01*
X36533Y-34033D01*
X36524Y-39025D01*
X36516Y-44016D01*
X36508Y-39008D01*
X36500Y-34000D01*
X41508Y-34008D01*
X46516Y-34016D01*
X46516Y-34016D01*
X46516Y-34016D01*
G37*
G36*
X46400Y-36966D02*
X46153Y-36966D01*
X46050Y-36964D01*
X45953Y-36954D01*
X45850Y-36934D01*
X45731Y-36901D01*
X45584Y-36852D01*
X45399Y-36783D01*
X45164Y-36692D01*
X45150Y-36686D01*
X44956Y-36619D01*
X44854Y-36593D01*
X44854Y-35943D01*
X44819Y-35957D01*
X44810Y-35962D01*
X44719Y-36038D01*
X44635Y-36158D01*
X44570Y-36297D01*
X44538Y-36433D01*
X44536Y-36479D01*
X44546Y-36498D01*
X44567Y-36457D01*
X44583Y-36412D01*
X44620Y-36304D01*
X44659Y-36211D01*
X44667Y-36195D01*
X44718Y-36117D01*
X44787Y-36029D01*
X44795Y-36020D01*
X44847Y-35961D01*
X44854Y-35943D01*
X44854Y-36593D01*
X44791Y-36578D01*
X44694Y-36567D01*
X44629Y-36568D01*
X44580Y-36576D01*
X44542Y-36602D01*
X44511Y-36655D01*
X44481Y-36742D01*
X44448Y-36874D01*
X44406Y-37060D01*
X44393Y-37116D01*
X44375Y-37203D01*
X44359Y-37286D01*
X44347Y-37373D01*
X44337Y-37470D01*
X44330Y-37587D01*
X44325Y-37730D01*
X44321Y-37908D01*
X44318Y-38127D01*
X44316Y-38397D01*
X44315Y-38723D01*
X44315Y-38800D01*
X44313Y-39163D01*
X44309Y-39487D01*
X44304Y-39765D01*
X44297Y-39993D01*
X44289Y-40166D01*
X44280Y-40281D01*
X44274Y-40316D01*
X44195Y-40610D01*
X44091Y-40859D01*
X43952Y-41084D01*
X43788Y-41285D01*
X43758Y-41313D01*
X43758Y-34372D01*
X43654Y-34354D01*
X43570Y-34344D01*
X43445Y-34335D01*
X43302Y-34328D01*
X43280Y-34328D01*
X43149Y-34325D01*
X43054Y-34331D01*
X42972Y-34353D01*
X42880Y-34394D01*
X42755Y-34463D01*
X42747Y-34468D01*
X42467Y-34655D01*
X42463Y-34658D01*
X42463Y-34206D01*
X42442Y-34184D01*
X42363Y-34166D01*
X42225Y-34152D01*
X42043Y-34141D01*
X41886Y-34134D01*
X41778Y-34135D01*
X41701Y-34145D01*
X41637Y-34167D01*
X41568Y-34204D01*
X41555Y-34211D01*
X41398Y-34328D01*
X41233Y-34495D01*
X41075Y-34696D01*
X40968Y-34863D01*
X40903Y-34976D01*
X40869Y-35051D01*
X40861Y-35103D01*
X40875Y-35150D01*
X40886Y-35173D01*
X40930Y-35325D01*
X40922Y-35491D01*
X40869Y-35652D01*
X40833Y-35704D01*
X40833Y-35601D01*
X40833Y-35598D01*
X40821Y-35555D01*
X40773Y-35536D01*
X40701Y-35533D01*
X40527Y-35558D01*
X40398Y-35632D01*
X40346Y-35694D01*
X40311Y-35755D01*
X40317Y-35792D01*
X40353Y-35824D01*
X40448Y-35858D01*
X40566Y-35852D01*
X40681Y-35810D01*
X40758Y-35750D01*
X40810Y-35671D01*
X40833Y-35601D01*
X40833Y-35704D01*
X40776Y-35788D01*
X40687Y-35859D01*
X40642Y-35887D01*
X40608Y-35914D01*
X40583Y-35953D01*
X40560Y-36015D01*
X40537Y-36111D01*
X40509Y-36252D01*
X40506Y-36267D01*
X40506Y-35938D01*
X40497Y-35908D01*
X40471Y-35900D01*
X40463Y-35900D01*
X40379Y-35887D01*
X40351Y-35879D01*
X40325Y-35871D01*
X40312Y-35877D01*
X40310Y-35909D01*
X40322Y-35977D01*
X40348Y-36091D01*
X40375Y-36207D01*
X40398Y-36296D01*
X40415Y-36349D01*
X40421Y-36356D01*
X40431Y-36322D01*
X40451Y-36239D01*
X40475Y-36127D01*
X40475Y-36123D01*
X40498Y-36005D01*
X40506Y-35938D01*
X40506Y-36267D01*
X40479Y-36405D01*
X40479Y-36477D01*
X40521Y-36512D01*
X40527Y-36514D01*
X40629Y-36565D01*
X40747Y-36649D01*
X40856Y-36747D01*
X40932Y-36840D01*
X40934Y-36842D01*
X40993Y-36993D01*
X40989Y-37140D01*
X40948Y-37229D01*
X40948Y-37035D01*
X40910Y-36900D01*
X40811Y-36774D01*
X40653Y-36663D01*
X40590Y-36631D01*
X40450Y-36575D01*
X40301Y-36531D01*
X40209Y-36514D01*
X40200Y-36512D01*
X40200Y-35361D01*
X40181Y-35311D01*
X40134Y-35237D01*
X40121Y-35219D01*
X40055Y-35122D01*
X39987Y-35007D01*
X39970Y-34973D01*
X39921Y-34894D01*
X39879Y-34853D01*
X39864Y-34851D01*
X39826Y-34839D01*
X39754Y-34789D01*
X39660Y-34711D01*
X39614Y-34669D01*
X39483Y-34552D01*
X39394Y-34486D01*
X39346Y-34469D01*
X39340Y-34502D01*
X39346Y-34520D01*
X39350Y-34557D01*
X39309Y-34556D01*
X39292Y-34551D01*
X39222Y-34538D01*
X39109Y-34524D01*
X38976Y-34512D01*
X38966Y-34511D01*
X38838Y-34505D01*
X38771Y-34508D01*
X38756Y-34521D01*
X38766Y-34531D01*
X38796Y-34563D01*
X38770Y-34593D01*
X38750Y-34605D01*
X38689Y-34649D01*
X38610Y-34721D01*
X38527Y-34804D01*
X38455Y-34883D01*
X38409Y-34943D01*
X38400Y-34964D01*
X38425Y-34970D01*
X38488Y-34948D01*
X38508Y-34939D01*
X38639Y-34899D01*
X38825Y-34883D01*
X38851Y-34883D01*
X38989Y-34890D01*
X39117Y-34916D01*
X39251Y-34967D01*
X39405Y-35048D01*
X39594Y-35165D01*
X39616Y-35180D01*
X39765Y-35268D01*
X39908Y-35336D01*
X40033Y-35381D01*
X40130Y-35399D01*
X40188Y-35387D01*
X40200Y-35361D01*
X40200Y-36512D01*
X40105Y-36498D01*
X40054Y-36480D01*
X40041Y-36450D01*
X40046Y-36420D01*
X40068Y-36302D01*
X40083Y-36149D01*
X40090Y-35983D01*
X40088Y-35829D01*
X40076Y-35708D01*
X40070Y-35678D01*
X40029Y-35563D01*
X39976Y-35503D01*
X39897Y-35488D01*
X39816Y-35499D01*
X39744Y-35516D01*
X39719Y-35527D01*
X39726Y-35529D01*
X39769Y-35562D01*
X39812Y-35638D01*
X39847Y-35737D01*
X39865Y-35836D01*
X39865Y-35857D01*
X39861Y-35898D01*
X39846Y-35886D01*
X39818Y-35816D01*
X39805Y-35779D01*
X39747Y-35636D01*
X39687Y-35551D01*
X39614Y-35515D01*
X39520Y-35518D01*
X39518Y-35518D01*
X39449Y-35535D01*
X39396Y-35562D01*
X39350Y-35613D01*
X39301Y-35697D01*
X39241Y-35827D01*
X39213Y-35890D01*
X39099Y-36150D01*
X39124Y-35950D01*
X39138Y-35814D01*
X39147Y-35681D01*
X39149Y-35616D01*
X39145Y-35530D01*
X39122Y-35491D01*
X39062Y-35476D01*
X39029Y-35473D01*
X38918Y-35485D01*
X38815Y-35544D01*
X38714Y-35656D01*
X38609Y-35826D01*
X38562Y-35916D01*
X38424Y-36194D01*
X38254Y-36218D01*
X38082Y-36249D01*
X37957Y-36293D01*
X37861Y-36357D01*
X37842Y-36374D01*
X37767Y-36485D01*
X37742Y-36621D01*
X37766Y-36761D01*
X37837Y-36886D01*
X37869Y-36919D01*
X37909Y-36951D01*
X37928Y-36943D01*
X37933Y-36883D01*
X37933Y-36838D01*
X37953Y-36705D01*
X38000Y-36633D01*
X38068Y-36577D01*
X38103Y-36570D01*
X38096Y-36608D01*
X38054Y-36667D01*
X37994Y-36775D01*
X37990Y-36897D01*
X38041Y-37045D01*
X38052Y-37066D01*
X38127Y-37173D01*
X38240Y-37288D01*
X38366Y-37387D01*
X38473Y-37448D01*
X38636Y-37491D01*
X38816Y-37499D01*
X38994Y-37475D01*
X39152Y-37422D01*
X39269Y-37342D01*
X39283Y-37326D01*
X39339Y-37229D01*
X39367Y-37115D01*
X39365Y-37006D01*
X39333Y-36925D01*
X39308Y-36902D01*
X39275Y-36874D01*
X39296Y-36863D01*
X39362Y-36867D01*
X39462Y-36884D01*
X39585Y-36913D01*
X39723Y-36953D01*
X39816Y-36983D01*
X39944Y-37030D01*
X40036Y-37067D01*
X40082Y-37092D01*
X40079Y-37099D01*
X40001Y-37087D01*
X39903Y-37056D01*
X39888Y-37050D01*
X39808Y-37018D01*
X39760Y-37000D01*
X39755Y-37000D01*
X39743Y-37029D01*
X39728Y-37102D01*
X39724Y-37132D01*
X39675Y-37324D01*
X39625Y-37409D01*
X39625Y-37292D01*
X39618Y-37274D01*
X39585Y-37282D01*
X39525Y-37326D01*
X39505Y-37344D01*
X39441Y-37396D01*
X39396Y-37414D01*
X39390Y-37412D01*
X39351Y-37411D01*
X39303Y-37447D01*
X39270Y-37499D01*
X39266Y-37520D01*
X39292Y-37560D01*
X39368Y-37558D01*
X39446Y-37534D01*
X39505Y-37493D01*
X39564Y-37425D01*
X39609Y-37351D01*
X39625Y-37292D01*
X39625Y-37409D01*
X39587Y-37474D01*
X39465Y-37573D01*
X39457Y-37578D01*
X39376Y-37614D01*
X39318Y-37621D01*
X39251Y-37599D01*
X39197Y-37573D01*
X39062Y-37506D01*
X39073Y-37577D01*
X39115Y-37659D01*
X39208Y-37710D01*
X39339Y-37726D01*
X39460Y-37712D01*
X39558Y-37676D01*
X39630Y-37628D01*
X39685Y-37593D01*
X39767Y-37570D01*
X39892Y-37556D01*
X39974Y-37551D01*
X40259Y-37523D01*
X40502Y-37469D01*
X40698Y-37391D01*
X40840Y-37291D01*
X40921Y-37175D01*
X40948Y-37035D01*
X40948Y-37229D01*
X40927Y-37276D01*
X40810Y-37392D01*
X40641Y-37482D01*
X40600Y-37497D01*
X40416Y-37557D01*
X40427Y-37753D01*
X40439Y-37919D01*
X40459Y-38087D01*
X40490Y-38271D01*
X40533Y-38482D01*
X40591Y-38733D01*
X40657Y-39000D01*
X40712Y-39224D01*
X40753Y-39400D01*
X40781Y-39542D01*
X40799Y-39667D01*
X40808Y-39790D01*
X40813Y-39927D01*
X40814Y-40033D01*
X40814Y-40211D01*
X40810Y-40338D01*
X40799Y-40431D01*
X40780Y-40507D01*
X40750Y-40582D01*
X40747Y-40588D01*
X40747Y-40017D01*
X40744Y-39857D01*
X40738Y-39724D01*
X40726Y-39601D01*
X40706Y-39472D01*
X40675Y-39322D01*
X40631Y-39135D01*
X40588Y-38961D01*
X40510Y-38634D01*
X40450Y-38363D01*
X40407Y-38139D01*
X40380Y-37953D01*
X40368Y-37798D01*
X40367Y-37743D01*
X40361Y-37654D01*
X40347Y-37597D01*
X40341Y-37590D01*
X40299Y-37588D01*
X40207Y-37593D01*
X40081Y-37605D01*
X40009Y-37613D01*
X39854Y-37634D01*
X39747Y-37657D01*
X39671Y-37688D01*
X39608Y-37731D01*
X39595Y-37743D01*
X39489Y-37836D01*
X39602Y-37893D01*
X39677Y-37949D01*
X39776Y-38050D01*
X39889Y-38182D01*
X40006Y-38333D01*
X40117Y-38489D01*
X40212Y-38638D01*
X40280Y-38766D01*
X40283Y-38772D01*
X40349Y-38965D01*
X40394Y-39194D01*
X40415Y-39426D01*
X40410Y-39614D01*
X40353Y-39831D01*
X40236Y-40033D01*
X40189Y-40091D01*
X40144Y-40163D01*
X40153Y-40230D01*
X40186Y-40280D01*
X40249Y-40359D01*
X40331Y-40455D01*
X40419Y-40553D01*
X40502Y-40641D01*
X40566Y-40705D01*
X40602Y-40732D01*
X40603Y-40733D01*
X40627Y-40705D01*
X40665Y-40635D01*
X40686Y-40592D01*
X40713Y-40519D01*
X40732Y-40436D01*
X40742Y-40329D01*
X40746Y-40182D01*
X40747Y-40017D01*
X40747Y-40588D01*
X40726Y-40631D01*
X40676Y-40741D01*
X40659Y-40811D01*
X40671Y-40855D01*
X40675Y-40861D01*
X40706Y-40881D01*
X40745Y-40863D01*
X40808Y-40800D01*
X40826Y-40779D01*
X40910Y-40671D01*
X40996Y-40543D01*
X41032Y-40483D01*
X41110Y-40327D01*
X41166Y-40169D01*
X41205Y-39986D01*
X41229Y-39800D01*
X41256Y-39550D01*
X41282Y-39695D01*
X41301Y-39780D01*
X41319Y-39807D01*
X41340Y-39785D01*
X41342Y-39781D01*
X41358Y-39712D01*
X41362Y-39588D01*
X41356Y-39419D01*
X41340Y-39214D01*
X41315Y-38985D01*
X41281Y-38741D01*
X41270Y-38666D01*
X41210Y-38262D01*
X41158Y-37854D01*
X41115Y-37462D01*
X41086Y-37105D01*
X41077Y-36964D01*
X41080Y-36507D01*
X41136Y-36064D01*
X41244Y-35644D01*
X41400Y-35255D01*
X41602Y-34905D01*
X41677Y-34802D01*
X41834Y-34626D01*
X42015Y-34467D01*
X42202Y-34340D01*
X42345Y-34271D01*
X42429Y-34235D01*
X42463Y-34206D01*
X42463Y-34658D01*
X42223Y-34879D01*
X42025Y-35127D01*
X41926Y-35300D01*
X41810Y-35561D01*
X41729Y-35809D01*
X41679Y-36063D01*
X41655Y-36348D01*
X41651Y-36533D01*
X41653Y-36717D01*
X41658Y-36892D01*
X41667Y-37041D01*
X41677Y-37143D01*
X41678Y-37150D01*
X41707Y-37316D01*
X41761Y-37177D01*
X41800Y-37087D01*
X41833Y-37025D01*
X41841Y-37013D01*
X41851Y-37034D01*
X41859Y-37109D01*
X41865Y-37226D01*
X41866Y-37352D01*
X41898Y-37832D01*
X41940Y-38083D01*
X41977Y-38314D01*
X42002Y-38575D01*
X42015Y-38851D01*
X42015Y-39123D01*
X42004Y-39377D01*
X41980Y-39595D01*
X41952Y-39730D01*
X41833Y-40062D01*
X41665Y-40348D01*
X41451Y-40587D01*
X41191Y-40778D01*
X40967Y-40889D01*
X40856Y-40942D01*
X40799Y-40999D01*
X40791Y-41077D01*
X40824Y-41192D01*
X40833Y-41218D01*
X40864Y-41299D01*
X41090Y-41185D01*
X41226Y-41121D01*
X41395Y-41047D01*
X41570Y-40976D01*
X41639Y-40949D01*
X41925Y-40825D01*
X42157Y-40687D01*
X42349Y-40525D01*
X42456Y-40407D01*
X42547Y-40288D01*
X42590Y-40215D01*
X42584Y-40187D01*
X42531Y-40205D01*
X42487Y-40230D01*
X42387Y-40285D01*
X42335Y-40296D01*
X42335Y-40265D01*
X42387Y-40193D01*
X42420Y-40158D01*
X42650Y-39879D01*
X42824Y-39585D01*
X42952Y-39257D01*
X42954Y-39248D01*
X42982Y-39140D01*
X43000Y-39018D01*
X43010Y-38866D01*
X43013Y-38668D01*
X43013Y-38583D01*
X43010Y-38367D01*
X43000Y-38191D01*
X42981Y-38029D01*
X42949Y-37854D01*
X42908Y-37666D01*
X42840Y-37357D01*
X42792Y-37093D01*
X42759Y-36855D01*
X42741Y-36626D01*
X42734Y-36388D01*
X42733Y-36322D01*
X42747Y-35994D01*
X42792Y-35710D01*
X42874Y-35455D01*
X42998Y-35217D01*
X43171Y-34980D01*
X43399Y-34731D01*
X43419Y-34711D01*
X43758Y-34372D01*
X43758Y-41313D01*
X43578Y-41481D01*
X43339Y-41638D01*
X43055Y-41765D01*
X43004Y-41783D01*
X42836Y-41836D01*
X42662Y-41875D01*
X42469Y-41903D01*
X42244Y-41920D01*
X41976Y-41930D01*
X41739Y-41932D01*
X41542Y-41935D01*
X41357Y-41941D01*
X41199Y-41951D01*
X41083Y-41964D01*
X41044Y-41971D01*
X40943Y-42004D01*
X40929Y-42015D01*
X40929Y-41584D01*
X40923Y-41508D01*
X40916Y-41485D01*
X40911Y-41521D01*
X40909Y-41583D01*
X40911Y-41662D01*
X40917Y-41691D01*
X40923Y-41675D01*
X40929Y-41584D01*
X40929Y-42015D01*
X40926Y-42017D01*
X40926Y-41806D01*
X40922Y-41791D01*
X40909Y-41787D01*
X40905Y-41833D01*
X40910Y-41880D01*
X40922Y-41875D01*
X40926Y-41806D01*
X40926Y-42017D01*
X40885Y-42051D01*
X40844Y-42129D01*
X40715Y-42400D01*
X40540Y-42671D01*
X40310Y-42956D01*
X40287Y-42983D01*
X40168Y-43116D01*
X40275Y-43162D01*
X40358Y-43186D01*
X40484Y-43208D01*
X40631Y-43225D01*
X40684Y-43229D01*
X40876Y-43249D01*
X41015Y-43284D01*
X41115Y-43340D01*
X41188Y-43424D01*
X41237Y-43518D01*
X41282Y-43608D01*
X41322Y-43671D01*
X41336Y-43685D01*
X41373Y-43730D01*
X41402Y-43790D01*
X41415Y-43880D01*
X41371Y-43937D01*
X41269Y-43964D01*
X41212Y-43966D01*
X41200Y-43965D01*
X41200Y-43553D01*
X41173Y-43532D01*
X41148Y-43520D01*
X41113Y-43518D01*
X41116Y-43533D01*
X41152Y-43561D01*
X41190Y-43565D01*
X41200Y-43553D01*
X41200Y-43965D01*
X41121Y-43962D01*
X41078Y-43944D01*
X41066Y-43902D01*
X41066Y-43891D01*
X41051Y-43808D01*
X41031Y-43766D01*
X41011Y-43746D01*
X41014Y-43784D01*
X41020Y-43811D01*
X41022Y-43904D01*
X40989Y-43939D01*
X40989Y-43695D01*
X40973Y-43657D01*
X40959Y-43633D01*
X40905Y-43572D01*
X40868Y-43548D01*
X40854Y-43556D01*
X40883Y-43598D01*
X40898Y-43614D01*
X40964Y-43680D01*
X40989Y-43695D01*
X40989Y-43939D01*
X40977Y-43952D01*
X40883Y-43953D01*
X40783Y-43926D01*
X40714Y-43889D01*
X40611Y-43822D01*
X40491Y-43733D01*
X40422Y-43679D01*
X40284Y-43570D01*
X40138Y-43461D01*
X40100Y-43434D01*
X40100Y-39183D01*
X40083Y-39166D01*
X40066Y-39183D01*
X40083Y-39200D01*
X40100Y-39183D01*
X40100Y-43434D01*
X40026Y-43381D01*
X40026Y-39165D01*
X40026Y-39149D01*
X40006Y-39126D01*
X39985Y-39072D01*
X39969Y-38968D01*
X39963Y-38835D01*
X39960Y-38710D01*
X39957Y-38646D01*
X39950Y-38639D01*
X39939Y-38681D01*
X39933Y-38709D01*
X39933Y-38450D01*
X39907Y-38398D01*
X39849Y-38346D01*
X39780Y-38312D01*
X39731Y-38322D01*
X39716Y-38333D01*
X39675Y-38394D01*
X39668Y-38429D01*
X39678Y-38450D01*
X39701Y-38407D01*
X39701Y-38406D01*
X39733Y-38354D01*
X39778Y-38356D01*
X39801Y-38367D01*
X39864Y-38416D01*
X39888Y-38452D01*
X39915Y-38496D01*
X39931Y-38477D01*
X39933Y-38450D01*
X39933Y-38709D01*
X39928Y-38733D01*
X39913Y-38865D01*
X39919Y-38991D01*
X39943Y-39091D01*
X39978Y-39141D01*
X40026Y-39165D01*
X40026Y-43381D01*
X40009Y-43370D01*
X39969Y-43343D01*
X39927Y-43315D01*
X39927Y-40154D01*
X39922Y-40144D01*
X39882Y-40140D01*
X39877Y-40144D01*
X39882Y-40164D01*
X39900Y-40166D01*
X39927Y-40154D01*
X39927Y-43315D01*
X39833Y-43255D01*
X39833Y-40116D01*
X39816Y-40100D01*
X39800Y-40116D01*
X39816Y-40133D01*
X39833Y-40116D01*
X39833Y-43255D01*
X39775Y-43218D01*
X39766Y-43066D01*
X39766Y-40093D01*
X39766Y-40087D01*
X39743Y-40059D01*
X39708Y-40029D01*
X39668Y-40000D01*
X39677Y-40017D01*
X39695Y-40041D01*
X39744Y-40093D01*
X39766Y-40093D01*
X39766Y-43066D01*
X39754Y-42864D01*
X39740Y-42696D01*
X39720Y-42534D01*
X39697Y-42401D01*
X39684Y-42346D01*
X39656Y-42234D01*
X39654Y-42146D01*
X39677Y-42043D01*
X39684Y-42018D01*
X39721Y-41806D01*
X39722Y-41555D01*
X39688Y-41278D01*
X39666Y-41182D01*
X39666Y-39956D01*
X39666Y-39951D01*
X39659Y-39942D01*
X39659Y-38607D01*
X39649Y-38543D01*
X39593Y-38462D01*
X39517Y-38382D01*
X39433Y-38305D01*
X39366Y-38251D01*
X39332Y-38233D01*
X39338Y-38253D01*
X39383Y-38305D01*
X39451Y-38371D01*
X39536Y-38460D01*
X39600Y-38546D01*
X39624Y-38596D01*
X39642Y-38654D01*
X39652Y-38651D01*
X39659Y-38607D01*
X39659Y-39942D01*
X39642Y-39923D01*
X39628Y-39913D01*
X39605Y-39909D01*
X39613Y-39928D01*
X39647Y-39963D01*
X39666Y-39956D01*
X39666Y-41182D01*
X39622Y-40992D01*
X39593Y-40908D01*
X39593Y-39513D01*
X39592Y-39465D01*
X39565Y-39388D01*
X39563Y-39383D01*
X39541Y-39339D01*
X39539Y-39357D01*
X39546Y-39391D01*
X39545Y-39457D01*
X39529Y-39485D01*
X39463Y-39492D01*
X39400Y-39460D01*
X39400Y-38647D01*
X39386Y-38625D01*
X39340Y-38645D01*
X39323Y-38657D01*
X39323Y-38566D01*
X39315Y-38543D01*
X39278Y-38488D01*
X39276Y-38486D01*
X39230Y-38434D01*
X39203Y-38419D01*
X39202Y-38419D01*
X39212Y-38448D01*
X39250Y-38499D01*
X39294Y-38547D01*
X39323Y-38566D01*
X39323Y-38657D01*
X39267Y-38699D01*
X39183Y-38769D01*
X39129Y-38820D01*
X39110Y-38847D01*
X39130Y-38842D01*
X39193Y-38798D01*
X39205Y-38789D01*
X39285Y-38734D01*
X39347Y-38703D01*
X39361Y-38700D01*
X39395Y-38672D01*
X39400Y-38647D01*
X39400Y-39460D01*
X39389Y-39455D01*
X39365Y-39425D01*
X39365Y-39069D01*
X39350Y-39074D01*
X39316Y-39098D01*
X39260Y-39139D01*
X39236Y-39157D01*
X39247Y-39166D01*
X39257Y-39166D01*
X39303Y-39143D01*
X39337Y-39108D01*
X39365Y-39069D01*
X39365Y-39425D01*
X39336Y-39389D01*
X39332Y-39380D01*
X39297Y-39320D01*
X39268Y-39300D01*
X39250Y-39321D01*
X39266Y-39370D01*
X39306Y-39430D01*
X39357Y-39479D01*
X39378Y-39491D01*
X39436Y-39546D01*
X39493Y-39650D01*
X39512Y-39697D01*
X39548Y-39789D01*
X39576Y-39846D01*
X39588Y-39856D01*
X39587Y-39818D01*
X39567Y-39752D01*
X39542Y-39663D01*
X39534Y-39581D01*
X39541Y-39526D01*
X39566Y-39516D01*
X39593Y-39513D01*
X39593Y-40908D01*
X39524Y-40710D01*
X39511Y-40678D01*
X39410Y-40431D01*
X39313Y-40171D01*
X39225Y-39921D01*
X39155Y-39698D01*
X39126Y-39593D01*
X39086Y-39449D01*
X39054Y-39359D01*
X39022Y-39311D01*
X38986Y-39293D01*
X38984Y-39293D01*
X38942Y-39277D01*
X38925Y-39236D01*
X38926Y-39149D01*
X38927Y-39133D01*
X38940Y-39035D01*
X38960Y-38965D01*
X38969Y-38951D01*
X38992Y-38896D01*
X39000Y-38830D01*
X39011Y-38743D01*
X39040Y-38611D01*
X39083Y-38453D01*
X39135Y-38285D01*
X39189Y-38126D01*
X39241Y-37993D01*
X39250Y-37973D01*
X39294Y-37873D01*
X39309Y-37818D01*
X39299Y-37791D01*
X39273Y-37780D01*
X39130Y-37719D01*
X39036Y-37640D01*
X39016Y-37605D01*
X38971Y-37549D01*
X38916Y-37547D01*
X38824Y-37563D01*
X38781Y-37566D01*
X38736Y-37576D01*
X38722Y-37619D01*
X38726Y-37681D01*
X38726Y-37762D01*
X38695Y-37831D01*
X38625Y-37910D01*
X38556Y-37997D01*
X38473Y-38129D01*
X38384Y-38290D01*
X38298Y-38462D01*
X38225Y-38628D01*
X38173Y-38770D01*
X38163Y-38805D01*
X38152Y-38856D01*
X38147Y-38910D01*
X38151Y-38978D01*
X38164Y-39067D01*
X38188Y-39187D01*
X38225Y-39348D01*
X38276Y-39559D01*
X38313Y-39711D01*
X38406Y-40081D01*
X38491Y-40394D01*
X38570Y-40660D01*
X38649Y-40886D01*
X38732Y-41082D01*
X38822Y-41257D01*
X38924Y-41420D01*
X39041Y-41578D01*
X39179Y-41741D01*
X39341Y-41918D01*
X39374Y-41952D01*
X39482Y-42071D01*
X39554Y-42163D01*
X39601Y-42247D01*
X39633Y-42342D01*
X39649Y-42402D01*
X39676Y-42540D01*
X39700Y-42712D01*
X39718Y-42885D01*
X39721Y-42918D01*
X39742Y-43220D01*
X39396Y-43357D01*
X39146Y-43453D01*
X38915Y-43537D01*
X38709Y-43607D01*
X38540Y-43659D01*
X38415Y-43691D01*
X38366Y-43698D01*
X38366Y-43316D01*
X38350Y-43300D01*
X38333Y-43316D01*
X38350Y-43333D01*
X38366Y-43316D01*
X38366Y-43698D01*
X38352Y-43700D01*
X38286Y-43687D01*
X38270Y-43644D01*
X38302Y-43561D01*
X38305Y-43556D01*
X38329Y-43506D01*
X38314Y-43508D01*
X38288Y-43529D01*
X38243Y-43597D01*
X38233Y-43651D01*
X38206Y-43722D01*
X38144Y-43756D01*
X38071Y-43745D01*
X38043Y-43723D01*
X38014Y-43666D01*
X38037Y-43594D01*
X38114Y-43501D01*
X38182Y-43438D01*
X38252Y-43367D01*
X38294Y-43304D01*
X38300Y-43285D01*
X38322Y-43220D01*
X38392Y-43171D01*
X38515Y-43135D01*
X38695Y-43111D01*
X38883Y-43100D01*
X39076Y-43089D01*
X39214Y-43075D01*
X39308Y-43055D01*
X39370Y-43028D01*
X39373Y-43025D01*
X39461Y-42968D01*
X39298Y-42723D01*
X39108Y-42418D01*
X38953Y-42126D01*
X38837Y-41857D01*
X38763Y-41617D01*
X38733Y-41414D01*
X38733Y-41393D01*
X38718Y-41254D01*
X38679Y-41125D01*
X38670Y-41107D01*
X38576Y-40891D01*
X38484Y-40624D01*
X38400Y-40322D01*
X38345Y-40087D01*
X38303Y-39889D01*
X38269Y-39749D01*
X38239Y-39658D01*
X38211Y-39607D01*
X38180Y-39587D01*
X38141Y-39591D01*
X38121Y-39598D01*
X38020Y-39604D01*
X37900Y-39562D01*
X37779Y-39481D01*
X37673Y-39371D01*
X37668Y-39363D01*
X37588Y-39225D01*
X37513Y-39043D01*
X37449Y-38840D01*
X37416Y-38693D01*
X37408Y-38610D01*
X37433Y-38563D01*
X37472Y-38538D01*
X37524Y-38510D01*
X37516Y-38505D01*
X37459Y-38516D01*
X37400Y-38516D01*
X37400Y-38133D01*
X37372Y-38105D01*
X37341Y-38100D01*
X37328Y-38102D01*
X37328Y-37716D01*
X37323Y-37681D01*
X37306Y-37659D01*
X37272Y-37640D01*
X37266Y-37654D01*
X37283Y-37703D01*
X37316Y-37722D01*
X37328Y-37716D01*
X37328Y-38102D01*
X37303Y-38106D01*
X37326Y-38129D01*
X37333Y-38133D01*
X37383Y-38162D01*
X37398Y-38153D01*
X37400Y-38133D01*
X37400Y-38516D01*
X37386Y-38516D01*
X37326Y-38472D01*
X37297Y-38437D01*
X37255Y-38396D01*
X37255Y-38076D01*
X37226Y-38058D01*
X37165Y-38062D01*
X37117Y-38087D01*
X37073Y-38121D01*
X37084Y-38132D01*
X37118Y-38132D01*
X37196Y-38118D01*
X37227Y-38104D01*
X37255Y-38076D01*
X37255Y-38396D01*
X37225Y-38367D01*
X37166Y-38356D01*
X37085Y-38353D01*
X37010Y-38315D01*
X36968Y-38256D01*
X36966Y-38240D01*
X36939Y-38186D01*
X36874Y-38131D01*
X36866Y-38126D01*
X36787Y-38063D01*
X36775Y-37999D01*
X36828Y-37932D01*
X36885Y-37894D01*
X37003Y-37824D01*
X36843Y-37732D01*
X36740Y-37667D01*
X36653Y-37601D01*
X36620Y-37571D01*
X36579Y-37513D01*
X36586Y-37469D01*
X36602Y-37447D01*
X36673Y-37409D01*
X36776Y-37415D01*
X36897Y-37462D01*
X37003Y-37532D01*
X37088Y-37592D01*
X37159Y-37628D01*
X37181Y-37633D01*
X37217Y-37631D01*
X37229Y-37613D01*
X37214Y-37565D01*
X37181Y-37484D01*
X37149Y-37368D01*
X37139Y-37250D01*
X37139Y-37238D01*
X37153Y-37156D01*
X37184Y-37122D01*
X37229Y-37116D01*
X37311Y-37141D01*
X37379Y-37220D01*
X37435Y-37356D01*
X37483Y-37554D01*
X37485Y-37566D01*
X37528Y-37783D01*
X37565Y-37947D01*
X37602Y-38069D01*
X37645Y-38162D01*
X37699Y-38238D01*
X37770Y-38309D01*
X37838Y-38368D01*
X37936Y-38447D01*
X38008Y-38492D01*
X38066Y-38498D01*
X38120Y-38460D01*
X38181Y-38375D01*
X38258Y-38237D01*
X38295Y-38168D01*
X38393Y-37998D01*
X38479Y-37884D01*
X38558Y-37821D01*
X38639Y-37800D01*
X38644Y-37800D01*
X38689Y-37783D01*
X38686Y-37747D01*
X38669Y-37667D01*
X38666Y-37631D01*
X38641Y-37580D01*
X38561Y-37541D01*
X38539Y-37534D01*
X38369Y-37458D01*
X38201Y-37326D01*
X38083Y-37195D01*
X37998Y-37102D01*
X37906Y-37023D01*
X37879Y-37004D01*
X37774Y-36904D01*
X37705Y-36766D01*
X37680Y-36613D01*
X37695Y-36500D01*
X37767Y-36372D01*
X37888Y-36268D01*
X38046Y-36196D01*
X38226Y-36167D01*
X38249Y-36166D01*
X38300Y-36162D01*
X38341Y-36143D01*
X38382Y-36097D01*
X38432Y-36014D01*
X38502Y-35881D01*
X38601Y-35701D01*
X38689Y-35572D01*
X38779Y-35483D01*
X38884Y-35421D01*
X39016Y-35374D01*
X39057Y-35363D01*
X39156Y-35335D01*
X39211Y-35314D01*
X39214Y-35303D01*
X39208Y-35302D01*
X39149Y-35282D01*
X39133Y-35252D01*
X39106Y-35198D01*
X39038Y-35128D01*
X38944Y-35055D01*
X38844Y-34994D01*
X38775Y-34964D01*
X38701Y-34946D01*
X38633Y-34955D01*
X38546Y-34995D01*
X38511Y-35014D01*
X38422Y-35060D01*
X38359Y-35084D01*
X38340Y-35085D01*
X38332Y-35033D01*
X38363Y-34949D01*
X38425Y-34846D01*
X38505Y-34748D01*
X38578Y-34663D01*
X38604Y-34615D01*
X38587Y-34600D01*
X38584Y-34600D01*
X38539Y-34587D01*
X38546Y-34555D01*
X38598Y-34514D01*
X38685Y-34475D01*
X38843Y-34443D01*
X39016Y-34444D01*
X39124Y-34452D01*
X39175Y-34450D01*
X39178Y-34436D01*
X39151Y-34414D01*
X39110Y-34380D01*
X39125Y-34368D01*
X39178Y-34366D01*
X39310Y-34393D01*
X39466Y-34475D01*
X39637Y-34604D01*
X39791Y-34732D01*
X39815Y-34624D01*
X39838Y-34516D01*
X39884Y-34666D01*
X39982Y-34906D01*
X40113Y-35116D01*
X40175Y-35189D01*
X40275Y-35295D01*
X40400Y-35195D01*
X40511Y-35125D01*
X40629Y-35081D01*
X40654Y-35077D01*
X40720Y-35063D01*
X40771Y-35037D01*
X40821Y-34984D01*
X40882Y-34893D01*
X40933Y-34810D01*
X41073Y-34607D01*
X41236Y-34420D01*
X41407Y-34264D01*
X41573Y-34151D01*
X41622Y-34127D01*
X41715Y-34091D01*
X41805Y-34073D01*
X41914Y-34070D01*
X42048Y-34078D01*
X42221Y-34098D01*
X42411Y-34131D01*
X42566Y-34166D01*
X42698Y-34195D01*
X42873Y-34225D01*
X43070Y-34252D01*
X43267Y-34273D01*
X43276Y-34273D01*
X43468Y-34289D01*
X43611Y-34297D01*
X43724Y-34296D01*
X43824Y-34287D01*
X43930Y-34268D01*
X44009Y-34250D01*
X44309Y-34193D01*
X44564Y-34172D01*
X44787Y-34187D01*
X44987Y-34238D01*
X45008Y-34245D01*
X45338Y-34403D01*
X45626Y-34612D01*
X45872Y-34869D01*
X46073Y-35171D01*
X46227Y-35515D01*
X46334Y-35898D01*
X46390Y-36318D01*
X46400Y-36586D01*
X46400Y-36966D01*
X46400Y-36966D01*
X46400Y-36966D01*
G37*
G36*
X38482Y-38508D02*
X38469Y-38589D01*
X38448Y-38695D01*
X38424Y-38805D01*
X38400Y-38898D01*
X38382Y-38957D01*
X38376Y-38965D01*
X38369Y-38945D01*
X38369Y-38875D01*
X38376Y-38794D01*
X38393Y-38681D01*
X38418Y-38578D01*
X38446Y-38502D01*
X38473Y-38469D01*
X38482Y-38472D01*
X38482Y-38508D01*
X38482Y-38508D01*
X38482Y-38508D01*
G37*
G36*
X38992Y-36988D02*
X38977Y-37088D01*
X38925Y-37158D01*
X38780Y-37253D01*
X38699Y-37274D01*
X38699Y-36941D01*
X38668Y-36876D01*
X38590Y-36817D01*
X38485Y-36777D01*
X38397Y-36766D01*
X38344Y-36786D01*
X38339Y-36834D01*
X38381Y-36893D01*
X38407Y-36914D01*
X38474Y-36944D01*
X38559Y-36962D01*
X38639Y-36966D01*
X38691Y-36955D01*
X38699Y-36941D01*
X38699Y-37274D01*
X38618Y-37295D01*
X38454Y-37282D01*
X38343Y-37234D01*
X38207Y-37117D01*
X38127Y-36964D01*
X38113Y-36908D01*
X38118Y-36798D01*
X38176Y-36713D01*
X38275Y-36657D01*
X38404Y-36635D01*
X38552Y-36651D01*
X38683Y-36696D01*
X38841Y-36787D01*
X38945Y-36886D01*
X38992Y-36988D01*
X38992Y-36988D01*
X38992Y-36988D01*
G37*
G36*
X39066Y-36649D02*
X39049Y-36664D01*
X39023Y-36645D01*
X38982Y-36624D01*
X38899Y-36590D01*
X38826Y-36564D01*
X38732Y-36531D01*
X38697Y-36512D01*
X38715Y-36504D01*
X38750Y-36502D01*
X38824Y-36514D01*
X38914Y-36546D01*
X38999Y-36588D01*
X39055Y-36629D01*
X39066Y-36649D01*
X39066Y-36649D01*
X39066Y-36649D01*
G37*
G36*
X39190Y-36552D02*
X39170Y-36560D01*
X39093Y-36538D01*
X39033Y-36516D01*
X38962Y-36487D01*
X38950Y-36474D01*
X38992Y-36469D01*
X39001Y-36469D01*
X39094Y-36486D01*
X39151Y-36515D01*
X39190Y-36552D01*
X39190Y-36552D01*
X39190Y-36552D01*
G37*
G36*
X39735Y-36080D02*
X39714Y-36237D01*
X39687Y-36334D01*
X39687Y-36136D01*
X39683Y-35930D01*
X39653Y-35783D01*
X39608Y-35700D01*
X39554Y-35679D01*
X39494Y-35720D01*
X39435Y-35823D01*
X39387Y-35962D01*
X39349Y-36115D01*
X39336Y-36219D01*
X39348Y-36289D01*
X39383Y-36333D01*
X39423Y-36397D01*
X39433Y-36454D01*
X39444Y-36518D01*
X39479Y-36525D01*
X39543Y-36474D01*
X39562Y-36454D01*
X39646Y-36317D01*
X39687Y-36136D01*
X39687Y-36334D01*
X39675Y-36378D01*
X39619Y-36486D01*
X39548Y-36545D01*
X39476Y-36561D01*
X39392Y-36566D01*
X39290Y-36566D01*
X39308Y-36252D01*
X39336Y-36009D01*
X39386Y-35811D01*
X39455Y-35667D01*
X39512Y-35603D01*
X39560Y-35572D01*
X39577Y-35570D01*
X39602Y-35603D01*
X39650Y-35666D01*
X39660Y-35679D01*
X39710Y-35785D01*
X39734Y-35924D01*
X39735Y-36080D01*
X39735Y-36080D01*
X39735Y-36080D01*
G37*
G36*
X38998Y-35958D02*
X38992Y-36091D01*
X38982Y-36210D01*
X38967Y-36298D01*
X38965Y-36304D01*
X38964Y-36306D01*
X38964Y-35968D01*
X38962Y-35861D01*
X38950Y-35774D01*
X38934Y-35733D01*
X38904Y-35722D01*
X38871Y-35763D01*
X38837Y-35843D01*
X38806Y-35948D01*
X38783Y-36063D01*
X38769Y-36175D01*
X38770Y-36271D01*
X38782Y-36322D01*
X38802Y-36360D01*
X38821Y-36341D01*
X38836Y-36306D01*
X38868Y-36254D01*
X38895Y-36247D01*
X38922Y-36234D01*
X38943Y-36172D01*
X38957Y-36078D01*
X38964Y-35968D01*
X38964Y-36306D01*
X38921Y-36397D01*
X38858Y-36445D01*
X38792Y-36440D01*
X38769Y-36422D01*
X38747Y-36365D01*
X38736Y-36262D01*
X38737Y-36135D01*
X38749Y-36003D01*
X38771Y-35888D01*
X38781Y-35856D01*
X38831Y-35747D01*
X38891Y-35658D01*
X38949Y-35606D01*
X38971Y-35600D01*
X38985Y-35630D01*
X38994Y-35711D01*
X38998Y-35825D01*
X38998Y-35958D01*
X38998Y-35958D01*
X38998Y-35958D01*
G37*
G36*
X39931Y-35668D02*
X39928Y-35682D01*
X39893Y-35681D01*
X39888Y-35677D01*
X39866Y-35626D01*
X39866Y-35621D01*
X39883Y-35608D01*
X39906Y-35626D01*
X39931Y-35668D01*
X39931Y-35668D01*
X39931Y-35668D01*
G37*
G36*
X38952Y-35540D02*
X38941Y-35568D01*
X38894Y-35601D01*
X38841Y-35626D01*
X38842Y-35615D01*
X38874Y-35580D01*
X38924Y-35542D01*
X38952Y-35540D01*
X38952Y-35540D01*
X38952Y-35540D01*
G37*
G36*
X34450Y-22715D02*
X33525Y-22724D01*
X32600Y-22734D01*
X32591Y-27542D01*
X32583Y-32350D01*
X32575Y-27525D01*
X32567Y-22700D01*
X33508Y-22707D01*
X34450Y-22715D01*
X34450Y-22715D01*
X34450Y-22715D01*
G37*
G36*
X34200Y-32153D02*
X34186Y-32194D01*
X34175Y-32197D01*
X34142Y-32178D01*
X34062Y-32126D01*
X33943Y-32045D01*
X33792Y-31941D01*
X33617Y-31820D01*
X33452Y-31704D01*
X33216Y-31537D01*
X33032Y-31404D01*
X32896Y-31302D01*
X32804Y-31226D01*
X32751Y-31175D01*
X32736Y-31145D01*
X32752Y-31133D01*
X32763Y-31133D01*
X32804Y-31151D01*
X32889Y-31203D01*
X33008Y-31281D01*
X33154Y-31380D01*
X33317Y-31492D01*
X33489Y-31613D01*
X33660Y-31735D01*
X33821Y-31852D01*
X33965Y-31959D01*
X34082Y-32048D01*
X34162Y-32114D01*
X34199Y-32150D01*
X34200Y-32153D01*
X34200Y-32153D01*
X34200Y-32153D01*
G37*
G36*
X34200Y-31722D02*
X34185Y-31761D01*
X34175Y-31764D01*
X34142Y-31745D01*
X34062Y-31693D01*
X33943Y-31612D01*
X33792Y-31509D01*
X33617Y-31388D01*
X33467Y-31283D01*
X33237Y-31121D01*
X33057Y-30993D01*
X32923Y-30893D01*
X32828Y-30817D01*
X32768Y-30762D01*
X32738Y-30723D01*
X32733Y-30695D01*
X32742Y-30680D01*
X32766Y-30680D01*
X32820Y-30705D01*
X32909Y-30758D01*
X33037Y-30841D01*
X33209Y-30959D01*
X33417Y-31103D01*
X33552Y-31197D01*
X33706Y-31304D01*
X33833Y-31392D01*
X33997Y-31508D01*
X34108Y-31597D01*
X34174Y-31663D01*
X34199Y-31713D01*
X34200Y-31722D01*
X34200Y-31722D01*
X34200Y-31722D01*
G37*
G36*
X34199Y-31253D02*
X34187Y-31295D01*
X34175Y-31299D01*
X34141Y-31281D01*
X34061Y-31229D01*
X33944Y-31151D01*
X33796Y-31051D01*
X33627Y-30934D01*
X33558Y-30886D01*
X33323Y-30722D01*
X33138Y-30592D01*
X32996Y-30491D01*
X32892Y-30413D01*
X32819Y-30356D01*
X32773Y-30313D01*
X32747Y-30281D01*
X32736Y-30255D01*
X32733Y-30231D01*
X32749Y-30178D01*
X32770Y-30166D01*
X32808Y-30185D01*
X32891Y-30235D01*
X33009Y-30312D01*
X33154Y-30409D01*
X33316Y-30519D01*
X33486Y-30637D01*
X33655Y-30754D01*
X33813Y-30866D01*
X33952Y-30966D01*
X34063Y-31048D01*
X34135Y-31104D01*
X34158Y-31126D01*
X34189Y-31188D01*
X34199Y-31253D01*
X34199Y-31253D01*
X34199Y-31253D01*
G37*
G36*
X34200Y-30672D02*
X34191Y-30740D01*
X34171Y-30766D01*
X34137Y-30748D01*
X34056Y-30697D01*
X33936Y-30618D01*
X33787Y-30517D01*
X33614Y-30400D01*
X33513Y-30330D01*
X33328Y-30201D01*
X33158Y-30081D01*
X33011Y-29976D01*
X32898Y-29893D01*
X32826Y-29838D01*
X32808Y-29824D01*
X32761Y-29761D01*
X32736Y-29690D01*
X32736Y-29631D01*
X32763Y-29604D01*
X32776Y-29605D01*
X32814Y-29627D01*
X32899Y-29681D01*
X33023Y-29763D01*
X33177Y-29868D01*
X33355Y-29990D01*
X33509Y-30097D01*
X33723Y-30246D01*
X33888Y-30364D01*
X34011Y-30454D01*
X34096Y-30522D01*
X34152Y-30573D01*
X34184Y-30613D01*
X34197Y-30647D01*
X34200Y-30672D01*
X34200Y-30672D01*
X34200Y-30672D01*
G37*
G36*
X34202Y-30166D02*
X34192Y-30221D01*
X34175Y-30232D01*
X34142Y-30214D01*
X34062Y-30162D01*
X33943Y-30081D01*
X33792Y-29978D01*
X33617Y-29857D01*
X33458Y-29746D01*
X33231Y-29586D01*
X33054Y-29457D01*
X32922Y-29355D01*
X32829Y-29274D01*
X32770Y-29209D01*
X32739Y-29155D01*
X32732Y-29106D01*
X32743Y-29057D01*
X32746Y-29048D01*
X32765Y-29033D01*
X32808Y-29043D01*
X32882Y-29083D01*
X32996Y-29155D01*
X33125Y-29242D01*
X33409Y-29437D01*
X33651Y-29606D01*
X33849Y-29744D01*
X34000Y-29852D01*
X34100Y-29926D01*
X34142Y-29958D01*
X34174Y-30011D01*
X34195Y-30089D01*
X34202Y-30166D01*
X34202Y-30166D01*
X34202Y-30166D01*
G37*
G36*
X34200Y-27305D02*
X34199Y-27707D01*
X34197Y-28084D01*
X34195Y-28432D01*
X34192Y-28745D01*
X34189Y-29019D01*
X34186Y-29249D01*
X34182Y-29429D01*
X34178Y-29556D01*
X34174Y-29623D01*
X34172Y-29633D01*
X34138Y-29615D01*
X34057Y-29563D01*
X33937Y-29484D01*
X33833Y-29413D01*
X33833Y-27700D01*
X33833Y-25744D01*
X33833Y-25700D01*
X33833Y-25300D01*
X33833Y-24844D01*
X33826Y-24768D01*
X33796Y-24737D01*
X33750Y-24733D01*
X33686Y-24747D01*
X33667Y-24801D01*
X33667Y-24813D01*
X33649Y-24881D01*
X33589Y-24919D01*
X33476Y-24933D01*
X33448Y-24933D01*
X33348Y-24914D01*
X33301Y-24868D01*
X33283Y-24800D01*
X33272Y-24693D01*
X33268Y-24569D01*
X33271Y-24453D01*
X33283Y-24368D01*
X33292Y-24344D01*
X33351Y-24300D01*
X33439Y-24281D01*
X33535Y-24287D01*
X33616Y-24314D01*
X33663Y-24361D01*
X33667Y-24382D01*
X33695Y-24423D01*
X33750Y-24433D01*
X33814Y-24419D01*
X33833Y-24365D01*
X33833Y-24356D01*
X33820Y-24261D01*
X33774Y-24199D01*
X33685Y-24164D01*
X33544Y-24150D01*
X33483Y-24150D01*
X33350Y-24152D01*
X33266Y-24161D01*
X33212Y-24182D01*
X33171Y-24219D01*
X33161Y-24232D01*
X33129Y-24280D01*
X33110Y-24338D01*
X33102Y-24422D01*
X33103Y-24550D01*
X33105Y-24620D01*
X33116Y-24801D01*
X33139Y-24925D01*
X33183Y-25003D01*
X33256Y-25046D01*
X33366Y-25063D01*
X33477Y-25066D01*
X33624Y-25060D01*
X33720Y-25041D01*
X33772Y-25011D01*
X33819Y-24932D01*
X33833Y-24844D01*
X33833Y-25300D01*
X33750Y-25300D01*
X33667Y-25300D01*
X33667Y-25660D01*
X33664Y-25838D01*
X33654Y-25961D01*
X33631Y-26038D01*
X33592Y-26080D01*
X33530Y-26097D01*
X33467Y-26100D01*
X33385Y-26094D01*
X33329Y-26072D01*
X33294Y-26022D01*
X33275Y-25935D01*
X33268Y-25798D01*
X33267Y-25660D01*
X33267Y-25300D01*
X33183Y-25300D01*
X33100Y-25300D01*
X33100Y-25700D01*
X33102Y-25899D01*
X33114Y-26041D01*
X33141Y-26136D01*
X33191Y-26193D01*
X33270Y-26222D01*
X33384Y-26232D01*
X33467Y-26233D01*
X33601Y-26229D01*
X33687Y-26214D01*
X33745Y-26185D01*
X33767Y-26166D01*
X33795Y-26131D01*
X33814Y-26084D01*
X33826Y-26013D01*
X33831Y-25904D01*
X33833Y-25744D01*
X33833Y-27700D01*
X33832Y-27692D01*
X33832Y-27148D01*
X33830Y-27039D01*
X33803Y-26955D01*
X33785Y-26935D01*
X33728Y-26909D01*
X33628Y-26883D01*
X33537Y-26867D01*
X33402Y-26845D01*
X33320Y-26822D01*
X33280Y-26792D01*
X33267Y-26750D01*
X33267Y-26738D01*
X33294Y-26655D01*
X33378Y-26610D01*
X33476Y-26600D01*
X33567Y-26608D01*
X33612Y-26638D01*
X33624Y-26666D01*
X33665Y-26720D01*
X33732Y-26733D01*
X33797Y-26725D01*
X33813Y-26687D01*
X33808Y-26647D01*
X33765Y-26553D01*
X33679Y-26495D01*
X33541Y-26471D01*
X33412Y-26472D01*
X33263Y-26491D01*
X33168Y-26530D01*
X33118Y-26598D01*
X33100Y-26705D01*
X33100Y-26733D01*
X33115Y-26853D01*
X33168Y-26929D01*
X33269Y-26971D01*
X33350Y-26985D01*
X33498Y-27003D01*
X33591Y-27019D01*
X33641Y-27041D01*
X33661Y-27074D01*
X33662Y-27123D01*
X33660Y-27142D01*
X33650Y-27205D01*
X33625Y-27238D01*
X33566Y-27253D01*
X33475Y-27260D01*
X33371Y-27263D01*
X33313Y-27251D01*
X33282Y-27219D01*
X33267Y-27185D01*
X33220Y-27114D01*
X33163Y-27096D01*
X33117Y-27127D01*
X33100Y-27198D01*
X33120Y-27291D01*
X33186Y-27354D01*
X33303Y-27389D01*
X33474Y-27400D01*
X33607Y-27395D01*
X33692Y-27380D01*
X33750Y-27348D01*
X33767Y-27333D01*
X33811Y-27255D01*
X33832Y-27148D01*
X33832Y-27692D01*
X33829Y-27670D01*
X33809Y-27651D01*
X33761Y-27640D01*
X33673Y-27635D01*
X33536Y-27633D01*
X33467Y-27633D01*
X33100Y-27633D01*
X33100Y-28100D01*
X33100Y-28566D01*
X33183Y-28566D01*
X33229Y-28562D01*
X33254Y-28539D01*
X33264Y-28481D01*
X33266Y-28373D01*
X33267Y-28366D01*
X33267Y-28166D01*
X33517Y-28166D01*
X33644Y-28165D01*
X33719Y-28157D01*
X33755Y-28141D01*
X33766Y-28112D01*
X33767Y-28100D01*
X33761Y-28065D01*
X33734Y-28045D01*
X33672Y-28036D01*
X33562Y-28033D01*
X33517Y-28033D01*
X33267Y-28033D01*
X33267Y-27900D01*
X33267Y-27766D01*
X33550Y-27766D01*
X33688Y-27765D01*
X33772Y-27759D01*
X33815Y-27746D01*
X33831Y-27722D01*
X33833Y-27700D01*
X33833Y-29413D01*
X33786Y-29382D01*
X33611Y-29262D01*
X33464Y-29160D01*
X33275Y-29029D01*
X33105Y-28908D01*
X32960Y-28805D01*
X32849Y-28724D01*
X32779Y-28670D01*
X32759Y-28652D01*
X32754Y-28613D01*
X32751Y-28514D01*
X32747Y-28358D01*
X32743Y-28153D01*
X32740Y-27904D01*
X32738Y-27616D01*
X32736Y-27294D01*
X32735Y-26946D01*
X32734Y-26575D01*
X32734Y-26398D01*
X32733Y-24180D01*
X33020Y-23665D01*
X33149Y-23434D01*
X33249Y-23255D01*
X33325Y-23121D01*
X33379Y-23026D01*
X33417Y-22963D01*
X33442Y-22925D01*
X33457Y-22907D01*
X33467Y-22900D01*
X33472Y-22900D01*
X33494Y-22927D01*
X33544Y-23004D01*
X33617Y-23123D01*
X33706Y-23274D01*
X33809Y-23450D01*
X33847Y-23516D01*
X34200Y-24133D01*
X34200Y-26883D01*
X34200Y-27305D01*
X34200Y-27305D01*
X34200Y-27305D01*
G37*
G54D14*
X31595Y-32761D02*
X31366Y-32761D01*
X31480Y-32761D02*
X31480Y-32361D01*
X31442Y-32419D01*
X31404Y-32457D01*
X31366Y-32476D01*
X31747Y-32400D02*
X31766Y-32380D01*
X31804Y-32361D01*
X31900Y-32361D01*
X31938Y-32380D01*
X31957Y-32400D01*
X31976Y-32438D01*
X31976Y-32476D01*
X31957Y-32533D01*
X31728Y-32761D01*
X31976Y-32761D01*
X32090Y-32361D02*
X32223Y-32761D01*
X32357Y-32361D01*
X32795Y-32761D02*
X32795Y-32361D01*
X32985Y-32761D02*
X32985Y-32361D01*
X33214Y-32761D01*
X33214Y-32361D01*
G54D17*
X65270Y-40478D02*
X65634Y-40478D01*
X65677Y-40457D01*
X65698Y-40436D01*
X65720Y-40393D01*
X65720Y-40307D01*
X65698Y-40264D01*
X65677Y-40243D01*
X65634Y-40221D01*
X65270Y-40221D01*
X65270Y-40050D02*
X65270Y-39771D01*
X65441Y-39921D01*
X65441Y-39857D01*
X65463Y-39814D01*
X65484Y-39793D01*
X65527Y-39771D01*
X65634Y-39771D01*
X65677Y-39793D01*
X65698Y-39814D01*
X65720Y-39857D01*
X65720Y-39986D01*
X65698Y-40028D01*
X65677Y-40050D01*
X65009Y-40605D02*
X65009Y-40772D01*
X64659Y-40772D01*
X64826Y-40488D02*
X64826Y-40372D01*
X65009Y-40322D02*
X65009Y-40488D01*
X64659Y-40488D01*
X64659Y-40322D01*
X64659Y-40205D02*
X64659Y-39988D01*
X64793Y-40105D01*
X64793Y-40055D01*
X64809Y-40022D01*
X64826Y-40005D01*
X64859Y-39988D01*
X64943Y-39988D01*
X64976Y-40005D01*
X64993Y-40022D01*
X65009Y-40055D01*
X65009Y-40155D01*
X64993Y-40188D01*
X64976Y-40205D01*
X64659Y-39872D02*
X64659Y-39655D01*
X64793Y-39772D01*
X64793Y-39722D01*
X64809Y-39688D01*
X64826Y-39672D01*
X64859Y-39655D01*
X64943Y-39655D01*
X64976Y-39672D01*
X64993Y-39688D01*
X65009Y-39722D01*
X65009Y-39822D01*
X64993Y-39855D01*
X64976Y-39872D01*
G54D13*
X49211Y-38292D02*
X49535Y-38292D01*
X49573Y-38271D01*
X49592Y-38250D01*
X49611Y-38207D01*
X49611Y-38121D01*
X49592Y-38078D01*
X49573Y-38057D01*
X49535Y-38035D01*
X49211Y-38035D01*
X49250Y-37842D02*
X49230Y-37821D01*
X49211Y-37778D01*
X49211Y-37671D01*
X49230Y-37628D01*
X49250Y-37607D01*
X49288Y-37585D01*
X49326Y-37585D01*
X49383Y-37607D01*
X49611Y-37864D01*
X49611Y-37585D01*
X49011Y-39149D02*
X48611Y-39149D01*
X48897Y-38999D01*
X48611Y-38849D01*
X49011Y-38849D01*
X48897Y-38657D02*
X48897Y-38442D01*
X49011Y-38699D02*
X48611Y-38549D01*
X49011Y-38399D01*
X48611Y-38292D02*
X49011Y-37992D01*
X48611Y-37992D02*
X49011Y-38292D01*
X48650Y-37842D02*
X48630Y-37821D01*
X48611Y-37778D01*
X48611Y-37671D01*
X48630Y-37628D01*
X48650Y-37607D01*
X48688Y-37585D01*
X48726Y-37585D01*
X48783Y-37607D01*
X49011Y-37864D01*
X49011Y-37585D01*
X48611Y-37435D02*
X48611Y-37157D01*
X48764Y-37307D01*
X48764Y-37242D01*
X48783Y-37200D01*
X48802Y-37178D01*
X48840Y-37157D01*
X48935Y-37157D01*
X48973Y-37178D01*
X48992Y-37200D01*
X49011Y-37242D01*
X49011Y-37371D01*
X48992Y-37414D01*
X48973Y-37435D01*
X48650Y-36985D02*
X48630Y-36964D01*
X48611Y-36921D01*
X48611Y-36814D01*
X48630Y-36771D01*
X48650Y-36750D01*
X48688Y-36728D01*
X48726Y-36728D01*
X48783Y-36750D01*
X49011Y-37007D01*
X49011Y-36728D01*
G54D18*
X63877Y-33639D02*
X63811Y-33545D01*
X63764Y-33639D02*
X63764Y-33442D01*
X63839Y-33442D01*
X63858Y-33452D01*
X63867Y-33461D01*
X63877Y-33480D01*
X63877Y-33508D01*
X63867Y-33527D01*
X63858Y-33536D01*
X63839Y-33545D01*
X63764Y-33545D01*
X64046Y-33508D02*
X64046Y-33639D01*
X63999Y-33433D02*
X63952Y-33574D01*
X64074Y-33574D01*
X47529Y-40412D02*
X47435Y-40478D01*
X47529Y-40525D02*
X47332Y-40525D01*
X47332Y-40450D01*
X47342Y-40431D01*
X47351Y-40422D01*
X47370Y-40412D01*
X47398Y-40412D01*
X47417Y-40422D01*
X47426Y-40431D01*
X47435Y-40450D01*
X47435Y-40525D01*
X47332Y-40347D02*
X47332Y-40225D01*
X47407Y-40290D01*
X47407Y-40262D01*
X47417Y-40243D01*
X47426Y-40234D01*
X47445Y-40225D01*
X47492Y-40225D01*
X47510Y-40234D01*
X47520Y-40243D01*
X47529Y-40262D01*
X47529Y-40319D01*
X47520Y-40337D01*
X47510Y-40347D01*
X51299Y-39242D02*
X51205Y-39308D01*
X51299Y-39355D02*
X51102Y-39355D01*
X51102Y-39280D01*
X51112Y-39261D01*
X51121Y-39252D01*
X51140Y-39242D01*
X51168Y-39242D01*
X51187Y-39252D01*
X51196Y-39261D01*
X51205Y-39280D01*
X51205Y-39355D01*
X51121Y-39167D02*
X51112Y-39158D01*
X51102Y-39139D01*
X51102Y-39092D01*
X51112Y-39073D01*
X51121Y-39064D01*
X51140Y-39055D01*
X51159Y-39055D01*
X51187Y-39064D01*
X51299Y-39177D01*
X51299Y-39055D01*
X61587Y-30889D02*
X61521Y-30795D01*
X61474Y-30889D02*
X61474Y-30692D01*
X61549Y-30692D01*
X61568Y-30702D01*
X61577Y-30711D01*
X61587Y-30730D01*
X61587Y-30758D01*
X61577Y-30777D01*
X61568Y-30786D01*
X61549Y-30795D01*
X61474Y-30795D01*
X61774Y-30889D02*
X61662Y-30889D01*
X61718Y-30889D02*
X61718Y-30692D01*
X61699Y-30720D01*
X61680Y-30739D01*
X61662Y-30749D01*
X64677Y-35099D02*
X64611Y-35005D01*
X64564Y-35099D02*
X64564Y-34902D01*
X64639Y-34902D01*
X64658Y-34912D01*
X64667Y-34921D01*
X64677Y-34940D01*
X64677Y-34968D01*
X64667Y-34987D01*
X64658Y-34996D01*
X64639Y-35005D01*
X64564Y-35005D01*
X64855Y-34902D02*
X64761Y-34902D01*
X64752Y-34996D01*
X64761Y-34987D01*
X64780Y-34977D01*
X64827Y-34977D01*
X64846Y-34987D01*
X64855Y-34996D01*
X64864Y-35015D01*
X64864Y-35062D01*
X64855Y-35080D01*
X64846Y-35090D01*
X64827Y-35099D01*
X64780Y-35099D01*
X64761Y-35090D01*
X64752Y-35080D01*
X64677Y-33639D02*
X64611Y-33545D01*
X64564Y-33639D02*
X64564Y-33442D01*
X64639Y-33442D01*
X64658Y-33452D01*
X64667Y-33461D01*
X64677Y-33480D01*
X64677Y-33508D01*
X64667Y-33527D01*
X64658Y-33536D01*
X64639Y-33545D01*
X64564Y-33545D01*
X64846Y-33442D02*
X64808Y-33442D01*
X64789Y-33452D01*
X64780Y-33461D01*
X64761Y-33489D01*
X64752Y-33527D01*
X64752Y-33602D01*
X64761Y-33620D01*
X64770Y-33630D01*
X64789Y-33639D01*
X64827Y-33639D01*
X64846Y-33630D01*
X64855Y-33620D01*
X64864Y-33602D01*
X64864Y-33555D01*
X64855Y-33536D01*
X64846Y-33527D01*
X64827Y-33517D01*
X64789Y-33517D01*
X64770Y-33527D01*
X64761Y-33536D01*
X64752Y-33555D01*
X50599Y-41932D02*
X50505Y-41998D01*
X50599Y-42045D02*
X50402Y-42045D01*
X50402Y-41970D01*
X50412Y-41951D01*
X50421Y-41942D01*
X50440Y-41932D01*
X50468Y-41932D01*
X50487Y-41942D01*
X50496Y-41951D01*
X50505Y-41970D01*
X50505Y-42045D01*
X50402Y-41867D02*
X50402Y-41735D01*
X50599Y-41820D01*
X51967Y-41699D02*
X51901Y-41605D01*
X51854Y-41699D02*
X51854Y-41502D01*
X51929Y-41502D01*
X51948Y-41512D01*
X51957Y-41521D01*
X51967Y-41540D01*
X51967Y-41568D01*
X51957Y-41587D01*
X51948Y-41596D01*
X51929Y-41605D01*
X51854Y-41605D01*
X52079Y-41587D02*
X52060Y-41577D01*
X52051Y-41568D01*
X52042Y-41549D01*
X52042Y-41540D01*
X52051Y-41521D01*
X52060Y-41512D01*
X52079Y-41502D01*
X52117Y-41502D01*
X52136Y-41512D01*
X52145Y-41521D01*
X52154Y-41540D01*
X52154Y-41549D01*
X52145Y-41568D01*
X52136Y-41577D01*
X52117Y-41587D01*
X52079Y-41587D01*
X52060Y-41596D01*
X52051Y-41605D01*
X52042Y-41624D01*
X52042Y-41662D01*
X52051Y-41680D01*
X52060Y-41690D01*
X52079Y-41699D01*
X52117Y-41699D01*
X52136Y-41690D01*
X52145Y-41680D01*
X52154Y-41662D01*
X52154Y-41624D01*
X52145Y-41605D01*
X52136Y-41596D01*
X52117Y-41587D01*
X63877Y-35089D02*
X63811Y-34995D01*
X63764Y-35089D02*
X63764Y-34892D01*
X63839Y-34892D01*
X63858Y-34902D01*
X63867Y-34911D01*
X63877Y-34930D01*
X63877Y-34958D01*
X63867Y-34977D01*
X63858Y-34986D01*
X63839Y-34995D01*
X63764Y-34995D01*
X63970Y-35089D02*
X64008Y-35089D01*
X64027Y-35080D01*
X64036Y-35070D01*
X64055Y-35042D01*
X64064Y-35005D01*
X64064Y-34930D01*
X64055Y-34911D01*
X64046Y-34902D01*
X64027Y-34892D01*
X63989Y-34892D01*
X63970Y-34902D01*
X63961Y-34911D01*
X63952Y-34930D01*
X63952Y-34977D01*
X63961Y-34995D01*
X63970Y-35005D01*
X63989Y-35014D01*
X64027Y-35014D01*
X64046Y-35005D01*
X64055Y-34995D01*
X64064Y-34977D01*
X64589Y-29066D02*
X64495Y-29132D01*
X64589Y-29179D02*
X64392Y-29179D01*
X64392Y-29104D01*
X64402Y-29085D01*
X64411Y-29076D01*
X64430Y-29066D01*
X64458Y-29066D01*
X64477Y-29076D01*
X64486Y-29085D01*
X64495Y-29104D01*
X64495Y-29179D01*
X64589Y-28879D02*
X64589Y-28991D01*
X64589Y-28935D02*
X64392Y-28935D01*
X64420Y-28954D01*
X64439Y-28972D01*
X64449Y-28991D01*
X64392Y-28757D02*
X64392Y-28738D01*
X64402Y-28719D01*
X64411Y-28710D01*
X64430Y-28700D01*
X64467Y-28691D01*
X64514Y-28691D01*
X64552Y-28700D01*
X64570Y-28710D01*
X64580Y-28719D01*
X64589Y-28738D01*
X64589Y-28757D01*
X64580Y-28775D01*
X64570Y-28785D01*
X64552Y-28794D01*
X64514Y-28803D01*
X64467Y-28803D01*
X64430Y-28794D01*
X64411Y-28785D01*
X64402Y-28775D01*
X64392Y-28757D01*
X61577Y-32370D02*
X61567Y-32380D01*
X61539Y-32389D01*
X61520Y-32389D01*
X61492Y-32380D01*
X61473Y-32361D01*
X61464Y-32342D01*
X61455Y-32305D01*
X61455Y-32277D01*
X61464Y-32239D01*
X61473Y-32220D01*
X61492Y-32202D01*
X61520Y-32192D01*
X61539Y-32192D01*
X61567Y-32202D01*
X61577Y-32211D01*
X61764Y-32389D02*
X61652Y-32389D01*
X61708Y-32389D02*
X61708Y-32192D01*
X61689Y-32220D01*
X61670Y-32239D01*
X61652Y-32249D01*
X60977Y-29320D02*
X60967Y-29330D01*
X60939Y-29339D01*
X60920Y-29339D01*
X60892Y-29330D01*
X60873Y-29311D01*
X60864Y-29292D01*
X60855Y-29255D01*
X60855Y-29227D01*
X60864Y-29189D01*
X60873Y-29170D01*
X60892Y-29152D01*
X60920Y-29142D01*
X60939Y-29142D01*
X60967Y-29152D01*
X60977Y-29161D01*
X61052Y-29161D02*
X61061Y-29152D01*
X61080Y-29142D01*
X61127Y-29142D01*
X61146Y-29152D01*
X61155Y-29161D01*
X61164Y-29180D01*
X61164Y-29199D01*
X61155Y-29227D01*
X61042Y-29339D01*
X61164Y-29339D01*
X47057Y-36670D02*
X47047Y-36680D01*
X47019Y-36689D01*
X47000Y-36689D01*
X46972Y-36680D01*
X46953Y-36661D01*
X46944Y-36642D01*
X46935Y-36605D01*
X46935Y-36577D01*
X46944Y-36539D01*
X46953Y-36520D01*
X46972Y-36502D01*
X47000Y-36492D01*
X47019Y-36492D01*
X47047Y-36502D01*
X47057Y-36511D01*
X47122Y-36492D02*
X47244Y-36492D01*
X47179Y-36567D01*
X47207Y-36567D01*
X47226Y-36577D01*
X47235Y-36586D01*
X47244Y-36605D01*
X47244Y-36652D01*
X47235Y-36670D01*
X47226Y-36680D01*
X47207Y-36689D01*
X47150Y-36689D01*
X47132Y-36680D01*
X47122Y-36670D01*
X49330Y-35302D02*
X49340Y-35312D01*
X49349Y-35340D01*
X49349Y-35359D01*
X49340Y-35387D01*
X49321Y-35406D01*
X49302Y-35415D01*
X49265Y-35424D01*
X49237Y-35424D01*
X49199Y-35415D01*
X49180Y-35406D01*
X49162Y-35387D01*
X49152Y-35359D01*
X49152Y-35340D01*
X49162Y-35312D01*
X49171Y-35302D01*
X49218Y-35133D02*
X49349Y-35133D01*
X49143Y-35180D02*
X49284Y-35227D01*
X49284Y-35105D01*
X51017Y-36420D02*
X51007Y-36430D01*
X50979Y-36439D01*
X50960Y-36439D01*
X50932Y-36430D01*
X50913Y-36411D01*
X50904Y-36392D01*
X50895Y-36355D01*
X50895Y-36327D01*
X50904Y-36289D01*
X50913Y-36270D01*
X50932Y-36252D01*
X50960Y-36242D01*
X50979Y-36242D01*
X51007Y-36252D01*
X51017Y-36261D01*
X51195Y-36242D02*
X51101Y-36242D01*
X51092Y-36336D01*
X51101Y-36327D01*
X51120Y-36317D01*
X51167Y-36317D01*
X51186Y-36327D01*
X51195Y-36336D01*
X51204Y-36355D01*
X51204Y-36402D01*
X51195Y-36420D01*
X51186Y-36430D01*
X51167Y-36439D01*
X51120Y-36439D01*
X51101Y-36430D01*
X51092Y-36420D01*
X47077Y-38020D02*
X47067Y-38030D01*
X47039Y-38039D01*
X47020Y-38039D01*
X46992Y-38030D01*
X46973Y-38011D01*
X46964Y-37992D01*
X46955Y-37955D01*
X46955Y-37927D01*
X46964Y-37889D01*
X46973Y-37870D01*
X46992Y-37852D01*
X47020Y-37842D01*
X47039Y-37842D01*
X47067Y-37852D01*
X47077Y-37861D01*
X47246Y-37842D02*
X47208Y-37842D01*
X47189Y-37852D01*
X47180Y-37861D01*
X47161Y-37889D01*
X47152Y-37927D01*
X47152Y-38002D01*
X47161Y-38020D01*
X47170Y-38030D01*
X47189Y-38039D01*
X47227Y-38039D01*
X47246Y-38030D01*
X47255Y-38020D01*
X47264Y-38002D01*
X47264Y-37955D01*
X47255Y-37936D01*
X47246Y-37927D01*
X47227Y-37917D01*
X47189Y-37917D01*
X47170Y-37927D01*
X47161Y-37936D01*
X47152Y-37955D01*
X63027Y-39980D02*
X63017Y-39990D01*
X62989Y-39999D01*
X62970Y-39999D01*
X62942Y-39990D01*
X62923Y-39971D01*
X62914Y-39952D01*
X62905Y-39915D01*
X62905Y-39887D01*
X62914Y-39849D01*
X62923Y-39830D01*
X62942Y-39812D01*
X62970Y-39802D01*
X62989Y-39802D01*
X63017Y-39812D01*
X63027Y-39821D01*
X63120Y-39999D02*
X63158Y-39999D01*
X63177Y-39990D01*
X63186Y-39980D01*
X63205Y-39952D01*
X63214Y-39915D01*
X63214Y-39840D01*
X63205Y-39821D01*
X63196Y-39812D01*
X63177Y-39802D01*
X63139Y-39802D01*
X63120Y-39812D01*
X63111Y-39821D01*
X63102Y-39840D01*
X63102Y-39887D01*
X63111Y-39905D01*
X63120Y-39915D01*
X63139Y-39924D01*
X63177Y-39924D01*
X63196Y-39915D01*
X63205Y-39905D01*
X63214Y-39887D01*
X67077Y-39880D02*
X67067Y-39890D01*
X67039Y-39899D01*
X67020Y-39899D01*
X66992Y-39890D01*
X66973Y-39871D01*
X66964Y-39852D01*
X66955Y-39815D01*
X66955Y-39787D01*
X66964Y-39749D01*
X66973Y-39730D01*
X66992Y-39712D01*
X67020Y-39702D01*
X67039Y-39702D01*
X67067Y-39712D01*
X67077Y-39721D01*
X67189Y-39787D02*
X67170Y-39777D01*
X67161Y-39768D01*
X67152Y-39749D01*
X67152Y-39740D01*
X67161Y-39721D01*
X67170Y-39712D01*
X67189Y-39702D01*
X67227Y-39702D01*
X67246Y-39712D01*
X67255Y-39721D01*
X67264Y-39740D01*
X67264Y-39749D01*
X67255Y-39768D01*
X67246Y-39777D01*
X67227Y-39787D01*
X67189Y-39787D01*
X67170Y-39796D01*
X67161Y-39805D01*
X67152Y-39824D01*
X67152Y-39862D01*
X67161Y-39880D01*
X67170Y-39890D01*
X67189Y-39899D01*
X67227Y-39899D01*
X67246Y-39890D01*
X67255Y-39880D01*
X67264Y-39862D01*
X67264Y-39824D01*
X67255Y-39805D01*
X67246Y-39796D01*
X67227Y-39787D01*
X47067Y-39390D02*
X47057Y-39400D01*
X47029Y-39409D01*
X47010Y-39409D01*
X46982Y-39400D01*
X46963Y-39381D01*
X46954Y-39362D01*
X46945Y-39325D01*
X46945Y-39297D01*
X46954Y-39259D01*
X46963Y-39240D01*
X46982Y-39222D01*
X47010Y-39212D01*
X47029Y-39212D01*
X47057Y-39222D01*
X47067Y-39231D01*
X47132Y-39212D02*
X47264Y-39212D01*
X47179Y-39409D01*
G54D11*
X37000Y-31071D02*
X36952Y-31033D01*
X36904Y-30957D01*
X36904Y-30766D01*
X36952Y-30690D01*
X37000Y-30652D01*
X37095Y-30614D01*
X37190Y-30614D01*
X37333Y-30652D01*
X37904Y-31109D01*
X37904Y-30614D01*
X37619Y-30309D02*
X37619Y-29928D01*
X37904Y-30385D02*
X36904Y-30119D01*
X37904Y-29852D01*
X57904Y-30614D02*
X57904Y-31071D01*
X57904Y-30842D02*
X56904Y-30842D01*
X57047Y-30919D01*
X57142Y-30995D01*
X57190Y-31071D01*
X57619Y-30309D02*
X57619Y-29928D01*
X57904Y-30385D02*
X56904Y-30119D01*
X57904Y-29852D01*
G54D19*
X35842Y-29395D02*
X35242Y-29395D01*
X35242Y-29299D01*
X35271Y-29242D01*
X35328Y-29204D01*
X35385Y-29185D01*
X35500Y-29166D01*
X35585Y-29166D01*
X35700Y-29185D01*
X35757Y-29204D01*
X35814Y-29242D01*
X35842Y-29299D01*
X35842Y-29395D01*
X35300Y-29014D02*
X35271Y-28995D01*
X35242Y-28957D01*
X35242Y-28861D01*
X35271Y-28823D01*
X35300Y-28804D01*
X35357Y-28785D01*
X35414Y-28785D01*
X35500Y-28804D01*
X35842Y-29033D01*
X35842Y-28785D01*
G54D14*
X59911Y-28045D02*
X59511Y-28045D01*
X59511Y-27949D01*
X59530Y-27892D01*
X59569Y-27854D01*
X59607Y-27835D01*
X59683Y-27816D01*
X59740Y-27816D01*
X59816Y-27835D01*
X59854Y-27854D01*
X59892Y-27892D01*
X59911Y-27949D01*
X59911Y-28045D01*
X59911Y-27435D02*
X59911Y-27664D01*
X59911Y-27549D02*
X59511Y-27549D01*
X59569Y-27588D01*
X59607Y-27626D01*
X59626Y-27664D01*
X59881Y-30624D02*
X60109Y-30624D01*
X59995Y-31224D02*
X59995Y-30624D01*
X60452Y-31224D02*
X60224Y-31224D01*
X60338Y-31224D02*
X60338Y-30624D01*
X60300Y-30710D01*
X60262Y-30767D01*
X60224Y-30796D01*
G54D19*
X64082Y-32170D02*
X63482Y-32170D01*
X63482Y-32018D01*
X63511Y-31980D01*
X63540Y-31961D01*
X63597Y-31942D01*
X63682Y-31942D01*
X63740Y-31961D01*
X63768Y-31980D01*
X63797Y-32018D01*
X63797Y-32170D01*
X63768Y-31770D02*
X63768Y-31637D01*
X64082Y-31580D02*
X64082Y-31770D01*
X63482Y-31770D01*
X63482Y-31580D01*
X64082Y-31180D02*
X63797Y-31313D01*
X64082Y-31409D02*
X63482Y-31409D01*
X63482Y-31256D01*
X63511Y-31218D01*
X63540Y-31199D01*
X63597Y-31180D01*
X63682Y-31180D01*
X63740Y-31199D01*
X63768Y-31218D01*
X63797Y-31256D01*
X63797Y-31409D01*
X64082Y-31009D02*
X63482Y-31009D01*
X64082Y-30818D02*
X63482Y-30818D01*
X63482Y-30666D01*
X63511Y-30628D01*
X63540Y-30609D01*
X63597Y-30590D01*
X63682Y-30590D01*
X63740Y-30609D01*
X63768Y-30628D01*
X63797Y-30666D01*
X63797Y-30818D01*
X64082Y-30418D02*
X63482Y-30418D01*
X63768Y-30418D02*
X63768Y-30190D01*
X64082Y-30190D02*
X63482Y-30190D01*
X64054Y-30018D02*
X64082Y-29961D01*
X64082Y-29866D01*
X64054Y-29828D01*
X64025Y-29809D01*
X63968Y-29790D01*
X63911Y-29790D01*
X63854Y-29809D01*
X63825Y-29828D01*
X63797Y-29866D01*
X63768Y-29942D01*
X63740Y-29980D01*
X63711Y-29999D01*
X63654Y-30018D01*
X63597Y-30018D01*
X63540Y-29999D01*
X63511Y-29980D01*
X63482Y-29942D01*
X63482Y-29847D01*
X63511Y-29790D01*
X41037Y-26258D02*
X41094Y-26287D01*
X41113Y-26315D01*
X41132Y-26372D01*
X41132Y-26458D01*
X41113Y-26515D01*
X41094Y-26544D01*
X41056Y-26572D01*
X40903Y-26572D01*
X40903Y-25972D01*
X41037Y-25972D01*
X41075Y-26001D01*
X41094Y-26030D01*
X41113Y-26087D01*
X41113Y-26144D01*
X41094Y-26201D01*
X41075Y-26230D01*
X41037Y-26258D01*
X40903Y-26258D01*
X41380Y-25972D02*
X41456Y-25972D01*
X41494Y-26001D01*
X41532Y-26058D01*
X41551Y-26172D01*
X41551Y-26372D01*
X41532Y-26487D01*
X41494Y-26544D01*
X41456Y-26572D01*
X41380Y-26572D01*
X41341Y-26544D01*
X41303Y-26487D01*
X41284Y-26372D01*
X41284Y-26172D01*
X41303Y-26058D01*
X41341Y-26001D01*
X41380Y-25972D01*
X41799Y-25972D02*
X41875Y-25972D01*
X41913Y-26001D01*
X41951Y-26058D01*
X41970Y-26172D01*
X41970Y-26372D01*
X41951Y-26487D01*
X41913Y-26544D01*
X41875Y-26572D01*
X41799Y-26572D01*
X41760Y-26544D01*
X41722Y-26487D01*
X41703Y-26372D01*
X41703Y-26172D01*
X41722Y-26058D01*
X41760Y-26001D01*
X41799Y-25972D01*
X42122Y-26544D02*
X42180Y-26572D01*
X42275Y-26572D01*
X42313Y-26544D01*
X42332Y-26515D01*
X42351Y-26458D01*
X42351Y-26401D01*
X42332Y-26344D01*
X42313Y-26315D01*
X42275Y-26287D01*
X42199Y-26258D01*
X42160Y-26230D01*
X42141Y-26201D01*
X42122Y-26144D01*
X42122Y-26087D01*
X42141Y-26030D01*
X42160Y-26001D01*
X42199Y-25972D01*
X42294Y-25972D01*
X42351Y-26001D01*
X42465Y-25972D02*
X42694Y-25972D01*
X42580Y-26572D02*
X42580Y-25972D01*
X42732Y-26630D02*
X43037Y-26630D01*
X43113Y-26544D02*
X43170Y-26572D01*
X43265Y-26572D01*
X43303Y-26544D01*
X43322Y-26515D01*
X43341Y-26458D01*
X43341Y-26401D01*
X43322Y-26344D01*
X43303Y-26315D01*
X43265Y-26287D01*
X43189Y-26258D01*
X43151Y-26230D01*
X43132Y-26201D01*
X43113Y-26144D01*
X43113Y-26087D01*
X43132Y-26030D01*
X43151Y-26001D01*
X43189Y-25972D01*
X43284Y-25972D01*
X43341Y-26001D01*
X43475Y-25972D02*
X43570Y-26572D01*
X43646Y-26144D01*
X43722Y-26572D01*
X43818Y-25972D01*
X43970Y-26572D02*
X43970Y-25972D01*
X44103Y-25972D02*
X44332Y-25972D01*
X44218Y-26572D02*
X44218Y-25972D01*
X44694Y-26515D02*
X44675Y-26544D01*
X44618Y-26572D01*
X44580Y-26572D01*
X44522Y-26544D01*
X44484Y-26487D01*
X44465Y-26430D01*
X44446Y-26315D01*
X44446Y-26230D01*
X44465Y-26115D01*
X44484Y-26058D01*
X44522Y-26001D01*
X44580Y-25972D01*
X44618Y-25972D01*
X44675Y-26001D01*
X44694Y-26030D01*
X44865Y-26572D02*
X44865Y-25972D01*
X44865Y-26258D02*
X45094Y-26258D01*
X45094Y-26572D02*
X45094Y-25972D01*
X45284Y-26258D02*
X45418Y-26258D01*
X45475Y-26572D02*
X45284Y-26572D01*
X45284Y-25972D01*
X45475Y-25972D01*
X45875Y-26572D02*
X45741Y-26287D01*
X45646Y-26572D02*
X45646Y-25972D01*
X45799Y-25972D01*
X45837Y-26001D01*
X45856Y-26030D01*
X45875Y-26087D01*
X45875Y-26172D01*
X45856Y-26230D01*
X45837Y-26258D01*
X45799Y-26287D01*
X45646Y-26287D01*
X61484Y-25798D02*
X61350Y-25798D01*
X61350Y-26112D02*
X61350Y-25512D01*
X61541Y-25512D01*
X61884Y-26112D02*
X61693Y-26112D01*
X61693Y-25512D01*
X62093Y-25512D02*
X62170Y-25512D01*
X62208Y-25541D01*
X62246Y-25598D01*
X62265Y-25712D01*
X62265Y-25912D01*
X62246Y-26027D01*
X62208Y-26084D01*
X62170Y-26112D01*
X62093Y-26112D01*
X62055Y-26084D01*
X62017Y-26027D01*
X61998Y-25912D01*
X61998Y-25712D01*
X62017Y-25598D01*
X62055Y-25541D01*
X62093Y-25512D01*
X62398Y-25512D02*
X62493Y-26112D01*
X62570Y-25684D01*
X62646Y-26112D01*
X62741Y-25512D01*
X62893Y-26112D02*
X62893Y-25512D01*
X63027Y-25941D01*
X63160Y-25512D01*
X63160Y-26112D01*
X63350Y-25798D02*
X63484Y-25798D01*
X63541Y-26112D02*
X63350Y-26112D01*
X63350Y-25512D01*
X63541Y-25512D01*
X63655Y-25512D02*
X63884Y-25512D01*
X63770Y-26112D02*
X63770Y-25512D01*
X64017Y-25798D02*
X64150Y-25798D01*
X64208Y-26112D02*
X64017Y-26112D01*
X64017Y-25512D01*
X64208Y-25512D01*
X64608Y-26112D02*
X64474Y-25827D01*
X64379Y-26112D02*
X64379Y-25512D01*
X64531Y-25512D01*
X64570Y-25541D01*
X64589Y-25570D01*
X64608Y-25627D01*
X64608Y-25712D01*
X64589Y-25770D01*
X64570Y-25798D01*
X64531Y-25827D01*
X64379Y-25827D01*
M02*
