G04 (created by PCBNEW (2012-oct-18)-testing) date Fri 23 Nov 2012 13:58:41 GMT*
%MOIN*%
G04 Gerber Fmt 3.4, Leading zero omitted, Abs format*
%FSLAX34Y34*%
G01*
G70*
G90*
G04 APERTURE LIST*
%ADD10C,2.3622e-06*%
%ADD11R,0.0751X0.0436*%
%ADD12R,0.075X0.055*%
%ADD13R,0.055X0.075*%
%ADD14C,0.17*%
%ADD15C,0.09*%
%ADD16R,0.09X0.09*%
%ADD17R,0.075X0.075*%
%ADD18C,0.075*%
%ADD19C,0.11*%
%ADD20R,0.11X0.11*%
%ADD21R,0.12X0.12*%
%ADD22C,0.12*%
%ADD23O,0.08X0.12*%
%ADD24C,0.175*%
%ADD25C,0.08*%
%ADD26C,0.21685*%
%ADD27C,0.197165*%
%ADD28R,0.0987402X0.04*%
G04 APERTURE END LIST*
G54D10*
G54D11*
X66200Y-39450D03*
X64100Y-39450D03*
X66200Y-39950D03*
X66200Y-40450D03*
X66200Y-40950D03*
X64100Y-39950D03*
X64100Y-40450D03*
X64100Y-40950D03*
G54D12*
X63900Y-33925D03*
X63900Y-33175D03*
G54D13*
X47825Y-40350D03*
X47075Y-40350D03*
X51025Y-39200D03*
X51775Y-39200D03*
G54D12*
X61600Y-30425D03*
X61600Y-31175D03*
X64700Y-34625D03*
X64700Y-35375D03*
X64700Y-33925D03*
X64700Y-33175D03*
G54D13*
X50125Y-41900D03*
X50875Y-41900D03*
G54D12*
X52000Y-41225D03*
X52000Y-41975D03*
X63900Y-35375D03*
X63900Y-34625D03*
G54D13*
X64875Y-28950D03*
X64125Y-28950D03*
G54D12*
X61600Y-31925D03*
X61600Y-32675D03*
X61000Y-28875D03*
X61000Y-29625D03*
X47100Y-36225D03*
X47100Y-36975D03*
G54D13*
X48875Y-35250D03*
X49625Y-35250D03*
G54D12*
X51300Y-36025D03*
X51300Y-36775D03*
X47100Y-37575D03*
X47100Y-38325D03*
X63050Y-40275D03*
X63050Y-39525D03*
X67100Y-39425D03*
X67100Y-40175D03*
X47100Y-39675D03*
X47100Y-38925D03*
G54D14*
X37500Y-34500D03*
X37500Y-32500D03*
X37500Y-28500D03*
X37500Y-26500D03*
X57500Y-26500D03*
X57500Y-28500D03*
X57500Y-32500D03*
X57500Y-34500D03*
G54D15*
X35500Y-31500D03*
G54D16*
X35500Y-26500D03*
G54D17*
X59750Y-26250D03*
G54D18*
X59750Y-29250D03*
G54D19*
X59750Y-31559D03*
X59750Y-32500D03*
G54D20*
X59750Y-33441D03*
G54D17*
X65650Y-35000D03*
G54D18*
X65650Y-34000D03*
X65650Y-33000D03*
X65650Y-32000D03*
X65650Y-31000D03*
X65650Y-30000D03*
X65650Y-29000D03*
X66650Y-29000D03*
X66650Y-30000D03*
X66650Y-31000D03*
X66650Y-32000D03*
X66650Y-33000D03*
X66650Y-34000D03*
X66650Y-35000D03*
G54D21*
X40000Y-26500D03*
G54D22*
X40000Y-32500D03*
X55000Y-32500D03*
X55000Y-26500D03*
G54D17*
X66150Y-26950D03*
G54D18*
X65150Y-26950D03*
X64150Y-26950D03*
X63150Y-26950D03*
X62150Y-26950D03*
G54D23*
X58000Y-24000D03*
X59000Y-24000D03*
X60000Y-24000D03*
X61000Y-24000D03*
X62000Y-24000D03*
X63000Y-24000D03*
X64000Y-24000D03*
X65000Y-24000D03*
X67000Y-43000D03*
X66000Y-43000D03*
X65000Y-43000D03*
X64000Y-43000D03*
X60000Y-43000D03*
X58000Y-43000D03*
X57000Y-43000D03*
X61000Y-43000D03*
X62000Y-43000D03*
X63000Y-43000D03*
X56000Y-43000D03*
X55000Y-43000D03*
X54000Y-43000D03*
X51000Y-43000D03*
X52000Y-43000D03*
X53000Y-43000D03*
X49000Y-43000D03*
X48000Y-43000D03*
X47000Y-43000D03*
X45000Y-43000D03*
X44000Y-43000D03*
X56000Y-24000D03*
X55000Y-24000D03*
X54000Y-24000D03*
X53000Y-24000D03*
X52000Y-24000D03*
X51000Y-24000D03*
X50000Y-24000D03*
X49000Y-24000D03*
X47400Y-24000D03*
X46400Y-24000D03*
X45400Y-24000D03*
X44400Y-24000D03*
X43400Y-24000D03*
X42400Y-24000D03*
X41400Y-24000D03*
X40400Y-24000D03*
X46000Y-43000D03*
G54D24*
X69000Y-43000D03*
X66500Y-24000D03*
X37000Y-24000D03*
X36500Y-43000D03*
G54D25*
X68000Y-25000D03*
X69000Y-25000D03*
X68000Y-26000D03*
X69000Y-26000D03*
X68000Y-27000D03*
X69000Y-27000D03*
X68000Y-28000D03*
X69000Y-28000D03*
X68000Y-24000D03*
X69000Y-24000D03*
X69000Y-29000D03*
X68000Y-29000D03*
X68000Y-30000D03*
X69000Y-30000D03*
X68000Y-31000D03*
X69000Y-31000D03*
X68000Y-32000D03*
X69000Y-32000D03*
X68000Y-33000D03*
X69000Y-33000D03*
X68000Y-34000D03*
X69000Y-34000D03*
X68000Y-35000D03*
X69000Y-35000D03*
X68000Y-36000D03*
X69000Y-36000D03*
X68000Y-37000D03*
X69000Y-37000D03*
X68000Y-38000D03*
X69000Y-38000D03*
X68000Y-39000D03*
X69000Y-39000D03*
X68000Y-40000D03*
X69000Y-40000D03*
X68000Y-41000D03*
X69000Y-41000D03*
G54D26*
X34960Y-35000D03*
G54D27*
X32500Y-35000D03*
X33779Y-36889D03*
G54D28*
X48150Y-36200D03*
X48150Y-36700D03*
X48150Y-37200D03*
X48150Y-37700D03*
X48150Y-38200D03*
X48150Y-38700D03*
X48150Y-39200D03*
X48150Y-39700D03*
X50150Y-39700D03*
X50150Y-39200D03*
X50150Y-38700D03*
X50150Y-38200D03*
X50150Y-37700D03*
X50150Y-37200D03*
X50150Y-36700D03*
X50150Y-36200D03*
M02*
