G04 (created by PCBNEW (2012-oct-18)-testing) date Thu 22 Nov 2012 14:19:03 GMT*
%MOIN*%
G04 Gerber Fmt 3.4, Leading zero omitted, Abs format*
%FSLAX34Y34*%
G01*
G70*
G90*
G04 APERTURE LIST*
%ADD10C,2.3622e-06*%
%ADD11R,0.1378X0.1378*%
%ADD12R,0.0551X0.0236*%
%ADD13R,0.045X0.02*%
%ADD14R,0.055X0.035*%
%ADD15R,0.035X0.055*%
%ADD16C,0.15*%
%ADD17C,0.07*%
%ADD18R,0.07X0.07*%
%ADD19R,0.055X0.055*%
%ADD20C,0.055*%
%ADD21R,0.1X0.1*%
%ADD22C,0.1*%
%ADD23O,0.06X0.1*%
%ADD24C,0.155*%
%ADD25C,0.06*%
%ADD26C,0.035*%
%ADD27C,0.05*%
%ADD28C,0.01*%
%ADD29C,0.025*%
G04 APERTURE END LIST*
G54D10*
G54D11*
X34941Y-35000D03*
X32579Y-35000D03*
X33760Y-36850D03*
G54D12*
X66200Y-39450D03*
X64100Y-39450D03*
X66200Y-39950D03*
X66200Y-40450D03*
X66200Y-40950D03*
X64100Y-39950D03*
X64100Y-40450D03*
X64100Y-40950D03*
G54D13*
X48150Y-36200D03*
X48150Y-36700D03*
X48150Y-37200D03*
X48150Y-37700D03*
X48150Y-38200D03*
X48150Y-38700D03*
X48150Y-39200D03*
X48150Y-39700D03*
X50150Y-39700D03*
X50150Y-39200D03*
X50150Y-38700D03*
X50150Y-38200D03*
X50150Y-37700D03*
X50150Y-37200D03*
X50150Y-36700D03*
X50150Y-36200D03*
G54D14*
X63900Y-33925D03*
X63900Y-33175D03*
G54D15*
X47825Y-40350D03*
X47075Y-40350D03*
X50825Y-39200D03*
X51575Y-39200D03*
G54D14*
X61600Y-30425D03*
X61600Y-31175D03*
X64700Y-34625D03*
X64700Y-35375D03*
X64700Y-33925D03*
X64700Y-33175D03*
G54D15*
X50125Y-41900D03*
X50875Y-41900D03*
G54D14*
X52000Y-41225D03*
X52000Y-41975D03*
X63900Y-35375D03*
X63900Y-34625D03*
G54D15*
X64875Y-28950D03*
X64125Y-28950D03*
G54D14*
X61600Y-31925D03*
X61600Y-32675D03*
X61000Y-28875D03*
X61000Y-29625D03*
X47100Y-36225D03*
X47100Y-36975D03*
G54D15*
X48875Y-35250D03*
X49625Y-35250D03*
G54D14*
X51050Y-35975D03*
X51050Y-36725D03*
X47100Y-37575D03*
X47100Y-38325D03*
X63050Y-40275D03*
X63050Y-39525D03*
X67100Y-39425D03*
X67100Y-40175D03*
X47100Y-39675D03*
X47100Y-38925D03*
G54D16*
X37500Y-34500D03*
X37500Y-32500D03*
X37500Y-28500D03*
X37500Y-26500D03*
X57500Y-26500D03*
X57500Y-28500D03*
X57500Y-32500D03*
X57500Y-34500D03*
G54D17*
X35500Y-31500D03*
G54D18*
X35500Y-26500D03*
G54D19*
X59750Y-26250D03*
G54D20*
X59750Y-29250D03*
G54D17*
X59750Y-31559D03*
X59750Y-32500D03*
G54D18*
X59750Y-33441D03*
G54D19*
X65650Y-35000D03*
G54D20*
X65650Y-34000D03*
X65650Y-33000D03*
X65650Y-32000D03*
X65650Y-31000D03*
X65650Y-30000D03*
X65650Y-29000D03*
X66650Y-29000D03*
X66650Y-30000D03*
X66650Y-31000D03*
X66650Y-32000D03*
X66650Y-33000D03*
X66650Y-34000D03*
X66650Y-35000D03*
G54D21*
X40000Y-26500D03*
G54D22*
X40000Y-32500D03*
X55000Y-32500D03*
X55000Y-26500D03*
G54D19*
X66150Y-26950D03*
G54D20*
X65150Y-26950D03*
X64150Y-26950D03*
X63150Y-26950D03*
X62150Y-26950D03*
G54D23*
X58000Y-24000D03*
X59000Y-24000D03*
X60000Y-24000D03*
X61000Y-24000D03*
X62000Y-24000D03*
X63000Y-24000D03*
X64000Y-24000D03*
X65000Y-24000D03*
X67000Y-43000D03*
X66000Y-43000D03*
X65000Y-43000D03*
X64000Y-43000D03*
X60000Y-43000D03*
X58000Y-43000D03*
X57000Y-43000D03*
X61000Y-43000D03*
X62000Y-43000D03*
X63000Y-43000D03*
X56000Y-43000D03*
X55000Y-43000D03*
X54000Y-43000D03*
X51000Y-43000D03*
X52000Y-43000D03*
X53000Y-43000D03*
X49000Y-43000D03*
X48000Y-43000D03*
X47000Y-43000D03*
X45000Y-43000D03*
X44000Y-43000D03*
X56000Y-24000D03*
X55000Y-24000D03*
X54000Y-24000D03*
X53000Y-24000D03*
X52000Y-24000D03*
X51000Y-24000D03*
X50000Y-24000D03*
X49000Y-24000D03*
X47400Y-24000D03*
X46400Y-24000D03*
X45400Y-24000D03*
X44400Y-24000D03*
X43400Y-24000D03*
X42400Y-24000D03*
X41400Y-24000D03*
X40400Y-24000D03*
X46000Y-43000D03*
G54D24*
X69000Y-43000D03*
X66500Y-24000D03*
X37000Y-24000D03*
X36500Y-43000D03*
G54D25*
X68000Y-25000D03*
X69000Y-25000D03*
X68000Y-26000D03*
X69000Y-26000D03*
X68000Y-27000D03*
X69000Y-27000D03*
X68000Y-28000D03*
X69000Y-28000D03*
X68000Y-24000D03*
X69000Y-24000D03*
X69000Y-29000D03*
X68000Y-29000D03*
X68000Y-30000D03*
X69000Y-30000D03*
X68000Y-31000D03*
X69000Y-31000D03*
X68000Y-32000D03*
X69000Y-32000D03*
X68000Y-33000D03*
X69000Y-33000D03*
X68000Y-34000D03*
X69000Y-34000D03*
X68000Y-35000D03*
X69000Y-35000D03*
X68000Y-36000D03*
X69000Y-36000D03*
X68000Y-37000D03*
X69000Y-37000D03*
X68000Y-38000D03*
X69000Y-38000D03*
X68000Y-39000D03*
X69000Y-39000D03*
X68000Y-40000D03*
X69000Y-40000D03*
X68000Y-41000D03*
X69000Y-41000D03*
G54D26*
X32000Y-24000D03*
X50000Y-33000D03*
X53000Y-33000D03*
X47000Y-33000D03*
X56000Y-30000D03*
X53000Y-27000D03*
X53000Y-30000D03*
X50000Y-27000D03*
X47000Y-30000D03*
X44000Y-42000D03*
X44000Y-36000D03*
X44000Y-33000D03*
X39000Y-24000D03*
X41000Y-27000D03*
X44000Y-27000D03*
X44000Y-30000D03*
X41000Y-42000D03*
X41000Y-39000D03*
X41000Y-36000D03*
X41000Y-33000D03*
X41000Y-30000D03*
X38000Y-42000D03*
X38000Y-39000D03*
X35000Y-42000D03*
X35000Y-39000D03*
X35000Y-33000D03*
X35000Y-30000D03*
X35000Y-24000D03*
X32000Y-42000D03*
X32000Y-39000D03*
X32000Y-33000D03*
X32000Y-30000D03*
X32000Y-27000D03*
X60000Y-38500D03*
X57000Y-38500D03*
X54000Y-38500D03*
X52500Y-37000D03*
X56000Y-36000D03*
X70500Y-30000D03*
X70500Y-32000D03*
X65500Y-43750D03*
X63500Y-43750D03*
X61500Y-43750D03*
X56500Y-43750D03*
X54500Y-43750D03*
X52500Y-43750D03*
X47500Y-43750D03*
X45500Y-43750D03*
X67000Y-41250D03*
X63000Y-41000D03*
X65250Y-40750D03*
X65250Y-39500D03*
X66000Y-37000D03*
X66000Y-38500D03*
X64500Y-38500D03*
X64500Y-37000D03*
X66500Y-25500D03*
X65000Y-25500D03*
X64500Y-32000D03*
X64500Y-30000D03*
X66000Y-28000D03*
X65000Y-28000D03*
X61000Y-27500D03*
X62000Y-29000D03*
X62500Y-30000D03*
X62500Y-31500D03*
X61500Y-34000D03*
X54000Y-35000D03*
X62000Y-36000D03*
X59000Y-36000D03*
X61500Y-40000D03*
X58500Y-40000D03*
X55500Y-40000D03*
X46000Y-39000D03*
X47000Y-35500D03*
X70250Y-37250D03*
X70250Y-34500D03*
X70500Y-27500D03*
X70500Y-24750D03*
X57000Y-23000D03*
X54000Y-23000D03*
X51000Y-23000D03*
X62500Y-23000D03*
X60000Y-23000D03*
X45000Y-23000D03*
X42000Y-23000D03*
X63630Y-37440D03*
X61050Y-37460D03*
X49060Y-41520D03*
X63650Y-28100D03*
X50560Y-35260D03*
X51310Y-38460D03*
X53000Y-42000D03*
X67100Y-36000D03*
G54D27*
X40000Y-26500D02*
X40000Y-27430D01*
X49000Y-42490D02*
X49000Y-43000D01*
X47690Y-41180D02*
X49000Y-42490D01*
X46470Y-41180D02*
X47690Y-41180D01*
X43230Y-37940D02*
X46470Y-41180D01*
X43230Y-30660D02*
X43230Y-37940D01*
X40000Y-27430D02*
X43230Y-30660D01*
G54D28*
X49000Y-43000D02*
X49800Y-43000D01*
X49800Y-43000D02*
X50125Y-42675D01*
X50125Y-42675D02*
X50125Y-41900D01*
G54D27*
X37500Y-26500D02*
X40000Y-26500D01*
X37500Y-26500D02*
X37500Y-28500D01*
X35500Y-26500D02*
X37500Y-26500D01*
G54D29*
X59750Y-32500D02*
X60300Y-32500D01*
X60875Y-31925D02*
X61600Y-31925D01*
X60300Y-32500D02*
X60875Y-31925D01*
G54D27*
X59750Y-26250D02*
X60300Y-26250D01*
X64150Y-26550D02*
X64150Y-26950D01*
X63550Y-25950D02*
X64150Y-26550D01*
X60600Y-25950D02*
X63550Y-25950D01*
X60300Y-26250D02*
X60600Y-25950D01*
X59750Y-26250D02*
X59400Y-26250D01*
X58950Y-32150D02*
X58600Y-32500D01*
X58950Y-26700D02*
X58950Y-32150D01*
X59400Y-26250D02*
X58950Y-26700D01*
X57500Y-32500D02*
X58600Y-32500D01*
X58600Y-32500D02*
X59750Y-32500D01*
X57500Y-32500D02*
X57500Y-34500D01*
G54D28*
X51050Y-35975D02*
X52825Y-35975D01*
X63590Y-37400D02*
X63590Y-35800D01*
X63630Y-37440D02*
X63590Y-37400D01*
X54310Y-37460D02*
X61050Y-37460D01*
X52825Y-35975D02*
X54310Y-37460D01*
G54D29*
X50150Y-36200D02*
X49430Y-36200D01*
X49060Y-36570D02*
X49060Y-41520D01*
X49430Y-36200D02*
X49060Y-36570D01*
G54D28*
X66200Y-39450D02*
X67075Y-39450D01*
X67075Y-39450D02*
X67100Y-39425D01*
X63900Y-35800D02*
X65000Y-35800D01*
X63590Y-35800D02*
X63900Y-35800D01*
X67100Y-39200D02*
X67100Y-39425D01*
X67400Y-38900D02*
X67100Y-39200D01*
X67400Y-36600D02*
X67400Y-38900D01*
X67300Y-36500D02*
X67400Y-36600D01*
X66900Y-36500D02*
X67300Y-36500D01*
X66300Y-35900D02*
X66900Y-36500D01*
X65100Y-35900D02*
X66300Y-35900D01*
X65000Y-35800D02*
X65100Y-35900D01*
X63520Y-35800D02*
X63590Y-35800D01*
X63400Y-34800D02*
X63400Y-35700D01*
X63400Y-35700D02*
X63500Y-35800D01*
X63500Y-35800D02*
X63520Y-35800D01*
X63900Y-34625D02*
X63575Y-34625D01*
X63575Y-34625D02*
X63400Y-34800D01*
X49625Y-35250D02*
X49950Y-35250D01*
X50150Y-35450D02*
X50150Y-36200D01*
X49950Y-35250D02*
X50150Y-35450D01*
X50150Y-36200D02*
X50400Y-36200D01*
X50625Y-35975D02*
X51050Y-35975D01*
X50400Y-36200D02*
X50625Y-35975D01*
X63900Y-33925D02*
X63900Y-34625D01*
X64700Y-34625D02*
X65025Y-34625D01*
X65025Y-34625D02*
X65650Y-34000D01*
X63900Y-34625D02*
X64700Y-34625D01*
X64700Y-33925D02*
X65575Y-33925D01*
X65575Y-33925D02*
X65650Y-34000D01*
X63900Y-33925D02*
X64700Y-33925D01*
X68000Y-29000D02*
X67600Y-29000D01*
X66150Y-30500D02*
X65650Y-31000D01*
X66150Y-29700D02*
X66150Y-30500D01*
X66300Y-29550D02*
X66150Y-29700D01*
X67050Y-29550D02*
X66300Y-29550D01*
X67600Y-29000D02*
X67050Y-29550D01*
X64700Y-33175D02*
X64875Y-33175D01*
X69200Y-29000D02*
X69000Y-29000D01*
X69800Y-29600D02*
X69200Y-29000D01*
X69800Y-31500D02*
X69800Y-29600D01*
X69500Y-31800D02*
X69800Y-31500D01*
X69500Y-32200D02*
X69500Y-31800D01*
X69200Y-32500D02*
X69500Y-32200D01*
X68800Y-32500D02*
X69200Y-32500D01*
X68500Y-32800D02*
X68800Y-32500D01*
X68500Y-33200D02*
X68500Y-32800D01*
X68200Y-33500D02*
X68500Y-33200D01*
X67700Y-33500D02*
X68200Y-33500D01*
X67400Y-33800D02*
X67700Y-33500D01*
X67400Y-34000D02*
X67400Y-33800D01*
X66900Y-34500D02*
X67400Y-34000D01*
X66400Y-34500D02*
X66900Y-34500D01*
X66100Y-34200D02*
X66400Y-34500D01*
X66100Y-33700D02*
X66100Y-34200D01*
X65900Y-33500D02*
X66100Y-33700D01*
X65200Y-33500D02*
X65900Y-33500D01*
X64875Y-33175D02*
X65200Y-33500D01*
X66650Y-29000D02*
X67150Y-28500D01*
X68500Y-28500D02*
X69000Y-29000D01*
X67150Y-28500D02*
X68500Y-28500D01*
X64700Y-35375D02*
X64925Y-35375D01*
X66650Y-35350D02*
X66650Y-35000D01*
X66350Y-35650D02*
X66650Y-35350D01*
X65200Y-35650D02*
X66350Y-35650D01*
X64925Y-35375D02*
X65200Y-35650D01*
X66650Y-32000D02*
X66550Y-32000D01*
X63900Y-32950D02*
X63900Y-33175D01*
X64300Y-32550D02*
X63900Y-32950D01*
X66000Y-32550D02*
X64300Y-32550D01*
X66550Y-32000D02*
X66000Y-32550D01*
X66650Y-31000D02*
X68000Y-31000D01*
X69000Y-31000D02*
X68500Y-31500D01*
X67300Y-32350D02*
X66650Y-33000D01*
X67300Y-31950D02*
X67300Y-32350D01*
X67750Y-31500D02*
X67300Y-31950D01*
X68500Y-31500D02*
X67750Y-31500D01*
X68000Y-32000D02*
X68000Y-32100D01*
X67250Y-33400D02*
X66650Y-34000D01*
X67250Y-32850D02*
X67250Y-33400D01*
X68000Y-32100D02*
X67250Y-32850D01*
X66650Y-30000D02*
X67000Y-30000D01*
X69550Y-31450D02*
X69000Y-32000D01*
X69550Y-29750D02*
X69550Y-31450D01*
X69350Y-29550D02*
X69550Y-29750D01*
X67450Y-29550D02*
X69350Y-29550D01*
X67000Y-30000D02*
X67450Y-29550D01*
G54D29*
X63050Y-39525D02*
X64025Y-39525D01*
X64025Y-39525D02*
X64100Y-39450D01*
X65650Y-30000D02*
X63950Y-31700D01*
X63100Y-38450D02*
X64100Y-39450D01*
X63100Y-34450D02*
X63100Y-38450D01*
X63300Y-34250D02*
X63100Y-34450D01*
X63300Y-32900D02*
X63300Y-34250D01*
X63950Y-32250D02*
X63300Y-32900D01*
X63950Y-31700D02*
X63950Y-32250D01*
G54D28*
X63900Y-35375D02*
X63975Y-35375D01*
X64350Y-35000D02*
X65650Y-35000D01*
X63975Y-35375D02*
X64350Y-35000D01*
X69000Y-40000D02*
X69000Y-40100D01*
X50800Y-38200D02*
X50150Y-38200D01*
X51000Y-38000D02*
X50800Y-38200D01*
X51700Y-38000D02*
X51000Y-38000D01*
X52200Y-38500D02*
X51700Y-38000D01*
X52200Y-40000D02*
X52200Y-38500D01*
X54000Y-41800D02*
X52200Y-40000D01*
X68100Y-41800D02*
X54000Y-41800D01*
X68300Y-41600D02*
X68100Y-41800D01*
X69300Y-41600D02*
X68300Y-41600D01*
X69500Y-41400D02*
X69300Y-41600D01*
X69500Y-40600D02*
X69500Y-41400D01*
X69000Y-40100D02*
X69500Y-40600D01*
X64125Y-28575D02*
X64125Y-28950D01*
X63650Y-28100D02*
X64125Y-28575D01*
X50150Y-38700D02*
X50450Y-38700D01*
X46400Y-26920D02*
X46400Y-24000D01*
X50530Y-31050D02*
X46400Y-26920D01*
X50530Y-35230D02*
X50530Y-31050D01*
X50560Y-35260D02*
X50530Y-35230D01*
X51240Y-38530D02*
X51310Y-38460D01*
X50620Y-38530D02*
X51240Y-38530D01*
X50450Y-38700D02*
X50620Y-38530D01*
X69300Y-42000D02*
X53000Y-42000D01*
X69700Y-41600D02*
X69300Y-42000D01*
X69700Y-36800D02*
X69700Y-41600D01*
X69400Y-36500D02*
X69700Y-36800D01*
X67600Y-36500D02*
X69400Y-36500D01*
X67100Y-36000D02*
X67600Y-36500D01*
X50875Y-41900D02*
X51400Y-41900D01*
X51475Y-41975D02*
X52000Y-41975D01*
X51400Y-41900D02*
X51475Y-41975D01*
X52000Y-41975D02*
X52000Y-43000D01*
X61500Y-41619D02*
X54119Y-41619D01*
X51700Y-37700D02*
X50150Y-37700D01*
X52400Y-38400D02*
X51700Y-37700D01*
X52400Y-39900D02*
X52400Y-38400D01*
X54119Y-41619D02*
X52400Y-39900D01*
X63000Y-33300D02*
X63000Y-34100D01*
X63150Y-28350D02*
X63700Y-28900D01*
X63700Y-28900D02*
X63700Y-31500D01*
X63700Y-31500D02*
X63600Y-31600D01*
X63600Y-31600D02*
X63600Y-32200D01*
X63600Y-32200D02*
X63000Y-32800D01*
X63000Y-32800D02*
X63000Y-33300D01*
X63150Y-26950D02*
X63150Y-28350D01*
X61980Y-41619D02*
X61500Y-41619D01*
X61500Y-41619D02*
X61500Y-41619D01*
X62400Y-41200D02*
X61980Y-41619D01*
X62400Y-39200D02*
X62400Y-41200D01*
X62800Y-38800D02*
X62400Y-39200D01*
X62800Y-34300D02*
X62800Y-38800D01*
X63000Y-34100D02*
X62800Y-34300D01*
X62600Y-38700D02*
X62200Y-39100D01*
X62600Y-36500D02*
X62600Y-38700D01*
X62800Y-34000D02*
X62600Y-34200D01*
X62600Y-34200D02*
X62600Y-36500D01*
X62150Y-26950D02*
X62150Y-27050D01*
X62800Y-32700D02*
X62800Y-33300D01*
X63400Y-32100D02*
X62800Y-32700D01*
X63400Y-31500D02*
X63400Y-32100D01*
X63500Y-31400D02*
X63400Y-31500D01*
X63500Y-29000D02*
X63500Y-31400D01*
X62900Y-28400D02*
X63500Y-29000D01*
X62900Y-27800D02*
X62900Y-28400D01*
X62150Y-27050D02*
X62900Y-27800D01*
X62800Y-33300D02*
X62800Y-34000D01*
X62200Y-39100D02*
X62200Y-41145D01*
X62200Y-41145D02*
X62172Y-41172D01*
X61500Y-41400D02*
X54180Y-41400D01*
X62200Y-41145D02*
X62172Y-41172D01*
X62172Y-41172D02*
X61945Y-41400D01*
X61945Y-41400D02*
X61500Y-41400D01*
X50400Y-37200D02*
X50150Y-37200D01*
X50700Y-37500D02*
X50400Y-37200D01*
X51800Y-37500D02*
X50700Y-37500D01*
X52600Y-38300D02*
X51800Y-37500D01*
X52600Y-39819D02*
X52600Y-38300D01*
X54180Y-41400D02*
X52600Y-39819D01*
G54D29*
X47000Y-43000D02*
X48000Y-43000D01*
G54D28*
X49600Y-40150D02*
X52000Y-40150D01*
X52000Y-40150D02*
X52000Y-40100D01*
X51575Y-39200D02*
X51800Y-39200D01*
X51800Y-39200D02*
X52000Y-39400D01*
X52000Y-39400D02*
X52000Y-40100D01*
X52000Y-40100D02*
X52000Y-41225D01*
G54D29*
X59750Y-33441D02*
X60259Y-33441D01*
X61025Y-32675D02*
X61600Y-32675D01*
X60259Y-33441D02*
X61025Y-32675D01*
X61600Y-31175D02*
X62300Y-31175D01*
X62200Y-31200D02*
X62300Y-31200D01*
X62275Y-31200D02*
X62200Y-31200D01*
X62300Y-31175D02*
X62275Y-31200D01*
X61000Y-29625D02*
X61925Y-29625D01*
X62125Y-32675D02*
X61600Y-32675D01*
X62300Y-31200D02*
X62300Y-32500D01*
X62300Y-32500D02*
X62125Y-32675D01*
X62300Y-30000D02*
X62300Y-31200D01*
X61925Y-29625D02*
X62300Y-30000D01*
G54D28*
X47075Y-40350D02*
X47075Y-39700D01*
X47075Y-39700D02*
X47100Y-39675D01*
X50150Y-36700D02*
X51025Y-36700D01*
X51025Y-36700D02*
X51050Y-36725D01*
G54D29*
X49800Y-36700D02*
X50150Y-36700D01*
X49600Y-36900D02*
X49800Y-36700D01*
X49600Y-40150D02*
X49600Y-40100D01*
X49600Y-40100D02*
X49600Y-36900D01*
X63050Y-40275D02*
X63375Y-40275D01*
X63550Y-40450D02*
X64100Y-40450D01*
X63375Y-40275D02*
X63550Y-40450D01*
X68000Y-41000D02*
X69000Y-41000D01*
X66800Y-40450D02*
X67250Y-40900D01*
X67900Y-40900D02*
X68000Y-41000D01*
X67250Y-40900D02*
X67900Y-40900D01*
X66200Y-40450D02*
X66800Y-40450D01*
X66800Y-40450D02*
X66825Y-40450D01*
X66825Y-40450D02*
X67100Y-40175D01*
X64100Y-40450D02*
X66200Y-40450D01*
X64100Y-39950D02*
X64100Y-40450D01*
X66200Y-40450D02*
X66200Y-40950D01*
X66200Y-39950D02*
X66200Y-40450D01*
G54D27*
X66150Y-26950D02*
X66150Y-25400D01*
X66150Y-25400D02*
X66150Y-24350D01*
X66150Y-24350D02*
X66500Y-24000D01*
X65150Y-26950D02*
X66150Y-26950D01*
X55000Y-32500D02*
X55000Y-34000D01*
X55000Y-34000D02*
X55410Y-34410D01*
X55410Y-34410D02*
X56750Y-35750D01*
X56750Y-35750D02*
X58400Y-35750D01*
X58400Y-35750D02*
X59750Y-34400D01*
X59750Y-34400D02*
X59750Y-33441D01*
X33760Y-36850D02*
X33760Y-40260D01*
X33760Y-40260D02*
X36500Y-43000D01*
X35500Y-31500D02*
X35150Y-31500D01*
X35750Y-24000D02*
X37000Y-24000D01*
X33600Y-26150D02*
X35750Y-24000D01*
X33600Y-29950D02*
X33600Y-26150D01*
X35150Y-31500D02*
X33600Y-29950D01*
X35500Y-31500D02*
X35500Y-31450D01*
X40000Y-31800D02*
X40000Y-32500D01*
X38750Y-30550D02*
X40000Y-31800D01*
X36400Y-30550D02*
X38750Y-30550D01*
X35500Y-31450D02*
X36400Y-30550D01*
X32579Y-35000D02*
X32579Y-34421D01*
X32579Y-34421D02*
X35500Y-31500D01*
X32579Y-35000D02*
X32579Y-36579D01*
X32850Y-36850D02*
X33760Y-36850D01*
X32579Y-36579D02*
X32850Y-36850D01*
G54D28*
X64875Y-28950D02*
X65600Y-28950D01*
X65600Y-28950D02*
X65650Y-29000D01*
X50150Y-39200D02*
X50825Y-39200D01*
X47100Y-36225D02*
X48125Y-36225D01*
X48125Y-36225D02*
X48150Y-36200D01*
X47100Y-36975D02*
X47425Y-36975D01*
X47650Y-37200D02*
X48150Y-37200D01*
X47425Y-36975D02*
X47650Y-37200D01*
X47100Y-37575D02*
X47475Y-37575D01*
X47600Y-37700D02*
X48150Y-37700D01*
X47475Y-37575D02*
X47600Y-37700D01*
X47100Y-38325D02*
X47525Y-38325D01*
X47650Y-38200D02*
X48150Y-38200D01*
X47525Y-38325D02*
X47650Y-38200D01*
X48150Y-36700D02*
X48400Y-36700D01*
X48875Y-36225D02*
X48875Y-35250D01*
X48400Y-36700D02*
X48875Y-36225D01*
X47100Y-38925D02*
X47475Y-38925D01*
X47700Y-38700D02*
X48150Y-38700D01*
X47475Y-38925D02*
X47700Y-38700D01*
X47825Y-40350D02*
X48050Y-40350D01*
X48150Y-40250D02*
X48150Y-39700D01*
X48050Y-40350D02*
X48150Y-40250D01*
G54D27*
X37500Y-34500D02*
X37500Y-32500D01*
X34941Y-35000D02*
X37000Y-35000D01*
X37000Y-35000D02*
X37500Y-34500D01*
X57500Y-26500D02*
X57500Y-28500D01*
X55000Y-26500D02*
X57500Y-26500D01*
G54D29*
X61600Y-30425D02*
X59750Y-30425D01*
X59800Y-30400D02*
X59750Y-30400D01*
X59775Y-30400D02*
X59800Y-30400D01*
X59750Y-30425D02*
X59775Y-30400D01*
G54D27*
X59750Y-29250D02*
X59750Y-30400D01*
X59750Y-30400D02*
X59750Y-31559D01*
G54D29*
X59750Y-29250D02*
X60250Y-28750D01*
X60875Y-28750D02*
X61000Y-28875D01*
X60250Y-28750D02*
X60875Y-28750D01*
G54D10*
G36*
X67598Y-31306D02*
X67573Y-31323D01*
X67123Y-31773D01*
X67090Y-31822D01*
X67052Y-31731D01*
X66919Y-31597D01*
X66744Y-31525D01*
X66555Y-31524D01*
X66381Y-31597D01*
X66247Y-31730D01*
X66175Y-31905D01*
X66174Y-32021D01*
X66125Y-32070D01*
X66123Y-31899D01*
X66055Y-31735D01*
X65974Y-31711D01*
X65938Y-31746D01*
X65938Y-31675D01*
X65914Y-31594D01*
X65738Y-31523D01*
X65549Y-31526D01*
X65385Y-31594D01*
X65361Y-31675D01*
X65650Y-31964D01*
X65938Y-31675D01*
X65938Y-31746D01*
X65720Y-31964D01*
X65650Y-32035D01*
X65579Y-31964D01*
X65579Y-31964D01*
X65325Y-31711D01*
X65244Y-31735D01*
X65173Y-31911D01*
X65176Y-32100D01*
X65244Y-32264D01*
X65271Y-32272D01*
X65255Y-32288D01*
X65266Y-32300D01*
X64300Y-32300D01*
X64299Y-32300D01*
X64280Y-32303D01*
X64263Y-32307D01*
X64275Y-32250D01*
X64275Y-31834D01*
X65175Y-30934D01*
X65174Y-31094D01*
X65247Y-31268D01*
X65380Y-31402D01*
X65555Y-31474D01*
X65744Y-31475D01*
X65918Y-31402D01*
X66052Y-31269D01*
X66124Y-31094D01*
X66125Y-30905D01*
X66117Y-30886D01*
X66229Y-30774D01*
X66175Y-30905D01*
X66174Y-31094D01*
X66247Y-31268D01*
X66380Y-31402D01*
X66555Y-31474D01*
X66744Y-31475D01*
X66918Y-31402D01*
X67052Y-31269D01*
X67060Y-31250D01*
X67562Y-31250D01*
X67575Y-31282D01*
X67598Y-31306D01*
X67598Y-31306D01*
G37*
G54D28*
X67598Y-31306D02*
X67573Y-31323D01*
X67123Y-31773D01*
X67090Y-31822D01*
X67052Y-31731D01*
X66919Y-31597D01*
X66744Y-31525D01*
X66555Y-31524D01*
X66381Y-31597D01*
X66247Y-31730D01*
X66175Y-31905D01*
X66174Y-32021D01*
X66125Y-32070D01*
X66123Y-31899D01*
X66055Y-31735D01*
X65974Y-31711D01*
X65938Y-31746D01*
X65938Y-31675D01*
X65914Y-31594D01*
X65738Y-31523D01*
X65549Y-31526D01*
X65385Y-31594D01*
X65361Y-31675D01*
X65650Y-31964D01*
X65938Y-31675D01*
X65938Y-31746D01*
X65720Y-31964D01*
X65650Y-32035D01*
X65579Y-31964D01*
X65579Y-31964D01*
X65325Y-31711D01*
X65244Y-31735D01*
X65173Y-31911D01*
X65176Y-32100D01*
X65244Y-32264D01*
X65271Y-32272D01*
X65255Y-32288D01*
X65266Y-32300D01*
X64300Y-32300D01*
X64299Y-32300D01*
X64280Y-32303D01*
X64263Y-32307D01*
X64275Y-32250D01*
X64275Y-31834D01*
X65175Y-30934D01*
X65174Y-31094D01*
X65247Y-31268D01*
X65380Y-31402D01*
X65555Y-31474D01*
X65744Y-31475D01*
X65918Y-31402D01*
X66052Y-31269D01*
X66124Y-31094D01*
X66125Y-30905D01*
X66117Y-30886D01*
X66229Y-30774D01*
X66175Y-30905D01*
X66174Y-31094D01*
X66247Y-31268D01*
X66380Y-31402D01*
X66555Y-31474D01*
X66744Y-31475D01*
X66918Y-31402D01*
X67052Y-31269D01*
X67060Y-31250D01*
X67562Y-31250D01*
X67575Y-31282D01*
X67598Y-31306D01*
G54D10*
G36*
X69450Y-39779D02*
X69424Y-39717D01*
X69283Y-39576D01*
X69099Y-39500D01*
X68900Y-39499D01*
X68717Y-39575D01*
X68576Y-39716D01*
X68500Y-39900D01*
X68499Y-40099D01*
X68575Y-40282D01*
X68716Y-40423D01*
X68900Y-40499D01*
X68997Y-40499D01*
X68895Y-40500D01*
X68720Y-40573D01*
X68693Y-40657D01*
X68964Y-40929D01*
X68964Y-40929D01*
X69035Y-41000D01*
X69000Y-41035D01*
X68929Y-40964D01*
X68929Y-40964D01*
X68657Y-40693D01*
X68573Y-40720D01*
X68499Y-40905D01*
X68499Y-40895D01*
X68426Y-40720D01*
X68342Y-40693D01*
X68070Y-40964D01*
X67964Y-41070D01*
X67964Y-41000D01*
X67657Y-40693D01*
X67573Y-40720D01*
X67499Y-40905D01*
X67500Y-41104D01*
X67573Y-41279D01*
X67657Y-41306D01*
X67964Y-41000D01*
X67964Y-41070D01*
X67693Y-41342D01*
X67720Y-41426D01*
X67905Y-41500D01*
X68046Y-41499D01*
X67996Y-41550D01*
X66675Y-41550D01*
X66675Y-41107D01*
X66675Y-41025D01*
X66625Y-40975D01*
X66225Y-40975D01*
X66225Y-41218D01*
X66275Y-41268D01*
X66435Y-41268D01*
X66515Y-41267D01*
X66588Y-41237D01*
X66645Y-41181D01*
X66675Y-41107D01*
X66675Y-41550D01*
X66175Y-41550D01*
X66175Y-41218D01*
X66175Y-40975D01*
X66175Y-40925D01*
X66175Y-40718D01*
X66175Y-40682D01*
X66175Y-40475D01*
X66175Y-40425D01*
X66175Y-40218D01*
X66175Y-40182D01*
X66175Y-39975D01*
X65774Y-39975D01*
X65724Y-40025D01*
X65724Y-40107D01*
X65754Y-40181D01*
X65773Y-40200D01*
X65754Y-40218D01*
X65724Y-40292D01*
X65724Y-40375D01*
X65774Y-40425D01*
X66175Y-40425D01*
X66175Y-40475D01*
X65774Y-40475D01*
X65724Y-40525D01*
X65724Y-40607D01*
X65754Y-40681D01*
X65773Y-40700D01*
X65754Y-40718D01*
X65724Y-40792D01*
X65724Y-40875D01*
X65774Y-40925D01*
X66175Y-40925D01*
X66175Y-40975D01*
X65774Y-40975D01*
X65724Y-41025D01*
X65724Y-41107D01*
X65754Y-41181D01*
X65811Y-41237D01*
X65884Y-41267D01*
X65964Y-41268D01*
X66125Y-41268D01*
X66175Y-41218D01*
X66175Y-41550D01*
X64575Y-41550D01*
X64575Y-41028D01*
X64575Y-40792D01*
X64545Y-40718D01*
X64526Y-40700D01*
X64545Y-40681D01*
X64575Y-40607D01*
X64575Y-40292D01*
X64545Y-40218D01*
X64526Y-40200D01*
X64545Y-40181D01*
X64575Y-40107D01*
X64575Y-40025D01*
X64525Y-39975D01*
X64125Y-39975D01*
X64125Y-40182D01*
X64125Y-40218D01*
X64125Y-40425D01*
X64525Y-40425D01*
X64575Y-40375D01*
X64575Y-40292D01*
X64575Y-40607D01*
X64575Y-40525D01*
X64525Y-40475D01*
X64175Y-40475D01*
X64125Y-40475D01*
X64075Y-40475D01*
X64075Y-40425D01*
X64075Y-40218D01*
X64075Y-40182D01*
X64075Y-39975D01*
X63674Y-39975D01*
X63624Y-40025D01*
X63624Y-40107D01*
X63654Y-40181D01*
X63673Y-40200D01*
X63654Y-40218D01*
X63624Y-40292D01*
X63624Y-40375D01*
X63674Y-40425D01*
X64075Y-40425D01*
X64075Y-40475D01*
X64025Y-40475D01*
X63674Y-40475D01*
X63624Y-40525D01*
X63624Y-40607D01*
X63654Y-40681D01*
X63673Y-40699D01*
X63655Y-40718D01*
X63624Y-40792D01*
X63624Y-40871D01*
X63624Y-41107D01*
X63654Y-41181D01*
X63711Y-41237D01*
X63784Y-41267D01*
X63864Y-41268D01*
X64415Y-41268D01*
X64488Y-41237D01*
X64544Y-41181D01*
X64575Y-41107D01*
X64575Y-41028D01*
X64575Y-41550D01*
X63525Y-41550D01*
X63525Y-40489D01*
X63525Y-40350D01*
X63475Y-40300D01*
X63075Y-40300D01*
X63075Y-40600D01*
X63125Y-40650D01*
X63285Y-40650D01*
X63364Y-40649D01*
X63438Y-40619D01*
X63494Y-40563D01*
X63525Y-40489D01*
X63525Y-41550D01*
X62403Y-41550D01*
X62576Y-41376D01*
X62630Y-41295D01*
X62650Y-41200D01*
X62650Y-40607D01*
X62661Y-40619D01*
X62735Y-40649D01*
X62814Y-40650D01*
X62975Y-40650D01*
X63025Y-40600D01*
X63025Y-40350D01*
X63025Y-40300D01*
X63025Y-40250D01*
X63075Y-40250D01*
X63125Y-40250D01*
X63475Y-40250D01*
X63525Y-40200D01*
X63525Y-40060D01*
X63494Y-39986D01*
X63438Y-39930D01*
X63364Y-39900D01*
X63364Y-39900D01*
X63438Y-39869D01*
X63457Y-39850D01*
X63624Y-39850D01*
X63624Y-39875D01*
X63674Y-39925D01*
X64025Y-39925D01*
X64075Y-39925D01*
X64125Y-39925D01*
X64175Y-39925D01*
X64525Y-39925D01*
X64575Y-39875D01*
X64575Y-39792D01*
X64545Y-39718D01*
X64526Y-39700D01*
X64544Y-39681D01*
X64575Y-39607D01*
X64575Y-39528D01*
X64575Y-39292D01*
X64545Y-39218D01*
X64488Y-39162D01*
X64415Y-39132D01*
X64335Y-39131D01*
X64241Y-39131D01*
X63425Y-38315D01*
X63425Y-37760D01*
X63555Y-37814D01*
X63704Y-37815D01*
X63842Y-37758D01*
X63947Y-37652D01*
X64004Y-37514D01*
X64005Y-37365D01*
X63948Y-37227D01*
X63842Y-37122D01*
X63840Y-37121D01*
X63840Y-36050D01*
X63900Y-36050D01*
X64896Y-36050D01*
X64923Y-36076D01*
X65004Y-36130D01*
X65100Y-36150D01*
X66196Y-36150D01*
X66723Y-36676D01*
X66723Y-36676D01*
X66771Y-36709D01*
X66804Y-36730D01*
X66804Y-36730D01*
X66900Y-36750D01*
X67150Y-36750D01*
X67150Y-38796D01*
X66923Y-39023D01*
X66905Y-39049D01*
X66785Y-39049D01*
X66711Y-39080D01*
X66655Y-39136D01*
X66629Y-39200D01*
X66626Y-39200D01*
X66588Y-39162D01*
X66515Y-39132D01*
X66435Y-39131D01*
X65884Y-39131D01*
X65811Y-39162D01*
X65755Y-39218D01*
X65724Y-39292D01*
X65724Y-39371D01*
X65724Y-39607D01*
X65754Y-39681D01*
X65773Y-39700D01*
X65754Y-39718D01*
X65724Y-39792D01*
X65724Y-39875D01*
X65774Y-39925D01*
X66125Y-39925D01*
X66175Y-39925D01*
X66225Y-39925D01*
X66225Y-39975D01*
X66225Y-40025D01*
X66225Y-40182D01*
X66225Y-40218D01*
X66225Y-40375D01*
X66225Y-40425D01*
X66225Y-40475D01*
X66225Y-40525D01*
X66225Y-40682D01*
X66225Y-40718D01*
X66225Y-40925D01*
X66625Y-40925D01*
X66675Y-40875D01*
X66675Y-40792D01*
X66645Y-40718D01*
X66626Y-40700D01*
X66645Y-40681D01*
X66675Y-40607D01*
X66675Y-40525D01*
X66675Y-40483D01*
X66711Y-40519D01*
X66785Y-40549D01*
X66864Y-40550D01*
X67025Y-40550D01*
X67075Y-40500D01*
X67075Y-40250D01*
X67075Y-40200D01*
X67075Y-40150D01*
X67125Y-40150D01*
X67125Y-40200D01*
X67125Y-40250D01*
X67125Y-40500D01*
X67175Y-40550D01*
X67335Y-40550D01*
X67414Y-40549D01*
X67488Y-40519D01*
X67544Y-40463D01*
X67575Y-40389D01*
X67575Y-40280D01*
X67575Y-40282D01*
X67716Y-40423D01*
X67900Y-40499D01*
X67997Y-40499D01*
X67895Y-40500D01*
X67720Y-40573D01*
X67693Y-40657D01*
X68000Y-40964D01*
X68306Y-40657D01*
X68279Y-40573D01*
X68097Y-40500D01*
X68099Y-40500D01*
X68282Y-40424D01*
X68423Y-40283D01*
X68499Y-40099D01*
X68500Y-39900D01*
X68424Y-39717D01*
X68283Y-39576D01*
X68099Y-39500D01*
X67900Y-39499D01*
X67717Y-39575D01*
X67576Y-39716D01*
X67517Y-39859D01*
X67488Y-39830D01*
X67414Y-39800D01*
X67414Y-39800D01*
X67488Y-39769D01*
X67544Y-39713D01*
X67574Y-39639D01*
X67575Y-39560D01*
X67575Y-39280D01*
X67575Y-39282D01*
X67716Y-39423D01*
X67900Y-39499D01*
X68099Y-39500D01*
X68282Y-39424D01*
X68423Y-39283D01*
X68499Y-39099D01*
X68500Y-38900D01*
X68424Y-38717D01*
X68283Y-38576D01*
X68099Y-38500D01*
X67900Y-38499D01*
X67717Y-38575D01*
X67650Y-38642D01*
X67650Y-38357D01*
X67716Y-38423D01*
X67900Y-38499D01*
X68099Y-38500D01*
X68282Y-38424D01*
X68423Y-38283D01*
X68499Y-38099D01*
X68500Y-37900D01*
X68424Y-37717D01*
X68283Y-37576D01*
X68099Y-37500D01*
X67900Y-37499D01*
X67717Y-37575D01*
X67650Y-37642D01*
X67650Y-37357D01*
X67716Y-37423D01*
X67900Y-37499D01*
X68099Y-37500D01*
X68282Y-37424D01*
X68423Y-37283D01*
X68499Y-37099D01*
X68500Y-36900D01*
X68437Y-36750D01*
X68562Y-36750D01*
X68500Y-36900D01*
X68499Y-37099D01*
X68575Y-37282D01*
X68716Y-37423D01*
X68900Y-37499D01*
X69099Y-37500D01*
X69282Y-37424D01*
X69423Y-37283D01*
X69450Y-37220D01*
X69450Y-37779D01*
X69424Y-37717D01*
X69283Y-37576D01*
X69099Y-37500D01*
X68900Y-37499D01*
X68717Y-37575D01*
X68576Y-37716D01*
X68500Y-37900D01*
X68499Y-38099D01*
X68575Y-38282D01*
X68716Y-38423D01*
X68900Y-38499D01*
X69099Y-38500D01*
X69282Y-38424D01*
X69423Y-38283D01*
X69450Y-38220D01*
X69450Y-38779D01*
X69424Y-38717D01*
X69283Y-38576D01*
X69099Y-38500D01*
X68900Y-38499D01*
X68717Y-38575D01*
X68576Y-38716D01*
X68500Y-38900D01*
X68499Y-39099D01*
X68575Y-39282D01*
X68716Y-39423D01*
X68900Y-39499D01*
X69099Y-39500D01*
X69282Y-39424D01*
X69423Y-39283D01*
X69450Y-39220D01*
X69450Y-39779D01*
X69450Y-39779D01*
G37*
G54D28*
X69450Y-39779D02*
X69424Y-39717D01*
X69283Y-39576D01*
X69099Y-39500D01*
X68900Y-39499D01*
X68717Y-39575D01*
X68576Y-39716D01*
X68500Y-39900D01*
X68499Y-40099D01*
X68575Y-40282D01*
X68716Y-40423D01*
X68900Y-40499D01*
X68997Y-40499D01*
X68895Y-40500D01*
X68720Y-40573D01*
X68693Y-40657D01*
X68964Y-40929D01*
X68964Y-40929D01*
X69035Y-41000D01*
X69000Y-41035D01*
X68929Y-40964D01*
X68929Y-40964D01*
X68657Y-40693D01*
X68573Y-40720D01*
X68499Y-40905D01*
X68499Y-40895D01*
X68426Y-40720D01*
X68342Y-40693D01*
X68070Y-40964D01*
X67964Y-41070D01*
X67964Y-41000D01*
X67657Y-40693D01*
X67573Y-40720D01*
X67499Y-40905D01*
X67500Y-41104D01*
X67573Y-41279D01*
X67657Y-41306D01*
X67964Y-41000D01*
X67964Y-41070D01*
X67693Y-41342D01*
X67720Y-41426D01*
X67905Y-41500D01*
X68046Y-41499D01*
X67996Y-41550D01*
X66675Y-41550D01*
X66675Y-41107D01*
X66675Y-41025D01*
X66625Y-40975D01*
X66225Y-40975D01*
X66225Y-41218D01*
X66275Y-41268D01*
X66435Y-41268D01*
X66515Y-41267D01*
X66588Y-41237D01*
X66645Y-41181D01*
X66675Y-41107D01*
X66675Y-41550D01*
X66175Y-41550D01*
X66175Y-41218D01*
X66175Y-40975D01*
X66175Y-40925D01*
X66175Y-40718D01*
X66175Y-40682D01*
X66175Y-40475D01*
X66175Y-40425D01*
X66175Y-40218D01*
X66175Y-40182D01*
X66175Y-39975D01*
X65774Y-39975D01*
X65724Y-40025D01*
X65724Y-40107D01*
X65754Y-40181D01*
X65773Y-40200D01*
X65754Y-40218D01*
X65724Y-40292D01*
X65724Y-40375D01*
X65774Y-40425D01*
X66175Y-40425D01*
X66175Y-40475D01*
X65774Y-40475D01*
X65724Y-40525D01*
X65724Y-40607D01*
X65754Y-40681D01*
X65773Y-40700D01*
X65754Y-40718D01*
X65724Y-40792D01*
X65724Y-40875D01*
X65774Y-40925D01*
X66175Y-40925D01*
X66175Y-40975D01*
X65774Y-40975D01*
X65724Y-41025D01*
X65724Y-41107D01*
X65754Y-41181D01*
X65811Y-41237D01*
X65884Y-41267D01*
X65964Y-41268D01*
X66125Y-41268D01*
X66175Y-41218D01*
X66175Y-41550D01*
X64575Y-41550D01*
X64575Y-41028D01*
X64575Y-40792D01*
X64545Y-40718D01*
X64526Y-40700D01*
X64545Y-40681D01*
X64575Y-40607D01*
X64575Y-40292D01*
X64545Y-40218D01*
X64526Y-40200D01*
X64545Y-40181D01*
X64575Y-40107D01*
X64575Y-40025D01*
X64525Y-39975D01*
X64125Y-39975D01*
X64125Y-40182D01*
X64125Y-40218D01*
X64125Y-40425D01*
X64525Y-40425D01*
X64575Y-40375D01*
X64575Y-40292D01*
X64575Y-40607D01*
X64575Y-40525D01*
X64525Y-40475D01*
X64175Y-40475D01*
X64125Y-40475D01*
X64075Y-40475D01*
X64075Y-40425D01*
X64075Y-40218D01*
X64075Y-40182D01*
X64075Y-39975D01*
X63674Y-39975D01*
X63624Y-40025D01*
X63624Y-40107D01*
X63654Y-40181D01*
X63673Y-40200D01*
X63654Y-40218D01*
X63624Y-40292D01*
X63624Y-40375D01*
X63674Y-40425D01*
X64075Y-40425D01*
X64075Y-40475D01*
X64025Y-40475D01*
X63674Y-40475D01*
X63624Y-40525D01*
X63624Y-40607D01*
X63654Y-40681D01*
X63673Y-40699D01*
X63655Y-40718D01*
X63624Y-40792D01*
X63624Y-40871D01*
X63624Y-41107D01*
X63654Y-41181D01*
X63711Y-41237D01*
X63784Y-41267D01*
X63864Y-41268D01*
X64415Y-41268D01*
X64488Y-41237D01*
X64544Y-41181D01*
X64575Y-41107D01*
X64575Y-41028D01*
X64575Y-41550D01*
X63525Y-41550D01*
X63525Y-40489D01*
X63525Y-40350D01*
X63475Y-40300D01*
X63075Y-40300D01*
X63075Y-40600D01*
X63125Y-40650D01*
X63285Y-40650D01*
X63364Y-40649D01*
X63438Y-40619D01*
X63494Y-40563D01*
X63525Y-40489D01*
X63525Y-41550D01*
X62403Y-41550D01*
X62576Y-41376D01*
X62630Y-41295D01*
X62650Y-41200D01*
X62650Y-40607D01*
X62661Y-40619D01*
X62735Y-40649D01*
X62814Y-40650D01*
X62975Y-40650D01*
X63025Y-40600D01*
X63025Y-40350D01*
X63025Y-40300D01*
X63025Y-40250D01*
X63075Y-40250D01*
X63125Y-40250D01*
X63475Y-40250D01*
X63525Y-40200D01*
X63525Y-40060D01*
X63494Y-39986D01*
X63438Y-39930D01*
X63364Y-39900D01*
X63364Y-39900D01*
X63438Y-39869D01*
X63457Y-39850D01*
X63624Y-39850D01*
X63624Y-39875D01*
X63674Y-39925D01*
X64025Y-39925D01*
X64075Y-39925D01*
X64125Y-39925D01*
X64175Y-39925D01*
X64525Y-39925D01*
X64575Y-39875D01*
X64575Y-39792D01*
X64545Y-39718D01*
X64526Y-39700D01*
X64544Y-39681D01*
X64575Y-39607D01*
X64575Y-39528D01*
X64575Y-39292D01*
X64545Y-39218D01*
X64488Y-39162D01*
X64415Y-39132D01*
X64335Y-39131D01*
X64241Y-39131D01*
X63425Y-38315D01*
X63425Y-37760D01*
X63555Y-37814D01*
X63704Y-37815D01*
X63842Y-37758D01*
X63947Y-37652D01*
X64004Y-37514D01*
X64005Y-37365D01*
X63948Y-37227D01*
X63842Y-37122D01*
X63840Y-37121D01*
X63840Y-36050D01*
X63900Y-36050D01*
X64896Y-36050D01*
X64923Y-36076D01*
X65004Y-36130D01*
X65100Y-36150D01*
X66196Y-36150D01*
X66723Y-36676D01*
X66723Y-36676D01*
X66771Y-36709D01*
X66804Y-36730D01*
X66804Y-36730D01*
X66900Y-36750D01*
X67150Y-36750D01*
X67150Y-38796D01*
X66923Y-39023D01*
X66905Y-39049D01*
X66785Y-39049D01*
X66711Y-39080D01*
X66655Y-39136D01*
X66629Y-39200D01*
X66626Y-39200D01*
X66588Y-39162D01*
X66515Y-39132D01*
X66435Y-39131D01*
X65884Y-39131D01*
X65811Y-39162D01*
X65755Y-39218D01*
X65724Y-39292D01*
X65724Y-39371D01*
X65724Y-39607D01*
X65754Y-39681D01*
X65773Y-39700D01*
X65754Y-39718D01*
X65724Y-39792D01*
X65724Y-39875D01*
X65774Y-39925D01*
X66125Y-39925D01*
X66175Y-39925D01*
X66225Y-39925D01*
X66225Y-39975D01*
X66225Y-40025D01*
X66225Y-40182D01*
X66225Y-40218D01*
X66225Y-40375D01*
X66225Y-40425D01*
X66225Y-40475D01*
X66225Y-40525D01*
X66225Y-40682D01*
X66225Y-40718D01*
X66225Y-40925D01*
X66625Y-40925D01*
X66675Y-40875D01*
X66675Y-40792D01*
X66645Y-40718D01*
X66626Y-40700D01*
X66645Y-40681D01*
X66675Y-40607D01*
X66675Y-40525D01*
X66675Y-40483D01*
X66711Y-40519D01*
X66785Y-40549D01*
X66864Y-40550D01*
X67025Y-40550D01*
X67075Y-40500D01*
X67075Y-40250D01*
X67075Y-40200D01*
X67075Y-40150D01*
X67125Y-40150D01*
X67125Y-40200D01*
X67125Y-40250D01*
X67125Y-40500D01*
X67175Y-40550D01*
X67335Y-40550D01*
X67414Y-40549D01*
X67488Y-40519D01*
X67544Y-40463D01*
X67575Y-40389D01*
X67575Y-40280D01*
X67575Y-40282D01*
X67716Y-40423D01*
X67900Y-40499D01*
X67997Y-40499D01*
X67895Y-40500D01*
X67720Y-40573D01*
X67693Y-40657D01*
X68000Y-40964D01*
X68306Y-40657D01*
X68279Y-40573D01*
X68097Y-40500D01*
X68099Y-40500D01*
X68282Y-40424D01*
X68423Y-40283D01*
X68499Y-40099D01*
X68500Y-39900D01*
X68424Y-39717D01*
X68283Y-39576D01*
X68099Y-39500D01*
X67900Y-39499D01*
X67717Y-39575D01*
X67576Y-39716D01*
X67517Y-39859D01*
X67488Y-39830D01*
X67414Y-39800D01*
X67414Y-39800D01*
X67488Y-39769D01*
X67544Y-39713D01*
X67574Y-39639D01*
X67575Y-39560D01*
X67575Y-39280D01*
X67575Y-39282D01*
X67716Y-39423D01*
X67900Y-39499D01*
X68099Y-39500D01*
X68282Y-39424D01*
X68423Y-39283D01*
X68499Y-39099D01*
X68500Y-38900D01*
X68424Y-38717D01*
X68283Y-38576D01*
X68099Y-38500D01*
X67900Y-38499D01*
X67717Y-38575D01*
X67650Y-38642D01*
X67650Y-38357D01*
X67716Y-38423D01*
X67900Y-38499D01*
X68099Y-38500D01*
X68282Y-38424D01*
X68423Y-38283D01*
X68499Y-38099D01*
X68500Y-37900D01*
X68424Y-37717D01*
X68283Y-37576D01*
X68099Y-37500D01*
X67900Y-37499D01*
X67717Y-37575D01*
X67650Y-37642D01*
X67650Y-37357D01*
X67716Y-37423D01*
X67900Y-37499D01*
X68099Y-37500D01*
X68282Y-37424D01*
X68423Y-37283D01*
X68499Y-37099D01*
X68500Y-36900D01*
X68437Y-36750D01*
X68562Y-36750D01*
X68500Y-36900D01*
X68499Y-37099D01*
X68575Y-37282D01*
X68716Y-37423D01*
X68900Y-37499D01*
X69099Y-37500D01*
X69282Y-37424D01*
X69423Y-37283D01*
X69450Y-37220D01*
X69450Y-37779D01*
X69424Y-37717D01*
X69283Y-37576D01*
X69099Y-37500D01*
X68900Y-37499D01*
X68717Y-37575D01*
X68576Y-37716D01*
X68500Y-37900D01*
X68499Y-38099D01*
X68575Y-38282D01*
X68716Y-38423D01*
X68900Y-38499D01*
X69099Y-38500D01*
X69282Y-38424D01*
X69423Y-38283D01*
X69450Y-38220D01*
X69450Y-38779D01*
X69424Y-38717D01*
X69283Y-38576D01*
X69099Y-38500D01*
X68900Y-38499D01*
X68717Y-38575D01*
X68576Y-38716D01*
X68500Y-38900D01*
X68499Y-39099D01*
X68575Y-39282D01*
X68716Y-39423D01*
X68900Y-39499D01*
X69099Y-39500D01*
X69282Y-39424D01*
X69423Y-39283D01*
X69450Y-39220D01*
X69450Y-39779D01*
G54D10*
G36*
X71260Y-44260D02*
X70050Y-44260D01*
X70050Y-31500D01*
X70049Y-31500D01*
X70050Y-31500D01*
X70050Y-29600D01*
X70030Y-29504D01*
X70030Y-29504D01*
X70009Y-29471D01*
X69976Y-29423D01*
X69976Y-29423D01*
X69500Y-28946D01*
X69500Y-28900D01*
X69424Y-28717D01*
X69283Y-28576D01*
X69099Y-28500D01*
X68900Y-28499D01*
X68867Y-28513D01*
X68820Y-28466D01*
X68900Y-28499D01*
X69099Y-28500D01*
X69282Y-28424D01*
X69423Y-28283D01*
X69499Y-28099D01*
X69500Y-27900D01*
X69500Y-26900D01*
X69500Y-25900D01*
X69500Y-24900D01*
X69500Y-23900D01*
X69424Y-23717D01*
X69283Y-23576D01*
X69099Y-23500D01*
X68900Y-23499D01*
X68717Y-23575D01*
X68576Y-23716D01*
X68500Y-23900D01*
X68500Y-23901D01*
X68500Y-23900D01*
X68424Y-23717D01*
X68283Y-23576D01*
X68099Y-23500D01*
X67900Y-23499D01*
X67717Y-23575D01*
X67576Y-23716D01*
X67500Y-23900D01*
X67499Y-24099D01*
X67575Y-24282D01*
X67716Y-24423D01*
X67900Y-24499D01*
X68099Y-24500D01*
X68282Y-24424D01*
X68423Y-24283D01*
X68499Y-24099D01*
X68500Y-23900D01*
X68500Y-23901D01*
X68499Y-24099D01*
X68575Y-24282D01*
X68716Y-24423D01*
X68900Y-24499D01*
X69099Y-24500D01*
X69282Y-24424D01*
X69423Y-24283D01*
X69499Y-24099D01*
X69500Y-23900D01*
X69500Y-24900D01*
X69424Y-24717D01*
X69283Y-24576D01*
X69099Y-24500D01*
X68900Y-24499D01*
X68717Y-24575D01*
X68576Y-24716D01*
X68500Y-24900D01*
X68500Y-24901D01*
X68500Y-24900D01*
X68424Y-24717D01*
X68283Y-24576D01*
X68099Y-24500D01*
X67900Y-24499D01*
X67717Y-24575D01*
X67576Y-24716D01*
X67500Y-24900D01*
X67499Y-25099D01*
X67575Y-25282D01*
X67716Y-25423D01*
X67900Y-25499D01*
X68099Y-25500D01*
X68282Y-25424D01*
X68423Y-25283D01*
X68499Y-25099D01*
X68500Y-24900D01*
X68500Y-24901D01*
X68499Y-25099D01*
X68575Y-25282D01*
X68716Y-25423D01*
X68900Y-25499D01*
X69099Y-25500D01*
X69282Y-25424D01*
X69423Y-25283D01*
X69499Y-25099D01*
X69500Y-24900D01*
X69500Y-25900D01*
X69424Y-25717D01*
X69283Y-25576D01*
X69099Y-25500D01*
X68900Y-25499D01*
X68717Y-25575D01*
X68576Y-25716D01*
X68500Y-25900D01*
X68500Y-25901D01*
X68500Y-25900D01*
X68424Y-25717D01*
X68283Y-25576D01*
X68099Y-25500D01*
X67900Y-25499D01*
X67717Y-25575D01*
X67576Y-25716D01*
X67500Y-25900D01*
X67499Y-26099D01*
X67575Y-26282D01*
X67716Y-26423D01*
X67900Y-26499D01*
X68099Y-26500D01*
X68282Y-26424D01*
X68423Y-26283D01*
X68499Y-26099D01*
X68500Y-25900D01*
X68500Y-25901D01*
X68499Y-26099D01*
X68575Y-26282D01*
X68716Y-26423D01*
X68900Y-26499D01*
X69099Y-26500D01*
X69282Y-26424D01*
X69423Y-26283D01*
X69499Y-26099D01*
X69500Y-25900D01*
X69500Y-26900D01*
X69424Y-26717D01*
X69283Y-26576D01*
X69099Y-26500D01*
X68900Y-26499D01*
X68717Y-26575D01*
X68576Y-26716D01*
X68500Y-26900D01*
X68500Y-26901D01*
X68500Y-26900D01*
X68424Y-26717D01*
X68283Y-26576D01*
X68099Y-26500D01*
X67900Y-26499D01*
X67717Y-26575D01*
X67576Y-26716D01*
X67500Y-26900D01*
X67499Y-27099D01*
X67575Y-27282D01*
X67716Y-27423D01*
X67900Y-27499D01*
X68099Y-27500D01*
X68282Y-27424D01*
X68423Y-27283D01*
X68499Y-27099D01*
X68500Y-26900D01*
X68500Y-26901D01*
X68499Y-27099D01*
X68575Y-27282D01*
X68716Y-27423D01*
X68900Y-27499D01*
X69099Y-27500D01*
X69282Y-27424D01*
X69423Y-27283D01*
X69499Y-27099D01*
X69500Y-26900D01*
X69500Y-27900D01*
X69424Y-27717D01*
X69283Y-27576D01*
X69099Y-27500D01*
X68900Y-27499D01*
X68717Y-27575D01*
X68576Y-27716D01*
X68500Y-27900D01*
X68499Y-28099D01*
X68567Y-28263D01*
X68500Y-28250D01*
X68437Y-28250D01*
X68499Y-28099D01*
X68500Y-27900D01*
X68424Y-27717D01*
X68283Y-27576D01*
X68099Y-27500D01*
X67900Y-27499D01*
X67717Y-27575D01*
X67576Y-27716D01*
X67500Y-27900D01*
X67499Y-28099D01*
X67562Y-28250D01*
X67477Y-28250D01*
X67477Y-23819D01*
X67334Y-23459D01*
X67318Y-23436D01*
X67185Y-23350D01*
X67149Y-23385D01*
X67149Y-23314D01*
X67063Y-23181D01*
X66707Y-23027D01*
X66319Y-23022D01*
X65959Y-23165D01*
X65936Y-23181D01*
X65850Y-23314D01*
X66500Y-23964D01*
X67149Y-23314D01*
X67149Y-23385D01*
X66535Y-24000D01*
X67185Y-24649D01*
X67318Y-24563D01*
X67472Y-24207D01*
X67477Y-23819D01*
X67477Y-28250D01*
X67150Y-28250D01*
X67149Y-28250D01*
X67149Y-24685D01*
X66500Y-24035D01*
X66464Y-24070D01*
X66464Y-24000D01*
X65814Y-23350D01*
X65681Y-23436D01*
X65527Y-23792D01*
X65522Y-24180D01*
X65665Y-24540D01*
X65681Y-24563D01*
X65814Y-24649D01*
X66464Y-24000D01*
X66464Y-24070D01*
X65850Y-24685D01*
X65936Y-24818D01*
X66292Y-24972D01*
X66680Y-24977D01*
X67040Y-24834D01*
X67063Y-24818D01*
X67149Y-24685D01*
X67149Y-28250D01*
X67054Y-28269D01*
X66973Y-28323D01*
X66763Y-28532D01*
X66744Y-28525D01*
X66625Y-28524D01*
X66625Y-27185D01*
X66625Y-26714D01*
X66624Y-26635D01*
X66594Y-26561D01*
X66538Y-26505D01*
X66464Y-26474D01*
X66225Y-26475D01*
X66175Y-26525D01*
X66175Y-26925D01*
X66575Y-26925D01*
X66625Y-26875D01*
X66625Y-26714D01*
X66625Y-27185D01*
X66625Y-27025D01*
X66575Y-26975D01*
X66175Y-26975D01*
X66175Y-27375D01*
X66225Y-27425D01*
X66464Y-27425D01*
X66538Y-27394D01*
X66594Y-27338D01*
X66624Y-27264D01*
X66625Y-27185D01*
X66625Y-28524D01*
X66555Y-28524D01*
X66381Y-28597D01*
X66247Y-28730D01*
X66175Y-28905D01*
X66174Y-29094D01*
X66247Y-29268D01*
X66281Y-29303D01*
X66204Y-29319D01*
X66123Y-29373D01*
X65973Y-29523D01*
X65921Y-29600D01*
X65919Y-29597D01*
X65744Y-29525D01*
X65555Y-29524D01*
X65381Y-29597D01*
X65247Y-29730D01*
X65175Y-29905D01*
X65174Y-30015D01*
X63950Y-31240D01*
X63950Y-29425D01*
X63989Y-29425D01*
X64339Y-29425D01*
X64413Y-29394D01*
X64469Y-29338D01*
X64499Y-29264D01*
X64499Y-29264D01*
X64530Y-29338D01*
X64586Y-29394D01*
X64660Y-29424D01*
X64739Y-29425D01*
X65089Y-29425D01*
X65163Y-29394D01*
X65219Y-29338D01*
X65248Y-29269D01*
X65380Y-29402D01*
X65555Y-29474D01*
X65744Y-29475D01*
X65918Y-29402D01*
X66052Y-29269D01*
X66124Y-29094D01*
X66125Y-28905D01*
X66125Y-28905D01*
X66125Y-27375D01*
X66125Y-26975D01*
X66125Y-26925D01*
X66125Y-26525D01*
X66075Y-26475D01*
X65835Y-26474D01*
X65761Y-26505D01*
X65705Y-26561D01*
X65675Y-26635D01*
X65674Y-26714D01*
X65675Y-26875D01*
X65725Y-26925D01*
X66125Y-26925D01*
X66125Y-26975D01*
X65725Y-26975D01*
X65675Y-27025D01*
X65674Y-27185D01*
X65675Y-27264D01*
X65705Y-27338D01*
X65761Y-27394D01*
X65835Y-27425D01*
X66075Y-27425D01*
X66125Y-27375D01*
X66125Y-28905D01*
X66052Y-28731D01*
X65919Y-28597D01*
X65744Y-28525D01*
X65626Y-28524D01*
X65626Y-27038D01*
X65623Y-26849D01*
X65555Y-26685D01*
X65500Y-26668D01*
X65500Y-24213D01*
X65500Y-23786D01*
X65461Y-23594D01*
X65353Y-23432D01*
X65191Y-23324D01*
X65000Y-23286D01*
X64808Y-23324D01*
X64646Y-23432D01*
X64538Y-23594D01*
X64500Y-23786D01*
X64461Y-23594D01*
X64353Y-23432D01*
X64191Y-23324D01*
X64000Y-23286D01*
X63808Y-23324D01*
X63646Y-23432D01*
X63538Y-23594D01*
X63500Y-23786D01*
X63461Y-23594D01*
X63353Y-23432D01*
X63191Y-23324D01*
X63000Y-23286D01*
X62808Y-23324D01*
X62646Y-23432D01*
X62538Y-23594D01*
X62500Y-23786D01*
X62461Y-23594D01*
X62353Y-23432D01*
X62191Y-23324D01*
X62000Y-23286D01*
X61808Y-23324D01*
X61646Y-23432D01*
X61538Y-23594D01*
X61500Y-23786D01*
X61461Y-23594D01*
X61353Y-23432D01*
X61191Y-23324D01*
X61000Y-23286D01*
X60808Y-23324D01*
X60646Y-23432D01*
X60538Y-23594D01*
X60500Y-23786D01*
X60461Y-23594D01*
X60353Y-23432D01*
X60191Y-23324D01*
X60000Y-23286D01*
X59808Y-23324D01*
X59646Y-23432D01*
X59538Y-23594D01*
X59500Y-23786D01*
X59461Y-23594D01*
X59353Y-23432D01*
X59191Y-23324D01*
X59000Y-23286D01*
X58808Y-23324D01*
X58646Y-23432D01*
X58538Y-23594D01*
X58500Y-23786D01*
X58461Y-23594D01*
X58353Y-23432D01*
X58191Y-23324D01*
X58000Y-23286D01*
X57808Y-23324D01*
X57646Y-23432D01*
X57538Y-23594D01*
X57500Y-23786D01*
X57500Y-24213D01*
X57538Y-24405D01*
X57646Y-24567D01*
X57808Y-24675D01*
X58000Y-24713D01*
X58191Y-24675D01*
X58353Y-24567D01*
X58461Y-24405D01*
X58500Y-24213D01*
X58538Y-24405D01*
X58646Y-24567D01*
X58808Y-24675D01*
X59000Y-24713D01*
X59191Y-24675D01*
X59353Y-24567D01*
X59461Y-24405D01*
X59500Y-24213D01*
X59538Y-24405D01*
X59646Y-24567D01*
X59808Y-24675D01*
X60000Y-24713D01*
X60191Y-24675D01*
X60353Y-24567D01*
X60461Y-24405D01*
X60500Y-24213D01*
X60538Y-24405D01*
X60646Y-24567D01*
X60808Y-24675D01*
X61000Y-24713D01*
X61191Y-24675D01*
X61353Y-24567D01*
X61461Y-24405D01*
X61500Y-24213D01*
X61538Y-24405D01*
X61646Y-24567D01*
X61808Y-24675D01*
X62000Y-24713D01*
X62191Y-24675D01*
X62353Y-24567D01*
X62461Y-24405D01*
X62500Y-24213D01*
X62538Y-24405D01*
X62646Y-24567D01*
X62808Y-24675D01*
X63000Y-24713D01*
X63191Y-24675D01*
X63353Y-24567D01*
X63461Y-24405D01*
X63500Y-24213D01*
X63538Y-24405D01*
X63646Y-24567D01*
X63808Y-24675D01*
X64000Y-24713D01*
X64191Y-24675D01*
X64353Y-24567D01*
X64461Y-24405D01*
X64500Y-24213D01*
X64538Y-24405D01*
X64646Y-24567D01*
X64808Y-24675D01*
X65000Y-24713D01*
X65191Y-24675D01*
X65353Y-24567D01*
X65461Y-24405D01*
X65500Y-24213D01*
X65500Y-26668D01*
X65474Y-26661D01*
X65438Y-26696D01*
X65438Y-26625D01*
X65414Y-26544D01*
X65238Y-26473D01*
X65049Y-26476D01*
X64885Y-26544D01*
X64861Y-26625D01*
X65150Y-26914D01*
X65438Y-26625D01*
X65438Y-26696D01*
X65185Y-26950D01*
X65474Y-27238D01*
X65555Y-27214D01*
X65626Y-27038D01*
X65626Y-28524D01*
X65555Y-28524D01*
X65438Y-28573D01*
X65438Y-27274D01*
X65150Y-26985D01*
X65114Y-27020D01*
X65114Y-26950D01*
X64825Y-26661D01*
X64744Y-26685D01*
X64673Y-26861D01*
X64676Y-27050D01*
X64744Y-27214D01*
X64825Y-27238D01*
X65114Y-26950D01*
X65114Y-27020D01*
X64861Y-27274D01*
X64885Y-27355D01*
X65061Y-27426D01*
X65250Y-27423D01*
X65414Y-27355D01*
X65438Y-27274D01*
X65438Y-28573D01*
X65381Y-28597D01*
X65278Y-28700D01*
X65250Y-28700D01*
X65250Y-28635D01*
X65219Y-28561D01*
X65163Y-28505D01*
X65089Y-28475D01*
X65010Y-28474D01*
X64660Y-28474D01*
X64625Y-28489D01*
X64625Y-26855D01*
X64600Y-26795D01*
X64600Y-26550D01*
X64565Y-26377D01*
X64468Y-26231D01*
X63868Y-25631D01*
X63722Y-25534D01*
X63550Y-25500D01*
X60600Y-25500D01*
X60427Y-25534D01*
X60379Y-25566D01*
X60281Y-25631D01*
X60116Y-25796D01*
X60064Y-25775D01*
X59985Y-25774D01*
X59435Y-25774D01*
X59361Y-25805D01*
X59359Y-25808D01*
X59227Y-25834D01*
X59081Y-25931D01*
X58631Y-26381D01*
X58534Y-26527D01*
X58500Y-26700D01*
X58500Y-28301D01*
X58348Y-27934D01*
X58067Y-27652D01*
X57950Y-27604D01*
X57950Y-27396D01*
X58065Y-27348D01*
X58347Y-27067D01*
X58499Y-26699D01*
X58500Y-26301D01*
X58348Y-25934D01*
X58067Y-25652D01*
X57699Y-25500D01*
X57301Y-25499D01*
X56934Y-25651D01*
X56652Y-25932D01*
X56604Y-26050D01*
X56500Y-26050D01*
X56500Y-24213D01*
X56500Y-23786D01*
X56461Y-23594D01*
X56353Y-23432D01*
X56191Y-23324D01*
X56000Y-23286D01*
X55808Y-23324D01*
X55646Y-23432D01*
X55538Y-23594D01*
X55500Y-23786D01*
X55461Y-23594D01*
X55353Y-23432D01*
X55191Y-23324D01*
X55000Y-23286D01*
X54808Y-23324D01*
X54646Y-23432D01*
X54538Y-23594D01*
X54500Y-23786D01*
X54461Y-23594D01*
X54353Y-23432D01*
X54191Y-23324D01*
X54000Y-23286D01*
X53808Y-23324D01*
X53646Y-23432D01*
X53538Y-23594D01*
X53500Y-23786D01*
X53461Y-23594D01*
X53353Y-23432D01*
X53191Y-23324D01*
X53000Y-23286D01*
X52808Y-23324D01*
X52646Y-23432D01*
X52538Y-23594D01*
X52500Y-23786D01*
X52461Y-23594D01*
X52353Y-23432D01*
X52191Y-23324D01*
X52000Y-23286D01*
X51808Y-23324D01*
X51646Y-23432D01*
X51538Y-23594D01*
X51500Y-23786D01*
X51461Y-23594D01*
X51353Y-23432D01*
X51191Y-23324D01*
X51000Y-23286D01*
X50808Y-23324D01*
X50646Y-23432D01*
X50538Y-23594D01*
X50500Y-23786D01*
X50461Y-23594D01*
X50353Y-23432D01*
X50191Y-23324D01*
X50000Y-23286D01*
X49808Y-23324D01*
X49646Y-23432D01*
X49538Y-23594D01*
X49500Y-23786D01*
X49461Y-23594D01*
X49353Y-23432D01*
X49191Y-23324D01*
X49000Y-23286D01*
X48808Y-23324D01*
X48646Y-23432D01*
X48538Y-23594D01*
X48500Y-23786D01*
X48500Y-24213D01*
X48538Y-24405D01*
X48646Y-24567D01*
X48808Y-24675D01*
X49000Y-24713D01*
X49191Y-24675D01*
X49353Y-24567D01*
X49461Y-24405D01*
X49500Y-24213D01*
X49538Y-24405D01*
X49646Y-24567D01*
X49808Y-24675D01*
X50000Y-24713D01*
X50191Y-24675D01*
X50353Y-24567D01*
X50461Y-24405D01*
X50500Y-24213D01*
X50538Y-24405D01*
X50646Y-24567D01*
X50808Y-24675D01*
X51000Y-24713D01*
X51191Y-24675D01*
X51353Y-24567D01*
X51461Y-24405D01*
X51500Y-24213D01*
X51538Y-24405D01*
X51646Y-24567D01*
X51808Y-24675D01*
X52000Y-24713D01*
X52191Y-24675D01*
X52353Y-24567D01*
X52461Y-24405D01*
X52500Y-24213D01*
X52538Y-24405D01*
X52646Y-24567D01*
X52808Y-24675D01*
X53000Y-24713D01*
X53191Y-24675D01*
X53353Y-24567D01*
X53461Y-24405D01*
X53500Y-24213D01*
X53538Y-24405D01*
X53646Y-24567D01*
X53808Y-24675D01*
X54000Y-24713D01*
X54191Y-24675D01*
X54353Y-24567D01*
X54461Y-24405D01*
X54500Y-24213D01*
X54538Y-24405D01*
X54646Y-24567D01*
X54808Y-24675D01*
X55000Y-24713D01*
X55191Y-24675D01*
X55353Y-24567D01*
X55461Y-24405D01*
X55500Y-24213D01*
X55538Y-24405D01*
X55646Y-24567D01*
X55808Y-24675D01*
X56000Y-24713D01*
X56191Y-24675D01*
X56353Y-24567D01*
X56461Y-24405D01*
X56500Y-24213D01*
X56500Y-26050D01*
X55679Y-26050D01*
X55678Y-26047D01*
X55453Y-25822D01*
X55159Y-25700D01*
X54841Y-25699D01*
X54547Y-25821D01*
X54322Y-26046D01*
X54200Y-26340D01*
X54199Y-26658D01*
X54321Y-26952D01*
X54546Y-27177D01*
X54840Y-27299D01*
X55158Y-27300D01*
X55452Y-27178D01*
X55677Y-26953D01*
X55679Y-26950D01*
X56603Y-26950D01*
X56651Y-27065D01*
X56932Y-27347D01*
X57050Y-27395D01*
X57050Y-27603D01*
X56934Y-27651D01*
X56652Y-27932D01*
X56500Y-28300D01*
X56499Y-28698D01*
X56651Y-29065D01*
X56932Y-29347D01*
X57300Y-29499D01*
X57698Y-29500D01*
X58065Y-29348D01*
X58347Y-29067D01*
X58499Y-28699D01*
X58500Y-28500D01*
X58500Y-31963D01*
X58413Y-32050D01*
X58396Y-32050D01*
X58348Y-31934D01*
X58067Y-31652D01*
X57699Y-31500D01*
X57301Y-31499D01*
X56934Y-31651D01*
X56652Y-31932D01*
X56500Y-32300D01*
X56499Y-32698D01*
X56651Y-33065D01*
X56932Y-33347D01*
X57050Y-33395D01*
X57050Y-33603D01*
X56934Y-33651D01*
X56652Y-33932D01*
X56500Y-34300D01*
X56499Y-34698D01*
X56651Y-35065D01*
X56932Y-35347D01*
X57300Y-35499D01*
X57698Y-35500D01*
X58065Y-35348D01*
X58347Y-35067D01*
X58499Y-34699D01*
X58500Y-34301D01*
X58348Y-33934D01*
X58067Y-33652D01*
X57950Y-33604D01*
X57950Y-33396D01*
X58065Y-33348D01*
X58347Y-33067D01*
X58395Y-32950D01*
X58600Y-32950D01*
X59258Y-32950D01*
X59230Y-32977D01*
X59200Y-33051D01*
X59199Y-33130D01*
X59200Y-33366D01*
X59250Y-33416D01*
X59675Y-33416D01*
X59725Y-33416D01*
X59775Y-33416D01*
X59825Y-33416D01*
X60250Y-33416D01*
X60300Y-33366D01*
X60300Y-33130D01*
X60299Y-33051D01*
X60269Y-32977D01*
X60213Y-32921D01*
X60139Y-32890D01*
X60136Y-32890D01*
X60202Y-32825D01*
X60300Y-32825D01*
X60424Y-32800D01*
X60424Y-32800D01*
X60529Y-32729D01*
X61009Y-32250D01*
X61121Y-32250D01*
X61183Y-32311D01*
X61219Y-32327D01*
X61211Y-32330D01*
X61155Y-32386D01*
X61124Y-32460D01*
X61125Y-32600D01*
X61175Y-32650D01*
X61525Y-32650D01*
X61575Y-32650D01*
X61625Y-32650D01*
X61675Y-32650D01*
X62025Y-32650D01*
X62075Y-32600D01*
X62075Y-32460D01*
X62044Y-32386D01*
X61988Y-32330D01*
X61980Y-32327D01*
X62016Y-32312D01*
X62086Y-32241D01*
X62124Y-32149D01*
X62125Y-32050D01*
X62125Y-31700D01*
X62087Y-31608D01*
X62016Y-31538D01*
X61980Y-31522D01*
X61988Y-31519D01*
X62044Y-31463D01*
X62075Y-31389D01*
X62075Y-31250D01*
X62025Y-31200D01*
X61675Y-31200D01*
X61625Y-31200D01*
X61575Y-31200D01*
X61525Y-31200D01*
X61175Y-31200D01*
X61125Y-31250D01*
X61124Y-31389D01*
X61155Y-31463D01*
X61211Y-31519D01*
X61219Y-31522D01*
X61183Y-31537D01*
X61121Y-31600D01*
X60875Y-31600D01*
X60874Y-31600D01*
X60850Y-31604D01*
X60750Y-31624D01*
X60645Y-31695D01*
X60645Y-31695D01*
X60184Y-32156D01*
X60061Y-32034D01*
X60051Y-32029D01*
X60061Y-32025D01*
X60215Y-31870D01*
X60299Y-31668D01*
X60300Y-31450D01*
X60216Y-31247D01*
X60200Y-31231D01*
X60200Y-30750D01*
X61121Y-30750D01*
X61183Y-30811D01*
X61219Y-30827D01*
X61211Y-30830D01*
X61155Y-30886D01*
X61124Y-30960D01*
X61125Y-31100D01*
X61175Y-31150D01*
X61525Y-31150D01*
X61575Y-31150D01*
X61625Y-31150D01*
X61675Y-31150D01*
X62025Y-31150D01*
X62075Y-31100D01*
X62075Y-30960D01*
X62044Y-30886D01*
X61988Y-30830D01*
X61980Y-30827D01*
X62016Y-30812D01*
X62086Y-30741D01*
X62124Y-30649D01*
X62125Y-30550D01*
X62125Y-30200D01*
X62087Y-30108D01*
X62016Y-30038D01*
X61924Y-30000D01*
X61825Y-29999D01*
X61314Y-29999D01*
X61388Y-29969D01*
X61444Y-29913D01*
X61475Y-29839D01*
X61475Y-29700D01*
X61425Y-29650D01*
X61025Y-29650D01*
X61025Y-29950D01*
X61075Y-30000D01*
X61235Y-30000D01*
X61275Y-29999D01*
X61183Y-30037D01*
X61121Y-30100D01*
X60975Y-30100D01*
X60975Y-29950D01*
X60975Y-29650D01*
X60575Y-29650D01*
X60525Y-29700D01*
X60524Y-29839D01*
X60555Y-29913D01*
X60611Y-29969D01*
X60685Y-29999D01*
X60764Y-30000D01*
X60925Y-30000D01*
X60975Y-29950D01*
X60975Y-30100D01*
X60200Y-30100D01*
X60200Y-29404D01*
X60224Y-29344D01*
X60225Y-29234D01*
X60384Y-29075D01*
X60474Y-29075D01*
X60474Y-29099D01*
X60512Y-29191D01*
X60583Y-29261D01*
X60619Y-29277D01*
X60611Y-29280D01*
X60555Y-29336D01*
X60524Y-29410D01*
X60525Y-29550D01*
X60575Y-29600D01*
X60925Y-29600D01*
X60975Y-29600D01*
X61025Y-29600D01*
X61075Y-29600D01*
X61425Y-29600D01*
X61475Y-29550D01*
X61475Y-29410D01*
X61444Y-29336D01*
X61388Y-29280D01*
X61380Y-29277D01*
X61416Y-29262D01*
X61486Y-29191D01*
X61524Y-29099D01*
X61525Y-29000D01*
X61525Y-28650D01*
X61487Y-28558D01*
X61416Y-28488D01*
X61324Y-28450D01*
X61225Y-28449D01*
X60999Y-28449D01*
X60999Y-28449D01*
X60875Y-28425D01*
X60250Y-28425D01*
X60125Y-28449D01*
X60083Y-28477D01*
X60020Y-28520D01*
X60020Y-28520D01*
X59765Y-28775D01*
X59655Y-28774D01*
X59481Y-28847D01*
X59400Y-28928D01*
X59400Y-26886D01*
X59561Y-26725D01*
X60064Y-26725D01*
X60125Y-26700D01*
X60300Y-26700D01*
X60472Y-26665D01*
X60618Y-26568D01*
X60786Y-26400D01*
X63363Y-26400D01*
X63700Y-26736D01*
X63700Y-26795D01*
X63675Y-26855D01*
X63674Y-27044D01*
X63747Y-27218D01*
X63880Y-27352D01*
X64055Y-27424D01*
X64244Y-27425D01*
X64418Y-27352D01*
X64552Y-27219D01*
X64624Y-27044D01*
X64625Y-26855D01*
X64625Y-28489D01*
X64586Y-28505D01*
X64530Y-28561D01*
X64500Y-28635D01*
X64500Y-28635D01*
X64469Y-28561D01*
X64413Y-28505D01*
X64356Y-28481D01*
X64355Y-28479D01*
X64355Y-28479D01*
X64301Y-28398D01*
X64301Y-28398D01*
X64024Y-28121D01*
X64025Y-28025D01*
X63968Y-27887D01*
X63862Y-27782D01*
X63724Y-27725D01*
X63575Y-27724D01*
X63437Y-27781D01*
X63400Y-27819D01*
X63400Y-27360D01*
X63418Y-27352D01*
X63552Y-27219D01*
X63624Y-27044D01*
X63625Y-26855D01*
X63552Y-26681D01*
X63419Y-26547D01*
X63244Y-26475D01*
X63055Y-26474D01*
X62881Y-26547D01*
X62747Y-26680D01*
X62675Y-26855D01*
X62674Y-27044D01*
X62747Y-27218D01*
X62880Y-27352D01*
X62900Y-27360D01*
X62900Y-27446D01*
X62587Y-27134D01*
X62624Y-27044D01*
X62625Y-26855D01*
X62552Y-26681D01*
X62419Y-26547D01*
X62244Y-26475D01*
X62055Y-26474D01*
X61881Y-26547D01*
X61747Y-26680D01*
X61675Y-26855D01*
X61674Y-27044D01*
X61747Y-27218D01*
X61880Y-27352D01*
X62055Y-27424D01*
X62171Y-27425D01*
X62650Y-27903D01*
X62650Y-28400D01*
X62669Y-28495D01*
X62723Y-28576D01*
X63250Y-29103D01*
X63250Y-31296D01*
X63223Y-31323D01*
X63169Y-31404D01*
X63150Y-31500D01*
X63150Y-31996D01*
X62623Y-32523D01*
X62569Y-32604D01*
X62550Y-32700D01*
X62550Y-33300D01*
X62550Y-33896D01*
X62423Y-34023D01*
X62369Y-34104D01*
X62350Y-34200D01*
X62350Y-36500D01*
X62350Y-38596D01*
X62075Y-38871D01*
X62075Y-32889D01*
X62075Y-32750D01*
X62025Y-32700D01*
X61625Y-32700D01*
X61625Y-33000D01*
X61675Y-33050D01*
X61835Y-33050D01*
X61914Y-33049D01*
X61988Y-33019D01*
X62044Y-32963D01*
X62075Y-32889D01*
X62075Y-38871D01*
X62023Y-38923D01*
X61969Y-39004D01*
X61950Y-39100D01*
X61950Y-41041D01*
X61841Y-41150D01*
X61575Y-41150D01*
X61575Y-33000D01*
X61575Y-32700D01*
X61175Y-32700D01*
X61125Y-32750D01*
X61124Y-32889D01*
X61155Y-32963D01*
X61211Y-33019D01*
X61285Y-33049D01*
X61364Y-33050D01*
X61525Y-33050D01*
X61575Y-33000D01*
X61575Y-41150D01*
X61500Y-41150D01*
X54283Y-41150D01*
X52850Y-39716D01*
X52850Y-38300D01*
X52849Y-38299D01*
X52850Y-38299D01*
X52846Y-38280D01*
X52830Y-38204D01*
X52830Y-38204D01*
X52776Y-38123D01*
X52776Y-38123D01*
X51976Y-37323D01*
X51895Y-37269D01*
X51800Y-37250D01*
X51525Y-37250D01*
X51525Y-36939D01*
X51525Y-36800D01*
X51475Y-36750D01*
X51075Y-36750D01*
X51075Y-37050D01*
X51125Y-37100D01*
X51285Y-37100D01*
X51364Y-37099D01*
X51438Y-37069D01*
X51494Y-37013D01*
X51525Y-36939D01*
X51525Y-37250D01*
X50803Y-37250D01*
X50576Y-37023D01*
X50553Y-37007D01*
X50544Y-36986D01*
X50507Y-36950D01*
X50544Y-36913D01*
X50574Y-36839D01*
X50574Y-36939D01*
X50605Y-37013D01*
X50661Y-37069D01*
X50735Y-37099D01*
X50814Y-37100D01*
X50975Y-37100D01*
X51025Y-37050D01*
X51025Y-36750D01*
X50625Y-36750D01*
X50575Y-36799D01*
X50575Y-36775D01*
X50525Y-36725D01*
X50225Y-36725D01*
X50175Y-36725D01*
X50125Y-36725D01*
X50075Y-36725D01*
X49775Y-36725D01*
X49725Y-36775D01*
X49724Y-36839D01*
X49755Y-36913D01*
X49792Y-36950D01*
X49755Y-36986D01*
X49725Y-37060D01*
X49724Y-37139D01*
X49724Y-37339D01*
X49755Y-37413D01*
X49792Y-37450D01*
X49755Y-37486D01*
X49725Y-37560D01*
X49724Y-37639D01*
X49724Y-37839D01*
X49755Y-37913D01*
X49792Y-37950D01*
X49755Y-37986D01*
X49725Y-38060D01*
X49724Y-38139D01*
X49724Y-38339D01*
X49755Y-38413D01*
X49792Y-38450D01*
X49755Y-38486D01*
X49725Y-38560D01*
X49724Y-38639D01*
X49724Y-38839D01*
X49755Y-38913D01*
X49792Y-38950D01*
X49755Y-38986D01*
X49725Y-39060D01*
X49724Y-39139D01*
X49724Y-39339D01*
X49755Y-39413D01*
X49792Y-39450D01*
X49755Y-39486D01*
X49725Y-39560D01*
X49724Y-39639D01*
X49724Y-39839D01*
X49755Y-39913D01*
X49811Y-39969D01*
X49885Y-39999D01*
X49964Y-40000D01*
X50414Y-40000D01*
X50488Y-39969D01*
X50544Y-39913D01*
X50574Y-39839D01*
X50575Y-39760D01*
X50575Y-39660D01*
X50610Y-39674D01*
X50689Y-39675D01*
X51039Y-39675D01*
X51113Y-39644D01*
X51169Y-39588D01*
X51199Y-39514D01*
X51200Y-39475D01*
X51200Y-39514D01*
X51230Y-39588D01*
X51286Y-39644D01*
X51360Y-39675D01*
X51500Y-39675D01*
X51550Y-39625D01*
X51550Y-39275D01*
X51550Y-39225D01*
X51550Y-39175D01*
X51600Y-39175D01*
X51600Y-39225D01*
X51600Y-39275D01*
X51600Y-39625D01*
X51650Y-39675D01*
X51789Y-39675D01*
X51863Y-39644D01*
X51919Y-39588D01*
X51949Y-39514D01*
X51950Y-39475D01*
X51950Y-40000D01*
X51969Y-40095D01*
X52023Y-40176D01*
X53596Y-41750D01*
X53280Y-41750D01*
X53212Y-41682D01*
X53074Y-41625D01*
X52925Y-41624D01*
X52787Y-41681D01*
X52682Y-41787D01*
X52625Y-41925D01*
X52624Y-42074D01*
X52681Y-42212D01*
X52787Y-42317D01*
X52806Y-42325D01*
X52646Y-42432D01*
X52538Y-42594D01*
X52500Y-42786D01*
X52461Y-42594D01*
X52353Y-42432D01*
X52250Y-42363D01*
X52250Y-42350D01*
X52314Y-42350D01*
X52388Y-42319D01*
X52444Y-42263D01*
X52474Y-42189D01*
X52475Y-42110D01*
X52475Y-41760D01*
X52444Y-41686D01*
X52388Y-41630D01*
X52314Y-41600D01*
X52275Y-41600D01*
X52314Y-41599D01*
X52388Y-41569D01*
X52444Y-41513D01*
X52475Y-41439D01*
X52475Y-41010D01*
X52444Y-40936D01*
X52388Y-40880D01*
X52314Y-40850D01*
X52235Y-40849D01*
X52075Y-40850D01*
X52025Y-40900D01*
X52025Y-41200D01*
X52425Y-41200D01*
X52475Y-41150D01*
X52475Y-41010D01*
X52475Y-41439D01*
X52475Y-41300D01*
X52425Y-41250D01*
X52075Y-41250D01*
X52025Y-41250D01*
X51975Y-41250D01*
X51975Y-41200D01*
X51975Y-40900D01*
X51925Y-40850D01*
X51764Y-40849D01*
X51685Y-40850D01*
X51611Y-40880D01*
X51555Y-40936D01*
X51524Y-41010D01*
X51525Y-41150D01*
X51575Y-41200D01*
X51975Y-41200D01*
X51975Y-41250D01*
X51925Y-41250D01*
X51575Y-41250D01*
X51525Y-41300D01*
X51524Y-41439D01*
X51555Y-41513D01*
X51611Y-41569D01*
X51685Y-41599D01*
X51685Y-41599D01*
X51611Y-41630D01*
X51555Y-41686D01*
X51548Y-41704D01*
X51495Y-41669D01*
X51400Y-41650D01*
X51250Y-41650D01*
X51250Y-41585D01*
X51219Y-41511D01*
X51163Y-41455D01*
X51089Y-41425D01*
X51010Y-41424D01*
X50660Y-41424D01*
X50586Y-41455D01*
X50530Y-41511D01*
X50500Y-41585D01*
X50500Y-41585D01*
X50469Y-41511D01*
X50413Y-41455D01*
X50339Y-41425D01*
X50260Y-41424D01*
X49910Y-41424D01*
X49836Y-41455D01*
X49780Y-41511D01*
X49750Y-41585D01*
X49749Y-41664D01*
X49749Y-42214D01*
X49780Y-42288D01*
X49836Y-42344D01*
X49875Y-42360D01*
X49875Y-42571D01*
X49696Y-42750D01*
X49492Y-42750D01*
X49461Y-42594D01*
X49450Y-42577D01*
X49450Y-42490D01*
X49415Y-42317D01*
X49318Y-42171D01*
X49041Y-41894D01*
X49134Y-41895D01*
X49272Y-41838D01*
X49377Y-41732D01*
X49434Y-41594D01*
X49435Y-41445D01*
X49385Y-41324D01*
X49385Y-36704D01*
X49564Y-36525D01*
X49739Y-36525D01*
X49724Y-36560D01*
X49725Y-36625D01*
X49775Y-36675D01*
X50075Y-36675D01*
X50125Y-36675D01*
X50175Y-36675D01*
X50225Y-36675D01*
X50525Y-36675D01*
X50574Y-36625D01*
X50575Y-36650D01*
X50625Y-36700D01*
X50975Y-36700D01*
X51025Y-36700D01*
X51075Y-36700D01*
X51125Y-36700D01*
X51475Y-36700D01*
X51525Y-36650D01*
X51525Y-36510D01*
X51494Y-36436D01*
X51438Y-36380D01*
X51364Y-36350D01*
X51364Y-36350D01*
X51438Y-36319D01*
X51494Y-36263D01*
X51510Y-36225D01*
X52721Y-36225D01*
X54133Y-37636D01*
X54214Y-37690D01*
X54310Y-37710D01*
X60769Y-37710D01*
X60837Y-37777D01*
X60975Y-37834D01*
X61124Y-37835D01*
X61262Y-37778D01*
X61367Y-37672D01*
X61424Y-37534D01*
X61425Y-37385D01*
X61368Y-37247D01*
X61262Y-37142D01*
X61124Y-37085D01*
X60975Y-37084D01*
X60837Y-37141D01*
X60769Y-37210D01*
X60300Y-37210D01*
X60300Y-33751D01*
X60300Y-33516D01*
X60250Y-33466D01*
X59775Y-33466D01*
X59775Y-33941D01*
X59825Y-33991D01*
X60139Y-33991D01*
X60213Y-33960D01*
X60269Y-33904D01*
X60299Y-33830D01*
X60300Y-33751D01*
X60300Y-37210D01*
X59725Y-37210D01*
X59725Y-33941D01*
X59725Y-33466D01*
X59250Y-33466D01*
X59200Y-33516D01*
X59199Y-33751D01*
X59200Y-33830D01*
X59230Y-33904D01*
X59286Y-33960D01*
X59360Y-33991D01*
X59675Y-33991D01*
X59725Y-33941D01*
X59725Y-37210D01*
X55700Y-37210D01*
X55700Y-32363D01*
X55595Y-32105D01*
X55591Y-32100D01*
X55486Y-32048D01*
X55451Y-32084D01*
X55451Y-32013D01*
X55399Y-31908D01*
X55142Y-31800D01*
X54863Y-31799D01*
X54605Y-31904D01*
X54600Y-31908D01*
X54548Y-32013D01*
X55000Y-32464D01*
X55451Y-32013D01*
X55451Y-32084D01*
X55035Y-32500D01*
X55486Y-32951D01*
X55591Y-32899D01*
X55699Y-32642D01*
X55700Y-32363D01*
X55700Y-37210D01*
X55451Y-37210D01*
X55451Y-32986D01*
X55000Y-32535D01*
X54964Y-32570D01*
X54964Y-32500D01*
X54513Y-32048D01*
X54408Y-32100D01*
X54300Y-32357D01*
X54299Y-32636D01*
X54404Y-32894D01*
X54408Y-32899D01*
X54513Y-32951D01*
X54964Y-32500D01*
X54964Y-32570D01*
X54548Y-32986D01*
X54600Y-33091D01*
X54857Y-33199D01*
X55136Y-33200D01*
X55394Y-33095D01*
X55399Y-33091D01*
X55451Y-32986D01*
X55451Y-37210D01*
X54413Y-37210D01*
X53001Y-35798D01*
X52920Y-35744D01*
X52825Y-35725D01*
X51510Y-35725D01*
X51494Y-35686D01*
X51438Y-35630D01*
X51364Y-35600D01*
X51285Y-35599D01*
X50735Y-35599D01*
X50661Y-35630D01*
X50605Y-35686D01*
X50586Y-35732D01*
X50529Y-35744D01*
X50448Y-35798D01*
X50400Y-35846D01*
X50400Y-35599D01*
X50485Y-35634D01*
X50634Y-35635D01*
X50772Y-35578D01*
X50877Y-35472D01*
X50934Y-35334D01*
X50935Y-35185D01*
X50878Y-35047D01*
X50780Y-34949D01*
X50780Y-31050D01*
X50760Y-30954D01*
X50706Y-30873D01*
X46650Y-26816D01*
X46650Y-24636D01*
X46753Y-24567D01*
X46861Y-24405D01*
X46900Y-24213D01*
X46938Y-24405D01*
X47046Y-24567D01*
X47208Y-24675D01*
X47400Y-24713D01*
X47591Y-24675D01*
X47753Y-24567D01*
X47861Y-24405D01*
X47900Y-24213D01*
X47900Y-23786D01*
X47861Y-23594D01*
X47753Y-23432D01*
X47591Y-23324D01*
X47400Y-23286D01*
X47208Y-23324D01*
X47046Y-23432D01*
X46938Y-23594D01*
X46900Y-23786D01*
X46861Y-23594D01*
X46753Y-23432D01*
X46591Y-23324D01*
X46400Y-23286D01*
X46208Y-23324D01*
X46046Y-23432D01*
X45938Y-23594D01*
X45900Y-23786D01*
X45861Y-23594D01*
X45753Y-23432D01*
X45591Y-23324D01*
X45400Y-23286D01*
X45208Y-23324D01*
X45046Y-23432D01*
X44938Y-23594D01*
X44900Y-23786D01*
X44861Y-23594D01*
X44753Y-23432D01*
X44591Y-23324D01*
X44400Y-23286D01*
X44208Y-23324D01*
X44046Y-23432D01*
X43938Y-23594D01*
X43900Y-23786D01*
X43861Y-23594D01*
X43753Y-23432D01*
X43591Y-23324D01*
X43400Y-23286D01*
X43208Y-23324D01*
X43046Y-23432D01*
X42938Y-23594D01*
X42900Y-23786D01*
X42861Y-23594D01*
X42753Y-23432D01*
X42591Y-23324D01*
X42400Y-23286D01*
X42208Y-23324D01*
X42046Y-23432D01*
X41938Y-23594D01*
X41900Y-23786D01*
X41861Y-23594D01*
X41753Y-23432D01*
X41591Y-23324D01*
X41400Y-23286D01*
X41208Y-23324D01*
X41046Y-23432D01*
X40938Y-23594D01*
X40900Y-23786D01*
X40861Y-23594D01*
X40753Y-23432D01*
X40591Y-23324D01*
X40400Y-23286D01*
X40208Y-23324D01*
X40046Y-23432D01*
X39938Y-23594D01*
X39900Y-23786D01*
X39900Y-24213D01*
X39938Y-24405D01*
X40046Y-24567D01*
X40208Y-24675D01*
X40400Y-24713D01*
X40591Y-24675D01*
X40753Y-24567D01*
X40861Y-24405D01*
X40900Y-24213D01*
X40938Y-24405D01*
X41046Y-24567D01*
X41208Y-24675D01*
X41400Y-24713D01*
X41591Y-24675D01*
X41753Y-24567D01*
X41861Y-24405D01*
X41900Y-24213D01*
X41938Y-24405D01*
X42046Y-24567D01*
X42208Y-24675D01*
X42400Y-24713D01*
X42591Y-24675D01*
X42753Y-24567D01*
X42861Y-24405D01*
X42900Y-24213D01*
X42938Y-24405D01*
X43046Y-24567D01*
X43208Y-24675D01*
X43400Y-24713D01*
X43591Y-24675D01*
X43753Y-24567D01*
X43861Y-24405D01*
X43900Y-24213D01*
X43938Y-24405D01*
X44046Y-24567D01*
X44208Y-24675D01*
X44400Y-24713D01*
X44591Y-24675D01*
X44753Y-24567D01*
X44861Y-24405D01*
X44900Y-24213D01*
X44938Y-24405D01*
X45046Y-24567D01*
X45208Y-24675D01*
X45400Y-24713D01*
X45591Y-24675D01*
X45753Y-24567D01*
X45861Y-24405D01*
X45900Y-24213D01*
X45938Y-24405D01*
X46046Y-24567D01*
X46150Y-24636D01*
X46150Y-26920D01*
X46169Y-27015D01*
X46223Y-27096D01*
X50280Y-31153D01*
X50280Y-35009D01*
X50242Y-35047D01*
X50200Y-35147D01*
X50126Y-35073D01*
X50045Y-35019D01*
X50000Y-35009D01*
X50000Y-34935D01*
X49969Y-34861D01*
X49913Y-34805D01*
X49839Y-34775D01*
X49760Y-34774D01*
X49410Y-34774D01*
X49336Y-34805D01*
X49280Y-34861D01*
X49250Y-34935D01*
X49250Y-34935D01*
X49219Y-34861D01*
X49163Y-34805D01*
X49089Y-34775D01*
X49010Y-34774D01*
X48660Y-34774D01*
X48586Y-34805D01*
X48530Y-34861D01*
X48500Y-34935D01*
X48499Y-35014D01*
X48499Y-35564D01*
X48530Y-35638D01*
X48586Y-35694D01*
X48625Y-35710D01*
X48625Y-36121D01*
X48575Y-36171D01*
X48575Y-36060D01*
X48544Y-35986D01*
X48488Y-35930D01*
X48414Y-35900D01*
X48335Y-35899D01*
X47885Y-35899D01*
X47811Y-35930D01*
X47767Y-35975D01*
X47560Y-35975D01*
X47544Y-35936D01*
X47488Y-35880D01*
X47414Y-35850D01*
X47335Y-35849D01*
X46785Y-35849D01*
X46711Y-35880D01*
X46655Y-35936D01*
X46625Y-36010D01*
X46624Y-36089D01*
X46624Y-36439D01*
X46655Y-36513D01*
X46711Y-36569D01*
X46785Y-36599D01*
X46785Y-36599D01*
X46711Y-36630D01*
X46655Y-36686D01*
X46625Y-36760D01*
X46624Y-36839D01*
X46624Y-37189D01*
X46655Y-37263D01*
X46667Y-37274D01*
X46655Y-37286D01*
X46625Y-37360D01*
X46624Y-37439D01*
X46624Y-37789D01*
X46655Y-37863D01*
X46711Y-37919D01*
X46785Y-37949D01*
X46785Y-37949D01*
X46711Y-37980D01*
X46655Y-38036D01*
X46625Y-38110D01*
X46624Y-38189D01*
X46624Y-38539D01*
X46655Y-38613D01*
X46667Y-38624D01*
X46655Y-38636D01*
X46625Y-38710D01*
X46624Y-38789D01*
X46624Y-39139D01*
X46655Y-39213D01*
X46711Y-39269D01*
X46785Y-39299D01*
X46824Y-39300D01*
X46785Y-39300D01*
X46711Y-39330D01*
X46655Y-39386D01*
X46624Y-39460D01*
X46625Y-39600D01*
X46675Y-39650D01*
X47025Y-39650D01*
X47075Y-39650D01*
X47125Y-39650D01*
X47175Y-39650D01*
X47525Y-39650D01*
X47575Y-39600D01*
X47575Y-39460D01*
X47544Y-39386D01*
X47488Y-39330D01*
X47414Y-39300D01*
X47414Y-39300D01*
X47488Y-39269D01*
X47544Y-39213D01*
X47568Y-39156D01*
X47570Y-39155D01*
X47651Y-39101D01*
X47747Y-39006D01*
X47725Y-39060D01*
X47724Y-39139D01*
X47724Y-39339D01*
X47755Y-39413D01*
X47792Y-39450D01*
X47755Y-39486D01*
X47725Y-39560D01*
X47724Y-39639D01*
X47724Y-39839D01*
X47739Y-39874D01*
X47610Y-39874D01*
X47575Y-39889D01*
X47575Y-39750D01*
X47525Y-39700D01*
X47175Y-39700D01*
X47125Y-39700D01*
X47075Y-39700D01*
X47025Y-39700D01*
X46675Y-39700D01*
X46625Y-39750D01*
X46624Y-39889D01*
X46655Y-39963D01*
X46707Y-40015D01*
X46700Y-40035D01*
X46699Y-40114D01*
X46700Y-40275D01*
X46750Y-40325D01*
X47050Y-40325D01*
X47050Y-40050D01*
X47075Y-40050D01*
X47100Y-40050D01*
X47100Y-40275D01*
X47100Y-40325D01*
X47100Y-40375D01*
X47075Y-40375D01*
X47050Y-40375D01*
X47000Y-40375D01*
X46750Y-40375D01*
X46700Y-40425D01*
X46699Y-40585D01*
X46700Y-40664D01*
X46727Y-40730D01*
X46656Y-40730D01*
X43680Y-37753D01*
X43680Y-30660D01*
X43679Y-30659D01*
X43645Y-30487D01*
X43645Y-30487D01*
X43548Y-30341D01*
X43548Y-30341D01*
X40506Y-27300D01*
X40559Y-27300D01*
X40669Y-27254D01*
X40754Y-27170D01*
X40799Y-27059D01*
X40800Y-26940D01*
X40800Y-25940D01*
X40754Y-25830D01*
X40670Y-25745D01*
X40559Y-25700D01*
X40440Y-25699D01*
X39440Y-25699D01*
X39330Y-25745D01*
X39245Y-25829D01*
X39200Y-25940D01*
X39199Y-26050D01*
X39045Y-26050D01*
X38857Y-25594D01*
X38407Y-25144D01*
X37977Y-24965D01*
X37977Y-23819D01*
X37834Y-23459D01*
X37818Y-23436D01*
X37685Y-23350D01*
X37649Y-23385D01*
X37649Y-23314D01*
X37563Y-23181D01*
X37207Y-23027D01*
X36819Y-23022D01*
X36459Y-23165D01*
X36436Y-23181D01*
X36350Y-23314D01*
X37000Y-23964D01*
X37649Y-23314D01*
X37649Y-23385D01*
X37035Y-24000D01*
X37685Y-24649D01*
X37818Y-24563D01*
X37972Y-24207D01*
X37977Y-23819D01*
X37977Y-24965D01*
X37819Y-24900D01*
X37375Y-24899D01*
X37540Y-24834D01*
X37563Y-24818D01*
X37649Y-24685D01*
X37000Y-24035D01*
X36964Y-24070D01*
X36964Y-24000D01*
X36314Y-23350D01*
X36181Y-23436D01*
X36027Y-23792D01*
X36022Y-24180D01*
X36165Y-24540D01*
X36181Y-24563D01*
X36314Y-24649D01*
X36964Y-24000D01*
X36964Y-24070D01*
X36350Y-24685D01*
X36436Y-24818D01*
X36792Y-24972D01*
X37000Y-24975D01*
X36594Y-25142D01*
X36144Y-25592D01*
X36114Y-25664D01*
X35959Y-25600D01*
X35741Y-25599D01*
X35041Y-25599D01*
X34838Y-25683D01*
X34684Y-25838D01*
X34600Y-26040D01*
X34599Y-26258D01*
X34599Y-26958D01*
X34683Y-27161D01*
X34838Y-27315D01*
X35040Y-27399D01*
X35258Y-27400D01*
X35958Y-27400D01*
X36114Y-27335D01*
X36142Y-27405D01*
X36237Y-27499D01*
X36144Y-27592D01*
X35900Y-28180D01*
X35899Y-28816D01*
X36142Y-29405D01*
X36592Y-29855D01*
X37180Y-30099D01*
X37816Y-30100D01*
X38405Y-29857D01*
X38855Y-29407D01*
X39099Y-28819D01*
X39100Y-28183D01*
X38857Y-27594D01*
X38762Y-27500D01*
X38855Y-27407D01*
X39045Y-26950D01*
X39199Y-26950D01*
X39199Y-27059D01*
X39245Y-27169D01*
X39329Y-27254D01*
X39440Y-27299D01*
X39550Y-27300D01*
X39550Y-27430D01*
X39584Y-27602D01*
X39681Y-27748D01*
X42780Y-30846D01*
X42780Y-37940D01*
X42814Y-38112D01*
X42911Y-38258D01*
X46151Y-41498D01*
X46151Y-41498D01*
X46297Y-41595D01*
X46297Y-41595D01*
X46469Y-41629D01*
X46470Y-41630D01*
X47503Y-41630D01*
X48252Y-42378D01*
X48168Y-42328D01*
X48102Y-42310D01*
X48025Y-42350D01*
X48025Y-42925D01*
X48025Y-42975D01*
X48025Y-43025D01*
X48025Y-43075D01*
X48025Y-43649D01*
X48102Y-43689D01*
X48168Y-43671D01*
X48335Y-43571D01*
X48452Y-43414D01*
X48500Y-43225D01*
X48500Y-43213D01*
X48538Y-43405D01*
X48646Y-43567D01*
X48808Y-43675D01*
X49000Y-43713D01*
X49191Y-43675D01*
X49353Y-43567D01*
X49461Y-43405D01*
X49492Y-43250D01*
X49800Y-43250D01*
X49895Y-43230D01*
X49976Y-43176D01*
X50301Y-42851D01*
X50355Y-42770D01*
X50355Y-42770D01*
X50375Y-42675D01*
X50375Y-42360D01*
X50413Y-42344D01*
X50469Y-42288D01*
X50499Y-42214D01*
X50499Y-42214D01*
X50530Y-42288D01*
X50586Y-42344D01*
X50660Y-42374D01*
X50732Y-42375D01*
X50646Y-42432D01*
X50538Y-42594D01*
X50500Y-42786D01*
X50500Y-43213D01*
X50538Y-43405D01*
X50646Y-43567D01*
X50808Y-43675D01*
X51000Y-43713D01*
X51191Y-43675D01*
X51353Y-43567D01*
X51461Y-43405D01*
X51500Y-43213D01*
X51538Y-43405D01*
X51646Y-43567D01*
X51808Y-43675D01*
X52000Y-43713D01*
X52191Y-43675D01*
X52353Y-43567D01*
X52461Y-43405D01*
X52500Y-43213D01*
X52538Y-43405D01*
X52646Y-43567D01*
X52808Y-43675D01*
X53000Y-43713D01*
X53191Y-43675D01*
X53353Y-43567D01*
X53461Y-43405D01*
X53500Y-43213D01*
X53538Y-43405D01*
X53646Y-43567D01*
X53808Y-43675D01*
X54000Y-43713D01*
X54191Y-43675D01*
X54353Y-43567D01*
X54461Y-43405D01*
X54500Y-43213D01*
X54538Y-43405D01*
X54646Y-43567D01*
X54808Y-43675D01*
X55000Y-43713D01*
X55191Y-43675D01*
X55353Y-43567D01*
X55461Y-43405D01*
X55500Y-43213D01*
X55538Y-43405D01*
X55646Y-43567D01*
X55808Y-43675D01*
X56000Y-43713D01*
X56191Y-43675D01*
X56353Y-43567D01*
X56461Y-43405D01*
X56500Y-43213D01*
X56538Y-43405D01*
X56646Y-43567D01*
X56808Y-43675D01*
X57000Y-43713D01*
X57191Y-43675D01*
X57353Y-43567D01*
X57461Y-43405D01*
X57500Y-43213D01*
X57538Y-43405D01*
X57646Y-43567D01*
X57808Y-43675D01*
X58000Y-43713D01*
X58191Y-43675D01*
X58353Y-43567D01*
X58461Y-43405D01*
X58500Y-43213D01*
X58500Y-42786D01*
X58461Y-42594D01*
X58353Y-42432D01*
X58191Y-42324D01*
X58000Y-42286D01*
X57808Y-42324D01*
X57646Y-42432D01*
X57538Y-42594D01*
X57500Y-42786D01*
X57461Y-42594D01*
X57353Y-42432D01*
X57191Y-42324D01*
X57000Y-42286D01*
X56808Y-42324D01*
X56646Y-42432D01*
X56538Y-42594D01*
X56500Y-42786D01*
X56461Y-42594D01*
X56353Y-42432D01*
X56191Y-42324D01*
X56000Y-42286D01*
X55808Y-42324D01*
X55646Y-42432D01*
X55538Y-42594D01*
X55500Y-42786D01*
X55461Y-42594D01*
X55353Y-42432D01*
X55191Y-42324D01*
X55000Y-42286D01*
X54808Y-42324D01*
X54646Y-42432D01*
X54538Y-42594D01*
X54500Y-42786D01*
X54461Y-42594D01*
X54353Y-42432D01*
X54191Y-42324D01*
X54000Y-42286D01*
X53808Y-42324D01*
X53646Y-42432D01*
X53538Y-42594D01*
X53500Y-42786D01*
X53461Y-42594D01*
X53353Y-42432D01*
X53193Y-42325D01*
X53212Y-42318D01*
X53280Y-42250D01*
X68392Y-42250D01*
X68350Y-42314D01*
X69000Y-42964D01*
X69649Y-42314D01*
X69563Y-42181D01*
X69499Y-42153D01*
X69876Y-41776D01*
X69876Y-41776D01*
X69876Y-41776D01*
X69930Y-41695D01*
X69930Y-41695D01*
X69946Y-41619D01*
X69950Y-41600D01*
X69949Y-41600D01*
X69950Y-41600D01*
X69950Y-36800D01*
X69949Y-36799D01*
X69950Y-36799D01*
X69946Y-36780D01*
X69930Y-36704D01*
X69930Y-36704D01*
X69876Y-36623D01*
X69876Y-36623D01*
X69576Y-36323D01*
X69495Y-36269D01*
X69434Y-36256D01*
X69499Y-36099D01*
X69500Y-35900D01*
X69500Y-34900D01*
X69500Y-33900D01*
X69424Y-33717D01*
X69283Y-33576D01*
X69099Y-33500D01*
X68900Y-33499D01*
X68717Y-33575D01*
X68576Y-33716D01*
X68500Y-33900D01*
X68499Y-34099D01*
X68575Y-34282D01*
X68716Y-34423D01*
X68900Y-34499D01*
X69099Y-34500D01*
X69282Y-34424D01*
X69423Y-34283D01*
X69499Y-34099D01*
X69500Y-33900D01*
X69500Y-34900D01*
X69424Y-34717D01*
X69283Y-34576D01*
X69099Y-34500D01*
X68900Y-34499D01*
X68717Y-34575D01*
X68576Y-34716D01*
X68500Y-34900D01*
X68500Y-34901D01*
X68500Y-34900D01*
X68424Y-34717D01*
X68283Y-34576D01*
X68099Y-34500D01*
X67900Y-34499D01*
X67717Y-34575D01*
X67576Y-34716D01*
X67500Y-34900D01*
X67499Y-35099D01*
X67575Y-35282D01*
X67716Y-35423D01*
X67900Y-35499D01*
X68099Y-35500D01*
X68282Y-35424D01*
X68423Y-35283D01*
X68499Y-35099D01*
X68500Y-34900D01*
X68500Y-34901D01*
X68499Y-35099D01*
X68575Y-35282D01*
X68716Y-35423D01*
X68900Y-35499D01*
X69099Y-35500D01*
X69282Y-35424D01*
X69423Y-35283D01*
X69499Y-35099D01*
X69500Y-34900D01*
X69500Y-35900D01*
X69424Y-35717D01*
X69283Y-35576D01*
X69099Y-35500D01*
X68900Y-35499D01*
X68717Y-35575D01*
X68576Y-35716D01*
X68500Y-35900D01*
X68499Y-36099D01*
X68562Y-36250D01*
X68437Y-36250D01*
X68499Y-36099D01*
X68500Y-35900D01*
X68424Y-35717D01*
X68283Y-35576D01*
X68099Y-35500D01*
X67900Y-35499D01*
X67717Y-35575D01*
X67576Y-35716D01*
X67500Y-35900D01*
X67499Y-36046D01*
X67474Y-36021D01*
X67475Y-35925D01*
X67418Y-35787D01*
X67312Y-35682D01*
X67174Y-35625D01*
X67025Y-35624D01*
X66887Y-35681D01*
X66782Y-35787D01*
X66725Y-35925D01*
X66725Y-35971D01*
X66553Y-35800D01*
X66826Y-35526D01*
X66826Y-35526D01*
X66826Y-35526D01*
X66880Y-35445D01*
X66880Y-35445D01*
X66886Y-35416D01*
X66918Y-35402D01*
X67052Y-35269D01*
X67124Y-35094D01*
X67125Y-34905D01*
X67052Y-34731D01*
X67029Y-34708D01*
X67076Y-34676D01*
X67545Y-34208D01*
X67575Y-34282D01*
X67716Y-34423D01*
X67900Y-34499D01*
X68099Y-34500D01*
X68282Y-34424D01*
X68423Y-34283D01*
X68499Y-34099D01*
X68500Y-33900D01*
X68424Y-33717D01*
X68380Y-33673D01*
X68673Y-33380D01*
X68716Y-33423D01*
X68900Y-33499D01*
X69099Y-33500D01*
X69282Y-33424D01*
X69423Y-33283D01*
X69499Y-33099D01*
X69500Y-32900D01*
X69424Y-32717D01*
X69380Y-32673D01*
X69676Y-32376D01*
X69676Y-32376D01*
X69676Y-32376D01*
X69730Y-32295D01*
X69730Y-32295D01*
X69746Y-32219D01*
X69750Y-32200D01*
X69749Y-32200D01*
X69750Y-32200D01*
X69750Y-31903D01*
X69976Y-31676D01*
X69976Y-31676D01*
X69976Y-31676D01*
X70030Y-31595D01*
X70030Y-31595D01*
X70046Y-31519D01*
X70050Y-31500D01*
X70050Y-44260D01*
X69977Y-44260D01*
X69977Y-42819D01*
X69834Y-42459D01*
X69818Y-42436D01*
X69685Y-42350D01*
X69035Y-43000D01*
X69685Y-43649D01*
X69818Y-43563D01*
X69972Y-43207D01*
X69977Y-42819D01*
X69977Y-44260D01*
X69649Y-44260D01*
X69649Y-43685D01*
X69000Y-43035D01*
X68964Y-43070D01*
X68964Y-43000D01*
X68314Y-42350D01*
X68181Y-42436D01*
X68027Y-42792D01*
X68022Y-43180D01*
X68165Y-43540D01*
X68181Y-43563D01*
X68314Y-43649D01*
X68964Y-43000D01*
X68964Y-43070D01*
X68350Y-43685D01*
X68436Y-43818D01*
X68792Y-43972D01*
X69180Y-43977D01*
X69540Y-43834D01*
X69563Y-43818D01*
X69649Y-43685D01*
X69649Y-44260D01*
X67500Y-44260D01*
X67500Y-43213D01*
X67500Y-42786D01*
X67461Y-42594D01*
X67353Y-42432D01*
X67191Y-42324D01*
X67000Y-42286D01*
X66808Y-42324D01*
X66646Y-42432D01*
X66538Y-42594D01*
X66500Y-42786D01*
X66461Y-42594D01*
X66353Y-42432D01*
X66191Y-42324D01*
X66000Y-42286D01*
X65808Y-42324D01*
X65646Y-42432D01*
X65538Y-42594D01*
X65500Y-42786D01*
X65461Y-42594D01*
X65353Y-42432D01*
X65191Y-42324D01*
X65000Y-42286D01*
X64808Y-42324D01*
X64646Y-42432D01*
X64538Y-42594D01*
X64500Y-42786D01*
X64461Y-42594D01*
X64353Y-42432D01*
X64191Y-42324D01*
X64000Y-42286D01*
X63808Y-42324D01*
X63646Y-42432D01*
X63538Y-42594D01*
X63500Y-42786D01*
X63461Y-42594D01*
X63353Y-42432D01*
X63191Y-42324D01*
X63000Y-42286D01*
X62808Y-42324D01*
X62646Y-42432D01*
X62538Y-42594D01*
X62500Y-42786D01*
X62461Y-42594D01*
X62353Y-42432D01*
X62191Y-42324D01*
X62000Y-42286D01*
X61808Y-42324D01*
X61646Y-42432D01*
X61538Y-42594D01*
X61500Y-42786D01*
X61461Y-42594D01*
X61353Y-42432D01*
X61191Y-42324D01*
X61000Y-42286D01*
X60808Y-42324D01*
X60646Y-42432D01*
X60538Y-42594D01*
X60500Y-42786D01*
X60461Y-42594D01*
X60353Y-42432D01*
X60191Y-42324D01*
X60000Y-42286D01*
X59808Y-42324D01*
X59646Y-42432D01*
X59538Y-42594D01*
X59500Y-42786D01*
X59500Y-43213D01*
X59538Y-43405D01*
X59646Y-43567D01*
X59808Y-43675D01*
X60000Y-43713D01*
X60191Y-43675D01*
X60353Y-43567D01*
X60461Y-43405D01*
X60500Y-43213D01*
X60538Y-43405D01*
X60646Y-43567D01*
X60808Y-43675D01*
X61000Y-43713D01*
X61191Y-43675D01*
X61353Y-43567D01*
X61461Y-43405D01*
X61500Y-43213D01*
X61538Y-43405D01*
X61646Y-43567D01*
X61808Y-43675D01*
X62000Y-43713D01*
X62191Y-43675D01*
X62353Y-43567D01*
X62461Y-43405D01*
X62500Y-43213D01*
X62538Y-43405D01*
X62646Y-43567D01*
X62808Y-43675D01*
X63000Y-43713D01*
X63191Y-43675D01*
X63353Y-43567D01*
X63461Y-43405D01*
X63500Y-43213D01*
X63538Y-43405D01*
X63646Y-43567D01*
X63808Y-43675D01*
X64000Y-43713D01*
X64191Y-43675D01*
X64353Y-43567D01*
X64461Y-43405D01*
X64500Y-43213D01*
X64538Y-43405D01*
X64646Y-43567D01*
X64808Y-43675D01*
X65000Y-43713D01*
X65191Y-43675D01*
X65353Y-43567D01*
X65461Y-43405D01*
X65500Y-43213D01*
X65538Y-43405D01*
X65646Y-43567D01*
X65808Y-43675D01*
X66000Y-43713D01*
X66191Y-43675D01*
X66353Y-43567D01*
X66461Y-43405D01*
X66500Y-43213D01*
X66538Y-43405D01*
X66646Y-43567D01*
X66808Y-43675D01*
X67000Y-43713D01*
X67191Y-43675D01*
X67353Y-43567D01*
X67461Y-43405D01*
X67500Y-43213D01*
X67500Y-44260D01*
X57500Y-44260D01*
X47975Y-44260D01*
X47975Y-43649D01*
X47975Y-43025D01*
X47975Y-42975D01*
X47975Y-42350D01*
X47897Y-42310D01*
X47831Y-42328D01*
X47664Y-42428D01*
X47547Y-42585D01*
X47500Y-42775D01*
X47452Y-42585D01*
X47335Y-42428D01*
X47168Y-42328D01*
X47102Y-42310D01*
X47025Y-42350D01*
X47025Y-42975D01*
X47500Y-42975D01*
X47975Y-42975D01*
X47975Y-43025D01*
X47500Y-43025D01*
X47025Y-43025D01*
X47025Y-43649D01*
X47102Y-43689D01*
X47168Y-43671D01*
X47335Y-43571D01*
X47452Y-43414D01*
X47500Y-43225D01*
X47547Y-43414D01*
X47664Y-43571D01*
X47831Y-43671D01*
X47897Y-43689D01*
X47975Y-43649D01*
X47975Y-44260D01*
X46975Y-44260D01*
X46975Y-43649D01*
X46975Y-43025D01*
X46500Y-43025D01*
X46500Y-42975D01*
X46975Y-42975D01*
X46975Y-42350D01*
X46897Y-42310D01*
X46831Y-42328D01*
X46664Y-42428D01*
X46547Y-42585D01*
X46500Y-42775D01*
X46500Y-42786D01*
X46461Y-42594D01*
X46353Y-42432D01*
X46191Y-42324D01*
X46000Y-42286D01*
X45808Y-42324D01*
X45646Y-42432D01*
X45538Y-42594D01*
X45500Y-42786D01*
X45461Y-42594D01*
X45353Y-42432D01*
X45191Y-42324D01*
X45000Y-42286D01*
X44808Y-42324D01*
X44646Y-42432D01*
X44538Y-42594D01*
X44500Y-42786D01*
X44461Y-42594D01*
X44353Y-42432D01*
X44191Y-42324D01*
X44000Y-42286D01*
X43808Y-42324D01*
X43646Y-42432D01*
X43538Y-42594D01*
X43500Y-42786D01*
X43500Y-43213D01*
X43538Y-43405D01*
X43646Y-43567D01*
X43808Y-43675D01*
X44000Y-43713D01*
X44191Y-43675D01*
X44353Y-43567D01*
X44461Y-43405D01*
X44500Y-43213D01*
X44538Y-43405D01*
X44646Y-43567D01*
X44808Y-43675D01*
X45000Y-43713D01*
X45191Y-43675D01*
X45353Y-43567D01*
X45461Y-43405D01*
X45500Y-43213D01*
X45538Y-43405D01*
X45646Y-43567D01*
X45808Y-43675D01*
X46000Y-43713D01*
X46191Y-43675D01*
X46353Y-43567D01*
X46461Y-43405D01*
X46500Y-43213D01*
X46500Y-43225D01*
X46547Y-43414D01*
X46664Y-43571D01*
X46831Y-43671D01*
X46897Y-43689D01*
X46975Y-43649D01*
X46975Y-44260D01*
X40700Y-44260D01*
X40700Y-32363D01*
X40595Y-32105D01*
X40591Y-32100D01*
X40486Y-32048D01*
X40451Y-32084D01*
X40451Y-32013D01*
X40399Y-31908D01*
X40142Y-31800D01*
X39863Y-31799D01*
X39605Y-31904D01*
X39600Y-31908D01*
X39548Y-32013D01*
X40000Y-32464D01*
X40451Y-32013D01*
X40451Y-32084D01*
X40035Y-32500D01*
X40486Y-32951D01*
X40591Y-32899D01*
X40699Y-32642D01*
X40700Y-32363D01*
X40700Y-44260D01*
X40451Y-44260D01*
X40451Y-32986D01*
X40000Y-32535D01*
X39964Y-32570D01*
X39964Y-32500D01*
X39513Y-32048D01*
X39408Y-32100D01*
X39300Y-32357D01*
X39299Y-32636D01*
X39404Y-32894D01*
X39408Y-32899D01*
X39513Y-32951D01*
X39964Y-32500D01*
X39964Y-32570D01*
X39548Y-32986D01*
X39600Y-33091D01*
X39857Y-33199D01*
X40136Y-33200D01*
X40394Y-33095D01*
X40399Y-33091D01*
X40451Y-32986D01*
X40451Y-44260D01*
X39100Y-44260D01*
X39100Y-34183D01*
X38857Y-33594D01*
X38762Y-33500D01*
X38855Y-33407D01*
X39099Y-32819D01*
X39100Y-32183D01*
X38857Y-31594D01*
X38407Y-31144D01*
X37819Y-30900D01*
X37183Y-30899D01*
X36594Y-31142D01*
X36144Y-31592D01*
X36050Y-31818D01*
X36050Y-31606D01*
X36049Y-31387D01*
X35967Y-31190D01*
X35878Y-31156D01*
X35843Y-31192D01*
X35843Y-31121D01*
X35809Y-31032D01*
X35606Y-30949D01*
X35387Y-30950D01*
X35190Y-31032D01*
X35156Y-31121D01*
X35500Y-31464D01*
X35843Y-31121D01*
X35843Y-31192D01*
X35535Y-31500D01*
X35878Y-31843D01*
X35967Y-31809D01*
X36050Y-31606D01*
X36050Y-31818D01*
X35900Y-32180D01*
X35899Y-32816D01*
X36142Y-33405D01*
X36237Y-33499D01*
X36144Y-33592D01*
X36093Y-33714D01*
X36055Y-33675D01*
X35843Y-33587D01*
X35843Y-31878D01*
X35500Y-31535D01*
X35464Y-31570D01*
X35464Y-31500D01*
X35121Y-31156D01*
X35032Y-31190D01*
X34949Y-31393D01*
X34950Y-31612D01*
X35032Y-31809D01*
X35121Y-31843D01*
X35464Y-31500D01*
X35464Y-31570D01*
X35156Y-31878D01*
X35190Y-31967D01*
X35393Y-32050D01*
X35612Y-32049D01*
X35809Y-31967D01*
X35843Y-31878D01*
X35843Y-33587D01*
X35779Y-33561D01*
X35481Y-33560D01*
X34103Y-33560D01*
X33827Y-33674D01*
X33616Y-33885D01*
X33502Y-34161D01*
X33501Y-34459D01*
X33501Y-35837D01*
X33552Y-35960D01*
X33468Y-35960D01*
X33468Y-35649D01*
X33468Y-34350D01*
X33467Y-34271D01*
X33437Y-34197D01*
X33381Y-34141D01*
X33307Y-34110D01*
X32654Y-34111D01*
X32604Y-34161D01*
X32604Y-34975D01*
X33418Y-34975D01*
X33468Y-34925D01*
X33468Y-34350D01*
X33468Y-35649D01*
X33468Y-35075D01*
X33418Y-35025D01*
X32604Y-35025D01*
X32604Y-35839D01*
X32654Y-35889D01*
X33307Y-35889D01*
X33381Y-35858D01*
X33437Y-35802D01*
X33467Y-35728D01*
X33468Y-35649D01*
X33468Y-35960D01*
X33031Y-35960D01*
X32957Y-35991D01*
X32901Y-36047D01*
X32871Y-36121D01*
X32870Y-36200D01*
X32871Y-36775D01*
X32921Y-36825D01*
X33685Y-36825D01*
X33735Y-36825D01*
X33785Y-36825D01*
X33835Y-36825D01*
X34599Y-36825D01*
X34649Y-36775D01*
X34649Y-36439D01*
X35778Y-36439D01*
X36054Y-36325D01*
X36265Y-36114D01*
X36379Y-35838D01*
X36380Y-35642D01*
X36592Y-35855D01*
X37180Y-36099D01*
X37816Y-36100D01*
X38405Y-35857D01*
X38855Y-35407D01*
X39099Y-34819D01*
X39100Y-34183D01*
X39100Y-44260D01*
X37477Y-44260D01*
X37477Y-42819D01*
X37334Y-42459D01*
X37318Y-42436D01*
X37185Y-42350D01*
X37149Y-42385D01*
X37149Y-42314D01*
X37063Y-42181D01*
X36707Y-42027D01*
X36319Y-42022D01*
X35959Y-42165D01*
X35936Y-42181D01*
X35850Y-42314D01*
X36500Y-42964D01*
X37149Y-42314D01*
X37149Y-42385D01*
X36535Y-43000D01*
X37185Y-43649D01*
X37318Y-43563D01*
X37472Y-43207D01*
X37477Y-42819D01*
X37477Y-44260D01*
X37149Y-44260D01*
X37149Y-43685D01*
X36500Y-43035D01*
X36464Y-43070D01*
X36464Y-43000D01*
X35814Y-42350D01*
X35681Y-42436D01*
X35527Y-42792D01*
X35522Y-43180D01*
X35665Y-43540D01*
X35681Y-43563D01*
X35814Y-43649D01*
X36464Y-43000D01*
X36464Y-43070D01*
X35850Y-43685D01*
X35936Y-43818D01*
X36292Y-43972D01*
X36680Y-43977D01*
X37040Y-43834D01*
X37063Y-43818D01*
X37149Y-43685D01*
X37149Y-44260D01*
X34649Y-44260D01*
X34649Y-37499D01*
X34649Y-36925D01*
X34599Y-36875D01*
X33785Y-36875D01*
X33785Y-37689D01*
X33835Y-37739D01*
X34488Y-37739D01*
X34562Y-37708D01*
X34618Y-37652D01*
X34648Y-37578D01*
X34649Y-37499D01*
X34649Y-44260D01*
X33735Y-44260D01*
X33735Y-37689D01*
X33735Y-36875D01*
X32921Y-36875D01*
X32871Y-36925D01*
X32870Y-37499D01*
X32871Y-37578D01*
X32901Y-37652D01*
X32957Y-37708D01*
X33031Y-37739D01*
X33685Y-37739D01*
X33735Y-37689D01*
X33735Y-44260D01*
X32554Y-44260D01*
X32554Y-35839D01*
X32554Y-35025D01*
X32554Y-34975D01*
X32554Y-34161D01*
X32504Y-34111D01*
X31850Y-34110D01*
X31776Y-34141D01*
X31720Y-34197D01*
X31690Y-34271D01*
X31689Y-34350D01*
X31690Y-34925D01*
X31740Y-34975D01*
X32554Y-34975D01*
X32554Y-35025D01*
X31740Y-35025D01*
X31690Y-35075D01*
X31689Y-35649D01*
X31690Y-35728D01*
X31720Y-35802D01*
X31776Y-35858D01*
X31850Y-35889D01*
X32504Y-35889D01*
X32554Y-35839D01*
X32554Y-44260D01*
X31240Y-44260D01*
X31240Y-22740D01*
X71260Y-22740D01*
X71260Y-44260D01*
X71260Y-44260D01*
G37*
G54D28*
X71260Y-44260D02*
X70050Y-44260D01*
X70050Y-31500D01*
X70049Y-31500D01*
X70050Y-31500D01*
X70050Y-29600D01*
X70030Y-29504D01*
X70030Y-29504D01*
X70009Y-29471D01*
X69976Y-29423D01*
X69976Y-29423D01*
X69500Y-28946D01*
X69500Y-28900D01*
X69424Y-28717D01*
X69283Y-28576D01*
X69099Y-28500D01*
X68900Y-28499D01*
X68867Y-28513D01*
X68820Y-28466D01*
X68900Y-28499D01*
X69099Y-28500D01*
X69282Y-28424D01*
X69423Y-28283D01*
X69499Y-28099D01*
X69500Y-27900D01*
X69500Y-26900D01*
X69500Y-25900D01*
X69500Y-24900D01*
X69500Y-23900D01*
X69424Y-23717D01*
X69283Y-23576D01*
X69099Y-23500D01*
X68900Y-23499D01*
X68717Y-23575D01*
X68576Y-23716D01*
X68500Y-23900D01*
X68500Y-23901D01*
X68500Y-23900D01*
X68424Y-23717D01*
X68283Y-23576D01*
X68099Y-23500D01*
X67900Y-23499D01*
X67717Y-23575D01*
X67576Y-23716D01*
X67500Y-23900D01*
X67499Y-24099D01*
X67575Y-24282D01*
X67716Y-24423D01*
X67900Y-24499D01*
X68099Y-24500D01*
X68282Y-24424D01*
X68423Y-24283D01*
X68499Y-24099D01*
X68500Y-23900D01*
X68500Y-23901D01*
X68499Y-24099D01*
X68575Y-24282D01*
X68716Y-24423D01*
X68900Y-24499D01*
X69099Y-24500D01*
X69282Y-24424D01*
X69423Y-24283D01*
X69499Y-24099D01*
X69500Y-23900D01*
X69500Y-24900D01*
X69424Y-24717D01*
X69283Y-24576D01*
X69099Y-24500D01*
X68900Y-24499D01*
X68717Y-24575D01*
X68576Y-24716D01*
X68500Y-24900D01*
X68500Y-24901D01*
X68500Y-24900D01*
X68424Y-24717D01*
X68283Y-24576D01*
X68099Y-24500D01*
X67900Y-24499D01*
X67717Y-24575D01*
X67576Y-24716D01*
X67500Y-24900D01*
X67499Y-25099D01*
X67575Y-25282D01*
X67716Y-25423D01*
X67900Y-25499D01*
X68099Y-25500D01*
X68282Y-25424D01*
X68423Y-25283D01*
X68499Y-25099D01*
X68500Y-24900D01*
X68500Y-24901D01*
X68499Y-25099D01*
X68575Y-25282D01*
X68716Y-25423D01*
X68900Y-25499D01*
X69099Y-25500D01*
X69282Y-25424D01*
X69423Y-25283D01*
X69499Y-25099D01*
X69500Y-24900D01*
X69500Y-25900D01*
X69424Y-25717D01*
X69283Y-25576D01*
X69099Y-25500D01*
X68900Y-25499D01*
X68717Y-25575D01*
X68576Y-25716D01*
X68500Y-25900D01*
X68500Y-25901D01*
X68500Y-25900D01*
X68424Y-25717D01*
X68283Y-25576D01*
X68099Y-25500D01*
X67900Y-25499D01*
X67717Y-25575D01*
X67576Y-25716D01*
X67500Y-25900D01*
X67499Y-26099D01*
X67575Y-26282D01*
X67716Y-26423D01*
X67900Y-26499D01*
X68099Y-26500D01*
X68282Y-26424D01*
X68423Y-26283D01*
X68499Y-26099D01*
X68500Y-25900D01*
X68500Y-25901D01*
X68499Y-26099D01*
X68575Y-26282D01*
X68716Y-26423D01*
X68900Y-26499D01*
X69099Y-26500D01*
X69282Y-26424D01*
X69423Y-26283D01*
X69499Y-26099D01*
X69500Y-25900D01*
X69500Y-26900D01*
X69424Y-26717D01*
X69283Y-26576D01*
X69099Y-26500D01*
X68900Y-26499D01*
X68717Y-26575D01*
X68576Y-26716D01*
X68500Y-26900D01*
X68500Y-26901D01*
X68500Y-26900D01*
X68424Y-26717D01*
X68283Y-26576D01*
X68099Y-26500D01*
X67900Y-26499D01*
X67717Y-26575D01*
X67576Y-26716D01*
X67500Y-26900D01*
X67499Y-27099D01*
X67575Y-27282D01*
X67716Y-27423D01*
X67900Y-27499D01*
X68099Y-27500D01*
X68282Y-27424D01*
X68423Y-27283D01*
X68499Y-27099D01*
X68500Y-26900D01*
X68500Y-26901D01*
X68499Y-27099D01*
X68575Y-27282D01*
X68716Y-27423D01*
X68900Y-27499D01*
X69099Y-27500D01*
X69282Y-27424D01*
X69423Y-27283D01*
X69499Y-27099D01*
X69500Y-26900D01*
X69500Y-27900D01*
X69424Y-27717D01*
X69283Y-27576D01*
X69099Y-27500D01*
X68900Y-27499D01*
X68717Y-27575D01*
X68576Y-27716D01*
X68500Y-27900D01*
X68499Y-28099D01*
X68567Y-28263D01*
X68500Y-28250D01*
X68437Y-28250D01*
X68499Y-28099D01*
X68500Y-27900D01*
X68424Y-27717D01*
X68283Y-27576D01*
X68099Y-27500D01*
X67900Y-27499D01*
X67717Y-27575D01*
X67576Y-27716D01*
X67500Y-27900D01*
X67499Y-28099D01*
X67562Y-28250D01*
X67477Y-28250D01*
X67477Y-23819D01*
X67334Y-23459D01*
X67318Y-23436D01*
X67185Y-23350D01*
X67149Y-23385D01*
X67149Y-23314D01*
X67063Y-23181D01*
X66707Y-23027D01*
X66319Y-23022D01*
X65959Y-23165D01*
X65936Y-23181D01*
X65850Y-23314D01*
X66500Y-23964D01*
X67149Y-23314D01*
X67149Y-23385D01*
X66535Y-24000D01*
X67185Y-24649D01*
X67318Y-24563D01*
X67472Y-24207D01*
X67477Y-23819D01*
X67477Y-28250D01*
X67150Y-28250D01*
X67149Y-28250D01*
X67149Y-24685D01*
X66500Y-24035D01*
X66464Y-24070D01*
X66464Y-24000D01*
X65814Y-23350D01*
X65681Y-23436D01*
X65527Y-23792D01*
X65522Y-24180D01*
X65665Y-24540D01*
X65681Y-24563D01*
X65814Y-24649D01*
X66464Y-24000D01*
X66464Y-24070D01*
X65850Y-24685D01*
X65936Y-24818D01*
X66292Y-24972D01*
X66680Y-24977D01*
X67040Y-24834D01*
X67063Y-24818D01*
X67149Y-24685D01*
X67149Y-28250D01*
X67054Y-28269D01*
X66973Y-28323D01*
X66763Y-28532D01*
X66744Y-28525D01*
X66625Y-28524D01*
X66625Y-27185D01*
X66625Y-26714D01*
X66624Y-26635D01*
X66594Y-26561D01*
X66538Y-26505D01*
X66464Y-26474D01*
X66225Y-26475D01*
X66175Y-26525D01*
X66175Y-26925D01*
X66575Y-26925D01*
X66625Y-26875D01*
X66625Y-26714D01*
X66625Y-27185D01*
X66625Y-27025D01*
X66575Y-26975D01*
X66175Y-26975D01*
X66175Y-27375D01*
X66225Y-27425D01*
X66464Y-27425D01*
X66538Y-27394D01*
X66594Y-27338D01*
X66624Y-27264D01*
X66625Y-27185D01*
X66625Y-28524D01*
X66555Y-28524D01*
X66381Y-28597D01*
X66247Y-28730D01*
X66175Y-28905D01*
X66174Y-29094D01*
X66247Y-29268D01*
X66281Y-29303D01*
X66204Y-29319D01*
X66123Y-29373D01*
X65973Y-29523D01*
X65921Y-29600D01*
X65919Y-29597D01*
X65744Y-29525D01*
X65555Y-29524D01*
X65381Y-29597D01*
X65247Y-29730D01*
X65175Y-29905D01*
X65174Y-30015D01*
X63950Y-31240D01*
X63950Y-29425D01*
X63989Y-29425D01*
X64339Y-29425D01*
X64413Y-29394D01*
X64469Y-29338D01*
X64499Y-29264D01*
X64499Y-29264D01*
X64530Y-29338D01*
X64586Y-29394D01*
X64660Y-29424D01*
X64739Y-29425D01*
X65089Y-29425D01*
X65163Y-29394D01*
X65219Y-29338D01*
X65248Y-29269D01*
X65380Y-29402D01*
X65555Y-29474D01*
X65744Y-29475D01*
X65918Y-29402D01*
X66052Y-29269D01*
X66124Y-29094D01*
X66125Y-28905D01*
X66125Y-28905D01*
X66125Y-27375D01*
X66125Y-26975D01*
X66125Y-26925D01*
X66125Y-26525D01*
X66075Y-26475D01*
X65835Y-26474D01*
X65761Y-26505D01*
X65705Y-26561D01*
X65675Y-26635D01*
X65674Y-26714D01*
X65675Y-26875D01*
X65725Y-26925D01*
X66125Y-26925D01*
X66125Y-26975D01*
X65725Y-26975D01*
X65675Y-27025D01*
X65674Y-27185D01*
X65675Y-27264D01*
X65705Y-27338D01*
X65761Y-27394D01*
X65835Y-27425D01*
X66075Y-27425D01*
X66125Y-27375D01*
X66125Y-28905D01*
X66052Y-28731D01*
X65919Y-28597D01*
X65744Y-28525D01*
X65626Y-28524D01*
X65626Y-27038D01*
X65623Y-26849D01*
X65555Y-26685D01*
X65500Y-26668D01*
X65500Y-24213D01*
X65500Y-23786D01*
X65461Y-23594D01*
X65353Y-23432D01*
X65191Y-23324D01*
X65000Y-23286D01*
X64808Y-23324D01*
X64646Y-23432D01*
X64538Y-23594D01*
X64500Y-23786D01*
X64461Y-23594D01*
X64353Y-23432D01*
X64191Y-23324D01*
X64000Y-23286D01*
X63808Y-23324D01*
X63646Y-23432D01*
X63538Y-23594D01*
X63500Y-23786D01*
X63461Y-23594D01*
X63353Y-23432D01*
X63191Y-23324D01*
X63000Y-23286D01*
X62808Y-23324D01*
X62646Y-23432D01*
X62538Y-23594D01*
X62500Y-23786D01*
X62461Y-23594D01*
X62353Y-23432D01*
X62191Y-23324D01*
X62000Y-23286D01*
X61808Y-23324D01*
X61646Y-23432D01*
X61538Y-23594D01*
X61500Y-23786D01*
X61461Y-23594D01*
X61353Y-23432D01*
X61191Y-23324D01*
X61000Y-23286D01*
X60808Y-23324D01*
X60646Y-23432D01*
X60538Y-23594D01*
X60500Y-23786D01*
X60461Y-23594D01*
X60353Y-23432D01*
X60191Y-23324D01*
X60000Y-23286D01*
X59808Y-23324D01*
X59646Y-23432D01*
X59538Y-23594D01*
X59500Y-23786D01*
X59461Y-23594D01*
X59353Y-23432D01*
X59191Y-23324D01*
X59000Y-23286D01*
X58808Y-23324D01*
X58646Y-23432D01*
X58538Y-23594D01*
X58500Y-23786D01*
X58461Y-23594D01*
X58353Y-23432D01*
X58191Y-23324D01*
X58000Y-23286D01*
X57808Y-23324D01*
X57646Y-23432D01*
X57538Y-23594D01*
X57500Y-23786D01*
X57500Y-24213D01*
X57538Y-24405D01*
X57646Y-24567D01*
X57808Y-24675D01*
X58000Y-24713D01*
X58191Y-24675D01*
X58353Y-24567D01*
X58461Y-24405D01*
X58500Y-24213D01*
X58538Y-24405D01*
X58646Y-24567D01*
X58808Y-24675D01*
X59000Y-24713D01*
X59191Y-24675D01*
X59353Y-24567D01*
X59461Y-24405D01*
X59500Y-24213D01*
X59538Y-24405D01*
X59646Y-24567D01*
X59808Y-24675D01*
X60000Y-24713D01*
X60191Y-24675D01*
X60353Y-24567D01*
X60461Y-24405D01*
X60500Y-24213D01*
X60538Y-24405D01*
X60646Y-24567D01*
X60808Y-24675D01*
X61000Y-24713D01*
X61191Y-24675D01*
X61353Y-24567D01*
X61461Y-24405D01*
X61500Y-24213D01*
X61538Y-24405D01*
X61646Y-24567D01*
X61808Y-24675D01*
X62000Y-24713D01*
X62191Y-24675D01*
X62353Y-24567D01*
X62461Y-24405D01*
X62500Y-24213D01*
X62538Y-24405D01*
X62646Y-24567D01*
X62808Y-24675D01*
X63000Y-24713D01*
X63191Y-24675D01*
X63353Y-24567D01*
X63461Y-24405D01*
X63500Y-24213D01*
X63538Y-24405D01*
X63646Y-24567D01*
X63808Y-24675D01*
X64000Y-24713D01*
X64191Y-24675D01*
X64353Y-24567D01*
X64461Y-24405D01*
X64500Y-24213D01*
X64538Y-24405D01*
X64646Y-24567D01*
X64808Y-24675D01*
X65000Y-24713D01*
X65191Y-24675D01*
X65353Y-24567D01*
X65461Y-24405D01*
X65500Y-24213D01*
X65500Y-26668D01*
X65474Y-26661D01*
X65438Y-26696D01*
X65438Y-26625D01*
X65414Y-26544D01*
X65238Y-26473D01*
X65049Y-26476D01*
X64885Y-26544D01*
X64861Y-26625D01*
X65150Y-26914D01*
X65438Y-26625D01*
X65438Y-26696D01*
X65185Y-26950D01*
X65474Y-27238D01*
X65555Y-27214D01*
X65626Y-27038D01*
X65626Y-28524D01*
X65555Y-28524D01*
X65438Y-28573D01*
X65438Y-27274D01*
X65150Y-26985D01*
X65114Y-27020D01*
X65114Y-26950D01*
X64825Y-26661D01*
X64744Y-26685D01*
X64673Y-26861D01*
X64676Y-27050D01*
X64744Y-27214D01*
X64825Y-27238D01*
X65114Y-26950D01*
X65114Y-27020D01*
X64861Y-27274D01*
X64885Y-27355D01*
X65061Y-27426D01*
X65250Y-27423D01*
X65414Y-27355D01*
X65438Y-27274D01*
X65438Y-28573D01*
X65381Y-28597D01*
X65278Y-28700D01*
X65250Y-28700D01*
X65250Y-28635D01*
X65219Y-28561D01*
X65163Y-28505D01*
X65089Y-28475D01*
X65010Y-28474D01*
X64660Y-28474D01*
X64625Y-28489D01*
X64625Y-26855D01*
X64600Y-26795D01*
X64600Y-26550D01*
X64565Y-26377D01*
X64468Y-26231D01*
X63868Y-25631D01*
X63722Y-25534D01*
X63550Y-25500D01*
X60600Y-25500D01*
X60427Y-25534D01*
X60379Y-25566D01*
X60281Y-25631D01*
X60116Y-25796D01*
X60064Y-25775D01*
X59985Y-25774D01*
X59435Y-25774D01*
X59361Y-25805D01*
X59359Y-25808D01*
X59227Y-25834D01*
X59081Y-25931D01*
X58631Y-26381D01*
X58534Y-26527D01*
X58500Y-26700D01*
X58500Y-28301D01*
X58348Y-27934D01*
X58067Y-27652D01*
X57950Y-27604D01*
X57950Y-27396D01*
X58065Y-27348D01*
X58347Y-27067D01*
X58499Y-26699D01*
X58500Y-26301D01*
X58348Y-25934D01*
X58067Y-25652D01*
X57699Y-25500D01*
X57301Y-25499D01*
X56934Y-25651D01*
X56652Y-25932D01*
X56604Y-26050D01*
X56500Y-26050D01*
X56500Y-24213D01*
X56500Y-23786D01*
X56461Y-23594D01*
X56353Y-23432D01*
X56191Y-23324D01*
X56000Y-23286D01*
X55808Y-23324D01*
X55646Y-23432D01*
X55538Y-23594D01*
X55500Y-23786D01*
X55461Y-23594D01*
X55353Y-23432D01*
X55191Y-23324D01*
X55000Y-23286D01*
X54808Y-23324D01*
X54646Y-23432D01*
X54538Y-23594D01*
X54500Y-23786D01*
X54461Y-23594D01*
X54353Y-23432D01*
X54191Y-23324D01*
X54000Y-23286D01*
X53808Y-23324D01*
X53646Y-23432D01*
X53538Y-23594D01*
X53500Y-23786D01*
X53461Y-23594D01*
X53353Y-23432D01*
X53191Y-23324D01*
X53000Y-23286D01*
X52808Y-23324D01*
X52646Y-23432D01*
X52538Y-23594D01*
X52500Y-23786D01*
X52461Y-23594D01*
X52353Y-23432D01*
X52191Y-23324D01*
X52000Y-23286D01*
X51808Y-23324D01*
X51646Y-23432D01*
X51538Y-23594D01*
X51500Y-23786D01*
X51461Y-23594D01*
X51353Y-23432D01*
X51191Y-23324D01*
X51000Y-23286D01*
X50808Y-23324D01*
X50646Y-23432D01*
X50538Y-23594D01*
X50500Y-23786D01*
X50461Y-23594D01*
X50353Y-23432D01*
X50191Y-23324D01*
X50000Y-23286D01*
X49808Y-23324D01*
X49646Y-23432D01*
X49538Y-23594D01*
X49500Y-23786D01*
X49461Y-23594D01*
X49353Y-23432D01*
X49191Y-23324D01*
X49000Y-23286D01*
X48808Y-23324D01*
X48646Y-23432D01*
X48538Y-23594D01*
X48500Y-23786D01*
X48500Y-24213D01*
X48538Y-24405D01*
X48646Y-24567D01*
X48808Y-24675D01*
X49000Y-24713D01*
X49191Y-24675D01*
X49353Y-24567D01*
X49461Y-24405D01*
X49500Y-24213D01*
X49538Y-24405D01*
X49646Y-24567D01*
X49808Y-24675D01*
X50000Y-24713D01*
X50191Y-24675D01*
X50353Y-24567D01*
X50461Y-24405D01*
X50500Y-24213D01*
X50538Y-24405D01*
X50646Y-24567D01*
X50808Y-24675D01*
X51000Y-24713D01*
X51191Y-24675D01*
X51353Y-24567D01*
X51461Y-24405D01*
X51500Y-24213D01*
X51538Y-24405D01*
X51646Y-24567D01*
X51808Y-24675D01*
X52000Y-24713D01*
X52191Y-24675D01*
X52353Y-24567D01*
X52461Y-24405D01*
X52500Y-24213D01*
X52538Y-24405D01*
X52646Y-24567D01*
X52808Y-24675D01*
X53000Y-24713D01*
X53191Y-24675D01*
X53353Y-24567D01*
X53461Y-24405D01*
X53500Y-24213D01*
X53538Y-24405D01*
X53646Y-24567D01*
X53808Y-24675D01*
X54000Y-24713D01*
X54191Y-24675D01*
X54353Y-24567D01*
X54461Y-24405D01*
X54500Y-24213D01*
X54538Y-24405D01*
X54646Y-24567D01*
X54808Y-24675D01*
X55000Y-24713D01*
X55191Y-24675D01*
X55353Y-24567D01*
X55461Y-24405D01*
X55500Y-24213D01*
X55538Y-24405D01*
X55646Y-24567D01*
X55808Y-24675D01*
X56000Y-24713D01*
X56191Y-24675D01*
X56353Y-24567D01*
X56461Y-24405D01*
X56500Y-24213D01*
X56500Y-26050D01*
X55679Y-26050D01*
X55678Y-26047D01*
X55453Y-25822D01*
X55159Y-25700D01*
X54841Y-25699D01*
X54547Y-25821D01*
X54322Y-26046D01*
X54200Y-26340D01*
X54199Y-26658D01*
X54321Y-26952D01*
X54546Y-27177D01*
X54840Y-27299D01*
X55158Y-27300D01*
X55452Y-27178D01*
X55677Y-26953D01*
X55679Y-26950D01*
X56603Y-26950D01*
X56651Y-27065D01*
X56932Y-27347D01*
X57050Y-27395D01*
X57050Y-27603D01*
X56934Y-27651D01*
X56652Y-27932D01*
X56500Y-28300D01*
X56499Y-28698D01*
X56651Y-29065D01*
X56932Y-29347D01*
X57300Y-29499D01*
X57698Y-29500D01*
X58065Y-29348D01*
X58347Y-29067D01*
X58499Y-28699D01*
X58500Y-28500D01*
X58500Y-31963D01*
X58413Y-32050D01*
X58396Y-32050D01*
X58348Y-31934D01*
X58067Y-31652D01*
X57699Y-31500D01*
X57301Y-31499D01*
X56934Y-31651D01*
X56652Y-31932D01*
X56500Y-32300D01*
X56499Y-32698D01*
X56651Y-33065D01*
X56932Y-33347D01*
X57050Y-33395D01*
X57050Y-33603D01*
X56934Y-33651D01*
X56652Y-33932D01*
X56500Y-34300D01*
X56499Y-34698D01*
X56651Y-35065D01*
X56932Y-35347D01*
X57300Y-35499D01*
X57698Y-35500D01*
X58065Y-35348D01*
X58347Y-35067D01*
X58499Y-34699D01*
X58500Y-34301D01*
X58348Y-33934D01*
X58067Y-33652D01*
X57950Y-33604D01*
X57950Y-33396D01*
X58065Y-33348D01*
X58347Y-33067D01*
X58395Y-32950D01*
X58600Y-32950D01*
X59258Y-32950D01*
X59230Y-32977D01*
X59200Y-33051D01*
X59199Y-33130D01*
X59200Y-33366D01*
X59250Y-33416D01*
X59675Y-33416D01*
X59725Y-33416D01*
X59775Y-33416D01*
X59825Y-33416D01*
X60250Y-33416D01*
X60300Y-33366D01*
X60300Y-33130D01*
X60299Y-33051D01*
X60269Y-32977D01*
X60213Y-32921D01*
X60139Y-32890D01*
X60136Y-32890D01*
X60202Y-32825D01*
X60300Y-32825D01*
X60424Y-32800D01*
X60424Y-32800D01*
X60529Y-32729D01*
X61009Y-32250D01*
X61121Y-32250D01*
X61183Y-32311D01*
X61219Y-32327D01*
X61211Y-32330D01*
X61155Y-32386D01*
X61124Y-32460D01*
X61125Y-32600D01*
X61175Y-32650D01*
X61525Y-32650D01*
X61575Y-32650D01*
X61625Y-32650D01*
X61675Y-32650D01*
X62025Y-32650D01*
X62075Y-32600D01*
X62075Y-32460D01*
X62044Y-32386D01*
X61988Y-32330D01*
X61980Y-32327D01*
X62016Y-32312D01*
X62086Y-32241D01*
X62124Y-32149D01*
X62125Y-32050D01*
X62125Y-31700D01*
X62087Y-31608D01*
X62016Y-31538D01*
X61980Y-31522D01*
X61988Y-31519D01*
X62044Y-31463D01*
X62075Y-31389D01*
X62075Y-31250D01*
X62025Y-31200D01*
X61675Y-31200D01*
X61625Y-31200D01*
X61575Y-31200D01*
X61525Y-31200D01*
X61175Y-31200D01*
X61125Y-31250D01*
X61124Y-31389D01*
X61155Y-31463D01*
X61211Y-31519D01*
X61219Y-31522D01*
X61183Y-31537D01*
X61121Y-31600D01*
X60875Y-31600D01*
X60874Y-31600D01*
X60850Y-31604D01*
X60750Y-31624D01*
X60645Y-31695D01*
X60645Y-31695D01*
X60184Y-32156D01*
X60061Y-32034D01*
X60051Y-32029D01*
X60061Y-32025D01*
X60215Y-31870D01*
X60299Y-31668D01*
X60300Y-31450D01*
X60216Y-31247D01*
X60200Y-31231D01*
X60200Y-30750D01*
X61121Y-30750D01*
X61183Y-30811D01*
X61219Y-30827D01*
X61211Y-30830D01*
X61155Y-30886D01*
X61124Y-30960D01*
X61125Y-31100D01*
X61175Y-31150D01*
X61525Y-31150D01*
X61575Y-31150D01*
X61625Y-31150D01*
X61675Y-31150D01*
X62025Y-31150D01*
X62075Y-31100D01*
X62075Y-30960D01*
X62044Y-30886D01*
X61988Y-30830D01*
X61980Y-30827D01*
X62016Y-30812D01*
X62086Y-30741D01*
X62124Y-30649D01*
X62125Y-30550D01*
X62125Y-30200D01*
X62087Y-30108D01*
X62016Y-30038D01*
X61924Y-30000D01*
X61825Y-29999D01*
X61314Y-29999D01*
X61388Y-29969D01*
X61444Y-29913D01*
X61475Y-29839D01*
X61475Y-29700D01*
X61425Y-29650D01*
X61025Y-29650D01*
X61025Y-29950D01*
X61075Y-30000D01*
X61235Y-30000D01*
X61275Y-29999D01*
X61183Y-30037D01*
X61121Y-30100D01*
X60975Y-30100D01*
X60975Y-29950D01*
X60975Y-29650D01*
X60575Y-29650D01*
X60525Y-29700D01*
X60524Y-29839D01*
X60555Y-29913D01*
X60611Y-29969D01*
X60685Y-29999D01*
X60764Y-30000D01*
X60925Y-30000D01*
X60975Y-29950D01*
X60975Y-30100D01*
X60200Y-30100D01*
X60200Y-29404D01*
X60224Y-29344D01*
X60225Y-29234D01*
X60384Y-29075D01*
X60474Y-29075D01*
X60474Y-29099D01*
X60512Y-29191D01*
X60583Y-29261D01*
X60619Y-29277D01*
X60611Y-29280D01*
X60555Y-29336D01*
X60524Y-29410D01*
X60525Y-29550D01*
X60575Y-29600D01*
X60925Y-29600D01*
X60975Y-29600D01*
X61025Y-29600D01*
X61075Y-29600D01*
X61425Y-29600D01*
X61475Y-29550D01*
X61475Y-29410D01*
X61444Y-29336D01*
X61388Y-29280D01*
X61380Y-29277D01*
X61416Y-29262D01*
X61486Y-29191D01*
X61524Y-29099D01*
X61525Y-29000D01*
X61525Y-28650D01*
X61487Y-28558D01*
X61416Y-28488D01*
X61324Y-28450D01*
X61225Y-28449D01*
X60999Y-28449D01*
X60999Y-28449D01*
X60875Y-28425D01*
X60250Y-28425D01*
X60125Y-28449D01*
X60083Y-28477D01*
X60020Y-28520D01*
X60020Y-28520D01*
X59765Y-28775D01*
X59655Y-28774D01*
X59481Y-28847D01*
X59400Y-28928D01*
X59400Y-26886D01*
X59561Y-26725D01*
X60064Y-26725D01*
X60125Y-26700D01*
X60300Y-26700D01*
X60472Y-26665D01*
X60618Y-26568D01*
X60786Y-26400D01*
X63363Y-26400D01*
X63700Y-26736D01*
X63700Y-26795D01*
X63675Y-26855D01*
X63674Y-27044D01*
X63747Y-27218D01*
X63880Y-27352D01*
X64055Y-27424D01*
X64244Y-27425D01*
X64418Y-27352D01*
X64552Y-27219D01*
X64624Y-27044D01*
X64625Y-26855D01*
X64625Y-28489D01*
X64586Y-28505D01*
X64530Y-28561D01*
X64500Y-28635D01*
X64500Y-28635D01*
X64469Y-28561D01*
X64413Y-28505D01*
X64356Y-28481D01*
X64355Y-28479D01*
X64355Y-28479D01*
X64301Y-28398D01*
X64301Y-28398D01*
X64024Y-28121D01*
X64025Y-28025D01*
X63968Y-27887D01*
X63862Y-27782D01*
X63724Y-27725D01*
X63575Y-27724D01*
X63437Y-27781D01*
X63400Y-27819D01*
X63400Y-27360D01*
X63418Y-27352D01*
X63552Y-27219D01*
X63624Y-27044D01*
X63625Y-26855D01*
X63552Y-26681D01*
X63419Y-26547D01*
X63244Y-26475D01*
X63055Y-26474D01*
X62881Y-26547D01*
X62747Y-26680D01*
X62675Y-26855D01*
X62674Y-27044D01*
X62747Y-27218D01*
X62880Y-27352D01*
X62900Y-27360D01*
X62900Y-27446D01*
X62587Y-27134D01*
X62624Y-27044D01*
X62625Y-26855D01*
X62552Y-26681D01*
X62419Y-26547D01*
X62244Y-26475D01*
X62055Y-26474D01*
X61881Y-26547D01*
X61747Y-26680D01*
X61675Y-26855D01*
X61674Y-27044D01*
X61747Y-27218D01*
X61880Y-27352D01*
X62055Y-27424D01*
X62171Y-27425D01*
X62650Y-27903D01*
X62650Y-28400D01*
X62669Y-28495D01*
X62723Y-28576D01*
X63250Y-29103D01*
X63250Y-31296D01*
X63223Y-31323D01*
X63169Y-31404D01*
X63150Y-31500D01*
X63150Y-31996D01*
X62623Y-32523D01*
X62569Y-32604D01*
X62550Y-32700D01*
X62550Y-33300D01*
X62550Y-33896D01*
X62423Y-34023D01*
X62369Y-34104D01*
X62350Y-34200D01*
X62350Y-36500D01*
X62350Y-38596D01*
X62075Y-38871D01*
X62075Y-32889D01*
X62075Y-32750D01*
X62025Y-32700D01*
X61625Y-32700D01*
X61625Y-33000D01*
X61675Y-33050D01*
X61835Y-33050D01*
X61914Y-33049D01*
X61988Y-33019D01*
X62044Y-32963D01*
X62075Y-32889D01*
X62075Y-38871D01*
X62023Y-38923D01*
X61969Y-39004D01*
X61950Y-39100D01*
X61950Y-41041D01*
X61841Y-41150D01*
X61575Y-41150D01*
X61575Y-33000D01*
X61575Y-32700D01*
X61175Y-32700D01*
X61125Y-32750D01*
X61124Y-32889D01*
X61155Y-32963D01*
X61211Y-33019D01*
X61285Y-33049D01*
X61364Y-33050D01*
X61525Y-33050D01*
X61575Y-33000D01*
X61575Y-41150D01*
X61500Y-41150D01*
X54283Y-41150D01*
X52850Y-39716D01*
X52850Y-38300D01*
X52849Y-38299D01*
X52850Y-38299D01*
X52846Y-38280D01*
X52830Y-38204D01*
X52830Y-38204D01*
X52776Y-38123D01*
X52776Y-38123D01*
X51976Y-37323D01*
X51895Y-37269D01*
X51800Y-37250D01*
X51525Y-37250D01*
X51525Y-36939D01*
X51525Y-36800D01*
X51475Y-36750D01*
X51075Y-36750D01*
X51075Y-37050D01*
X51125Y-37100D01*
X51285Y-37100D01*
X51364Y-37099D01*
X51438Y-37069D01*
X51494Y-37013D01*
X51525Y-36939D01*
X51525Y-37250D01*
X50803Y-37250D01*
X50576Y-37023D01*
X50553Y-37007D01*
X50544Y-36986D01*
X50507Y-36950D01*
X50544Y-36913D01*
X50574Y-36839D01*
X50574Y-36939D01*
X50605Y-37013D01*
X50661Y-37069D01*
X50735Y-37099D01*
X50814Y-37100D01*
X50975Y-37100D01*
X51025Y-37050D01*
X51025Y-36750D01*
X50625Y-36750D01*
X50575Y-36799D01*
X50575Y-36775D01*
X50525Y-36725D01*
X50225Y-36725D01*
X50175Y-36725D01*
X50125Y-36725D01*
X50075Y-36725D01*
X49775Y-36725D01*
X49725Y-36775D01*
X49724Y-36839D01*
X49755Y-36913D01*
X49792Y-36950D01*
X49755Y-36986D01*
X49725Y-37060D01*
X49724Y-37139D01*
X49724Y-37339D01*
X49755Y-37413D01*
X49792Y-37450D01*
X49755Y-37486D01*
X49725Y-37560D01*
X49724Y-37639D01*
X49724Y-37839D01*
X49755Y-37913D01*
X49792Y-37950D01*
X49755Y-37986D01*
X49725Y-38060D01*
X49724Y-38139D01*
X49724Y-38339D01*
X49755Y-38413D01*
X49792Y-38450D01*
X49755Y-38486D01*
X49725Y-38560D01*
X49724Y-38639D01*
X49724Y-38839D01*
X49755Y-38913D01*
X49792Y-38950D01*
X49755Y-38986D01*
X49725Y-39060D01*
X49724Y-39139D01*
X49724Y-39339D01*
X49755Y-39413D01*
X49792Y-39450D01*
X49755Y-39486D01*
X49725Y-39560D01*
X49724Y-39639D01*
X49724Y-39839D01*
X49755Y-39913D01*
X49811Y-39969D01*
X49885Y-39999D01*
X49964Y-40000D01*
X50414Y-40000D01*
X50488Y-39969D01*
X50544Y-39913D01*
X50574Y-39839D01*
X50575Y-39760D01*
X50575Y-39660D01*
X50610Y-39674D01*
X50689Y-39675D01*
X51039Y-39675D01*
X51113Y-39644D01*
X51169Y-39588D01*
X51199Y-39514D01*
X51200Y-39475D01*
X51200Y-39514D01*
X51230Y-39588D01*
X51286Y-39644D01*
X51360Y-39675D01*
X51500Y-39675D01*
X51550Y-39625D01*
X51550Y-39275D01*
X51550Y-39225D01*
X51550Y-39175D01*
X51600Y-39175D01*
X51600Y-39225D01*
X51600Y-39275D01*
X51600Y-39625D01*
X51650Y-39675D01*
X51789Y-39675D01*
X51863Y-39644D01*
X51919Y-39588D01*
X51949Y-39514D01*
X51950Y-39475D01*
X51950Y-40000D01*
X51969Y-40095D01*
X52023Y-40176D01*
X53596Y-41750D01*
X53280Y-41750D01*
X53212Y-41682D01*
X53074Y-41625D01*
X52925Y-41624D01*
X52787Y-41681D01*
X52682Y-41787D01*
X52625Y-41925D01*
X52624Y-42074D01*
X52681Y-42212D01*
X52787Y-42317D01*
X52806Y-42325D01*
X52646Y-42432D01*
X52538Y-42594D01*
X52500Y-42786D01*
X52461Y-42594D01*
X52353Y-42432D01*
X52250Y-42363D01*
X52250Y-42350D01*
X52314Y-42350D01*
X52388Y-42319D01*
X52444Y-42263D01*
X52474Y-42189D01*
X52475Y-42110D01*
X52475Y-41760D01*
X52444Y-41686D01*
X52388Y-41630D01*
X52314Y-41600D01*
X52275Y-41600D01*
X52314Y-41599D01*
X52388Y-41569D01*
X52444Y-41513D01*
X52475Y-41439D01*
X52475Y-41010D01*
X52444Y-40936D01*
X52388Y-40880D01*
X52314Y-40850D01*
X52235Y-40849D01*
X52075Y-40850D01*
X52025Y-40900D01*
X52025Y-41200D01*
X52425Y-41200D01*
X52475Y-41150D01*
X52475Y-41010D01*
X52475Y-41439D01*
X52475Y-41300D01*
X52425Y-41250D01*
X52075Y-41250D01*
X52025Y-41250D01*
X51975Y-41250D01*
X51975Y-41200D01*
X51975Y-40900D01*
X51925Y-40850D01*
X51764Y-40849D01*
X51685Y-40850D01*
X51611Y-40880D01*
X51555Y-40936D01*
X51524Y-41010D01*
X51525Y-41150D01*
X51575Y-41200D01*
X51975Y-41200D01*
X51975Y-41250D01*
X51925Y-41250D01*
X51575Y-41250D01*
X51525Y-41300D01*
X51524Y-41439D01*
X51555Y-41513D01*
X51611Y-41569D01*
X51685Y-41599D01*
X51685Y-41599D01*
X51611Y-41630D01*
X51555Y-41686D01*
X51548Y-41704D01*
X51495Y-41669D01*
X51400Y-41650D01*
X51250Y-41650D01*
X51250Y-41585D01*
X51219Y-41511D01*
X51163Y-41455D01*
X51089Y-41425D01*
X51010Y-41424D01*
X50660Y-41424D01*
X50586Y-41455D01*
X50530Y-41511D01*
X50500Y-41585D01*
X50500Y-41585D01*
X50469Y-41511D01*
X50413Y-41455D01*
X50339Y-41425D01*
X50260Y-41424D01*
X49910Y-41424D01*
X49836Y-41455D01*
X49780Y-41511D01*
X49750Y-41585D01*
X49749Y-41664D01*
X49749Y-42214D01*
X49780Y-42288D01*
X49836Y-42344D01*
X49875Y-42360D01*
X49875Y-42571D01*
X49696Y-42750D01*
X49492Y-42750D01*
X49461Y-42594D01*
X49450Y-42577D01*
X49450Y-42490D01*
X49415Y-42317D01*
X49318Y-42171D01*
X49041Y-41894D01*
X49134Y-41895D01*
X49272Y-41838D01*
X49377Y-41732D01*
X49434Y-41594D01*
X49435Y-41445D01*
X49385Y-41324D01*
X49385Y-36704D01*
X49564Y-36525D01*
X49739Y-36525D01*
X49724Y-36560D01*
X49725Y-36625D01*
X49775Y-36675D01*
X50075Y-36675D01*
X50125Y-36675D01*
X50175Y-36675D01*
X50225Y-36675D01*
X50525Y-36675D01*
X50574Y-36625D01*
X50575Y-36650D01*
X50625Y-36700D01*
X50975Y-36700D01*
X51025Y-36700D01*
X51075Y-36700D01*
X51125Y-36700D01*
X51475Y-36700D01*
X51525Y-36650D01*
X51525Y-36510D01*
X51494Y-36436D01*
X51438Y-36380D01*
X51364Y-36350D01*
X51364Y-36350D01*
X51438Y-36319D01*
X51494Y-36263D01*
X51510Y-36225D01*
X52721Y-36225D01*
X54133Y-37636D01*
X54214Y-37690D01*
X54310Y-37710D01*
X60769Y-37710D01*
X60837Y-37777D01*
X60975Y-37834D01*
X61124Y-37835D01*
X61262Y-37778D01*
X61367Y-37672D01*
X61424Y-37534D01*
X61425Y-37385D01*
X61368Y-37247D01*
X61262Y-37142D01*
X61124Y-37085D01*
X60975Y-37084D01*
X60837Y-37141D01*
X60769Y-37210D01*
X60300Y-37210D01*
X60300Y-33751D01*
X60300Y-33516D01*
X60250Y-33466D01*
X59775Y-33466D01*
X59775Y-33941D01*
X59825Y-33991D01*
X60139Y-33991D01*
X60213Y-33960D01*
X60269Y-33904D01*
X60299Y-33830D01*
X60300Y-33751D01*
X60300Y-37210D01*
X59725Y-37210D01*
X59725Y-33941D01*
X59725Y-33466D01*
X59250Y-33466D01*
X59200Y-33516D01*
X59199Y-33751D01*
X59200Y-33830D01*
X59230Y-33904D01*
X59286Y-33960D01*
X59360Y-33991D01*
X59675Y-33991D01*
X59725Y-33941D01*
X59725Y-37210D01*
X55700Y-37210D01*
X55700Y-32363D01*
X55595Y-32105D01*
X55591Y-32100D01*
X55486Y-32048D01*
X55451Y-32084D01*
X55451Y-32013D01*
X55399Y-31908D01*
X55142Y-31800D01*
X54863Y-31799D01*
X54605Y-31904D01*
X54600Y-31908D01*
X54548Y-32013D01*
X55000Y-32464D01*
X55451Y-32013D01*
X55451Y-32084D01*
X55035Y-32500D01*
X55486Y-32951D01*
X55591Y-32899D01*
X55699Y-32642D01*
X55700Y-32363D01*
X55700Y-37210D01*
X55451Y-37210D01*
X55451Y-32986D01*
X55000Y-32535D01*
X54964Y-32570D01*
X54964Y-32500D01*
X54513Y-32048D01*
X54408Y-32100D01*
X54300Y-32357D01*
X54299Y-32636D01*
X54404Y-32894D01*
X54408Y-32899D01*
X54513Y-32951D01*
X54964Y-32500D01*
X54964Y-32570D01*
X54548Y-32986D01*
X54600Y-33091D01*
X54857Y-33199D01*
X55136Y-33200D01*
X55394Y-33095D01*
X55399Y-33091D01*
X55451Y-32986D01*
X55451Y-37210D01*
X54413Y-37210D01*
X53001Y-35798D01*
X52920Y-35744D01*
X52825Y-35725D01*
X51510Y-35725D01*
X51494Y-35686D01*
X51438Y-35630D01*
X51364Y-35600D01*
X51285Y-35599D01*
X50735Y-35599D01*
X50661Y-35630D01*
X50605Y-35686D01*
X50586Y-35732D01*
X50529Y-35744D01*
X50448Y-35798D01*
X50400Y-35846D01*
X50400Y-35599D01*
X50485Y-35634D01*
X50634Y-35635D01*
X50772Y-35578D01*
X50877Y-35472D01*
X50934Y-35334D01*
X50935Y-35185D01*
X50878Y-35047D01*
X50780Y-34949D01*
X50780Y-31050D01*
X50760Y-30954D01*
X50706Y-30873D01*
X46650Y-26816D01*
X46650Y-24636D01*
X46753Y-24567D01*
X46861Y-24405D01*
X46900Y-24213D01*
X46938Y-24405D01*
X47046Y-24567D01*
X47208Y-24675D01*
X47400Y-24713D01*
X47591Y-24675D01*
X47753Y-24567D01*
X47861Y-24405D01*
X47900Y-24213D01*
X47900Y-23786D01*
X47861Y-23594D01*
X47753Y-23432D01*
X47591Y-23324D01*
X47400Y-23286D01*
X47208Y-23324D01*
X47046Y-23432D01*
X46938Y-23594D01*
X46900Y-23786D01*
X46861Y-23594D01*
X46753Y-23432D01*
X46591Y-23324D01*
X46400Y-23286D01*
X46208Y-23324D01*
X46046Y-23432D01*
X45938Y-23594D01*
X45900Y-23786D01*
X45861Y-23594D01*
X45753Y-23432D01*
X45591Y-23324D01*
X45400Y-23286D01*
X45208Y-23324D01*
X45046Y-23432D01*
X44938Y-23594D01*
X44900Y-23786D01*
X44861Y-23594D01*
X44753Y-23432D01*
X44591Y-23324D01*
X44400Y-23286D01*
X44208Y-23324D01*
X44046Y-23432D01*
X43938Y-23594D01*
X43900Y-23786D01*
X43861Y-23594D01*
X43753Y-23432D01*
X43591Y-23324D01*
X43400Y-23286D01*
X43208Y-23324D01*
X43046Y-23432D01*
X42938Y-23594D01*
X42900Y-23786D01*
X42861Y-23594D01*
X42753Y-23432D01*
X42591Y-23324D01*
X42400Y-23286D01*
X42208Y-23324D01*
X42046Y-23432D01*
X41938Y-23594D01*
X41900Y-23786D01*
X41861Y-23594D01*
X41753Y-23432D01*
X41591Y-23324D01*
X41400Y-23286D01*
X41208Y-23324D01*
X41046Y-23432D01*
X40938Y-23594D01*
X40900Y-23786D01*
X40861Y-23594D01*
X40753Y-23432D01*
X40591Y-23324D01*
X40400Y-23286D01*
X40208Y-23324D01*
X40046Y-23432D01*
X39938Y-23594D01*
X39900Y-23786D01*
X39900Y-24213D01*
X39938Y-24405D01*
X40046Y-24567D01*
X40208Y-24675D01*
X40400Y-24713D01*
X40591Y-24675D01*
X40753Y-24567D01*
X40861Y-24405D01*
X40900Y-24213D01*
X40938Y-24405D01*
X41046Y-24567D01*
X41208Y-24675D01*
X41400Y-24713D01*
X41591Y-24675D01*
X41753Y-24567D01*
X41861Y-24405D01*
X41900Y-24213D01*
X41938Y-24405D01*
X42046Y-24567D01*
X42208Y-24675D01*
X42400Y-24713D01*
X42591Y-24675D01*
X42753Y-24567D01*
X42861Y-24405D01*
X42900Y-24213D01*
X42938Y-24405D01*
X43046Y-24567D01*
X43208Y-24675D01*
X43400Y-24713D01*
X43591Y-24675D01*
X43753Y-24567D01*
X43861Y-24405D01*
X43900Y-24213D01*
X43938Y-24405D01*
X44046Y-24567D01*
X44208Y-24675D01*
X44400Y-24713D01*
X44591Y-24675D01*
X44753Y-24567D01*
X44861Y-24405D01*
X44900Y-24213D01*
X44938Y-24405D01*
X45046Y-24567D01*
X45208Y-24675D01*
X45400Y-24713D01*
X45591Y-24675D01*
X45753Y-24567D01*
X45861Y-24405D01*
X45900Y-24213D01*
X45938Y-24405D01*
X46046Y-24567D01*
X46150Y-24636D01*
X46150Y-26920D01*
X46169Y-27015D01*
X46223Y-27096D01*
X50280Y-31153D01*
X50280Y-35009D01*
X50242Y-35047D01*
X50200Y-35147D01*
X50126Y-35073D01*
X50045Y-35019D01*
X50000Y-35009D01*
X50000Y-34935D01*
X49969Y-34861D01*
X49913Y-34805D01*
X49839Y-34775D01*
X49760Y-34774D01*
X49410Y-34774D01*
X49336Y-34805D01*
X49280Y-34861D01*
X49250Y-34935D01*
X49250Y-34935D01*
X49219Y-34861D01*
X49163Y-34805D01*
X49089Y-34775D01*
X49010Y-34774D01*
X48660Y-34774D01*
X48586Y-34805D01*
X48530Y-34861D01*
X48500Y-34935D01*
X48499Y-35014D01*
X48499Y-35564D01*
X48530Y-35638D01*
X48586Y-35694D01*
X48625Y-35710D01*
X48625Y-36121D01*
X48575Y-36171D01*
X48575Y-36060D01*
X48544Y-35986D01*
X48488Y-35930D01*
X48414Y-35900D01*
X48335Y-35899D01*
X47885Y-35899D01*
X47811Y-35930D01*
X47767Y-35975D01*
X47560Y-35975D01*
X47544Y-35936D01*
X47488Y-35880D01*
X47414Y-35850D01*
X47335Y-35849D01*
X46785Y-35849D01*
X46711Y-35880D01*
X46655Y-35936D01*
X46625Y-36010D01*
X46624Y-36089D01*
X46624Y-36439D01*
X46655Y-36513D01*
X46711Y-36569D01*
X46785Y-36599D01*
X46785Y-36599D01*
X46711Y-36630D01*
X46655Y-36686D01*
X46625Y-36760D01*
X46624Y-36839D01*
X46624Y-37189D01*
X46655Y-37263D01*
X46667Y-37274D01*
X46655Y-37286D01*
X46625Y-37360D01*
X46624Y-37439D01*
X46624Y-37789D01*
X46655Y-37863D01*
X46711Y-37919D01*
X46785Y-37949D01*
X46785Y-37949D01*
X46711Y-37980D01*
X46655Y-38036D01*
X46625Y-38110D01*
X46624Y-38189D01*
X46624Y-38539D01*
X46655Y-38613D01*
X46667Y-38624D01*
X46655Y-38636D01*
X46625Y-38710D01*
X46624Y-38789D01*
X46624Y-39139D01*
X46655Y-39213D01*
X46711Y-39269D01*
X46785Y-39299D01*
X46824Y-39300D01*
X46785Y-39300D01*
X46711Y-39330D01*
X46655Y-39386D01*
X46624Y-39460D01*
X46625Y-39600D01*
X46675Y-39650D01*
X47025Y-39650D01*
X47075Y-39650D01*
X47125Y-39650D01*
X47175Y-39650D01*
X47525Y-39650D01*
X47575Y-39600D01*
X47575Y-39460D01*
X47544Y-39386D01*
X47488Y-39330D01*
X47414Y-39300D01*
X47414Y-39300D01*
X47488Y-39269D01*
X47544Y-39213D01*
X47568Y-39156D01*
X47570Y-39155D01*
X47651Y-39101D01*
X47747Y-39006D01*
X47725Y-39060D01*
X47724Y-39139D01*
X47724Y-39339D01*
X47755Y-39413D01*
X47792Y-39450D01*
X47755Y-39486D01*
X47725Y-39560D01*
X47724Y-39639D01*
X47724Y-39839D01*
X47739Y-39874D01*
X47610Y-39874D01*
X47575Y-39889D01*
X47575Y-39750D01*
X47525Y-39700D01*
X47175Y-39700D01*
X47125Y-39700D01*
X47075Y-39700D01*
X47025Y-39700D01*
X46675Y-39700D01*
X46625Y-39750D01*
X46624Y-39889D01*
X46655Y-39963D01*
X46707Y-40015D01*
X46700Y-40035D01*
X46699Y-40114D01*
X46700Y-40275D01*
X46750Y-40325D01*
X47050Y-40325D01*
X47050Y-40050D01*
X47075Y-40050D01*
X47100Y-40050D01*
X47100Y-40275D01*
X47100Y-40325D01*
X47100Y-40375D01*
X47075Y-40375D01*
X47050Y-40375D01*
X47000Y-40375D01*
X46750Y-40375D01*
X46700Y-40425D01*
X46699Y-40585D01*
X46700Y-40664D01*
X46727Y-40730D01*
X46656Y-40730D01*
X43680Y-37753D01*
X43680Y-30660D01*
X43679Y-30659D01*
X43645Y-30487D01*
X43645Y-30487D01*
X43548Y-30341D01*
X43548Y-30341D01*
X40506Y-27300D01*
X40559Y-27300D01*
X40669Y-27254D01*
X40754Y-27170D01*
X40799Y-27059D01*
X40800Y-26940D01*
X40800Y-25940D01*
X40754Y-25830D01*
X40670Y-25745D01*
X40559Y-25700D01*
X40440Y-25699D01*
X39440Y-25699D01*
X39330Y-25745D01*
X39245Y-25829D01*
X39200Y-25940D01*
X39199Y-26050D01*
X39045Y-26050D01*
X38857Y-25594D01*
X38407Y-25144D01*
X37977Y-24965D01*
X37977Y-23819D01*
X37834Y-23459D01*
X37818Y-23436D01*
X37685Y-23350D01*
X37649Y-23385D01*
X37649Y-23314D01*
X37563Y-23181D01*
X37207Y-23027D01*
X36819Y-23022D01*
X36459Y-23165D01*
X36436Y-23181D01*
X36350Y-23314D01*
X37000Y-23964D01*
X37649Y-23314D01*
X37649Y-23385D01*
X37035Y-24000D01*
X37685Y-24649D01*
X37818Y-24563D01*
X37972Y-24207D01*
X37977Y-23819D01*
X37977Y-24965D01*
X37819Y-24900D01*
X37375Y-24899D01*
X37540Y-24834D01*
X37563Y-24818D01*
X37649Y-24685D01*
X37000Y-24035D01*
X36964Y-24070D01*
X36964Y-24000D01*
X36314Y-23350D01*
X36181Y-23436D01*
X36027Y-23792D01*
X36022Y-24180D01*
X36165Y-24540D01*
X36181Y-24563D01*
X36314Y-24649D01*
X36964Y-24000D01*
X36964Y-24070D01*
X36350Y-24685D01*
X36436Y-24818D01*
X36792Y-24972D01*
X37000Y-24975D01*
X36594Y-25142D01*
X36144Y-25592D01*
X36114Y-25664D01*
X35959Y-25600D01*
X35741Y-25599D01*
X35041Y-25599D01*
X34838Y-25683D01*
X34684Y-25838D01*
X34600Y-26040D01*
X34599Y-26258D01*
X34599Y-26958D01*
X34683Y-27161D01*
X34838Y-27315D01*
X35040Y-27399D01*
X35258Y-27400D01*
X35958Y-27400D01*
X36114Y-27335D01*
X36142Y-27405D01*
X36237Y-27499D01*
X36144Y-27592D01*
X35900Y-28180D01*
X35899Y-28816D01*
X36142Y-29405D01*
X36592Y-29855D01*
X37180Y-30099D01*
X37816Y-30100D01*
X38405Y-29857D01*
X38855Y-29407D01*
X39099Y-28819D01*
X39100Y-28183D01*
X38857Y-27594D01*
X38762Y-27500D01*
X38855Y-27407D01*
X39045Y-26950D01*
X39199Y-26950D01*
X39199Y-27059D01*
X39245Y-27169D01*
X39329Y-27254D01*
X39440Y-27299D01*
X39550Y-27300D01*
X39550Y-27430D01*
X39584Y-27602D01*
X39681Y-27748D01*
X42780Y-30846D01*
X42780Y-37940D01*
X42814Y-38112D01*
X42911Y-38258D01*
X46151Y-41498D01*
X46151Y-41498D01*
X46297Y-41595D01*
X46297Y-41595D01*
X46469Y-41629D01*
X46470Y-41630D01*
X47503Y-41630D01*
X48252Y-42378D01*
X48168Y-42328D01*
X48102Y-42310D01*
X48025Y-42350D01*
X48025Y-42925D01*
X48025Y-42975D01*
X48025Y-43025D01*
X48025Y-43075D01*
X48025Y-43649D01*
X48102Y-43689D01*
X48168Y-43671D01*
X48335Y-43571D01*
X48452Y-43414D01*
X48500Y-43225D01*
X48500Y-43213D01*
X48538Y-43405D01*
X48646Y-43567D01*
X48808Y-43675D01*
X49000Y-43713D01*
X49191Y-43675D01*
X49353Y-43567D01*
X49461Y-43405D01*
X49492Y-43250D01*
X49800Y-43250D01*
X49895Y-43230D01*
X49976Y-43176D01*
X50301Y-42851D01*
X50355Y-42770D01*
X50355Y-42770D01*
X50375Y-42675D01*
X50375Y-42360D01*
X50413Y-42344D01*
X50469Y-42288D01*
X50499Y-42214D01*
X50499Y-42214D01*
X50530Y-42288D01*
X50586Y-42344D01*
X50660Y-42374D01*
X50732Y-42375D01*
X50646Y-42432D01*
X50538Y-42594D01*
X50500Y-42786D01*
X50500Y-43213D01*
X50538Y-43405D01*
X50646Y-43567D01*
X50808Y-43675D01*
X51000Y-43713D01*
X51191Y-43675D01*
X51353Y-43567D01*
X51461Y-43405D01*
X51500Y-43213D01*
X51538Y-43405D01*
X51646Y-43567D01*
X51808Y-43675D01*
X52000Y-43713D01*
X52191Y-43675D01*
X52353Y-43567D01*
X52461Y-43405D01*
X52500Y-43213D01*
X52538Y-43405D01*
X52646Y-43567D01*
X52808Y-43675D01*
X53000Y-43713D01*
X53191Y-43675D01*
X53353Y-43567D01*
X53461Y-43405D01*
X53500Y-43213D01*
X53538Y-43405D01*
X53646Y-43567D01*
X53808Y-43675D01*
X54000Y-43713D01*
X54191Y-43675D01*
X54353Y-43567D01*
X54461Y-43405D01*
X54500Y-43213D01*
X54538Y-43405D01*
X54646Y-43567D01*
X54808Y-43675D01*
X55000Y-43713D01*
X55191Y-43675D01*
X55353Y-43567D01*
X55461Y-43405D01*
X55500Y-43213D01*
X55538Y-43405D01*
X55646Y-43567D01*
X55808Y-43675D01*
X56000Y-43713D01*
X56191Y-43675D01*
X56353Y-43567D01*
X56461Y-43405D01*
X56500Y-43213D01*
X56538Y-43405D01*
X56646Y-43567D01*
X56808Y-43675D01*
X57000Y-43713D01*
X57191Y-43675D01*
X57353Y-43567D01*
X57461Y-43405D01*
X57500Y-43213D01*
X57538Y-43405D01*
X57646Y-43567D01*
X57808Y-43675D01*
X58000Y-43713D01*
X58191Y-43675D01*
X58353Y-43567D01*
X58461Y-43405D01*
X58500Y-43213D01*
X58500Y-42786D01*
X58461Y-42594D01*
X58353Y-42432D01*
X58191Y-42324D01*
X58000Y-42286D01*
X57808Y-42324D01*
X57646Y-42432D01*
X57538Y-42594D01*
X57500Y-42786D01*
X57461Y-42594D01*
X57353Y-42432D01*
X57191Y-42324D01*
X57000Y-42286D01*
X56808Y-42324D01*
X56646Y-42432D01*
X56538Y-42594D01*
X56500Y-42786D01*
X56461Y-42594D01*
X56353Y-42432D01*
X56191Y-42324D01*
X56000Y-42286D01*
X55808Y-42324D01*
X55646Y-42432D01*
X55538Y-42594D01*
X55500Y-42786D01*
X55461Y-42594D01*
X55353Y-42432D01*
X55191Y-42324D01*
X55000Y-42286D01*
X54808Y-42324D01*
X54646Y-42432D01*
X54538Y-42594D01*
X54500Y-42786D01*
X54461Y-42594D01*
X54353Y-42432D01*
X54191Y-42324D01*
X54000Y-42286D01*
X53808Y-42324D01*
X53646Y-42432D01*
X53538Y-42594D01*
X53500Y-42786D01*
X53461Y-42594D01*
X53353Y-42432D01*
X53193Y-42325D01*
X53212Y-42318D01*
X53280Y-42250D01*
X68392Y-42250D01*
X68350Y-42314D01*
X69000Y-42964D01*
X69649Y-42314D01*
X69563Y-42181D01*
X69499Y-42153D01*
X69876Y-41776D01*
X69876Y-41776D01*
X69876Y-41776D01*
X69930Y-41695D01*
X69930Y-41695D01*
X69946Y-41619D01*
X69950Y-41600D01*
X69949Y-41600D01*
X69950Y-41600D01*
X69950Y-36800D01*
X69949Y-36799D01*
X69950Y-36799D01*
X69946Y-36780D01*
X69930Y-36704D01*
X69930Y-36704D01*
X69876Y-36623D01*
X69876Y-36623D01*
X69576Y-36323D01*
X69495Y-36269D01*
X69434Y-36256D01*
X69499Y-36099D01*
X69500Y-35900D01*
X69500Y-34900D01*
X69500Y-33900D01*
X69424Y-33717D01*
X69283Y-33576D01*
X69099Y-33500D01*
X68900Y-33499D01*
X68717Y-33575D01*
X68576Y-33716D01*
X68500Y-33900D01*
X68499Y-34099D01*
X68575Y-34282D01*
X68716Y-34423D01*
X68900Y-34499D01*
X69099Y-34500D01*
X69282Y-34424D01*
X69423Y-34283D01*
X69499Y-34099D01*
X69500Y-33900D01*
X69500Y-34900D01*
X69424Y-34717D01*
X69283Y-34576D01*
X69099Y-34500D01*
X68900Y-34499D01*
X68717Y-34575D01*
X68576Y-34716D01*
X68500Y-34900D01*
X68500Y-34901D01*
X68500Y-34900D01*
X68424Y-34717D01*
X68283Y-34576D01*
X68099Y-34500D01*
X67900Y-34499D01*
X67717Y-34575D01*
X67576Y-34716D01*
X67500Y-34900D01*
X67499Y-35099D01*
X67575Y-35282D01*
X67716Y-35423D01*
X67900Y-35499D01*
X68099Y-35500D01*
X68282Y-35424D01*
X68423Y-35283D01*
X68499Y-35099D01*
X68500Y-34900D01*
X68500Y-34901D01*
X68499Y-35099D01*
X68575Y-35282D01*
X68716Y-35423D01*
X68900Y-35499D01*
X69099Y-35500D01*
X69282Y-35424D01*
X69423Y-35283D01*
X69499Y-35099D01*
X69500Y-34900D01*
X69500Y-35900D01*
X69424Y-35717D01*
X69283Y-35576D01*
X69099Y-35500D01*
X68900Y-35499D01*
X68717Y-35575D01*
X68576Y-35716D01*
X68500Y-35900D01*
X68499Y-36099D01*
X68562Y-36250D01*
X68437Y-36250D01*
X68499Y-36099D01*
X68500Y-35900D01*
X68424Y-35717D01*
X68283Y-35576D01*
X68099Y-35500D01*
X67900Y-35499D01*
X67717Y-35575D01*
X67576Y-35716D01*
X67500Y-35900D01*
X67499Y-36046D01*
X67474Y-36021D01*
X67475Y-35925D01*
X67418Y-35787D01*
X67312Y-35682D01*
X67174Y-35625D01*
X67025Y-35624D01*
X66887Y-35681D01*
X66782Y-35787D01*
X66725Y-35925D01*
X66725Y-35971D01*
X66553Y-35800D01*
X66826Y-35526D01*
X66826Y-35526D01*
X66826Y-35526D01*
X66880Y-35445D01*
X66880Y-35445D01*
X66886Y-35416D01*
X66918Y-35402D01*
X67052Y-35269D01*
X67124Y-35094D01*
X67125Y-34905D01*
X67052Y-34731D01*
X67029Y-34708D01*
X67076Y-34676D01*
X67545Y-34208D01*
X67575Y-34282D01*
X67716Y-34423D01*
X67900Y-34499D01*
X68099Y-34500D01*
X68282Y-34424D01*
X68423Y-34283D01*
X68499Y-34099D01*
X68500Y-33900D01*
X68424Y-33717D01*
X68380Y-33673D01*
X68673Y-33380D01*
X68716Y-33423D01*
X68900Y-33499D01*
X69099Y-33500D01*
X69282Y-33424D01*
X69423Y-33283D01*
X69499Y-33099D01*
X69500Y-32900D01*
X69424Y-32717D01*
X69380Y-32673D01*
X69676Y-32376D01*
X69676Y-32376D01*
X69676Y-32376D01*
X69730Y-32295D01*
X69730Y-32295D01*
X69746Y-32219D01*
X69750Y-32200D01*
X69749Y-32200D01*
X69750Y-32200D01*
X69750Y-31903D01*
X69976Y-31676D01*
X69976Y-31676D01*
X69976Y-31676D01*
X70030Y-31595D01*
X70030Y-31595D01*
X70046Y-31519D01*
X70050Y-31500D01*
X70050Y-44260D01*
X69977Y-44260D01*
X69977Y-42819D01*
X69834Y-42459D01*
X69818Y-42436D01*
X69685Y-42350D01*
X69035Y-43000D01*
X69685Y-43649D01*
X69818Y-43563D01*
X69972Y-43207D01*
X69977Y-42819D01*
X69977Y-44260D01*
X69649Y-44260D01*
X69649Y-43685D01*
X69000Y-43035D01*
X68964Y-43070D01*
X68964Y-43000D01*
X68314Y-42350D01*
X68181Y-42436D01*
X68027Y-42792D01*
X68022Y-43180D01*
X68165Y-43540D01*
X68181Y-43563D01*
X68314Y-43649D01*
X68964Y-43000D01*
X68964Y-43070D01*
X68350Y-43685D01*
X68436Y-43818D01*
X68792Y-43972D01*
X69180Y-43977D01*
X69540Y-43834D01*
X69563Y-43818D01*
X69649Y-43685D01*
X69649Y-44260D01*
X67500Y-44260D01*
X67500Y-43213D01*
X67500Y-42786D01*
X67461Y-42594D01*
X67353Y-42432D01*
X67191Y-42324D01*
X67000Y-42286D01*
X66808Y-42324D01*
X66646Y-42432D01*
X66538Y-42594D01*
X66500Y-42786D01*
X66461Y-42594D01*
X66353Y-42432D01*
X66191Y-42324D01*
X66000Y-42286D01*
X65808Y-42324D01*
X65646Y-42432D01*
X65538Y-42594D01*
X65500Y-42786D01*
X65461Y-42594D01*
X65353Y-42432D01*
X65191Y-42324D01*
X65000Y-42286D01*
X64808Y-42324D01*
X64646Y-42432D01*
X64538Y-42594D01*
X64500Y-42786D01*
X64461Y-42594D01*
X64353Y-42432D01*
X64191Y-42324D01*
X64000Y-42286D01*
X63808Y-42324D01*
X63646Y-42432D01*
X63538Y-42594D01*
X63500Y-42786D01*
X63461Y-42594D01*
X63353Y-42432D01*
X63191Y-42324D01*
X63000Y-42286D01*
X62808Y-42324D01*
X62646Y-42432D01*
X62538Y-42594D01*
X62500Y-42786D01*
X62461Y-42594D01*
X62353Y-42432D01*
X62191Y-42324D01*
X62000Y-42286D01*
X61808Y-42324D01*
X61646Y-42432D01*
X61538Y-42594D01*
X61500Y-42786D01*
X61461Y-42594D01*
X61353Y-42432D01*
X61191Y-42324D01*
X61000Y-42286D01*
X60808Y-42324D01*
X60646Y-42432D01*
X60538Y-42594D01*
X60500Y-42786D01*
X60461Y-42594D01*
X60353Y-42432D01*
X60191Y-42324D01*
X60000Y-42286D01*
X59808Y-42324D01*
X59646Y-42432D01*
X59538Y-42594D01*
X59500Y-42786D01*
X59500Y-43213D01*
X59538Y-43405D01*
X59646Y-43567D01*
X59808Y-43675D01*
X60000Y-43713D01*
X60191Y-43675D01*
X60353Y-43567D01*
X60461Y-43405D01*
X60500Y-43213D01*
X60538Y-43405D01*
X60646Y-43567D01*
X60808Y-43675D01*
X61000Y-43713D01*
X61191Y-43675D01*
X61353Y-43567D01*
X61461Y-43405D01*
X61500Y-43213D01*
X61538Y-43405D01*
X61646Y-43567D01*
X61808Y-43675D01*
X62000Y-43713D01*
X62191Y-43675D01*
X62353Y-43567D01*
X62461Y-43405D01*
X62500Y-43213D01*
X62538Y-43405D01*
X62646Y-43567D01*
X62808Y-43675D01*
X63000Y-43713D01*
X63191Y-43675D01*
X63353Y-43567D01*
X63461Y-43405D01*
X63500Y-43213D01*
X63538Y-43405D01*
X63646Y-43567D01*
X63808Y-43675D01*
X64000Y-43713D01*
X64191Y-43675D01*
X64353Y-43567D01*
X64461Y-43405D01*
X64500Y-43213D01*
X64538Y-43405D01*
X64646Y-43567D01*
X64808Y-43675D01*
X65000Y-43713D01*
X65191Y-43675D01*
X65353Y-43567D01*
X65461Y-43405D01*
X65500Y-43213D01*
X65538Y-43405D01*
X65646Y-43567D01*
X65808Y-43675D01*
X66000Y-43713D01*
X66191Y-43675D01*
X66353Y-43567D01*
X66461Y-43405D01*
X66500Y-43213D01*
X66538Y-43405D01*
X66646Y-43567D01*
X66808Y-43675D01*
X67000Y-43713D01*
X67191Y-43675D01*
X67353Y-43567D01*
X67461Y-43405D01*
X67500Y-43213D01*
X67500Y-44260D01*
X57500Y-44260D01*
X47975Y-44260D01*
X47975Y-43649D01*
X47975Y-43025D01*
X47975Y-42975D01*
X47975Y-42350D01*
X47897Y-42310D01*
X47831Y-42328D01*
X47664Y-42428D01*
X47547Y-42585D01*
X47500Y-42775D01*
X47452Y-42585D01*
X47335Y-42428D01*
X47168Y-42328D01*
X47102Y-42310D01*
X47025Y-42350D01*
X47025Y-42975D01*
X47500Y-42975D01*
X47975Y-42975D01*
X47975Y-43025D01*
X47500Y-43025D01*
X47025Y-43025D01*
X47025Y-43649D01*
X47102Y-43689D01*
X47168Y-43671D01*
X47335Y-43571D01*
X47452Y-43414D01*
X47500Y-43225D01*
X47547Y-43414D01*
X47664Y-43571D01*
X47831Y-43671D01*
X47897Y-43689D01*
X47975Y-43649D01*
X47975Y-44260D01*
X46975Y-44260D01*
X46975Y-43649D01*
X46975Y-43025D01*
X46500Y-43025D01*
X46500Y-42975D01*
X46975Y-42975D01*
X46975Y-42350D01*
X46897Y-42310D01*
X46831Y-42328D01*
X46664Y-42428D01*
X46547Y-42585D01*
X46500Y-42775D01*
X46500Y-42786D01*
X46461Y-42594D01*
X46353Y-42432D01*
X46191Y-42324D01*
X46000Y-42286D01*
X45808Y-42324D01*
X45646Y-42432D01*
X45538Y-42594D01*
X45500Y-42786D01*
X45461Y-42594D01*
X45353Y-42432D01*
X45191Y-42324D01*
X45000Y-42286D01*
X44808Y-42324D01*
X44646Y-42432D01*
X44538Y-42594D01*
X44500Y-42786D01*
X44461Y-42594D01*
X44353Y-42432D01*
X44191Y-42324D01*
X44000Y-42286D01*
X43808Y-42324D01*
X43646Y-42432D01*
X43538Y-42594D01*
X43500Y-42786D01*
X43500Y-43213D01*
X43538Y-43405D01*
X43646Y-43567D01*
X43808Y-43675D01*
X44000Y-43713D01*
X44191Y-43675D01*
X44353Y-43567D01*
X44461Y-43405D01*
X44500Y-43213D01*
X44538Y-43405D01*
X44646Y-43567D01*
X44808Y-43675D01*
X45000Y-43713D01*
X45191Y-43675D01*
X45353Y-43567D01*
X45461Y-43405D01*
X45500Y-43213D01*
X45538Y-43405D01*
X45646Y-43567D01*
X45808Y-43675D01*
X46000Y-43713D01*
X46191Y-43675D01*
X46353Y-43567D01*
X46461Y-43405D01*
X46500Y-43213D01*
X46500Y-43225D01*
X46547Y-43414D01*
X46664Y-43571D01*
X46831Y-43671D01*
X46897Y-43689D01*
X46975Y-43649D01*
X46975Y-44260D01*
X40700Y-44260D01*
X40700Y-32363D01*
X40595Y-32105D01*
X40591Y-32100D01*
X40486Y-32048D01*
X40451Y-32084D01*
X40451Y-32013D01*
X40399Y-31908D01*
X40142Y-31800D01*
X39863Y-31799D01*
X39605Y-31904D01*
X39600Y-31908D01*
X39548Y-32013D01*
X40000Y-32464D01*
X40451Y-32013D01*
X40451Y-32084D01*
X40035Y-32500D01*
X40486Y-32951D01*
X40591Y-32899D01*
X40699Y-32642D01*
X40700Y-32363D01*
X40700Y-44260D01*
X40451Y-44260D01*
X40451Y-32986D01*
X40000Y-32535D01*
X39964Y-32570D01*
X39964Y-32500D01*
X39513Y-32048D01*
X39408Y-32100D01*
X39300Y-32357D01*
X39299Y-32636D01*
X39404Y-32894D01*
X39408Y-32899D01*
X39513Y-32951D01*
X39964Y-32500D01*
X39964Y-32570D01*
X39548Y-32986D01*
X39600Y-33091D01*
X39857Y-33199D01*
X40136Y-33200D01*
X40394Y-33095D01*
X40399Y-33091D01*
X40451Y-32986D01*
X40451Y-44260D01*
X39100Y-44260D01*
X39100Y-34183D01*
X38857Y-33594D01*
X38762Y-33500D01*
X38855Y-33407D01*
X39099Y-32819D01*
X39100Y-32183D01*
X38857Y-31594D01*
X38407Y-31144D01*
X37819Y-30900D01*
X37183Y-30899D01*
X36594Y-31142D01*
X36144Y-31592D01*
X36050Y-31818D01*
X36050Y-31606D01*
X36049Y-31387D01*
X35967Y-31190D01*
X35878Y-31156D01*
X35843Y-31192D01*
X35843Y-31121D01*
X35809Y-31032D01*
X35606Y-30949D01*
X35387Y-30950D01*
X35190Y-31032D01*
X35156Y-31121D01*
X35500Y-31464D01*
X35843Y-31121D01*
X35843Y-31192D01*
X35535Y-31500D01*
X35878Y-31843D01*
X35967Y-31809D01*
X36050Y-31606D01*
X36050Y-31818D01*
X35900Y-32180D01*
X35899Y-32816D01*
X36142Y-33405D01*
X36237Y-33499D01*
X36144Y-33592D01*
X36093Y-33714D01*
X36055Y-33675D01*
X35843Y-33587D01*
X35843Y-31878D01*
X35500Y-31535D01*
X35464Y-31570D01*
X35464Y-31500D01*
X35121Y-31156D01*
X35032Y-31190D01*
X34949Y-31393D01*
X34950Y-31612D01*
X35032Y-31809D01*
X35121Y-31843D01*
X35464Y-31500D01*
X35464Y-31570D01*
X35156Y-31878D01*
X35190Y-31967D01*
X35393Y-32050D01*
X35612Y-32049D01*
X35809Y-31967D01*
X35843Y-31878D01*
X35843Y-33587D01*
X35779Y-33561D01*
X35481Y-33560D01*
X34103Y-33560D01*
X33827Y-33674D01*
X33616Y-33885D01*
X33502Y-34161D01*
X33501Y-34459D01*
X33501Y-35837D01*
X33552Y-35960D01*
X33468Y-35960D01*
X33468Y-35649D01*
X33468Y-34350D01*
X33467Y-34271D01*
X33437Y-34197D01*
X33381Y-34141D01*
X33307Y-34110D01*
X32654Y-34111D01*
X32604Y-34161D01*
X32604Y-34975D01*
X33418Y-34975D01*
X33468Y-34925D01*
X33468Y-34350D01*
X33468Y-35649D01*
X33468Y-35075D01*
X33418Y-35025D01*
X32604Y-35025D01*
X32604Y-35839D01*
X32654Y-35889D01*
X33307Y-35889D01*
X33381Y-35858D01*
X33437Y-35802D01*
X33467Y-35728D01*
X33468Y-35649D01*
X33468Y-35960D01*
X33031Y-35960D01*
X32957Y-35991D01*
X32901Y-36047D01*
X32871Y-36121D01*
X32870Y-36200D01*
X32871Y-36775D01*
X32921Y-36825D01*
X33685Y-36825D01*
X33735Y-36825D01*
X33785Y-36825D01*
X33835Y-36825D01*
X34599Y-36825D01*
X34649Y-36775D01*
X34649Y-36439D01*
X35778Y-36439D01*
X36054Y-36325D01*
X36265Y-36114D01*
X36379Y-35838D01*
X36380Y-35642D01*
X36592Y-35855D01*
X37180Y-36099D01*
X37816Y-36100D01*
X38405Y-35857D01*
X38855Y-35407D01*
X39099Y-34819D01*
X39100Y-34183D01*
X39100Y-44260D01*
X37477Y-44260D01*
X37477Y-42819D01*
X37334Y-42459D01*
X37318Y-42436D01*
X37185Y-42350D01*
X37149Y-42385D01*
X37149Y-42314D01*
X37063Y-42181D01*
X36707Y-42027D01*
X36319Y-42022D01*
X35959Y-42165D01*
X35936Y-42181D01*
X35850Y-42314D01*
X36500Y-42964D01*
X37149Y-42314D01*
X37149Y-42385D01*
X36535Y-43000D01*
X37185Y-43649D01*
X37318Y-43563D01*
X37472Y-43207D01*
X37477Y-42819D01*
X37477Y-44260D01*
X37149Y-44260D01*
X37149Y-43685D01*
X36500Y-43035D01*
X36464Y-43070D01*
X36464Y-43000D01*
X35814Y-42350D01*
X35681Y-42436D01*
X35527Y-42792D01*
X35522Y-43180D01*
X35665Y-43540D01*
X35681Y-43563D01*
X35814Y-43649D01*
X36464Y-43000D01*
X36464Y-43070D01*
X35850Y-43685D01*
X35936Y-43818D01*
X36292Y-43972D01*
X36680Y-43977D01*
X37040Y-43834D01*
X37063Y-43818D01*
X37149Y-43685D01*
X37149Y-44260D01*
X34649Y-44260D01*
X34649Y-37499D01*
X34649Y-36925D01*
X34599Y-36875D01*
X33785Y-36875D01*
X33785Y-37689D01*
X33835Y-37739D01*
X34488Y-37739D01*
X34562Y-37708D01*
X34618Y-37652D01*
X34648Y-37578D01*
X34649Y-37499D01*
X34649Y-44260D01*
X33735Y-44260D01*
X33735Y-37689D01*
X33735Y-36875D01*
X32921Y-36875D01*
X32871Y-36925D01*
X32870Y-37499D01*
X32871Y-37578D01*
X32901Y-37652D01*
X32957Y-37708D01*
X33031Y-37739D01*
X33685Y-37739D01*
X33735Y-37689D01*
X33735Y-44260D01*
X32554Y-44260D01*
X32554Y-35839D01*
X32554Y-35025D01*
X32554Y-34975D01*
X32554Y-34161D01*
X32504Y-34111D01*
X31850Y-34110D01*
X31776Y-34141D01*
X31720Y-34197D01*
X31690Y-34271D01*
X31689Y-34350D01*
X31690Y-34925D01*
X31740Y-34975D01*
X32554Y-34975D01*
X32554Y-35025D01*
X31740Y-35025D01*
X31690Y-35075D01*
X31689Y-35649D01*
X31690Y-35728D01*
X31720Y-35802D01*
X31776Y-35858D01*
X31850Y-35889D01*
X32504Y-35889D01*
X32554Y-35839D01*
X32554Y-44260D01*
X31240Y-44260D01*
X31240Y-22740D01*
X71260Y-22740D01*
X71260Y-44260D01*
M02*
