G04 (created by PCBNEW (2012-oct-18)-testing) date Fri 23 Nov 2012 17:27:54 GMT*
%MOIN*%
G04 Gerber Fmt 3.4, Leading zero omitted, Abs format*
%FSLAX34Y34*%
G01*
G70*
G90*
G04 APERTURE LIST*
%ADD10C,2.3622e-06*%
%ADD11C,0.012*%
G04 APERTURE END LIST*
G54D10*
G54D11*
X42114Y-32471D02*
X42114Y-32928D01*
X42114Y-33214D02*
X42114Y-33671D01*
X42342Y-33957D02*
X41742Y-33957D01*
X42342Y-34300D02*
X42000Y-34042D01*
X41742Y-34300D02*
X42085Y-33957D01*
X42028Y-34557D02*
X42028Y-34757D01*
X42342Y-34842D02*
X42342Y-34557D01*
X41742Y-34557D01*
X41742Y-34842D01*
X42057Y-35214D02*
X42342Y-35214D01*
X41742Y-35014D02*
X42057Y-35214D01*
X41742Y-35414D01*
X42342Y-35614D02*
X41742Y-35614D01*
X41742Y-35842D01*
X41771Y-35900D01*
X41800Y-35928D01*
X41857Y-35957D01*
X41942Y-35957D01*
X42000Y-35928D01*
X42028Y-35900D01*
X42057Y-35842D01*
X42057Y-35614D01*
X42171Y-36185D02*
X42171Y-36471D01*
X42342Y-36128D02*
X41742Y-36328D01*
X42342Y-36528D01*
X42342Y-36728D02*
X41742Y-36728D01*
X41742Y-36871D01*
X41771Y-36957D01*
X41828Y-37014D01*
X41885Y-37042D01*
X42000Y-37071D01*
X42085Y-37071D01*
X42200Y-37042D01*
X42257Y-37014D01*
X42314Y-36957D01*
X42342Y-36871D01*
X42342Y-36728D01*
X42114Y-37328D02*
X42114Y-37785D01*
X42114Y-38071D02*
X42114Y-38528D01*
X45471Y-32442D02*
X45414Y-32442D01*
X45357Y-32471D01*
X45328Y-32500D01*
X45300Y-32557D01*
X45271Y-32671D01*
X45271Y-32814D01*
X45300Y-32928D01*
X45328Y-32985D01*
X45357Y-33014D01*
X45414Y-33042D01*
X45471Y-33042D01*
X45528Y-33014D01*
X45557Y-32985D01*
X45585Y-32928D01*
X45614Y-32814D01*
X45614Y-32671D01*
X45585Y-32557D01*
X45557Y-32500D01*
X45528Y-32471D01*
X45471Y-32442D01*
X44928Y-32700D02*
X44985Y-32671D01*
X45014Y-32642D01*
X45042Y-32585D01*
X45042Y-32557D01*
X45014Y-32500D01*
X44985Y-32471D01*
X44928Y-32442D01*
X44814Y-32442D01*
X44757Y-32471D01*
X44728Y-32500D01*
X44700Y-32557D01*
X44700Y-32585D01*
X44728Y-32642D01*
X44757Y-32671D01*
X44814Y-32700D01*
X44928Y-32700D01*
X44985Y-32728D01*
X45014Y-32757D01*
X45042Y-32814D01*
X45042Y-32928D01*
X45014Y-32985D01*
X44985Y-33014D01*
X44928Y-33042D01*
X44814Y-33042D01*
X44757Y-33014D01*
X44728Y-32985D01*
X44700Y-32928D01*
X44700Y-32814D01*
X44728Y-32757D01*
X44757Y-32728D01*
X44814Y-32700D01*
X44442Y-32985D02*
X44414Y-33014D01*
X44442Y-33042D01*
X44471Y-33014D01*
X44442Y-32985D01*
X44442Y-33042D01*
X44442Y-32671D02*
X44414Y-32700D01*
X44442Y-32728D01*
X44471Y-32700D01*
X44442Y-32671D01*
X44442Y-32728D01*
X43357Y-32985D02*
X43385Y-33014D01*
X43471Y-33042D01*
X43528Y-33042D01*
X43614Y-33014D01*
X43671Y-32957D01*
X43700Y-32900D01*
X43728Y-32785D01*
X43728Y-32700D01*
X43700Y-32585D01*
X43671Y-32528D01*
X43614Y-32471D01*
X43528Y-32442D01*
X43471Y-32442D01*
X43385Y-32471D01*
X43357Y-32500D01*
X43157Y-32442D02*
X42785Y-32442D01*
X42985Y-32671D01*
X42900Y-32671D01*
X42842Y-32700D01*
X42814Y-32728D01*
X42785Y-32785D01*
X42785Y-32928D01*
X42814Y-32985D01*
X42842Y-33014D01*
X42900Y-33042D01*
X43071Y-33042D01*
X43128Y-33014D01*
X43157Y-32985D01*
X45471Y-33402D02*
X45414Y-33402D01*
X45357Y-33431D01*
X45328Y-33460D01*
X45300Y-33517D01*
X45271Y-33631D01*
X45271Y-33774D01*
X45300Y-33888D01*
X45328Y-33945D01*
X45357Y-33974D01*
X45414Y-34002D01*
X45471Y-34002D01*
X45528Y-33974D01*
X45557Y-33945D01*
X45585Y-33888D01*
X45614Y-33774D01*
X45614Y-33631D01*
X45585Y-33517D01*
X45557Y-33460D01*
X45528Y-33431D01*
X45471Y-33402D01*
X44985Y-34002D02*
X44871Y-34002D01*
X44814Y-33974D01*
X44785Y-33945D01*
X44728Y-33860D01*
X44700Y-33745D01*
X44700Y-33517D01*
X44728Y-33460D01*
X44757Y-33431D01*
X44814Y-33402D01*
X44928Y-33402D01*
X44985Y-33431D01*
X45014Y-33460D01*
X45042Y-33517D01*
X45042Y-33660D01*
X45014Y-33717D01*
X44985Y-33745D01*
X44928Y-33774D01*
X44814Y-33774D01*
X44757Y-33745D01*
X44728Y-33717D01*
X44700Y-33660D01*
X44442Y-33945D02*
X44414Y-33974D01*
X44442Y-34002D01*
X44471Y-33974D01*
X44442Y-33945D01*
X44442Y-34002D01*
X44442Y-33631D02*
X44414Y-33660D01*
X44442Y-33688D01*
X44471Y-33660D01*
X44442Y-33631D01*
X44442Y-33688D01*
X43357Y-34002D02*
X43557Y-33717D01*
X43700Y-34002D02*
X43700Y-33402D01*
X43471Y-33402D01*
X43414Y-33431D01*
X43385Y-33460D01*
X43357Y-33517D01*
X43357Y-33602D01*
X43385Y-33660D01*
X43414Y-33688D01*
X43471Y-33717D01*
X43700Y-33717D01*
X42785Y-34002D02*
X43128Y-34002D01*
X42957Y-34002D02*
X42957Y-33402D01*
X43014Y-33488D01*
X43071Y-33545D01*
X43128Y-33574D01*
X45271Y-34962D02*
X45614Y-34962D01*
X45442Y-34962D02*
X45442Y-34362D01*
X45500Y-34448D01*
X45557Y-34505D01*
X45614Y-34534D01*
X44900Y-34362D02*
X44842Y-34362D01*
X44785Y-34391D01*
X44757Y-34420D01*
X44728Y-34477D01*
X44700Y-34591D01*
X44700Y-34734D01*
X44728Y-34848D01*
X44757Y-34905D01*
X44785Y-34934D01*
X44842Y-34962D01*
X44900Y-34962D01*
X44957Y-34934D01*
X44985Y-34905D01*
X45014Y-34848D01*
X45042Y-34734D01*
X45042Y-34591D01*
X45014Y-34477D01*
X44985Y-34420D01*
X44957Y-34391D01*
X44900Y-34362D01*
X44442Y-34905D02*
X44414Y-34934D01*
X44442Y-34962D01*
X44471Y-34934D01*
X44442Y-34905D01*
X44442Y-34962D01*
X44442Y-34591D02*
X44414Y-34620D01*
X44442Y-34648D01*
X44471Y-34620D01*
X44442Y-34591D01*
X44442Y-34648D01*
X43357Y-34962D02*
X43557Y-34677D01*
X43700Y-34962D02*
X43700Y-34362D01*
X43471Y-34362D01*
X43414Y-34391D01*
X43385Y-34420D01*
X43357Y-34477D01*
X43357Y-34562D01*
X43385Y-34620D01*
X43414Y-34648D01*
X43471Y-34677D01*
X43700Y-34677D01*
X42842Y-34562D02*
X42842Y-34962D01*
X42985Y-34334D02*
X43128Y-34762D01*
X42757Y-34762D01*
X45271Y-35922D02*
X45614Y-35922D01*
X45442Y-35922D02*
X45442Y-35322D01*
X45500Y-35408D01*
X45557Y-35465D01*
X45614Y-35494D01*
X44700Y-35922D02*
X45042Y-35922D01*
X44871Y-35922D02*
X44871Y-35322D01*
X44928Y-35408D01*
X44985Y-35465D01*
X45042Y-35494D01*
X44442Y-35865D02*
X44414Y-35894D01*
X44442Y-35922D01*
X44471Y-35894D01*
X44442Y-35865D01*
X44442Y-35922D01*
X44442Y-35551D02*
X44414Y-35580D01*
X44442Y-35608D01*
X44471Y-35580D01*
X44442Y-35551D01*
X44442Y-35608D01*
X43357Y-35865D02*
X43385Y-35894D01*
X43471Y-35922D01*
X43528Y-35922D01*
X43614Y-35894D01*
X43671Y-35837D01*
X43700Y-35780D01*
X43728Y-35665D01*
X43728Y-35580D01*
X43700Y-35465D01*
X43671Y-35408D01*
X43614Y-35351D01*
X43528Y-35322D01*
X43471Y-35322D01*
X43385Y-35351D01*
X43357Y-35380D01*
X43128Y-35380D02*
X43100Y-35351D01*
X43042Y-35322D01*
X42900Y-35322D01*
X42842Y-35351D01*
X42814Y-35380D01*
X42785Y-35437D01*
X42785Y-35494D01*
X42814Y-35580D01*
X43157Y-35922D01*
X42785Y-35922D01*
X45271Y-36882D02*
X45614Y-36882D01*
X45442Y-36882D02*
X45442Y-36282D01*
X45500Y-36368D01*
X45557Y-36425D01*
X45614Y-36454D01*
X45042Y-36340D02*
X45014Y-36311D01*
X44957Y-36282D01*
X44814Y-36282D01*
X44757Y-36311D01*
X44728Y-36340D01*
X44700Y-36397D01*
X44700Y-36454D01*
X44728Y-36540D01*
X45071Y-36882D01*
X44700Y-36882D01*
X44442Y-36825D02*
X44414Y-36854D01*
X44442Y-36882D01*
X44471Y-36854D01*
X44442Y-36825D01*
X44442Y-36882D01*
X44442Y-36511D02*
X44414Y-36540D01*
X44442Y-36568D01*
X44471Y-36540D01*
X44442Y-36511D01*
X44442Y-36568D01*
X43357Y-36882D02*
X43557Y-36597D01*
X43700Y-36882D02*
X43700Y-36282D01*
X43471Y-36282D01*
X43414Y-36311D01*
X43385Y-36340D01*
X43357Y-36397D01*
X43357Y-36482D01*
X43385Y-36540D01*
X43414Y-36568D01*
X43471Y-36597D01*
X43700Y-36597D01*
X43128Y-36340D02*
X43100Y-36311D01*
X43042Y-36282D01*
X42900Y-36282D01*
X42842Y-36311D01*
X42814Y-36340D01*
X42785Y-36397D01*
X42785Y-36454D01*
X42814Y-36540D01*
X43157Y-36882D01*
X42785Y-36882D01*
X45271Y-37842D02*
X45614Y-37842D01*
X45442Y-37842D02*
X45442Y-37242D01*
X45500Y-37328D01*
X45557Y-37385D01*
X45614Y-37414D01*
X45071Y-37242D02*
X44700Y-37242D01*
X44900Y-37471D01*
X44814Y-37471D01*
X44757Y-37500D01*
X44728Y-37528D01*
X44700Y-37585D01*
X44700Y-37728D01*
X44728Y-37785D01*
X44757Y-37814D01*
X44814Y-37842D01*
X44985Y-37842D01*
X45042Y-37814D01*
X45071Y-37785D01*
X44442Y-37785D02*
X44414Y-37814D01*
X44442Y-37842D01*
X44471Y-37814D01*
X44442Y-37785D01*
X44442Y-37842D01*
X44442Y-37471D02*
X44414Y-37500D01*
X44442Y-37528D01*
X44471Y-37500D01*
X44442Y-37471D01*
X44442Y-37528D01*
X43357Y-37842D02*
X43557Y-37557D01*
X43700Y-37842D02*
X43700Y-37242D01*
X43471Y-37242D01*
X43414Y-37271D01*
X43385Y-37300D01*
X43357Y-37357D01*
X43357Y-37442D01*
X43385Y-37500D01*
X43414Y-37528D01*
X43471Y-37557D01*
X43700Y-37557D01*
X43157Y-37242D02*
X42785Y-37242D01*
X42985Y-37471D01*
X42900Y-37471D01*
X42842Y-37500D01*
X42814Y-37528D01*
X42785Y-37585D01*
X42785Y-37728D01*
X42814Y-37785D01*
X42842Y-37814D01*
X42900Y-37842D01*
X43071Y-37842D01*
X43128Y-37814D01*
X43157Y-37785D01*
X45271Y-38802D02*
X45614Y-38802D01*
X45442Y-38802D02*
X45442Y-38202D01*
X45500Y-38288D01*
X45557Y-38345D01*
X45614Y-38374D01*
X44757Y-38402D02*
X44757Y-38802D01*
X44900Y-38174D02*
X45042Y-38602D01*
X44671Y-38602D01*
X44442Y-38745D02*
X44414Y-38774D01*
X44442Y-38802D01*
X44471Y-38774D01*
X44442Y-38745D01*
X44442Y-38802D01*
X44442Y-38431D02*
X44414Y-38460D01*
X44442Y-38488D01*
X44471Y-38460D01*
X44442Y-38431D01*
X44442Y-38488D01*
X43357Y-38745D02*
X43385Y-38774D01*
X43471Y-38802D01*
X43528Y-38802D01*
X43614Y-38774D01*
X43671Y-38717D01*
X43700Y-38660D01*
X43728Y-38545D01*
X43728Y-38460D01*
X43700Y-38345D01*
X43671Y-38288D01*
X43614Y-38231D01*
X43528Y-38202D01*
X43471Y-38202D01*
X43385Y-38231D01*
X43357Y-38260D01*
X42785Y-38802D02*
X43128Y-38802D01*
X42957Y-38802D02*
X42957Y-38202D01*
X43014Y-38288D01*
X43071Y-38345D01*
X43128Y-38374D01*
X49957Y-33042D02*
X50300Y-33042D01*
X50128Y-33042D02*
X50128Y-32442D01*
X50185Y-32528D01*
X50242Y-32585D01*
X50300Y-32614D01*
X49700Y-32985D02*
X49671Y-33014D01*
X49700Y-33042D01*
X49728Y-33014D01*
X49700Y-32985D01*
X49700Y-33042D01*
X49700Y-32671D02*
X49671Y-32700D01*
X49700Y-32728D01*
X49728Y-32700D01*
X49700Y-32671D01*
X49700Y-32728D01*
X48957Y-33042D02*
X48957Y-32442D01*
X48614Y-33042D02*
X48871Y-32700D01*
X48614Y-32442D02*
X48957Y-32785D01*
X48357Y-32728D02*
X48157Y-32728D01*
X48071Y-33042D02*
X48357Y-33042D01*
X48357Y-32442D01*
X48071Y-32442D01*
X47700Y-32757D02*
X47700Y-33042D01*
X47900Y-32442D02*
X47700Y-32757D01*
X47500Y-32442D01*
X47328Y-33014D02*
X47242Y-33042D01*
X47100Y-33042D01*
X47042Y-33014D01*
X47014Y-32985D01*
X46985Y-32928D01*
X46985Y-32871D01*
X47014Y-32814D01*
X47042Y-32785D01*
X47100Y-32757D01*
X47214Y-32728D01*
X47271Y-32700D01*
X47300Y-32671D01*
X47328Y-32614D01*
X47328Y-32557D01*
X47300Y-32500D01*
X47271Y-32471D01*
X47214Y-32442D01*
X47071Y-32442D01*
X46985Y-32471D01*
X46785Y-32442D02*
X46642Y-33042D01*
X46528Y-32614D01*
X46414Y-33042D01*
X46271Y-32442D01*
X49385Y-33460D02*
X49357Y-33431D01*
X49300Y-33402D01*
X49157Y-33402D01*
X49100Y-33431D01*
X49071Y-33460D01*
X49042Y-33517D01*
X49042Y-33574D01*
X49071Y-33660D01*
X49414Y-34002D01*
X49042Y-34002D01*
X48785Y-33945D02*
X48757Y-33974D01*
X48785Y-34002D01*
X48814Y-33974D01*
X48785Y-33945D01*
X48785Y-34002D01*
X48785Y-33631D02*
X48757Y-33660D01*
X48785Y-33688D01*
X48814Y-33660D01*
X48785Y-33631D01*
X48785Y-33688D01*
X47757Y-33402D02*
X48042Y-33402D01*
X48071Y-33688D01*
X48042Y-33660D01*
X47985Y-33631D01*
X47842Y-33631D01*
X47785Y-33660D01*
X47757Y-33688D01*
X47728Y-33745D01*
X47728Y-33888D01*
X47757Y-33945D01*
X47785Y-33974D01*
X47842Y-34002D01*
X47985Y-34002D01*
X48042Y-33974D01*
X48071Y-33945D01*
X47557Y-33402D02*
X47357Y-34002D01*
X47157Y-33402D01*
X49714Y-34362D02*
X49342Y-34362D01*
X49542Y-34591D01*
X49457Y-34591D01*
X49400Y-34620D01*
X49371Y-34648D01*
X49342Y-34705D01*
X49342Y-34848D01*
X49371Y-34905D01*
X49400Y-34934D01*
X49457Y-34962D01*
X49628Y-34962D01*
X49685Y-34934D01*
X49714Y-34905D01*
X49085Y-34905D02*
X49057Y-34934D01*
X49085Y-34962D01*
X49114Y-34934D01*
X49085Y-34905D01*
X49085Y-34962D01*
X49085Y-34591D02*
X49057Y-34620D01*
X49085Y-34648D01*
X49114Y-34620D01*
X49085Y-34591D01*
X49085Y-34648D01*
X48342Y-34962D02*
X48342Y-34362D01*
X48114Y-34362D01*
X48057Y-34391D01*
X48028Y-34420D01*
X48000Y-34477D01*
X48000Y-34562D01*
X48028Y-34620D01*
X48057Y-34648D01*
X48114Y-34677D01*
X48342Y-34677D01*
X47628Y-34362D02*
X47514Y-34362D01*
X47457Y-34391D01*
X47400Y-34448D01*
X47371Y-34562D01*
X47371Y-34762D01*
X47400Y-34877D01*
X47457Y-34934D01*
X47514Y-34962D01*
X47628Y-34962D01*
X47685Y-34934D01*
X47742Y-34877D01*
X47771Y-34762D01*
X47771Y-34562D01*
X47742Y-34448D01*
X47685Y-34391D01*
X47628Y-34362D01*
X47200Y-34362D02*
X46857Y-34362D01*
X47028Y-34962D02*
X47028Y-34362D01*
X49471Y-35522D02*
X49471Y-35922D01*
X49614Y-35294D02*
X49757Y-35722D01*
X49385Y-35722D01*
X49157Y-35865D02*
X49128Y-35894D01*
X49157Y-35922D01*
X49185Y-35894D01*
X49157Y-35865D01*
X49157Y-35922D01*
X49157Y-35551D02*
X49128Y-35580D01*
X49157Y-35608D01*
X49185Y-35580D01*
X49157Y-35551D01*
X49157Y-35608D01*
X48099Y-35351D02*
X48157Y-35322D01*
X48242Y-35322D01*
X48328Y-35351D01*
X48385Y-35408D01*
X48414Y-35465D01*
X48442Y-35580D01*
X48442Y-35665D01*
X48414Y-35780D01*
X48385Y-35837D01*
X48328Y-35894D01*
X48242Y-35922D01*
X48185Y-35922D01*
X48099Y-35894D01*
X48071Y-35865D01*
X48071Y-35665D01*
X48185Y-35665D01*
X47814Y-35922D02*
X47814Y-35322D01*
X47471Y-35922D01*
X47471Y-35322D01*
X47185Y-35922D02*
X47185Y-35322D01*
X47042Y-35322D01*
X46957Y-35351D01*
X46900Y-35408D01*
X46871Y-35465D01*
X46842Y-35580D01*
X46842Y-35665D01*
X46871Y-35780D01*
X46900Y-35837D01*
X46957Y-35894D01*
X47042Y-35922D01*
X47185Y-35922D01*
X49414Y-36282D02*
X49700Y-36282D01*
X49728Y-36568D01*
X49700Y-36540D01*
X49642Y-36511D01*
X49500Y-36511D01*
X49442Y-36540D01*
X49414Y-36568D01*
X49385Y-36625D01*
X49385Y-36768D01*
X49414Y-36825D01*
X49442Y-36854D01*
X49500Y-36882D01*
X49642Y-36882D01*
X49700Y-36854D01*
X49728Y-36825D01*
X49128Y-36825D02*
X49099Y-36854D01*
X49128Y-36882D01*
X49157Y-36854D01*
X49128Y-36825D01*
X49128Y-36882D01*
X49128Y-36511D02*
X49099Y-36540D01*
X49128Y-36568D01*
X49157Y-36540D01*
X49128Y-36511D01*
X49128Y-36568D01*
X48414Y-36854D02*
X48328Y-36882D01*
X48185Y-36882D01*
X48128Y-36854D01*
X48100Y-36825D01*
X48071Y-36768D01*
X48071Y-36711D01*
X48100Y-36654D01*
X48128Y-36625D01*
X48185Y-36597D01*
X48300Y-36568D01*
X48357Y-36540D01*
X48385Y-36511D01*
X48414Y-36454D01*
X48414Y-36397D01*
X48385Y-36340D01*
X48357Y-36311D01*
X48300Y-36282D01*
X48157Y-36282D01*
X48071Y-36311D01*
X47814Y-36882D02*
X47814Y-36282D01*
X47585Y-36282D01*
X47528Y-36311D01*
X47499Y-36340D01*
X47471Y-36397D01*
X47471Y-36482D01*
X47499Y-36540D01*
X47528Y-36568D01*
X47585Y-36597D01*
X47814Y-36597D01*
X47214Y-36882D02*
X47214Y-36282D01*
X46871Y-36882D02*
X47128Y-36540D01*
X46871Y-36282D02*
X47214Y-36625D01*
X49385Y-37242D02*
X49500Y-37242D01*
X49557Y-37271D01*
X49585Y-37300D01*
X49642Y-37385D01*
X49671Y-37500D01*
X49671Y-37728D01*
X49642Y-37785D01*
X49614Y-37814D01*
X49557Y-37842D01*
X49442Y-37842D01*
X49385Y-37814D01*
X49357Y-37785D01*
X49328Y-37728D01*
X49328Y-37585D01*
X49357Y-37528D01*
X49385Y-37500D01*
X49442Y-37471D01*
X49557Y-37471D01*
X49614Y-37500D01*
X49642Y-37528D01*
X49671Y-37585D01*
X49071Y-37785D02*
X49042Y-37814D01*
X49071Y-37842D01*
X49100Y-37814D01*
X49071Y-37785D01*
X49071Y-37842D01*
X49071Y-37471D02*
X49042Y-37500D01*
X49071Y-37528D01*
X49100Y-37500D01*
X49071Y-37471D01*
X49071Y-37528D01*
X48385Y-37242D02*
X48014Y-37242D01*
X48214Y-37471D01*
X48128Y-37471D01*
X48071Y-37500D01*
X48042Y-37528D01*
X48014Y-37585D01*
X48014Y-37728D01*
X48042Y-37785D01*
X48071Y-37814D01*
X48128Y-37842D01*
X48300Y-37842D01*
X48357Y-37814D01*
X48385Y-37785D01*
X47842Y-37242D02*
X47642Y-37842D01*
X47442Y-37242D01*
X47300Y-37242D02*
X46928Y-37242D01*
X47128Y-37471D01*
X47042Y-37471D01*
X46985Y-37500D01*
X46957Y-37528D01*
X46928Y-37585D01*
X46928Y-37728D01*
X46957Y-37785D01*
X46985Y-37814D01*
X47042Y-37842D01*
X47214Y-37842D01*
X47271Y-37814D01*
X47300Y-37785D01*
X49714Y-38202D02*
X49314Y-38202D01*
X49571Y-38802D01*
X49085Y-38745D02*
X49057Y-38774D01*
X49085Y-38802D01*
X49114Y-38774D01*
X49085Y-38745D01*
X49085Y-38802D01*
X49085Y-38431D02*
X49057Y-38460D01*
X49085Y-38488D01*
X49114Y-38460D01*
X49085Y-38431D01*
X49085Y-38488D01*
X48057Y-38802D02*
X48342Y-38802D01*
X48342Y-38202D01*
X47514Y-38745D02*
X47542Y-38774D01*
X47628Y-38802D01*
X47685Y-38802D01*
X47771Y-38774D01*
X47828Y-38717D01*
X47857Y-38660D01*
X47885Y-38545D01*
X47885Y-38460D01*
X47857Y-38345D01*
X47828Y-38288D01*
X47771Y-38231D01*
X47685Y-38202D01*
X47628Y-38202D01*
X47542Y-38231D01*
X47514Y-38260D01*
X47257Y-38802D02*
X47257Y-38202D01*
X47114Y-38202D01*
X47028Y-38231D01*
X46971Y-38288D01*
X46942Y-38345D01*
X46914Y-38460D01*
X46914Y-38545D01*
X46942Y-38660D01*
X46971Y-38717D01*
X47028Y-38774D01*
X47114Y-38802D01*
X47257Y-38802D01*
X49614Y-32042D02*
X49614Y-31442D01*
X49385Y-31442D01*
X49328Y-31471D01*
X49299Y-31500D01*
X49271Y-31557D01*
X49271Y-31642D01*
X49299Y-31700D01*
X49328Y-31728D01*
X49385Y-31757D01*
X49614Y-31757D01*
X49014Y-31728D02*
X48814Y-31728D01*
X48728Y-32042D02*
X49014Y-32042D01*
X49014Y-31442D01*
X48728Y-31442D01*
X48128Y-32042D02*
X48328Y-31757D01*
X48471Y-32042D02*
X48471Y-31442D01*
X48242Y-31442D01*
X48185Y-31471D01*
X48157Y-31500D01*
X48128Y-31557D01*
X48128Y-31642D01*
X48157Y-31700D01*
X48185Y-31728D01*
X48242Y-31757D01*
X48471Y-31757D01*
X47871Y-32042D02*
X47871Y-31442D01*
X47585Y-32042D02*
X47585Y-31442D01*
X47357Y-31442D01*
X47300Y-31471D01*
X47271Y-31500D01*
X47242Y-31557D01*
X47242Y-31642D01*
X47271Y-31700D01*
X47300Y-31728D01*
X47357Y-31757D01*
X47585Y-31757D01*
X46985Y-32042D02*
X46985Y-31442D01*
X46985Y-31728D02*
X46642Y-31728D01*
X46642Y-32042D02*
X46642Y-31442D01*
X46385Y-32014D02*
X46300Y-32042D01*
X46157Y-32042D01*
X46100Y-32014D01*
X46071Y-31985D01*
X46042Y-31928D01*
X46042Y-31871D01*
X46071Y-31814D01*
X46100Y-31785D01*
X46157Y-31757D01*
X46271Y-31728D01*
X46328Y-31700D01*
X46357Y-31671D01*
X46385Y-31614D01*
X46385Y-31557D01*
X46357Y-31500D01*
X46328Y-31471D01*
X46271Y-31442D01*
X46128Y-31442D01*
X46042Y-31471D01*
X45328Y-32042D02*
X45328Y-31442D01*
X45099Y-31442D01*
X45042Y-31471D01*
X45014Y-31500D01*
X44985Y-31557D01*
X44985Y-31642D01*
X45014Y-31700D01*
X45042Y-31728D01*
X45099Y-31757D01*
X45328Y-31757D01*
X44728Y-32042D02*
X44728Y-31442D01*
X44442Y-32042D02*
X44442Y-31442D01*
X44100Y-32042D01*
X44100Y-31442D01*
X43700Y-31442D02*
X43585Y-31442D01*
X43528Y-31471D01*
X43471Y-31528D01*
X43442Y-31642D01*
X43442Y-31842D01*
X43471Y-31957D01*
X43528Y-32014D01*
X43585Y-32042D01*
X43700Y-32042D01*
X43757Y-32014D01*
X43814Y-31957D01*
X43842Y-31842D01*
X43842Y-31642D01*
X43814Y-31528D01*
X43757Y-31471D01*
X43700Y-31442D01*
X43185Y-31442D02*
X43185Y-31928D01*
X43157Y-31985D01*
X43128Y-32014D01*
X43071Y-32042D01*
X42957Y-32042D01*
X42900Y-32014D01*
X42871Y-31985D01*
X42842Y-31928D01*
X42842Y-31442D01*
X42642Y-31442D02*
X42300Y-31442D01*
X42471Y-32042D02*
X42471Y-31442D01*
X43242Y-28442D02*
X43528Y-28442D01*
X43557Y-28728D01*
X43528Y-28700D01*
X43471Y-28671D01*
X43328Y-28671D01*
X43271Y-28700D01*
X43242Y-28728D01*
X43214Y-28785D01*
X43214Y-28928D01*
X43242Y-28985D01*
X43271Y-29014D01*
X43328Y-29042D01*
X43471Y-29042D01*
X43528Y-29014D01*
X43557Y-28985D01*
X42957Y-28985D02*
X42928Y-29014D01*
X42957Y-29042D01*
X42985Y-29014D01*
X42957Y-28985D01*
X42957Y-29042D01*
X42957Y-28671D02*
X42928Y-28700D01*
X42957Y-28728D01*
X42985Y-28700D01*
X42957Y-28671D01*
X42957Y-28728D01*
X42300Y-28442D02*
X41957Y-28442D01*
X42128Y-29042D02*
X42128Y-28442D01*
X41814Y-28442D02*
X41414Y-29042D01*
X41414Y-28442D02*
X41814Y-29042D01*
X46142Y-28642D02*
X46142Y-29042D01*
X46285Y-28414D02*
X46428Y-28842D01*
X46057Y-28842D01*
X45828Y-28985D02*
X45799Y-29014D01*
X45828Y-29042D01*
X45857Y-29014D01*
X45828Y-28985D01*
X45828Y-29042D01*
X45828Y-28671D02*
X45799Y-28700D01*
X45828Y-28728D01*
X45857Y-28700D01*
X45828Y-28671D01*
X45828Y-28728D01*
X44742Y-29042D02*
X44942Y-28757D01*
X45085Y-29042D02*
X45085Y-28442D01*
X44857Y-28442D01*
X44800Y-28471D01*
X44771Y-28500D01*
X44742Y-28557D01*
X44742Y-28642D01*
X44771Y-28700D01*
X44800Y-28728D01*
X44857Y-28757D01*
X45085Y-28757D01*
X44542Y-28442D02*
X44142Y-29042D01*
X44142Y-28442D02*
X44542Y-29042D01*
X50471Y-28442D02*
X50100Y-28442D01*
X50300Y-28671D01*
X50214Y-28671D01*
X50157Y-28700D01*
X50128Y-28728D01*
X50100Y-28785D01*
X50100Y-28928D01*
X50128Y-28985D01*
X50157Y-29014D01*
X50214Y-29042D01*
X50385Y-29042D01*
X50442Y-29014D01*
X50471Y-28985D01*
X49842Y-28985D02*
X49814Y-29014D01*
X49842Y-29042D01*
X49871Y-29014D01*
X49842Y-28985D01*
X49842Y-29042D01*
X49842Y-28671D02*
X49814Y-28700D01*
X49842Y-28728D01*
X49871Y-28700D01*
X49842Y-28671D01*
X49842Y-28728D01*
X49100Y-28814D02*
X48642Y-28814D01*
X48871Y-29042D02*
X48871Y-28585D01*
X48042Y-29042D02*
X48385Y-29042D01*
X48214Y-29042D02*
X48214Y-28442D01*
X48271Y-28528D01*
X48328Y-28585D01*
X48385Y-28614D01*
X47528Y-28442D02*
X47642Y-28442D01*
X47700Y-28471D01*
X47728Y-28500D01*
X47785Y-28585D01*
X47814Y-28700D01*
X47814Y-28928D01*
X47785Y-28985D01*
X47757Y-29014D01*
X47700Y-29042D01*
X47585Y-29042D01*
X47528Y-29014D01*
X47500Y-28985D01*
X47471Y-28928D01*
X47471Y-28785D01*
X47500Y-28728D01*
X47528Y-28700D01*
X47585Y-28671D01*
X47700Y-28671D01*
X47757Y-28700D01*
X47785Y-28728D01*
X47814Y-28785D01*
X47299Y-28442D02*
X47099Y-29042D01*
X46899Y-28442D01*
X47142Y-27500D02*
X47114Y-27471D01*
X47057Y-27442D01*
X46914Y-27442D01*
X46857Y-27471D01*
X46828Y-27500D01*
X46800Y-27557D01*
X46800Y-27614D01*
X46828Y-27700D01*
X47171Y-28042D01*
X46800Y-28042D01*
X46542Y-27985D02*
X46514Y-28014D01*
X46542Y-28042D01*
X46571Y-28014D01*
X46542Y-27985D01*
X46542Y-28042D01*
X46542Y-27671D02*
X46514Y-27700D01*
X46542Y-27728D01*
X46571Y-27700D01*
X46542Y-27671D01*
X46542Y-27728D01*
X45685Y-27442D02*
X45628Y-27442D01*
X45571Y-27471D01*
X45542Y-27500D01*
X45514Y-27557D01*
X45485Y-27671D01*
X45485Y-27814D01*
X45514Y-27928D01*
X45542Y-27985D01*
X45571Y-28014D01*
X45628Y-28042D01*
X45685Y-28042D01*
X45742Y-28014D01*
X45771Y-27985D01*
X45800Y-27928D01*
X45828Y-27814D01*
X45828Y-27671D01*
X45800Y-27557D01*
X45771Y-27500D01*
X45742Y-27471D01*
X45685Y-27442D01*
X45314Y-27442D02*
X45114Y-28042D01*
X44914Y-27442D01*
X44285Y-28014D02*
X44199Y-28042D01*
X44057Y-28042D01*
X43999Y-28014D01*
X43971Y-27985D01*
X43942Y-27928D01*
X43942Y-27871D01*
X43971Y-27814D01*
X43999Y-27785D01*
X44057Y-27757D01*
X44171Y-27728D01*
X44228Y-27700D01*
X44257Y-27671D01*
X44285Y-27614D01*
X44285Y-27557D01*
X44257Y-27500D01*
X44228Y-27471D01*
X44171Y-27442D01*
X44028Y-27442D01*
X43942Y-27471D01*
X43685Y-27728D02*
X43485Y-27728D01*
X43399Y-28042D02*
X43685Y-28042D01*
X43685Y-27442D01*
X43399Y-27442D01*
X43142Y-28042D02*
X43142Y-27442D01*
X42799Y-28042D01*
X42799Y-27442D01*
X42542Y-28014D02*
X42457Y-28042D01*
X42314Y-28042D01*
X42257Y-28014D01*
X42228Y-27985D01*
X42199Y-27928D01*
X42199Y-27871D01*
X42228Y-27814D01*
X42257Y-27785D01*
X42314Y-27757D01*
X42428Y-27728D01*
X42485Y-27700D01*
X42514Y-27671D01*
X42542Y-27614D01*
X42542Y-27557D01*
X42514Y-27500D01*
X42485Y-27471D01*
X42428Y-27442D01*
X42285Y-27442D01*
X42199Y-27471D01*
X41942Y-27728D02*
X41742Y-27728D01*
X41657Y-28042D02*
X41942Y-28042D01*
X41942Y-27442D01*
X41657Y-27442D01*
X50142Y-28042D02*
X50485Y-28042D01*
X50314Y-28042D02*
X50314Y-27442D01*
X50371Y-27528D01*
X50428Y-27585D01*
X50485Y-27614D01*
X49885Y-27985D02*
X49857Y-28014D01*
X49885Y-28042D01*
X49914Y-28014D01*
X49885Y-27985D01*
X49885Y-28042D01*
X49885Y-27671D02*
X49857Y-27700D01*
X49885Y-27728D01*
X49914Y-27700D01*
X49885Y-27671D01*
X49885Y-27728D01*
X49028Y-27442D02*
X48971Y-27442D01*
X48914Y-27471D01*
X48885Y-27500D01*
X48857Y-27557D01*
X48828Y-27671D01*
X48828Y-27814D01*
X48857Y-27928D01*
X48885Y-27985D01*
X48914Y-28014D01*
X48971Y-28042D01*
X49028Y-28042D01*
X49085Y-28014D01*
X49114Y-27985D01*
X49142Y-27928D01*
X49171Y-27814D01*
X49171Y-27671D01*
X49142Y-27557D01*
X49114Y-27500D01*
X49085Y-27471D01*
X49028Y-27442D01*
X48657Y-27442D02*
X48457Y-28042D01*
X48257Y-27442D01*
X50071Y-26728D02*
X50271Y-26728D01*
X50271Y-27042D02*
X50271Y-26442D01*
X49985Y-26442D01*
X49471Y-27042D02*
X49757Y-27042D01*
X49757Y-26442D01*
X49157Y-26442D02*
X49042Y-26442D01*
X48985Y-26471D01*
X48928Y-26528D01*
X48899Y-26642D01*
X48899Y-26842D01*
X48928Y-26957D01*
X48985Y-27014D01*
X49042Y-27042D01*
X49157Y-27042D01*
X49214Y-27014D01*
X49271Y-26957D01*
X49299Y-26842D01*
X49299Y-26642D01*
X49271Y-26528D01*
X49214Y-26471D01*
X49157Y-26442D01*
X48699Y-26442D02*
X48557Y-27042D01*
X48442Y-26614D01*
X48328Y-27042D01*
X48185Y-26442D01*
X47957Y-27042D02*
X47957Y-26442D01*
X47757Y-26871D01*
X47557Y-26442D01*
X47557Y-27042D01*
X47271Y-26728D02*
X47071Y-26728D01*
X46985Y-27042D02*
X47271Y-27042D01*
X47271Y-26442D01*
X46985Y-26442D01*
X46814Y-26442D02*
X46471Y-26442D01*
X46642Y-27042D02*
X46642Y-26442D01*
X46271Y-26728D02*
X46071Y-26728D01*
X45985Y-27042D02*
X46271Y-27042D01*
X46271Y-26442D01*
X45985Y-26442D01*
X45385Y-27042D02*
X45585Y-26757D01*
X45728Y-27042D02*
X45728Y-26442D01*
X45499Y-26442D01*
X45442Y-26471D01*
X45414Y-26500D01*
X45385Y-26557D01*
X45385Y-26642D01*
X45414Y-26700D01*
X45442Y-26728D01*
X45499Y-26757D01*
X45728Y-26757D01*
X44671Y-27042D02*
X44671Y-26442D01*
X44442Y-26442D01*
X44385Y-26471D01*
X44357Y-26500D01*
X44328Y-26557D01*
X44328Y-26642D01*
X44357Y-26700D01*
X44385Y-26728D01*
X44442Y-26757D01*
X44671Y-26757D01*
X44071Y-27042D02*
X44071Y-26442D01*
X43785Y-27042D02*
X43785Y-26442D01*
X43442Y-27042D01*
X43442Y-26442D01*
X43042Y-26442D02*
X42928Y-26442D01*
X42871Y-26471D01*
X42814Y-26528D01*
X42785Y-26642D01*
X42785Y-26842D01*
X42814Y-26957D01*
X42871Y-27014D01*
X42928Y-27042D01*
X43042Y-27042D01*
X43100Y-27014D01*
X43157Y-26957D01*
X43185Y-26842D01*
X43185Y-26642D01*
X43157Y-26528D01*
X43100Y-26471D01*
X43042Y-26442D01*
X42528Y-26442D02*
X42528Y-26928D01*
X42500Y-26985D01*
X42471Y-27014D01*
X42414Y-27042D01*
X42300Y-27042D01*
X42242Y-27014D01*
X42214Y-26985D01*
X42185Y-26928D01*
X42185Y-26442D01*
X41985Y-26442D02*
X41642Y-26442D01*
X41814Y-27042D02*
X41814Y-26442D01*
M02*
