M48
;DRILL file {Pcbnew (2012-oct-18)-testing} date Fri 23 Nov 2012 13:16:58 GMT
;FORMAT={-:-/ absolute / inch / decimal}
FMAT,2
INCH,TZ
T1C0.020
T2C0.032
T3C0.040
T4C0.045
T5C0.055
T6C0.120
T7C0.125
T8C0.140
%
G90
G05
M72
T1
X3.2Y-2.4
X3.2Y-2.7
X3.2Y-3.
X3.2Y-3.3
X3.2Y-3.9
X3.2Y-4.2
X3.5Y-2.4
X3.5Y-3.
X3.5Y-3.3
X3.5Y-3.9
X3.5Y-4.2
X3.8Y-3.9
X3.8Y-4.2
X3.9Y-2.4
X4.1Y-2.7
X4.1Y-3.
X4.1Y-3.3
X4.1Y-3.6
X4.1Y-3.9
X4.1Y-4.2
X4.2Y-2.3
X4.4Y-2.7
X4.4Y-3.
X4.4Y-3.3
X4.4Y-3.6
X4.4Y-4.2
X4.5Y-2.3
X4.55Y-4.375
X4.6Y-3.9
X4.7Y-3.
X4.7Y-3.3
X4.7Y-3.55
X4.75Y-4.375
X4.84Y-4.1
X5.Y-2.7
X5.Y-3.3
X5.06Y-3.55
X5.1Y-2.3
X5.13Y-3.84
X5.25Y-3.7
X5.25Y-4.375
X5.3Y-2.7
X5.3Y-3.
X5.3Y-3.3
X5.3Y-4.2
X5.4Y-2.3
X5.4Y-3.5
X5.4Y-3.85
X5.45Y-4.375
X5.55Y-4.
X5.6Y-3.
X5.6Y-3.6
X5.65Y-4.375
X5.7Y-2.3
X5.7Y-3.85
X5.85Y-4.
X5.9Y-3.6
X6.Y-2.3
X6.Y-3.85
X6.1Y-2.75
X6.15Y-3.4
X6.15Y-3.69
X6.15Y-4.
X6.15Y-4.375
X6.2Y-2.9
X6.2Y-3.6
X6.25Y-3.
X6.25Y-3.15
X6.3Y-2.3
X6.3Y-4.1
X6.35Y-4.375
X6.36Y-3.69
X6.365Y-2.81
X6.45Y-3.
X6.45Y-3.2
X6.45Y-3.7
X6.45Y-3.85
X6.525Y-2.8
X6.525Y-3.95
X6.525Y-4.075
X6.55Y-4.375
X6.6Y-3.7
X6.6Y-3.85
X6.65Y-2.8
X6.7Y-4.125
X6.71Y-3.6
X7.05Y-2.4
X7.05Y-2.65
X7.05Y-2.9
X7.05Y-3.2
X7.05Y-3.5
X7.05Y-3.8
X7.05Y-4.1
T2
X4.Y-2.65
X4.Y-3.25
X4.04Y-2.4
X4.14Y-2.4
X4.24Y-2.4
X4.34Y-2.4
X4.4Y-4.3
X4.44Y-2.4
X4.5Y-4.3
X4.54Y-2.4
X4.6Y-4.3
X4.64Y-2.4
X4.7Y-4.3
X4.74Y-2.4
X4.8Y-4.3
X4.9Y-2.4
X4.9Y-4.3
X5.Y-2.4
X5.1Y-2.4
X5.1Y-4.3
X5.2Y-2.4
X5.2Y-4.3
X5.3Y-2.4
X5.3Y-4.3
X5.4Y-2.4
X5.4Y-4.3
X5.5Y-2.4
X5.5Y-2.65
X5.5Y-3.25
X5.5Y-4.3
X5.6Y-2.4
X5.6Y-4.3
X5.7Y-4.3
X5.8Y-2.4
X5.8Y-4.3
X5.9Y-2.4
X5.975Y-2.625
X5.975Y-2.925
X6.Y-2.4
X6.Y-4.3
X6.1Y-2.4
X6.1Y-4.3
X6.2Y-2.4
X6.2Y-4.3
X6.215Y-2.695
X6.3Y-2.4
X6.3Y-4.3
X6.315Y-2.695
X6.4Y-2.4
X6.4Y-4.3
X6.415Y-2.695
X6.5Y-2.4
X6.5Y-4.3
X6.515Y-2.695
X6.565Y-2.9
X6.565Y-3.
X6.565Y-3.1
X6.565Y-3.2
X6.565Y-3.3
X6.565Y-3.4
X6.565Y-3.5
X6.6Y-4.3
X6.615Y-2.695
X6.665Y-2.9
X6.665Y-3.
X6.665Y-3.1
X6.665Y-3.2
X6.665Y-3.3
X6.665Y-3.4
X6.665Y-3.5
X6.7Y-4.3
X6.8Y-2.4
X6.8Y-2.5
X6.8Y-2.6
X6.8Y-2.7
X6.8Y-2.8
X6.8Y-2.9
X6.8Y-3.
X6.8Y-3.1
X6.8Y-3.2
X6.8Y-3.3
X6.8Y-3.4
X6.8Y-3.5
X6.8Y-3.6
X6.8Y-3.7
X6.8Y-3.8
X6.8Y-3.9
X6.8Y-4.
X6.8Y-4.1
X6.9Y-2.4
X6.9Y-2.5
X6.9Y-2.6
X6.9Y-2.7
X6.9Y-2.8
X6.9Y-2.9
X6.9Y-3.
X6.9Y-3.1
X6.9Y-3.2
X6.9Y-3.3
X6.9Y-3.4
X6.9Y-3.5
X6.9Y-3.6
X6.9Y-3.7
X6.9Y-3.8
X6.9Y-3.9
X6.9Y-4.
X6.9Y-4.1
T3
X5.975Y-3.1559
X5.975Y-3.25
X5.975Y-3.3441
T4
X3.55Y-2.65
X3.55Y-3.15
T5
X3.75Y-2.65
X3.75Y-2.85
X3.75Y-3.25
X3.75Y-3.45
X5.75Y-2.65
X5.75Y-2.85
X5.75Y-3.25
X5.75Y-3.45
T6
X3.25Y-3.5
X3.378Y-3.689
T7
X3.65Y-4.3
X3.7Y-2.4
X6.65Y-2.4
X6.9Y-4.3
T8
X3.4961Y-3.5
T0
M30
